<svg width="1480" height="586" viewBox="0 0 1480 586" fill="none" xmlns="http://www.w3.org/2000/svg">
<mask id="mask0_6264_7482" style="mask-type:alpha" maskUnits="userSpaceOnUse" x="0" y="0" width="1480" height="586">
<rect width="1480" height="586" fill="#D9D9D9"/>
</mask>
<g mask="url(#mask0_6264_7482)">
<g opacity="0.6" filter="url(#filter0_f_6264_7482)">
<path d="M295.5 338C573.023 338 481 490.895 481 679.5C481 868.105 573.023 1021 295.5 1021C17.9769 1021 -207 868.105 -207 679.5C-207 490.895 17.9769 338 295.5 338Z" fill="url(#paint0_linear_6264_7482)"/>
</g>
<g opacity="0.6" filter="url(#filter1_f_6264_7482)">
<path d="M1397.5 -166C1675.02 -166 1583 -13.1053 1583 175.5C1583 364.105 1675.02 517 1397.5 517C1119.98 517 895 364.105 895 175.5C895 -13.1053 1119.98 -166 1397.5 -166Z" fill="url(#paint1_linear_6264_7482)"/>
</g>
<g opacity="0.2">
<path d="M-178.725 -29.201C-141.915 -28.4412 -107.381 -24.35 -74.378 -18.3849C-51.2087 -14.1974 -28.8673 -9.43559 -5.59395 -5.32823C10.452 -2.49628 27.119 0.100205 44.1515 1.96091C56.2066 3.27656 69.3996 3.2209 81.2009 1.56196C96.1488 -0.540822 110.775 -2.87602 125.887 -4.85167C136.545 -6.24702 147.959 -6.59824 159.978 -6.38322C189.089 -5.85868 216.435 -2.57151 243.772 0.92069C266.998 3.88651 290.124 6.97048 313.54 9.7051C340.751 12.8823 368.142 15.882 395.645 18.6802C412.62 20.4093 429.888 21.7567 447.139 23.0252C461.168 24.057 475.363 25.0835 489.488 25.4594C512.585 26.0708 534.756 24.9003 553.187 20.4364C564.59 17.6727 570.294 13.3748 574.35 8.83993C579.132 3.49506 578.37 -1.98735 575.758 -7.62464C572.539 -14.5711 570.06 -21.5437 568.085 -28.5099C566.964 -32.4649 566.452 -36.4882 567.534 -40.3762C569.098 -46.0171 576.455 -50.8475 588.561 -54.6003C609.475 -61.0865 635.484 -63.9496 664.316 -64.9932C682.416 -65.6487 700.531 -65.0288 718.419 -64.0114C747.503 -62.356 774.715 -58.2009 799.418 -52.4997C826.565 -46.2345 849.168 -38.298 865.829 -28.6677C877.469 -21.9367 884.621 -14.7807 888.198 -7.28176C892.215 1.14518 890.453 9.46975 889.063 17.7557C888.088 23.5814 884.184 29.2749 881.894 35.0504C880.257 39.195 878.942 43.3668 877.829 47.5455C876.133 53.9302 876.048 60.4372 872.854 66.6952C869.544 73.1923 873.236 79.774 872.14 86.2872C871.19 91.9922 873.24 97.8696 875.17 103.654C878.309 113.029 882.361 122.375 887.959 131.715C893.03 140.167 899.103 148.526 906.606 156.807C916.048 167.231 926.277 177.596 944.488 186.974C955.334 192.557 969.412 197.161 987.65 199.714C1007.45 202.488 1027.86 204.72 1048.16 206.994C1081.21 210.697 1111.97 215.93 1138.02 224.051C1156.21 229.722 1171.54 236.252 1185.48 243.14C1203.49 252.035 1217.64 261.566 1230.17 271.283C1241.16 279.802 1250.87 288.496 1258.02 297.437C1263.88 304.773 1268.87 312.096 1271.9 319.571C1274.65 326.377 1274.77 333.113 1272.84 339.722C1270.1 349.064 1259.24 357.143 1238.18 363.33C1217.34 369.451 1192.72 373.737 1169.7 378.811C1153.86 382.304 1138.71 386.159 1123.93 390.126C1102.49 395.884 1082.23 402.125 1060.41 407.718C1040.56 412.812 1016.8 415.444 991.059 415.936C964.409 416.444 937.532 415.304 910.744 414.267C898.398 413.789 886.067 413.131 873.74 412.503C854.98 411.548 836.191 410.681 817.492 409.523C799.22 408.392 780.899 407.206 762.877 405.579C732.221 402.809 702.719 398.748 677.362 391.836C653.223 385.258 636.352 376.887 625.686 367.194C614.133 356.697 608.539 345.832 600.158 335.136C587.103 318.486 566.802 302.862 528.717 290.149C510.259 283.988 489.954 278.615 468.131 273.871C429.193 265.405 390.036 257.034 351.875 248.165C334.794 244.193 318.819 239.454 304.206 234.45C276.022 224.8 251.077 214.296 232.848 202.211C219.079 193.084 209.713 183.551 202.902 173.816C199.234 168.581 198.276 163.197 196.129 157.881C193.944 152.479 191.164 147.077 189.778 141.673C187.672 133.471 183.472 125.359 177.611 117.282C171.334 108.633 162.704 100.205 149.114 92.3788C142.316 88.4627 134.234 84.6703 125.164 81.2873C116.694 78.13 105.523 75.999 92.5463 75.9917C82.5763 75.9843 73.6525 77.1713 65.2851 78.669C49.4673 81.5012 33.6774 84.3614 18.1921 87.3778C-8.67009 92.6105 -38.1306 95.7612 -69.3268 97.1753C-92.6276 98.2317 -116.693 97.7657 -140.349 96.2843C-156.407 95.278 -172.123 93.2488 -187.994 91.6761" stroke="white" stroke-width="0.448571" stroke-linecap="round" stroke-linejoin="round"/>
<path d="M1454.74 867.009C1441.68 865.792 1428.61 864.585 1415.56 863.351C1400.19 861.896 1384.82 860.432 1369.47 858.945C1353.34 857.382 1337.27 855.684 1321.07 854.241C1308.6 853.13 1295.94 852.339 1283.39 851.369C1272.1 850.498 1260.86 849.52 1249.54 848.694C1242.4 848.173 1235.18 847.738 1227.98 847.441C1197.9 846.203 1167.82 844.867 1137.73 843.891C1118.43 843.265 1099.08 843.163 1079.77 842.902C1066.62 842.724 1053.48 842.703 1040.33 842.568C1024.87 842.412 1009.41 842.236 993.947 842.017C982.88 841.859 971.801 841.671 960.721 841.398C938.839 840.863 916.927 840.522 895.096 839.611C875.534 838.796 856.07 837.284 836.547 836.157C812.245 834.754 788.38 832.555 765.144 829.529C749.564 827.499 734.221 825.137 719.255 822.569C682.368 816.239 652.736 806.705 623.635 796.937C591.213 786.051 556.317 776.175 518.402 767.538C484.656 759.852 450.195 752.554 417.896 744.09C392.527 737.442 370.798 729.706 351.087 721.322C335.702 714.78 324.966 707.385 319.422 699.398C313.526 690.896 319.108 683.563 337.317 677.866C349.324 674.109 361.919 670.557 374.469 666.998C400.34 659.665 423.878 651.59 441.843 641.897C447.071 639.08 449.94 635.585 451.864 632.223C453.996 628.5 448.364 625.296 439.82 622.523C425.848 617.992 409.142 614.827 393.423 611.174C363.147 604.138 336.861 595.981 322.71 584.273C316.772 579.36 312.399 574.389 311.517 569.189C310.899 565.554 309.019 561.878 309.453 558.289C311.772 539.273 331.104 522.974 370.175 509.794C389.455 503.29 410.296 497.566 436.508 494.329C449.997 492.663 464.011 491.735 479.178 491.785C524.182 491.93 563.944 497.42 600.276 506.843C616.983 511.175 629.252 516.585 633.645 523.455C635.596 526.509 636.123 529.566 635.167 532.786C631.988 543.466 617.426 552.408 604.554 561.631C586.522 574.548 566.6 587.153 553.696 600.909C550.856 603.94 548.018 607.039 546.922 610.216C544.772 616.426 553.273 621.434 568.832 625.106C592.438 630.673 616.688 635.91 640.168 641.537C658.299 645.882 675.872 650.519 693.322 655.185C730.755 665.19 766.142 676.126 807.96 684.093C832.397 688.748 857.696 692.495 884.5 694.983C901.838 696.592 919.081 698.165 936.847 698.814C955.365 699.491 973.868 700.651 992.379 701.117C1008.88 701.533 1025.38 701.282 1041.89 701.334C1053.24 701.37 1064.63 701.55 1075.92 701.429C1092.49 701.254 1109.05 701 1125.5 700.534C1142.14 700.063 1158.64 699.302 1175.18 698.65C1187.87 698.15 1200.55 697.634 1213.22 697.109C1239.35 696.028 1265.49 694.941 1291.62 693.852C1309.73 693.097 1327.78 692.215 1345.98 691.622C1357.22 691.254 1368.66 691.282 1380.04 691.203C1397.58 691.079 1415.11 690.847 1432.69 690.984C1444.47 691.078 1456.35 691.731 1468.18 692.134" stroke="white" stroke-width="0.448571" stroke-linecap="round" stroke-linejoin="round"/>
<path d="M1488.93 421.857C1477.81 418.815 1467.12 415.558 1455.48 412.776C1435.29 407.953 1414.43 403.463 1394 398.758C1376.5 394.729 1357.41 391.085 1348.15 384.273C1343.11 380.563 1339.64 376.542 1337.45 372.588C1334.27 366.88 1333.21 361.101 1330.7 355.364C1326.98 346.886 1322.48 338.423 1318.87 329.943C1314.1 318.74 1305.31 307.771 1294.87 296.916C1286.93 288.655 1278.32 280.433 1268.86 272.318C1260.48 265.117 1250.81 258.051 1241.22 250.99C1221.47 236.447 1196.45 222.909 1163.79 210.986C1139.41 202.087 1112.31 194.273 1081.4 187.974C1061.1 183.835 1041.32 179.328 1022.08 174.618C995.978 168.227 976.702 159.86 962.77 150.212C946.254 138.777 935.844 126.832 929.907 114.547C927.046 108.62 923.983 102.684 922.14 96.7432C920.588 91.7443 920.355 86.7256 920.091 81.7248C919.751 75.3572 919.359 68.9771 920.102 62.6464C920.838 56.3939 922.695 50.1795 924.543 43.9757C926.117 38.6917 928.569 33.4592 930.263 28.182C931.956 22.9182 933.161 17.6244 934.652 12.3484C935.209 10.3874 936.738 8.44868 936.496 6.48478C935.394 -2.51813 934.706 -11.507 926.445 -20.4323C915.347 -32.4311 895.672 -42.6719 869.25 -51.8001C848.231 -59.0613 824.368 -64.9202 798.522 -69.8662C777.399 -73.9084 755.283 -76.9931 732.023 -79.2226C708.936 -81.4355 685.636 -82.0565 662.611 -82.3277C642.07 -82.5684 621.64 -81.3169 601.323 -80.4451C576.22 -79.3691 552.297 -76.9806 529.661 -73.5946C507.612 -70.294 486.932 -66.2607 476.698 -58.4139C473.927 -56.2932 471.625 -53.9892 470.836 -51.6633C468.835 -45.724 471.352 -39.736 474.569 -33.7432C477.589 -28.119 481.662 -22.4724 480.291 -16.7979C478.459 -9.2267 468.018 -4.0828 442.91 -2.85023C420.465 -1.74843 398.956 -3.90212 377.387 -6.36039C336.095 -11.0682 301.949 -19.7274 270.132 -29.6472C248.817 -36.2918 225.091 -41.5762 198.475 -45.141C189.986 -46.2784 180.609 -46.5466 171.612 -47.1557C164.954 -47.6067 158.241 -48.2191 151.594 -48.3186C128.453 -48.6586 105.412 -48.8224 82.6247 -47.6782C57.1817 -46.4003 31.5144 -45.4407 5.79092 -44.6316C-5.35231 -44.2793 -16.8574 -44.6118 -28.215 -44.7071C-37.2228 -44.7817 -46.2648 -44.8034 -55.2602 -45.1369C-72.2365 -45.7666 -89.1992 -46.5742 -106.156 -47.3627C-115.16 -47.7802 -124.146 -48.5266 -133.129 -48.7355C-147.054 -49.0586 -160.966 -49.0599 -174.879 -49.1477C-175.707 -49.1516 -176.464 -48.7155 -177.258 -48.4859" stroke="white" stroke-width="0.448571" stroke-linecap="round" stroke-linejoin="round"/>
<path d="M724.048 -126.977C729.173 -126.586 734.332 -126.248 739.429 -125.799C756.347 -124.302 773.576 -123.145 790.088 -121.169C828.352 -116.589 866.103 -111.405 904.401 -106.859C927.605 -104.104 951.404 -102.037 974.99 -99.7479C1003.12 -97.0173 1031.5 -94.6295 1059.43 -91.6385C1097.79 -87.5303 1135.23 -82.2244 1166.07 -72.9863C1191.15 -65.4734 1211.25 -56.5849 1222.75 -45.715C1229.74 -39.113 1235.32 -32.4855 1239.08 -25.745C1241.65 -21.1164 1241.64 -16.3926 1242.92 -11.7108C1246.83 2.48751 1243.47 16.495 1242.64 30.5673C1242.23 37.6008 1240.7 44.5961 1239.57 51.6052C1238.75 56.7338 1237.91 61.8645 1236.82 66.9814C1235.43 73.5546 1233.89 80.12 1232.22 86.6786C1230.97 91.625 1229.2 96.5432 1228.07 101.494C1226.23 109.508 1224.18 117.514 1223.23 125.567C1222.3 133.434 1225.97 141.336 1232.31 149.058C1241.24 159.935 1255.02 170.275 1271.26 180.361C1285.56 189.235 1298.89 198.298 1310.95 207.491C1327.64 220.204 1343.34 233.054 1358.31 245.968C1368.29 254.574 1376.32 263.391 1385.13 272.122C1399.31 286.179 1412.94 300.29 1427.75 314.287C1435.64 321.744 1444.94 329.087 1454.65 336.346C1464.48 343.682 1475.84 350.807 1489.95 357.446C1491.64 358.241 1492.46 359.233 1493.68 360.134" stroke="white" stroke-width="0.448571" stroke-linecap="round" stroke-linejoin="round"/>
<path d="M1492.05 381.223C1482.83 377.041 1472.93 372.995 1464.54 368.646C1452.06 362.176 1439.78 355.631 1428.94 348.871C1407.8 335.681 1394.87 321.557 1380.78 307.568C1364.59 291.497 1348.18 275.444 1330.98 259.475C1322.63 251.735 1311.84 244.241 1302.83 236.563C1284.17 220.627 1258.8 205.752 1231.93 191.106C1216.23 182.546 1200.46 173.994 1184.35 165.512C1163.62 154.597 1150.16 142.866 1142.42 130.536C1139.89 126.515 1139.35 122.379 1138.61 118.302C1137.61 112.779 1137.5 107.26 1136.63 101.739C1135.77 96.2014 1135.2 90.65 1133.15 85.1262C1129.92 76.4532 1124.25 67.8891 1115.28 59.4852C1105.72 50.5263 1096.66 41.4954 1092.66 32.1614C1091.04 28.3757 1090.77 24.547 1090.36 20.7459C1089.63 14.0221 1090 7.3034 1088.58 0.580285C1086.32 -10.1449 1079.87 -20.6646 1064.91 -30.6691C1054.79 -37.4345 1042.86 -43.7865 1028.5 -49.7214C1014.16 -55.6475 999.018 -61.3147 981.569 -66.1907C966.193 -70.4881 950.285 -74.6228 933.744 -78.3711C916.026 -82.3892 897.5 -86.0025 878.977 -89.5617C842.817 -96.5123 805.386 -102.534 766.551 -107.241C751.446 -109.072 735.414 -109.928 719.704 -110.955C706.934 -111.79 693.985 -112.566 681.18 -112.746C663.601 -112.991 646.026 -112.79 628.544 -112.524C607.048 -112.201 585.606 -111.699 564.21 -111.113C549.906 -110.722 535.779 -109.977 521.507 -109.521C504.751 -108.984 487.914 -108.583 471.118 -108.126C440.259 -107.287 409.813 -105.82 380.242 -103.2C354.109 -100.884 328.2 -98.344 302.277 -95.821C267.204 -92.4077 231.618 -89.5765 194.876 -88.173C159.782 -86.835 124.581 -85.6762 89.3669 -84.5422C69.5273 -83.9026 49.5887 -83.4474 29.6698 -82.9538C11.6008 -82.5051 -6.4571 -82.0048 -24.6027 -81.7371C-38.7269 -81.5268 -52.9744 -81.6746 -67.1489 -81.5957C-88.0635 -81.4817 -108.99 -81.4114 -129.85 -81.128C-144.131 -80.9339 -158.294 -80.4224 -172.493 -80.0121C-173.385 -79.9858 -174.087 -79.5775 -174.881 -79.3452" stroke="white" stroke-width="0.448571" stroke-linecap="round" stroke-linejoin="round"/>
<path d="M1490.42 402.311C1481.13 399.072 1471.91 395.811 1462.52 392.598C1435.94 383.497 1413.05 373.568 1395.91 362.236C1382.56 353.407 1373.51 344.152 1364.92 334.854C1355.54 324.693 1347.43 314.425 1337.62 304.302C1325.83 292.128 1313.73 279.965 1300.07 267.974C1288.24 257.59 1274.97 247.327 1260.68 237.243C1244.29 225.674 1224.85 214.596 1201.6 204.236C1171.25 190.711 1136.52 178.483 1101.71 166.241C1073.28 156.242 1045.68 145.907 1026.83 133.552C1014.4 125.408 1004.36 116.952 998.527 108.114C994.132 101.455 989.965 94.7812 986.175 88.0962C983.912 84.1023 982.594 80.0731 980.814 76.0606C975.501 64.0861 977.654 52.247 979.135 40.4229C979.952 33.9111 983.008 27.489 985.034 21.0265C985.193 20.5187 985.128 19.9979 985.167 19.4833C985.688 12.7101 986.87 5.95417 986.6 -0.83509C985.909 -18.2383 970.969 -34.3901 937.871 -48.9267C913.571 -59.5952 883.869 -68.2084 850.837 -75.5737C825.712 -81.1758 799.448 -85.9928 771.524 -89.6887C753.894 -92.0236 736.252 -94.1833 717.728 -95.0711C700.518 -95.8952 683.271 -96.9285 666.068 -97.2634C651.071 -97.5556 636.056 -97.1379 621.161 -96.7946C602.49 -96.3637 583.773 -95.9183 565.334 -95.0689C536.715 -93.748 508.285 -92.1343 479.848 -90.5397C451.071 -88.9271 423.669 -85.9898 397.216 -82.2612C376.706 -79.3701 356.697 -76.127 336.073 -73.3208C317.01 -70.7261 296.634 -69.4863 275.482 -69.4237C255.378 -69.3658 235.252 -69.4032 215.13 -69.4054C199.658 -69.4085 184.124 -69.5894 168.72 -69.4011C145.939 -69.1211 123.218 -68.6446 100.524 -68.1374C74.396 -67.5501 48.3427 -66.7657 22.2085 -66.2029C1.60019 -65.7597 -19.0619 -65.4021 -39.7696 -65.2352C-56.4731 -65.0993 -73.2903 -65.3481 -90.0359 -65.3514C-108.877 -65.3531 -127.72 -65.3226 -146.525 -65.2043C-156.244 -65.141 -165.905 -64.8543 -175.589 -64.6683" stroke="white" stroke-width="0.448571" stroke-linecap="round" stroke-linejoin="round"/>
<path d="M1473.93 617.045C1462.18 615.613 1449.8 614.618 1438.79 612.663C1412.68 608.019 1389.42 601.918 1369.71 594.397C1348.43 586.273 1330.11 577.469 1316.07 567.82C1299.84 556.668 1284.57 545.377 1268.18 534.249C1250.75 522.413 1231.51 510.893 1206.69 500.41C1183.44 490.582 1157.92 481.433 1131.35 472.61C1117.61 468.05 1104.1 463.316 1088.9 459.376C1063.82 452.873 1035.72 448.026 1007.51 443.375C981.157 439.03 954.4 435.05 926.362 432.336C910.218 430.773 894.196 429.006 877.954 427.643C860.103 426.143 842.083 424.967 824.108 423.709C812.841 422.92 801.492 422.317 790.243 421.494C774.573 420.347 759.004 418.96 743.306 417.877C720.801 416.327 699.136 413.849 678.096 410.482C624.97 401.978 590.078 388.61 577.695 369.395C571.561 359.873 566.954 350.28 561.138 340.741C552.938 327.304 538.926 314.563 513.072 303.245C492.663 294.313 467.191 287.341 439.621 281.183C415.452 275.783 390.749 270.671 366.65 265.239C331.817 257.388 298.766 248.804 269.461 238.546C243.099 229.32 220.05 219.353 201.665 208.305C184.081 197.739 170.636 186.651 162.252 175.023C153.541 162.938 145.285 150.817 135.415 138.806C128.365 130.228 117.445 122.073 94.8148 116.267C84.0241 113.501 71.9754 111.807 58.8962 110.873C36.343 109.261 14.4549 110.274 -7.65657 110.663C-24.6137 110.961 -41.6786 111.093 -58.7471 110.976C-78.5499 110.841 -98.4877 110.797 -118.226 109.913C-142.004 108.852 -165.748 107.138 -188.585 104.021" stroke="white" stroke-width="0.448571" stroke-linecap="round" stroke-linejoin="round"/>
<path d="M1471.22 642.219C1443.42 636.856 1416.83 630.85 1393.05 623.535C1363.37 614.412 1336.39 604.425 1315.04 593.017C1297.47 583.626 1281.27 573.96 1265.34 564.271C1249.57 554.676 1233.92 545.034 1212.96 536.535C1191.75 527.933 1165.1 521.523 1135.88 516.256C1107.9 511.213 1079 506.698 1053.48 500.097C1032.27 494.609 1014.64 488.009 999.266 480.713C984.121 473.523 969.698 466.132 950.507 459.995C921.93 450.855 888.713 444.635 851.413 441.135C833.507 439.455 815.611 437.752 797.61 436.244C789.26 435.544 780.654 435.348 772.209 434.806C756.798 433.816 741.408 432.749 726.017 431.695C716.518 431.045 706.942 430.516 697.557 429.664C681.616 428.216 665.606 426.782 649.974 424.928C626.434 422.138 604.361 418.301 584.209 412.993C554.44 405.15 535.395 395.341 528.731 383.196C526.034 378.277 524.918 373.291 523.588 368.332C522.13 362.88 521.675 357.421 520.036 351.974C516.939 341.663 512.632 331.411 499.315 321.6C486.512 312.169 468.347 304.154 444.744 297.272C418.546 289.635 389.883 283.285 361.147 276.901C325.091 268.89 290.003 260.333 258.836 250.185C218.617 237.091 184.315 222.424 158.498 205.813C143.015 195.85 131.329 185.411 120.539 174.887C110.52 165.108 102.035 155.194 85.755 146.082C69.1072 136.76 45.4119 131.277 15.0411 128.421C-11.5289 125.925 -38.3235 125.274 -65.1364 124.174C-86.4875 123.298 -107.928 122.408 -129.08 120.907C-149.491 119.458 -169.584 117.217 -189.809 115.326" stroke="white" stroke-width="0.448571" stroke-linecap="round" stroke-linejoin="round"/>
<path d="M-190.774 127.669C-178.739 128.851 -166.729 130.068 -154.675 131.208C-146.512 131.978 -138.298 132.668 -130.082 133.34C-115.223 134.557 -100.346 135.731 -85.4863 136.931C-70.8733 138.11 -56.192 139.183 -41.6658 140.51C2.84848 144.574 39.0242 152.605 60.6449 166.945C75.0513 176.504 88.398 186.221 101.821 195.922C114.395 205.011 129.048 213.716 145.392 222.177C159.722 229.594 175.682 236.588 192.662 243.347C225.19 256.292 262.702 267.43 302.984 277.535C324.463 282.924 346.169 288.207 367.469 293.679C394.725 300.682 421.017 307.98 438.491 318.224C449.647 324.76 456.149 331.557 459.451 338.806C461.998 344.4 462.17 349.911 460.794 355.364C459.373 361.01 455.904 366.543 453.605 372.142C452.01 376.032 451.366 379.994 449.464 383.857C444.768 393.383 445.037 403.125 444.315 412.822C444.079 415.994 444.903 419.201 445.028 422.387C445.518 434.643 434.566 445.361 412.383 454.532C392.294 462.838 371.843 471.036 348.675 478.412C330.915 484.066 313.981 490.037 295.313 495.343C275.158 501.072 253.48 506.217 232.322 511.555C228.51 512.516 224.192 513.309 219.778 513.964C203.556 516.369 196.188 516.128 183.018 510.391C176.885 507.721 171.39 504.887 165.81 502.084C141.363 489.809 111.731 479.396 72.9684 472.074C54.122 468.514 34.7244 465.852 14.0005 464.07C-5.00158 462.44 -24.0403 461.58 -43.0766 461.278C-69.9409 460.848 -96.2984 461.963 -122.175 463.685C-155.112 465.88 -186.252 469.703 -216.993 473.834" stroke="white" stroke-width="0.448571" stroke-linecap="round" stroke-linejoin="round"/>
<path d="M-191.681 139.499C-180.675 140.646 -169.703 141.83 -158.664 142.936C-143.841 144.421 -128.917 145.765 -114.136 147.313C-71.4547 151.788 -28.607 156.16 4.25222 167.827C19.064 173.089 30.4438 179.076 40.8547 185.314C61.8999 197.925 81.6816 210.795 104.869 222.992C130.49 236.469 160.289 249.021 194.264 260.489C225.234 270.945 258.697 280.353 292.738 289.59C317.55 296.321 342.703 302.945 363.889 311.066C384.242 318.863 397.732 327.694 401.738 337.647C403.623 342.336 404.334 347.111 401.23 351.808C397.666 357.205 396.368 362.818 393.409 368.279C391.064 372.61 387.356 376.827 384.899 381.149C382.564 385.256 381.104 389.439 379.188 393.583C377.39 397.476 375.703 401.381 373.604 405.251C371.497 409.144 368.917 413 366.577 416.875C361.076 425.993 353.395 434.84 341.27 443.074C328.802 451.539 312.171 458.978 290.821 465.058C272.445 470.291 250.792 473.535 225.956 474.471C208.541 475.129 191.586 473.63 175.161 471.42C146.689 467.589 118.396 463.583 90.1758 459.516C71.9214 456.884 53.1735 455.084 34.1649 453.439C13.165 451.622 -7.97082 450.788 -29.0673 450.423C-45.6253 450.137 -62.2145 450.55 -78.6254 450.998C-105.602 451.738 -131.721 453.67 -157.177 456.293C-177.49 458.386 -197.948 460.404 -216.589 463.785" stroke="white" stroke-width="0.448571" stroke-linecap="round" stroke-linejoin="round"/>
<path d="M-192.748 153.388C-160.815 157.398 -128.728 161.252 -96.9988 165.464C-68.3812 169.264 -43.2238 175.238 -22.8094 183.011C-8.09921 188.614 3.94103 195.029 16.2276 201.28C31.1617 208.874 44.9246 216.704 59.4988 224.372C86.1406 238.394 117.039 251.362 150.857 263.587C179.294 273.867 210.583 283.112 242.165 292.276C261.65 297.929 281.081 303.688 298.67 309.979C316.948 316.517 331.415 324.117 338.655 332.681C342.296 336.986 341.74 341.57 344.341 345.975C347.176 350.775 343.328 355.241 342.793 359.858C342.277 364.317 339.259 368.676 337.458 373.085C336.632 375.115 336.285 377.178 335.376 379.2C333.02 384.452 330.65 389.706 327.965 394.933C325.182 400.349 322.355 405.766 318.944 411.125C314.915 417.463 308.871 423.543 300.656 429.338C291.46 435.826 280.235 441.767 263.715 446.383C244.645 451.708 222.339 454.238 196.576 454.489C177.042 454.68 158.36 453.195 139.511 451.44C118.282 449.464 96.9755 447.614 75.7468 445.634C56.4189 443.831 37.064 442.183 17.246 441.559C9.01352 441.3 0.751164 440.351 -7.39909 440.298C-30.7276 440.146 -53.9818 439.91 -77.1879 440.813C-111.906 442.164 -145.227 444.742 -177.509 448.624C-190.167 450.145 -202.767 451.712 -215.396 453.259" stroke="white" stroke-width="0.448571" stroke-linecap="round" stroke-linejoin="round"/>
<path d="M1495.8 332.358C1485.88 323.854 1475.09 315.432 1466.26 306.827C1455.77 296.621 1446.67 286.282 1437.52 275.959C1424.44 261.192 1412.62 246.326 1398.83 231.618C1388.54 220.638 1375.97 209.843 1364.45 198.962C1350.41 185.706 1332.38 172.856 1320.99 159.329C1315.2 152.457 1311.01 145.561 1308.52 138.537C1305.71 130.624 1306.63 122.829 1307.59 115.031C1308.27 109.463 1310.28 103.948 1311.84 98.4149C1313.1 93.9011 1314.64 89.4019 1315.93 84.8888C1317.44 79.6136 1318.98 74.3391 1320.22 69.0492C1321.96 61.6344 1323.69 54.2164 1325 46.7811C1326.4 38.7524 1327.24 30.6989 1328.5 22.6651C1329.02 19.3279 1330.49 16.0286 1330.67 12.6823C1331.02 6.0762 1331 -0.545138 1330.67 -7.17159C1330.42 -12.1719 1329.94 -17.1856 1328.71 -22.1896C1325.52 -35.1587 1321.04 -48.1287 1311.51 -60.925C1299.81 -76.6289 1282.3 -91.6825 1253.06 -105.188C1249.57 -106.801 1244.62 -108.082 1240.34 -109.517" stroke="white" stroke-width="0.448571" stroke-linecap="round" stroke-linejoin="round"/>
<path d="M-194.191 172.161C-185.527 173.575 -176.992 175.094 -168.19 176.38C-128.131 182.226 -90.1532 189.363 -60.4738 200.534C-42.6602 207.237 -27.538 214.738 -11.5965 221.972C4.60687 229.328 19.9658 236.886 36.3922 244.185C49.561 250.036 63.1808 255.805 77.6733 261.299C93.0371 267.125 108.991 272.825 125.901 278.142C149.206 285.468 173.448 292.466 197.677 299.447C218.993 305.59 239.468 311.981 256.402 319.53C273.06 326.959 283.767 335.138 288.664 344.082C292.134 350.418 294.173 356.735 293.31 363.067C292.272 370.595 292.299 378.192 289.769 385.629C285.981 396.767 279.881 407.801 265.632 417.778C253.08 426.567 235.016 433.812 205.634 436.919C192.627 438.294 179.306 439.123 165.245 438.906C161.361 438.847 157.438 439.191 153.641 438.972C134.62 437.89 115.637 436.692 96.6379 435.518C84.8241 434.788 72.9315 434.202 61.233 433.247C35.155 431.116 8.83717 430.244 -17.4202 429.662C-34.9803 429.275 -52.7199 429.359 -70.0144 429.929C-99.2539 430.888 -127.782 432.993 -155.534 435.772C-175.645 437.785 -194.939 440.54 -214.599 442.965" stroke="white" stroke-width="0.448571" stroke-linecap="round" stroke-linejoin="round"/>
<path d="M-218.368 486.937C-207.415 485.333 -196.773 483.464 -185.424 482.192C-169.619 480.421 -153.472 478.897 -137.128 477.641C-118.956 476.245 -100.496 475.129 -81.2959 475.356C-68.1418 475.513 -54.9174 475.145 -41.8747 475.77C-17.3512 476.946 6.78773 479.106 27.0259 484.758C50.4146 491.289 65.0413 499.156 64.0318 509.454C63.3316 516.607 60.1341 523.503 54.714 530.293C52.4376 533.143 51.8266 536.191 50.8213 539.174C49.8247 542.141 48.7517 545.122 48.6418 548.122C48.4096 554.481 52.2357 560.694 59.3854 566.808C68.7135 574.781 83.0849 581.753 99.7009 588.251C117.612 595.258 136.231 602.065 154.504 608.97C168.031 614.083 180.461 619.452 190.396 625.404C203.739 633.4 214.03 641.798 218.176 650.615C220.566 655.697 219.7 660.994 217.881 666.037C215.659 672.196 200.977 675.445 187.887 678.97C169.534 683.909 147.96 687.11 127.263 690.767C101.18 695.375 74.7138 699.765 48.126 704.075C15.5703 709.355 -17.7286 714.106 -54.87 715.507C-67.6511 715.99 -80.6488 716.152 -93.6036 716.248C-102.562 716.316 -111.669 716.251 -120.635 715.837C-150.697 714.451 -180.005 711.894 -207.381 706.739C-216.385 705.044 -225.436 703.372 -234.456 701.689" stroke="white" stroke-width="0.448571" stroke-linecap="round" stroke-linejoin="round"/>
<path d="M-198.253 230.04C-170.077 239.396 -141.952 248.728 -110.28 256.817C-67.048 267.86 -21.105 277.362 25.3005 286.63C55.9108 292.746 86.8772 298.642 117.48 304.763C145.491 310.369 172.111 316.735 194.748 324.705C219.132 333.294 234.357 343.472 241.404 354.852C245.648 361.706 247.71 368.522 247.751 375.441C247.802 384.883 244.025 393.925 234.617 402.589C225.469 411.018 210.6 417.681 185.966 421.582C174.911 423.334 163.051 424.286 150.841 424.391C134.205 424.535 117.329 424.37 100.641 423.71C83.1346 423.016 65.7232 421.575 48.2626 420.48C45.9675 420.337 43.6311 420.339 41.3182 420.23C28.7251 419.639 16.1235 418.767 3.54455 418.481C-34.4707 417.621 -72.0349 417.756 -108.891 420.447C-145.202 423.1 -179.314 427.453 -213.361 431.939C-213.78 431.995 -213.92 432.252 -214.189 432.413" stroke="white" stroke-width="0.448571" stroke-linecap="round" stroke-linejoin="round"/>
<path d="M1409.37 -103.76C1410.58 -99.3346 1411.59 -94.9078 1413.04 -90.4879C1414.97 -84.5684 1416.96 -78.6471 1419.45 -72.7386C1421.73 -67.3095 1424.56 -61.8919 1427.44 -56.4776C1430.89 -49.9879 1434.74 -43.5115 1438.27 -37.0246C1443.31 -27.7471 1448.54 -18.4765 1453.07 -9.18411C1456.24 -2.66612 1458.54 3.87902 1460.91 10.4157C1462.83 15.7107 1464.21 21.0143 1465.95 26.3112C1467.98 32.4851 1470.32 38.6589 1472.17 44.835C1473.29 48.5521 1473.53 52.2769 1474.53 55.9983C1475.98 61.3828 1477.89 66.7665 1479.38 72.1547C1480.02 74.4861 1480.17 76.8198 1480.42 79.1514C1480.76 82.3424 1481 85.5298 1481.25 88.7202C1481.77 95.529 1482.85 102.351 1482.61 109.137C1482.37 115.657 1480.78 122.137 1479.73 128.633C1478.82 134.188 1477.22 139.725 1477.07 145.301C1476.9 151.659 1477.75 158.05 1478.6 164.432C1479.37 170.225 1480.49 176.025 1481.92 181.819C1483.22 187.12 1485.31 192.418 1486.76 197.716C1487.78 201.435 1488.13 205.159 1489.1 208.879C1490.13 212.79 1491.69 216.698 1492.75 220.61C1493.72 224.16 1494.14 227.71 1495.12 231.258C1496.16 234.997 1497.8 238.735 1498.8 242.475C1499.98 246.888 1500.75 251.307 1501.7 255.72" stroke="white" stroke-width="0.448571" stroke-linecap="round" stroke-linejoin="round"/>
<path d="M-219.475 501.338C-218.412 500.945 -217.607 500.365 -216.251 500.184C-190.379 496.746 -164.021 493.76 -135.995 492.313C-115.051 491.233 -93.7193 491.379 -72.6032 492.763C-41.9713 494.771 -23.5429 501.123 -17.1179 509.313C-12.2851 515.469 -12.2769 521.936 -16.4662 528.106C-16.6281 528.349 -16.5058 528.621 -16.548 528.876C-17.408 533.401 -19.0506 537.91 -18.9852 542.456C-18.8004 555.944 -10.2458 568.885 10.9528 581.166C25.5639 589.63 42.755 597.471 60.466 605.216C75.4428 611.764 89.3935 618.522 99.608 625.945C106.553 630.995 111.117 636.237 112.881 641.818C116.718 653.975 102.955 663.514 80.5685 671.603C57.4924 679.939 30.5438 686.887 1.0316 692.672C-21.5864 697.104 -45.6241 700.593 -71.6784 702.569C-95.9589 704.41 -121.009 704.003 -145.926 702.562C-176.404 700.8 -204.002 696.094 -230.102 690.221C-231.295 689.953 -232.385 689.633 -233.523 689.335" stroke="white" stroke-width="0.448571" stroke-linecap="round" stroke-linejoin="round"/>
<path d="M-206.023 326.201C-192.427 327.18 -178.832 328.159 -165.235 329.133C-164.478 329.188 -163.694 329.185 -162.921 329.217C-143.127 330.062 -123.314 331.239 -103.541 331.659C-84.9484 332.052 -66.3738 331.694 -47.8179 331.578C-32.5644 331.481 -17.2629 331.446 -2.14406 331.043C21.999 330.402 46.2549 330.156 70.5652 331.557C121.084 334.472 161.921 342.446 184.41 359.12C190.328 363.508 193.416 368.149 195.171 372.871C197.932 380.302 195.844 387.364 187.255 394.006C176.046 402.668 155.495 407.078 127.385 408.243C109.928 408.967 92.3919 408.856 74.7753 407.928C55.9951 406.94 37.3257 405.394 18.5324 404.578C0.0545098 403.775 -18.542 403.439 -37.054 403.178C-48.4441 403.017 -59.7891 403.346 -71.1295 403.519C-90.7996 403.816 -109.827 405.161 -127.795 407.337C-154.541 410.574 -180.556 414.393 -206.877 417.967C-208.849 418.235 -210.793 418.52 -212.743 418.797" stroke="white" stroke-width="0.448571" stroke-linecap="round" stroke-linejoin="round"/>
<path d="M-220.573 520.637C-205.331 518.736 -190.133 516.807 -173.431 516.304C-157.704 515.832 -141.876 515.809 -127.26 518.709C-110.26 522.081 -101.612 527.519 -97.52 533.606C-91.9405 541.914 -87.1332 550.265 -82.3254 558.611C-76.0014 569.588 -62.5069 579.734 -44.293 589.271C-27.9123 597.852 -10.4222 606.217 6.18786 614.754C16.9184 620.265 26.3149 626.072 30.9413 632.364C34.2577 636.872 35.5451 641.402 33.6987 646.113C29.7061 656.295 13.9456 663.875 -6.68216 670.458C-21.2994 675.124 -36.5115 679.587 -55.3329 682.571C-74.5435 685.617 -94.0874 687.901 -116.195 688.234C-158.938 688.879 -195.569 683.344 -228.818 673.999C-230.485 673.532 -231.351 672.735 -232.59 672.091" stroke="white" stroke-width="0.448571" stroke-linecap="round" stroke-linejoin="round"/>
<path d="M1475.67 594.413C1446.88 593.777 1423.54 589.003 1402.26 582.395C1376.14 574.284 1358.51 564.373 1344.3 553.816C1324.48 539.091 1310.86 523.787 1300.69 508.243C1297.91 503.98 1298.08 499.578 1296.8 495.239C1292.7 481.31 1306.86 469.378 1326.12 458.103C1337.95 451.183 1351.57 444.664 1370.71 439.741C1385.12 436.037 1400.86 434.085 1420.62 434.607C1445.48 435.265 1465.8 439.442 1486.47 443.685" stroke="white" stroke-width="0.448571" stroke-linecap="round" stroke-linejoin="round"/>
<path d="M1484.65 477.408C1468.46 472.385 1450.27 469.98 1429.41 471.681C1415.13 472.846 1405.7 476.322 1397.21 479.887C1386.3 484.475 1380.36 489.943 1376.93 495.895C1373.96 501.051 1372.42 506.247 1373.13 511.506C1374.94 524.844 1382.73 537.854 1404 549.956C1411.38 554.162 1420.31 557.848 1431.72 560.992C1445.76 564.864 1460.98 566.3 1477.89 565.615" stroke="white" stroke-width="0.448571" stroke-linecap="round" stroke-linejoin="round"/>
<path d="M1208.87 632.766C1207.71 634.444 1206.84 636.162 1205.34 637.797C1200.52 643.032 1191.69 647.194 1178.2 650.319C1149.49 656.966 1115.96 659.433 1081.33 660.848C1062.93 661.599 1044.23 661.983 1025.54 662.027C1006.57 662.072 987.362 661.923 968.389 661.09C936.249 659.679 904.977 656.588 875.516 651.308C852.745 647.228 832.211 641.991 815.005 635.527C796.128 628.438 781.138 620.488 772.548 611.454C760.519 598.808 769.382 588.008 792.214 578.629C813.567 569.862 842.058 564.331 873.967 560.502C893.166 558.198 913.028 556.771 933.842 556.305C952.376 555.888 970.928 555.721 989.531 556.76C1011.39 557.983 1032.96 559.868 1054.11 562.491C1090.68 567.021 1122.35 574.149 1147.39 584.321C1169.57 593.334 1185.92 603.51 1197.88 614.345C1204.43 620.27 1207.52 626.356 1208.88 632.51" stroke="white" stroke-width="0.448571" stroke-linecap="round" stroke-linejoin="round"/>
<path d="M1279.01 646.504C1274.35 653.09 1262.37 657.909 1246 661.3C1228.36 664.956 1208.95 667.647 1188.24 669.154C1162.47 671.028 1136.6 672.843 1110.45 674.188C1094.52 675.007 1077.95 674.845 1061.7 675.207C1026.78 675.986 991.667 675.273 956.592 673.617C923.492 672.051 891.186 668.873 860.679 663.666C819.2 656.585 784.477 646.526 755.497 634.291C740.525 627.97 727.166 621.267 718.044 613.752C711.941 608.723 708.244 603.678 706.924 598.395C704.423 588.367 715.684 580.007 730.117 572.143C742.702 565.29 759.007 559.36 777.152 554.181C800.461 547.528 825.39 541.457 854.191 537.479C869.189 535.407 885.262 534.067 902.296 534.134C912.106 534.171 922.016 533.687 931.683 534.206C950.236 535.203 968.631 536.791 987.119 538.053C1012.79 539.803 1037.61 542.764 1062.33 545.81C1092.54 549.533 1120.88 554.523 1146.32 561.511C1168.7 567.66 1185.77 575.175 1201.15 583.241C1225.63 596.079 1246.49 609.483 1264.43 623.336C1273.97 630.708 1281.55 638.265 1279.04 646.248" stroke="white" stroke-width="0.448571" stroke-linecap="round" stroke-linejoin="round"/>
<path d="M1366.35 657.734C1360.02 666.076 1339.82 669.534 1318.75 672.595C1290.94 676.637 1261.39 679.174 1231.42 681.2C1197.67 683.481 1163.73 685.533 1128.93 686.263C1110.83 686.643 1092.82 687.307 1074.65 687.447C1052.55 687.615 1030.33 687.525 1008.14 687.25C989.376 687.018 970.446 686.806 951.795 685.797C917.369 683.936 883.49 681.036 851.131 675.804C823.923 671.403 799.086 665.881 775.698 659.333C746.349 651.118 719.31 642.172 694.423 632.491C680.05 626.901 667.697 620.832 657.764 614.262C646.325 606.695 642.883 598.811 645.954 590.912C648.847 583.466 656.616 576.524 666.624 569.947C680.45 560.864 698.476 552.735 714.806 544.215C726.253 538.244 738.067 532.301 743.756 525.147C750.212 517.034 746.006 509.39 732.114 502.066C717.649 494.445 698.536 488.083 679.606 481.69C668.895 478.075 659.319 474.216 650.867 469.941C637.983 463.427 649.322 460.034 663.568 458.44C679.539 456.65 696.36 456.364 713.265 455.959C736.233 455.41 759.308 456.113 782.017 457.465C827.292 460.161 866.347 466.91 893.361 480.694C910.773 489.58 926.876 498.834 950.868 506.143C966.51 510.906 983.701 514.925 1002.6 517.94C1041.73 524.182 1081.48 529.947 1120.18 536.517C1152.58 542.019 1180.65 549.568 1203.06 559.557C1231.36 572.171 1252.07 586.162 1276.51 599.476C1292.37 608.121 1309.47 616.534 1325.4 625.167C1336.84 631.362 1347.59 637.69 1357.99 644.068C1364.85 648.286 1367.91 652.812 1366.36 657.478" stroke="white" stroke-width="0.448571" stroke-linecap="round" stroke-linejoin="round"/>
<path d="M1132.29 622.42C1131.43 623.593 1130.57 624.768 1129.7 625.941C1124.28 633.244 1109.19 637.5 1089.94 640.604C1071.6 643.564 1051.72 644.993 1031.41 645.709C1010.32 646.449 988.745 646.467 967.294 645.126C926.59 642.583 889.23 637.404 861.314 626.042C845.726 619.698 836.519 612.502 838.143 604.405C839.403 598.111 848.215 593.087 861.042 588.967C881.441 582.415 907.145 579.209 935.297 577.497C955.233 576.285 975.367 575.842 995.71 577.083C1046.78 580.196 1090.14 587.526 1116.9 604.059C1126.34 609.894 1131.18 615.84 1132.31 622.161" stroke="white" stroke-width="0.448571" stroke-linecap="round" stroke-linejoin="round"/>
<path d="M1271.85 417.297C1269.6 419.714 1268.06 422.252 1264.96 424.521C1256.23 430.93 1244.24 436.624 1228.83 441.304C1216.69 444.985 1201.67 447.285 1185.1 448.353C1170.95 449.262 1155.63 445.344 1152.42 440.305C1148.6 434.305 1152.26 428.709 1158.73 423.54C1165.68 417.996 1176.08 413.105 1190.43 409.361C1205.58 405.409 1223.11 403.284 1242.79 402.922C1257.77 402.647 1272.1 407.481 1272.18 412.665C1272.21 414.125 1271.98 415.581 1271.87 417.038" stroke="white" stroke-width="0.448571" stroke-linecap="round" stroke-linejoin="round"/>
<path d="M528.303 547.698C523.908 551.157 520.594 554.853 514.901 558.03C503.327 564.489 488.165 569.667 463.858 570.773C449.035 571.448 435.331 570.697 423.913 566.583C416.91 564.062 411.06 561.426 408.222 558.059C403.65 552.63 405.575 547.474 411.33 542.711C419.829 535.667 435.022 530.471 456.436 527.786C470.666 525.999 486.052 526.051 501.161 528.227C518.454 530.718 529.179 536.397 528.706 542.556L528.33 547.443" stroke="white" stroke-width="0.448571" stroke-linecap="round" stroke-linejoin="round"/>
<path d="M733.653 191.134C733.076 191.973 732.311 192.801 731.944 193.655C729.98 198.227 728.151 202.808 726.21 207.382C724.378 211.704 723.032 216.074 720.452 220.327C716.294 227.177 711.626 233.984 706.503 240.735C703.534 244.646 696.139 247.616 685.779 249.548C676.581 251.264 665.765 251.176 655.654 250.264C640.617 248.909 625.564 247.278 611.197 245.16C580.606 240.649 551.546 235.059 523.299 228.888C499.061 223.595 477.033 217.509 457.498 210.344C430.319 200.377 414.202 188.856 408.33 175.922C405.958 170.696 403.88 165.463 401.78 160.229C398.699 152.563 395.58 144.899 392.747 137.228C390.826 132.02 390.015 126.784 387.535 121.594C384.943 116.187 384.878 110.848 385.994 105.548C387.683 97.4857 397.028 91.0078 421.298 88.5177C429.267 87.7006 438.246 87.4636 446.82 87.5855C461.199 87.7864 475.773 88.102 490.004 89.0569C524.621 91.379 559.386 92.3663 594.145 93.5316C604.691 93.8856 615.344 93.63 625.807 94.1944C640.39 94.9776 655.389 95.5427 668.812 98.1854C688.589 102.082 700.59 108.125 708.42 115.005C718.197 123.604 723.526 132.526 728.033 141.448C730.611 146.547 731.3 151.702 733.258 156.826C737.638 168.285 733.722 179.532 733.687 190.879" stroke="white" stroke-width="0.448571" stroke-linecap="round" stroke-linejoin="round"/>
<path d="M1024.28 316.035C1015.78 325.648 994.561 331.738 972.268 337.439C950.697 342.955 926.6 346.915 898.783 348.388C869.801 349.92 841.75 349.151 816.498 342.445C797.871 337.499 787.762 330.761 780.726 323.469C773.885 316.374 772.949 309.225 774.814 302.125C776.33 296.32 790.58 292.403 806.456 291.663C815.245 291.252 824.471 291.334 833.507 291.531C847.395 291.837 861.297 292.367 875.181 292.924C892.154 293.602 909.15 294.276 926.074 295.193C943.313 296.129 960.633 297.084 977.612 298.562C988.123 299.479 998.94 300.925 1008.08 302.966C1021.61 305.982 1027.04 310.524 1024.32 315.78" stroke="white" stroke-width="0.448571" stroke-linecap="round" stroke-linejoin="round"/>
<path d="M1223.28 324.368C1222.12 326.046 1220.8 327.714 1219.82 329.41C1215.32 337.206 1203.18 343.34 1186.68 348.678C1163.34 356.224 1136.25 362.156 1110.06 368.49C1086.71 374.136 1064.16 380.151 1040.49 385.649C1012.32 392.191 980.394 396.184 945.262 397.329C930.545 397.808 915.403 397.632 900.417 397.376C878.553 396.998 856.608 396.591 834.796 395.632C804.625 394.304 774.544 392.179 746.508 387.478C714.149 382.053 689.217 373.932 673.207 362.879C659.631 353.502 652.223 343.59 643.783 333.762C636.029 324.735 627.537 315.777 614.822 307.257C599.849 297.225 580.197 288.354 555.126 280.671C529.76 272.897 501.898 266.427 473.016 260.38C448.317 255.209 423.289 250.194 399.282 244.654C376.822 239.469 355.264 233.83 336.176 227.145C317.601 220.639 300.686 213.81 286.626 206.126C269.238 196.623 258.064 186.49 250.696 175.959C247.463 171.343 246.601 166.575 245.439 161.874C243.921 155.736 243.165 149.595 242.106 143.457C241.376 139.22 241.152 134.983 239.879 130.75C237.713 123.526 235.231 116.302 232.273 109.089C228.663 100.265 225.038 91.433 220.294 82.6463C215.359 73.5101 213.933 64.399 216.678 55.4461C220.472 43.0498 241.589 33.7234 282.383 31.8665C300.337 31.0493 318.514 31.1607 336.507 32.2816C359.962 33.7399 383.227 35.7941 406.52 37.6844C426.802 39.3317 447.107 40.9662 467.234 42.8729C486.597 44.7077 506.125 46.0646 525.791 46.3132C559.988 46.749 592.345 44.9396 618.447 37.6334C635.152 32.9568 644.721 26.7081 649.593 19.4079C652.463 15.1108 653.828 10.7786 653.262 6.37257C652.401 -0.377399 649.583 -7.15084 649.03 -13.8903C648.512 -20.1937 648.387 -26.6134 657.998 -32.1368C669.604 -38.8051 687.002 -42.0993 711.307 -42.2895C739.223 -42.508 763.885 -39.1124 785.464 -33.3556C814.384 -25.6415 831.561 -15.5506 837.114 -3.3734C840.437 3.90344 838.613 10.9644 837.969 18.0737C837.546 22.7027 834.447 27.2351 832.55 31.8138C830.016 37.916 827.378 44.0092 825.024 50.1256C824.412 51.7201 824.563 53.3757 824.596 55.0084C824.797 65.2421 824.562 75.4717 825.493 85.7194C826.072 92.1167 827.899 98.5511 830.158 104.954C833.086 113.247 836.662 121.535 840.571 129.807C846.522 142.405 853.001 154.987 859.254 167.577C863.725 176.581 867.303 185.625 872.924 194.579C877.845 202.421 882.245 210.289 895.278 217.618C907.271 224.358 924.341 228.173 945.029 230.229C965.605 232.272 986.567 232.03 1007.55 232.083C1025.14 232.129 1042.87 232.363 1060.83 233.596C1092.93 235.8 1117.98 241.486 1140.14 249.561C1167.57 259.559 1186.21 271.061 1200.99 283.371C1210.17 291.018 1217.61 298.813 1221.15 306.786C1223.68 312.518 1222.7 318.333 1223.29 324.112" stroke="white" stroke-width="0.448571" stroke-linecap="round" stroke-linejoin="round"/>
<path d="M1160.42 316.555C1159.01 318.225 1157.85 319.933 1156.12 321.56C1149.27 328.007 1137.98 333.405 1123.2 337.98C1092.5 347.488 1058.9 355.797 1024.4 363.711C1006.14 367.9 986.68 371.505 965.621 374.096C943.313 376.84 920.046 378.343 895.692 378.783C874.493 379.165 853.329 378.598 832.32 377.488C782.767 374.865 743.176 366.85 718.985 351.034C706.585 342.923 698.802 334.368 690.829 325.823C678.302 312.395 664.372 299.192 638.975 287.406C628.256 282.43 616.111 277.972 602.72 273.837C573.42 264.789 540.293 257.588 507.017 250.468C476.706 243.984 445.662 237.918 417.201 230.415C386.442 222.308 359.489 213.03 339.228 201.886C324.281 193.664 313.56 184.798 309.391 175.391C306.739 169.401 304.683 163.391 303.057 157.385C301.787 152.723 301.596 148.056 300.914 143.393C299.907 136.484 299.111 129.574 297.796 122.66C296.546 116.075 295.47 109.477 293.005 102.907C289.917 94.647 290.889 86.4982 292.191 78.3768C293.526 70.0268 303.561 63.0106 324.655 58.697C334.463 56.6892 346.009 55.3133 358.721 55.6303C375.969 56.0586 393.325 56.0638 410.437 56.9925C428.246 57.9586 445.811 59.8563 463.528 61.2487C473.738 62.0504 484.025 62.7386 494.312 63.3295C512.02 64.3461 529.732 65.5088 547.485 66.1245C568.727 66.8617 589.835 66.3788 610.198 64.917C634.562 63.1675 658.623 61.0403 682.633 58.8978C693.552 57.9246 704.305 57.0673 716.054 57.4596C723.97 57.7238 730.296 58.8524 735.931 60.7489C750.389 65.6094 756.815 71.7331 762.324 77.9122C770.054 86.579 775.173 95.3839 779.074 104.247C782.732 112.556 787.257 120.847 790.938 129.154C793.905 135.852 796.374 142.562 798.7 149.27C801.02 155.956 803.31 162.647 804.823 169.335C806.072 174.856 806.454 180.385 806.701 185.898C807.008 192.608 806.094 199.3 806.95 206.015C808.04 214.582 809.312 223.14 816.986 231.651C825.466 241.051 841.731 248.399 866.635 253.642C878.442 256.13 891.263 257.977 904.852 258.847C917.931 259.685 931.059 260.861 944.123 261.117C959.632 261.424 975.1 260.884 990.597 260.756C999.873 260.68 1009.16 260.605 1018.46 260.687C1029.26 260.785 1040.1 260.951 1050.91 261.277C1073.13 261.945 1092.39 265.143 1109.01 270.452C1124.43 275.378 1137.25 280.877 1145.67 287.422C1152.44 292.688 1158.89 297.978 1159.76 303.64C1160.41 307.862 1160.23 312.076 1160.42 316.293" stroke="white" stroke-width="0.448571" stroke-linecap="round" stroke-linejoin="round"/>
</g>
</g>
<defs>
<filter id="filter0_f_6264_7482" x="-407" y="138" width="1102.63" height="1083" filterUnits="userSpaceOnUse" color-interpolation-filters="sRGB">
<feFlood flood-opacity="0" result="BackgroundImageFix"/>
<feBlend mode="normal" in="SourceGraphic" in2="BackgroundImageFix" result="shape"/>
<feGaussianBlur stdDeviation="100" result="effect1_foregroundBlur_6264_7482"/>
</filter>
<filter id="filter1_f_6264_7482" x="695" y="-366" width="1102.63" height="1083" filterUnits="userSpaceOnUse" color-interpolation-filters="sRGB">
<feFlood flood-opacity="0" result="BackgroundImageFix"/>
<feBlend mode="normal" in="SourceGraphic" in2="BackgroundImageFix" result="shape"/>
<feGaussianBlur stdDeviation="100" result="effect1_foregroundBlur_6264_7482"/>
</filter>
<linearGradient id="paint0_linear_6264_7482" x1="652" y1="348" x2="59.354" y2="835.812" gradientUnits="userSpaceOnUse">
<stop offset="0.16" stop-color="#FC5161"/>
<stop offset="0.908654" stop-color="#FC5161" stop-opacity="0"/>
</linearGradient>
<linearGradient id="paint1_linear_6264_7482" x1="1754" y1="-156" x2="1161.35" y2="331.812" gradientUnits="userSpaceOnUse">
<stop offset="0.16" stop-color="#2F87B5"/>
<stop offset="0.908654" stop-color="#2F87B5" stop-opacity="0"/>
</linearGradient>
</defs>
</svg>
