<svg width="488" height="800" viewBox="0 0 488 800" fill="none" xmlns="http://www.w3.org/2000/svg">
<mask id="mask0_8335_32858" style="mask-type:alpha" maskUnits="userSpaceOnUse" x="0" y="0" width="488" height="800">
<rect width="488" height="800" fill="#D9D9D9"/>
</mask>
<g mask="url(#mask0_8335_32858)">
<g opacity="0.6" filter="url(#filter0_f_8335_32858)">
<path d="M-498.916 -28.5821C418.645 -28.5821 114.393 117.084 114.393 296.772C114.393 476.46 418.645 622.126 -498.916 622.126C-1416.48 622.126 -2160.31 476.46 -2160.31 296.772C-2160.31 117.084 -1416.48 -28.5821 -498.916 -28.5821Z" fill="url(#paint0_linear_8335_32858)"/>
</g>
<g opacity="0.2">
<path d="M666.401 0.580956C665.658 18.3298 661.656 34.9814 655.821 50.8949C651.724 62.0667 647.066 72.8392 643.049 84.0612C640.278 91.7983 637.739 99.8347 635.918 108.047C634.631 113.86 634.686 120.222 636.309 125.912C638.366 133.119 640.65 140.172 642.582 147.459C643.947 152.598 644.291 158.102 644.081 163.897C643.568 177.933 640.352 191.119 636.936 204.3C634.035 215.499 631.018 226.65 628.343 237.941C625.235 251.062 622.301 264.269 619.563 277.531C617.872 285.716 616.554 294.042 615.313 302.36C614.304 309.124 613.3 315.969 612.932 322.78C612.334 333.917 613.479 344.607 617.845 353.494C620.549 358.993 624.753 361.743 629.189 363.699C634.418 366.004 639.781 365.637 645.295 364.377C652.09 362.825 658.911 361.63 665.725 360.678C669.594 360.137 673.53 359.89 677.333 360.412C682.851 361.166 687.576 364.714 691.247 370.55C697.592 380.635 700.392 393.176 701.413 407.078C702.055 415.806 701.448 424.54 700.453 433.166C698.834 447.189 694.769 460.31 689.192 472.222C683.063 485.311 675.3 496.21 665.879 504.244C659.295 509.856 652.295 513.305 644.96 515.029C636.716 516.967 628.573 516.117 620.468 515.447C614.769 514.976 609.2 513.094 603.55 511.99C599.496 511.2 595.415 510.566 591.327 510.03C585.082 509.212 578.716 509.171 572.595 507.631C566.239 506.035 559.801 507.815 553.43 507.287C547.849 506.828 542.1 507.817 536.441 508.748C527.271 510.261 518.128 512.215 508.992 514.914C500.724 517.36 492.547 520.288 484.446 523.906C474.249 528.458 464.111 533.391 454.937 542.172C449.476 547.401 444.972 554.189 442.475 562.983C439.761 572.532 437.578 582.37 435.353 592.159C431.731 608.095 426.612 622.927 418.668 635.49C413.12 644.26 406.733 651.653 399.995 658.375C391.293 667.057 381.97 673.877 372.465 679.921C364.132 685.219 355.628 689.905 346.881 693.349C339.705 696.177 332.542 698.581 325.23 700.041C318.572 701.37 311.983 701.425 305.518 700.494C296.38 699.174 288.476 693.94 282.424 683.783C276.436 673.734 272.244 661.863 267.28 650.766C263.863 643.126 260.093 635.82 256.212 628.696C250.58 618.359 244.475 608.585 239.003 598.069C234.021 588.494 231.446 577.041 230.964 564.627C230.468 551.777 231.583 538.817 232.598 525.901C233.064 519.948 233.708 514.002 234.322 508.058C235.257 499.013 236.105 489.953 237.238 480.936C238.344 472.126 239.504 463.292 241.096 454.602C243.806 439.82 247.778 425.595 254.539 413.369C260.974 401.73 269.163 393.594 278.645 388.452C288.912 382.881 299.541 380.183 310.004 376.143C326.291 369.848 341.574 360.059 354.01 341.695C360.037 332.795 365.293 323.004 369.934 312.482C378.215 293.707 386.404 274.826 395.079 256.426C398.965 248.189 403.601 240.486 408.495 233.44C417.935 219.851 428.21 207.823 440.032 199.033C448.96 192.394 458.285 187.878 467.808 184.593C472.929 182.825 478.196 182.363 483.396 181.328C488.68 180.274 493.965 178.934 499.251 178.265C507.274 177.25 515.209 175.225 523.11 172.399C531.571 169.372 539.815 165.211 547.471 158.658C551.302 155.38 555.011 151.484 558.321 147.11C561.409 143.026 563.494 137.64 563.501 131.382C563.508 126.575 562.347 122.272 560.882 118.238C558.111 110.611 555.314 102.997 552.363 95.5303C547.244 82.578 544.162 68.3727 542.779 53.3305C541.745 42.0954 542.201 30.4914 543.65 19.085C544.635 11.3421 546.62 3.76431 548.158 -3.88856" stroke="white" stroke-width="0.448571" stroke-linecap="round" stroke-linejoin="round"/>
<path d="M-210.278 788.204C-209.088 781.908 -207.907 775.604 -206.7 769.312C-205.276 761.902 -203.845 754.492 -202.39 747.091C-200.861 739.31 -199.2 731.564 -197.788 723.75C-196.701 717.737 -195.928 711.636 -194.979 705.585C-194.127 700.141 -193.171 694.719 -192.363 689.263C-191.852 685.819 -191.427 682.339 -191.137 678.865C-189.925 664.361 -188.619 649.857 -187.663 635.346C-187.052 626.041 -186.952 616.713 -186.696 607.402C-186.522 601.06 -186.502 594.724 -186.37 588.384C-186.217 580.929 -186.045 573.475 -185.831 566.019C-185.676 560.684 -185.492 555.341 -185.226 549.999C-184.702 539.448 -184.368 528.882 -183.477 518.356C-182.68 508.923 -181.201 499.538 -180.099 490.125C-178.726 478.406 -176.575 466.899 -173.615 455.696C-171.63 448.183 -169.319 440.785 -166.806 433.569C-160.615 415.783 -151.288 401.495 -141.733 387.463C-131.084 371.829 -121.423 355.003 -112.975 336.721C-105.456 320.45 -98.3171 303.834 -90.0375 288.26C-83.5347 276.027 -75.9668 265.55 -67.7659 256.045C-61.366 248.627 -54.1327 243.45 -46.3195 240.777C-38.003 237.934 -30.8301 240.626 -25.2565 249.406C-21.5822 255.196 -18.1071 261.269 -14.6253 267.32C-7.45211 279.794 0.446132 291.144 9.92796 299.806C12.6841 302.327 16.1028 303.71 19.3918 304.638C23.0333 305.666 26.1672 302.95 28.8803 298.831C33.3121 292.094 36.4083 284.039 39.9815 276.459C46.8645 261.861 54.8432 249.186 66.2965 242.363C71.1027 239.5 75.9651 237.391 81.0519 236.966C84.608 236.668 88.2035 235.761 91.7139 235.97C110.315 237.089 126.26 246.41 139.152 265.249C145.515 274.546 151.114 284.595 154.281 297.234C155.911 303.738 156.818 310.495 156.769 317.808C156.627 339.508 151.257 358.681 142.039 376.2C137.802 384.255 132.51 390.171 125.789 392.289C122.802 393.23 119.812 393.484 116.662 393.023C106.214 391.49 97.4674 384.469 88.4447 378.262C75.8101 369.568 63.479 359.962 50.0234 353.74C47.0583 352.37 44.027 351.002 40.9191 350.473C34.8446 349.437 29.9451 353.536 26.3534 361.038C20.9082 372.42 15.785 384.113 10.2805 395.435C6.02979 404.177 1.49379 412.65 -3.06984 421.064C-12.8576 439.114 -23.5548 456.177 -31.3483 476.341C-35.9018 488.124 -39.5669 500.322 -42.0008 513.246C-43.5748 521.607 -45.114 529.921 -45.7484 538.487C-46.4105 547.416 -47.5451 556.338 -48.0009 565.264C-48.4083 573.221 -48.1629 581.178 -48.2137 589.138C-48.2484 594.609 -48.4245 600.1 -48.3067 605.545C-48.135 613.535 -47.8863 621.521 -47.4305 629.453C-46.9704 637.475 -46.2254 645.429 -45.5879 653.408C-45.099 659.524 -44.5941 665.637 -44.081 671.747C-43.0232 684.349 -41.9602 696.952 -40.8942 709.551C-40.1556 718.286 -39.2934 726.989 -38.7136 735.765C-38.3534 741.182 -38.3808 746.701 -38.3029 752.188C-38.182 760.645 -37.9549 769.095 -38.0889 777.571C-38.1806 783.255 -38.8194 788.979 -39.2137 794.684" stroke="white" stroke-width="0.448571" stroke-linecap="round" stroke-linejoin="round"/>
<path d="M225.173 804.689C228.149 799.329 231.335 794.177 234.056 788.563C238.774 778.829 243.166 768.769 247.769 758.918C251.71 750.48 255.274 741.276 261.938 736.811C265.567 734.38 269.501 732.708 273.369 731.648C278.952 730.119 284.605 729.606 290.217 728.394C298.511 726.604 306.789 724.432 315.085 722.689C326.043 720.389 336.773 716.155 347.392 711.121C355.472 707.292 363.515 703.137 371.453 698.579C378.497 694.536 385.409 689.874 392.316 685.252C406.543 675.728 419.786 663.663 431.449 647.916C440.154 636.159 447.798 623.094 453.96 608.189C458.008 598.399 462.417 588.864 467.024 579.583C473.277 566.999 481.46 557.705 490.898 550.987C502.084 543.023 513.769 538.004 525.786 535.141C531.584 533.762 537.391 532.285 543.202 531.396C548.092 530.648 553.001 530.536 557.893 530.408C564.122 530.244 570.363 530.055 576.556 530.414C582.672 530.769 588.751 531.664 594.82 532.555C599.989 533.314 605.107 534.496 610.269 535.313C615.418 536.129 620.597 536.711 625.758 537.429C627.676 537.698 629.572 538.435 631.494 538.319C640.3 537.787 649.093 537.455 657.824 533.472C669.561 528.121 679.579 518.634 688.508 505.894C695.611 495.759 701.343 484.253 706.181 471.79C710.135 461.605 713.152 450.941 715.333 439.726C717.498 428.594 718.105 417.359 718.371 406.256C718.606 396.352 717.382 386.501 716.529 376.705C715.477 364.601 713.14 353.065 709.828 342.151C706.599 331.519 702.654 321.548 694.978 316.613C692.904 315.277 690.65 314.167 688.375 313.787C682.565 312.822 676.707 314.035 670.845 315.587C665.343 317.043 659.82 319.007 654.269 318.346C646.863 317.462 641.831 312.428 640.625 300.321C639.547 289.499 641.654 279.127 644.059 268.727C648.664 248.817 657.135 232.353 666.838 217.011C673.338 206.733 678.507 195.293 681.994 182.46C683.107 178.366 683.369 173.845 683.965 169.507C684.406 166.297 685.005 163.06 685.103 159.855C685.435 148.697 685.596 137.587 684.476 126.599C683.226 114.331 682.288 101.955 681.496 89.5513C681.151 84.1783 681.477 78.6307 681.57 73.1543C681.643 68.811 681.664 64.4511 681.99 60.1137C682.606 51.9281 683.396 43.749 684.168 35.5729C684.576 31.2313 685.306 26.8983 685.511 22.5672C685.827 15.8528 685.828 9.14469 685.914 2.43615C685.918 2.03656 685.491 1.67156 685.266 1.28876" stroke="white" stroke-width="0.448571" stroke-linecap="round" stroke-linejoin="round"/>
<path d="M762.048 435.879C761.666 438.35 761.336 440.838 760.896 443.296C759.431 451.453 758.3 459.761 756.367 467.722C751.887 486.173 746.816 504.376 742.368 522.842C739.674 534.03 737.652 545.506 735.413 556.879C732.742 570.445 730.406 584.129 727.48 597.594C723.461 616.091 718.271 634.144 709.234 649.013C701.885 661.105 693.19 670.798 682.557 676.344C676.099 679.712 669.616 682.406 663.022 684.217C658.495 685.459 653.874 685.451 649.294 686.07C635.405 687.953 621.703 686.334 607.937 685.936C601.057 685.737 594.214 684.998 587.358 684.455C582.341 684.058 577.322 683.654 572.317 683.13C565.887 682.458 559.464 681.713 553.049 680.911C548.21 680.306 543.399 679.455 538.557 678.908C530.717 678.023 522.885 677.032 515.008 676.574C507.313 676.127 499.583 677.898 492.028 680.955C481.389 685.258 471.274 691.903 461.408 699.735C452.727 706.627 443.862 713.057 434.869 718.873C422.433 726.92 409.863 734.489 397.231 741.708C388.812 746.52 380.187 750.391 371.647 754.639C357.896 761.477 344.093 768.047 330.4 775.189C323.106 778.994 315.923 783.479 308.822 788.163C301.646 792.899 294.677 798.38 288.182 805.184C287.404 805.998 286.434 806.393 285.553 806.981" stroke="white" stroke-width="0.448571" stroke-linecap="round" stroke-linejoin="round"/>
<path d="M264.923 806.193C269.014 801.747 272.972 796.977 277.226 792.93C283.555 786.912 289.958 780.991 296.571 775.765C309.472 765.57 323.289 759.338 336.974 752.541C352.694 744.735 368.397 736.826 384.018 728.529C391.589 724.506 398.92 719.3 406.431 714.958C422.019 705.958 436.571 693.725 450.897 680.771C459.271 673.199 467.637 665.598 475.934 657.83C486.611 647.831 498.086 641.343 510.147 637.609C514.081 636.392 518.126 636.131 522.114 635.773C527.517 635.291 532.917 635.237 538.317 634.82C543.734 634.404 549.164 634.13 554.568 633.139C563.052 631.581 571.429 628.85 579.65 624.524C588.414 619.914 597.248 615.546 606.378 613.617C610.081 612.834 613.827 612.703 617.545 612.506C624.122 612.156 630.695 612.335 637.271 611.651C647.763 610.561 658.053 607.448 667.84 600.235C674.458 595.358 680.671 589.604 686.477 582.68C692.274 575.766 697.817 568.465 702.587 560.051C706.791 552.637 710.835 544.967 714.502 536.991C718.433 528.448 721.967 519.515 725.449 510.584C732.248 493.148 738.138 475.1 742.743 456.374C744.534 449.09 745.372 441.36 746.376 433.785C747.193 427.628 747.952 421.384 748.128 415.21C748.368 406.734 748.171 398.259 747.911 389.83C747.594 379.465 747.104 369.126 746.53 358.809C746.148 351.912 745.42 345.1 744.973 338.219C744.448 330.139 744.055 322.021 743.608 313.922C742.787 299.043 741.353 284.362 738.79 270.104C736.524 257.503 734.04 245.01 731.572 232.51C728.233 215.599 725.463 198.44 724.09 180.724C722.782 163.802 721.648 146.829 720.539 129.85C719.913 120.283 719.468 110.669 718.985 101.065C718.546 92.3523 718.057 83.6451 717.795 74.8957C717.589 68.0853 717.734 61.2154 717.656 54.3808C717.545 44.2962 717.476 34.2059 717.199 24.1477C717.009 17.2615 716.509 10.4327 716.107 3.58578C716.082 3.156 715.682 2.81746 715.455 2.43457" stroke="white" stroke-width="0.448571" stroke-linecap="round" stroke-linejoin="round"/>
<path d="M244.295 805.411C247.463 800.93 250.654 796.483 253.796 791.958C262.699 779.14 272.412 768.101 283.497 759.84C292.133 753.4 301.186 749.037 310.282 744.897C320.221 740.372 330.265 736.464 340.168 731.733C352.077 726.046 363.974 720.21 375.704 713.626C385.862 707.924 395.902 701.524 405.766 694.633C417.083 686.729 427.919 677.357 438.054 666.145C451.284 651.51 463.245 634.768 475.221 617.982C485.002 604.271 495.112 590.965 507.197 581.876C515.163 575.884 523.436 571.041 532.08 568.228C538.595 566.109 545.123 564.1 551.662 562.272C555.569 561.181 559.511 560.545 563.436 559.687C575.149 557.126 586.73 558.164 598.297 558.878C604.667 559.272 610.949 560.745 617.271 561.722C617.767 561.799 618.277 561.767 618.78 561.786C625.406 562.037 632.014 562.607 638.656 562.477C655.68 562.144 671.48 554.94 685.699 538.981C696.135 527.264 704.561 512.942 711.766 497.015C717.246 484.9 721.958 472.236 725.573 458.772C727.857 450.271 729.97 441.764 730.838 432.832C731.644 424.534 732.655 416.218 732.983 407.923C733.269 400.692 732.86 393.452 732.524 386.27C732.103 377.267 731.667 368.242 730.836 359.351C729.544 345.552 727.965 331.843 726.406 318.132C724.828 304.256 721.955 291.043 718.308 278.288C715.479 268.399 712.307 258.751 709.562 248.806C707.024 239.614 705.811 229.79 705.75 219.591C705.693 209.897 705.73 200.192 705.732 190.49C705.735 183.03 705.912 175.54 705.728 168.112C705.454 157.127 704.988 146.172 704.491 135.23C703.917 122.631 703.15 110.069 702.599 97.4672C702.166 87.5303 701.816 77.5675 701.653 67.5826C701.52 59.5285 701.763 51.4196 701.766 43.3452C701.768 34.2606 701.738 25.1747 701.622 16.1074C701.56 11.421 701.28 6.76262 701.098 2.09345" stroke="white" stroke-width="0.448571" stroke-linecap="round" stroke-linejoin="round"/>
<path d="M34.2406 797.457C35.6417 791.791 36.6143 785.824 38.5271 780.515C43.0702 767.925 49.0376 756.711 56.3955 747.207C64.3423 736.944 72.9538 728.113 82.3927 721.341C93.3022 713.516 104.346 706.15 115.232 698.248C126.81 689.845 138.079 680.566 148.334 668.602C157.948 657.389 166.897 645.085 175.528 632.272C179.989 625.649 184.619 619.134 188.474 611.805C194.835 599.709 199.577 586.16 204.126 572.56C208.376 559.853 212.27 546.951 214.924 533.432C216.453 525.648 218.182 517.922 219.516 510.091C220.983 501.483 222.133 492.794 223.363 484.127C224.135 478.694 224.725 473.222 225.531 467.798C226.653 460.242 228.009 452.735 229.069 445.166C230.585 434.314 233.009 423.868 236.302 413.723C244.621 388.107 257.698 371.283 276.494 365.311C285.809 362.354 295.192 360.132 304.523 357.328C317.668 353.374 330.131 346.618 341.203 334.152C349.939 324.311 356.76 312.029 362.784 298.735C368.066 287.081 373.067 275.17 378.38 263.55C386.06 246.754 394.457 230.818 404.492 216.687C413.517 203.976 423.266 192.862 434.073 183.998C444.41 175.519 455.255 169.036 466.63 164.993C478.452 160.793 490.308 156.812 502.058 152.053C510.45 148.654 518.426 143.388 524.106 132.477C526.812 127.273 528.468 121.464 529.383 115.157C530.959 104.283 529.968 93.7286 529.587 83.0669C529.296 74.8906 529.168 66.6622 529.282 58.4321C529.413 48.8836 529.457 39.27 530.321 29.7528C531.359 18.2872 533.036 6.83854 536.085 -4.17298" stroke="white" stroke-width="0.448571" stroke-linecap="round" stroke-linejoin="round"/>
<path d="M9.61379 796.154C14.8607 782.747 20.7359 769.924 27.8912 758.457C36.8152 744.15 46.5851 731.137 57.7443 720.846C66.9307 712.375 76.3862 704.56 85.864 696.881C95.2494 689.278 104.681 681.731 112.995 671.624C121.41 661.397 127.68 648.545 132.832 634.456C137.765 620.964 142.182 607.032 148.639 594.725C154.007 584.499 160.464 575.997 167.6 568.585C174.634 561.282 181.864 554.328 187.867 545.074C196.808 531.295 202.893 515.278 206.316 497.293C207.959 488.659 209.626 480.03 211.1 471.35C211.786 467.324 211.977 463.174 212.507 459.103C213.475 451.672 214.519 444.251 215.55 436.829C216.187 432.249 216.704 427.632 217.537 423.107C218.954 415.42 220.357 407.7 222.17 400.163C224.899 388.813 228.652 378.169 233.845 368.453C241.517 354.099 251.112 344.916 262.992 341.703C267.804 340.402 272.682 339.864 277.533 339.222C282.866 338.519 288.206 338.3 293.535 337.51C303.621 336.017 313.649 333.94 323.246 327.519C332.472 321.345 340.312 312.586 347.044 301.205C354.515 288.573 360.726 274.753 366.971 260.897C374.808 243.511 383.178 226.592 393.106 211.564C405.914 192.172 420.261 175.632 436.51 163.183C446.256 155.718 456.467 150.083 466.762 144.88C476.329 140.05 486.026 135.958 494.94 128.108C504.058 120.081 509.422 108.656 512.215 94.0114C514.657 81.1999 515.294 68.2801 516.37 55.3515C517.227 45.0564 518.097 34.7183 519.566 24.519C520.983 14.6776 523.175 4.98907 525.025 -4.7633" stroke="white" stroke-width="0.448571" stroke-linecap="round" stroke-linejoin="round"/>
<path d="M512.952 -5.2303C511.795 0.572835 510.605 6.3638 509.489 12.1758C508.736 16.1118 508.061 20.0726 507.404 24.0342C506.214 31.1987 505.065 38.3722 503.891 45.5373C502.738 52.5834 501.689 59.6625 500.391 66.6667C496.415 88.1306 488.559 105.574 474.531 115.999C465.181 122.945 455.675 129.381 446.186 135.853C437.295 141.916 428.779 148.981 420.503 156.862C413.248 163.772 406.406 171.467 399.794 179.655C387.131 195.339 376.236 213.427 366.351 232.85C361.08 243.207 355.912 253.673 350.559 263.943C343.708 277.086 336.57 289.763 326.549 298.188C320.155 303.568 313.507 306.703 306.416 308.295C300.943 309.523 295.552 309.606 290.218 308.943C284.695 308.258 279.283 306.585 273.806 305.476C270.001 304.707 266.125 304.397 262.346 303.48C253.027 301.215 243.498 301.345 234.012 300.997C230.91 300.883 227.773 301.28 224.656 301.34C212.667 301.577 202.182 296.296 193.211 285.6C185.087 275.913 177.067 266.052 169.851 254.881C164.321 246.317 158.48 238.153 153.289 229.151C147.685 219.433 142.653 208.98 137.431 198.778C136.491 196.94 135.715 194.858 135.075 192.729C132.722 184.907 132.957 181.355 138.57 175.005C141.181 172.048 143.954 169.398 146.695 166.707C158.703 154.919 168.889 140.631 176.052 121.941C179.534 112.854 182.138 103.5 183.881 93.5078C185.476 84.3454 186.317 75.1653 186.613 65.9864C187.033 53.033 185.942 40.324 184.258 27.8468C182.111 11.9654 178.371 -3.04974 174.33 -17.8727" stroke="white" stroke-width="0.448571" stroke-linecap="round" stroke-linejoin="round"/>
<path d="M501.38 -5.66654C500.257 -0.35995 499.099 4.93074 498.018 10.2534C496.564 17.4008 495.251 24.597 493.735 31.7238C489.359 52.304 485.082 72.9643 473.668 88.8084C468.522 95.9503 462.665 101.437 456.563 106.457C444.227 116.605 431.637 126.143 419.706 137.324C406.523 149.678 394.244 164.046 383.026 180.428C372.798 195.361 363.595 211.496 354.559 227.91C347.975 239.874 341.495 252.002 333.551 262.218C325.924 272.032 317.285 278.536 307.55 280.468C302.963 281.377 298.291 281.72 293.697 280.223C288.417 278.504 282.927 277.879 277.585 276.452C273.349 275.321 269.223 273.533 264.996 272.348C260.978 271.222 256.886 270.519 252.833 269.595C249.024 268.728 245.204 267.914 241.419 266.903C237.61 265.886 233.838 264.642 230.048 263.514C221.128 260.862 212.474 257.158 204.42 251.311C196.14 245.3 188.862 237.281 182.915 226.986C177.796 218.125 174.623 207.685 173.707 195.709C173.064 187.312 174.53 179.137 176.692 171.217C180.439 157.488 184.357 143.846 188.337 130.239C190.911 121.437 192.672 112.397 194.281 103.232C196.059 93.1059 196.874 82.9147 197.231 72.7424C197.511 64.7584 197.107 56.7595 196.669 48.8464C195.945 35.8388 194.055 23.2448 191.489 10.9705C189.442 1.17597 187.468 -8.68846 184.16 -17.6768" stroke="white" stroke-width="0.448571" stroke-linecap="round" stroke-linejoin="round"/>
<path d="M487.793 -6.17965C483.869 9.21759 480.1 24.6897 475.98 39.9886C472.262 53.7875 466.419 65.9178 458.815 75.7613C453.334 82.8542 447.058 88.6598 440.944 94.5841C433.515 101.785 425.856 108.421 418.355 115.449C404.638 128.295 391.953 143.193 379.995 159.5C369.939 173.211 360.895 188.298 351.931 203.527C346.401 212.922 340.768 222.291 334.614 230.772C328.218 239.585 320.784 246.561 312.407 250.052C308.195 251.808 303.711 251.54 299.402 252.794C294.707 254.16 290.338 252.305 285.821 252.047C281.46 251.798 277.196 250.343 272.883 249.475C270.897 249.076 268.879 248.909 266.901 248.471C261.764 247.335 256.624 246.192 251.511 244.897C246.213 243.556 240.914 242.192 235.672 240.548C229.472 238.605 223.525 235.691 217.856 231.73C211.509 227.296 205.698 221.883 201.183 213.917C195.973 204.723 193.498 193.967 193.253 181.544C193.066 172.125 194.518 163.118 196.235 154.029C198.169 143.793 199.978 133.519 201.914 123.283C203.679 113.964 205.291 104.631 205.902 95.0751C206.155 91.1056 207.083 87.1217 207.135 83.1918C207.284 71.9433 207.514 60.7305 206.631 49.5411C205.31 32.8006 202.787 16.7341 198.991 1.16814C197.502 -4.93501 195.969 -11.0108 194.456 -17.1003" stroke="white" stroke-width="0.448571" stroke-linecap="round" stroke-linejoin="round"/>
<path d="M312.724 808C321.042 803.217 329.281 798.016 337.698 793.756C347.681 788.702 357.796 784.313 367.893 779.902C382.339 773.596 396.88 767.893 411.268 761.246C422.009 756.282 432.569 750.224 443.213 744.667C456.179 737.898 468.75 729.205 481.982 723.71C488.704 720.92 495.45 718.9 502.321 717.7C510.062 716.347 517.686 716.788 525.314 717.251C530.761 717.581 536.156 718.548 541.569 719.298C545.984 719.909 550.385 720.65 554.8 721.271C559.96 722 565.12 722.741 570.294 723.34C577.548 724.182 584.804 725.016 592.077 725.644C599.931 726.323 607.809 726.726 615.668 727.333C618.932 727.584 622.16 728.295 625.433 728.378C631.895 728.547 638.372 728.538 644.854 728.38C649.746 728.26 654.65 728.027 659.545 727.435C672.231 725.899 684.919 723.737 697.436 719.142C712.798 713.499 727.523 705.055 740.735 690.958C742.312 689.273 743.566 686.886 744.969 684.824" stroke="white" stroke-width="0.448571" stroke-linecap="round" stroke-linejoin="round"/>
<path d="M469.427 -6.87728C468.045 -2.69978 466.558 1.41564 465.3 5.65964C459.581 24.9753 452.6 43.2874 441.673 57.5982C435.115 66.1876 427.778 73.4792 420.702 81.1659C413.506 88.9788 406.113 96.3846 398.973 104.305C393.249 110.655 387.606 117.222 382.232 124.21C376.533 131.618 370.957 139.311 365.756 147.464C358.59 158.702 351.744 170.391 344.915 182.073C338.906 192.351 332.654 202.224 325.269 210.39C318.003 218.422 310.001 223.584 301.253 225.945C295.055 227.619 288.875 228.602 282.681 228.186C275.317 227.685 267.886 227.698 260.611 226.478C249.716 224.652 238.922 221.71 229.163 214.84C220.566 208.787 213.478 200.078 210.439 185.91C209.094 179.638 208.283 173.215 208.495 166.435C208.553 164.562 208.216 162.671 208.43 160.84C209.489 151.668 210.661 142.515 211.81 133.354C212.523 127.658 213.096 121.924 214.031 116.283C216.115 103.709 216.969 91.0186 217.537 78.3578C217.917 69.8907 217.834 61.337 217.277 52.9979C216.338 38.8992 214.28 25.1433 211.561 11.7622C209.591 2.06505 206.897 -7.23797 204.524 -16.7178" stroke="white" stroke-width="0.448571" stroke-linecap="round" stroke-linejoin="round"/>
<path d="M161.511 -18.5338C163.08 -13.2525 164.908 -8.12132 166.152 -2.64881C167.884 4.97164 169.375 12.7574 170.604 20.6385C171.969 29.4007 173.061 38.3014 172.838 47.5594C172.685 53.902 173.045 60.2786 172.434 66.5675C171.283 78.3923 169.171 90.0316 163.642 99.79C157.253 111.068 149.557 118.12 139.484 117.633C132.486 117.296 125.741 115.754 119.099 113.141C116.311 112.043 113.33 111.748 110.412 111.264C107.509 110.783 104.593 110.266 101.659 110.213C95.4385 110.101 89.3604 111.946 83.3802 115.393C75.5809 119.891 68.7602 126.82 62.4038 134.832C55.5498 143.469 48.8914 152.447 42.1362 161.257C37.1353 167.78 31.8829 173.773 26.0609 178.564C18.2387 184.998 10.0242 189.959 1.39872 191.959C-3.57196 193.111 -8.75381 192.693 -13.6872 191.816C-19.7117 190.745 -22.89 183.666 -26.338 177.354C-31.1695 168.504 -34.3004 158.102 -37.878 148.122C-42.3858 135.545 -46.6801 122.784 -50.8964 109.964C-56.0605 94.2663 -60.7083 78.2103 -62.0785 60.3015C-62.5509 54.1387 -62.7096 47.8715 -62.8036 41.6249C-62.8697 37.3053 -62.8066 32.9143 -62.4021 28.5908C-61.0461 14.0957 -58.5446 -0.0363149 -53.5022 -13.2363C-51.8439 -17.5778 -50.2079 -21.9419 -48.5623 -26.2912" stroke="white" stroke-width="0.448571" stroke-linecap="round" stroke-linejoin="round"/>
<path d="M412.81 -8.8365C403.659 4.74935 394.53 18.3106 386.618 33.5823C375.815 54.4279 366.52 76.5807 357.454 98.9565C351.471 113.716 345.704 128.647 339.716 143.403C334.232 156.91 328.005 169.745 320.209 180.661C311.807 192.418 301.851 199.759 290.719 203.157C284.014 205.204 277.347 206.198 270.578 206.218C261.342 206.242 252.497 204.421 244.022 199.885C235.776 195.474 229.259 188.304 225.443 176.426C223.729 171.096 222.798 165.377 222.695 159.49C222.554 151.468 222.715 143.331 223.361 135.284C224.04 126.843 225.45 118.447 226.52 110.028C226.66 108.922 226.659 107.795 226.765 106.68C227.343 100.608 228.197 94.5315 228.476 88.4662C229.318 70.136 229.185 52.0233 226.553 34.252C223.958 16.7438 219.699 0.295496 215.312 -16.1214C215.257 -16.3233 215.005 -16.391 214.848 -16.5205" stroke="white" stroke-width="0.448571" stroke-linecap="round" stroke-linejoin="round"/>
<path d="M739.337 766.328C735.008 766.909 730.678 767.399 726.354 768.096C720.564 769.029 714.772 769.987 708.992 771.186C703.681 772.289 698.382 773.651 693.085 775.042C686.737 776.706 680.402 778.563 674.056 780.263C664.981 782.692 655.912 785.216 646.822 787.397C640.446 788.926 634.044 790.035 627.65 791.178C622.47 792.104 617.282 792.769 612.101 793.609C606.061 794.586 600.022 795.717 593.98 796.611C590.344 797.149 586.701 797.262 583.06 797.746C577.793 798.447 572.527 799.367 567.256 800.083C564.975 800.393 562.693 800.467 560.412 800.587C557.29 800.753 554.172 800.867 551.052 800.985C544.391 801.238 537.718 801.759 531.08 801.643C524.701 801.528 518.363 800.758 512.009 800.252C506.574 799.817 501.158 799.045 495.704 798.973C489.484 798.89 483.233 799.301 476.99 799.711C471.323 800.081 465.65 800.619 459.982 801.309C454.796 801.938 449.614 802.944 444.431 803.646C440.793 804.137 437.151 804.304 433.511 804.773C429.685 805.268 425.863 806.021 422.036 806.533C418.563 806.998 415.09 807.201 411.62 807.676C407.962 808.177 404.306 808.969 400.648 809.448C396.33 810.019 392.008 810.389 387.691 810.847" stroke="white" stroke-width="0.448571" stroke-linecap="round" stroke-linejoin="round"/>
<path d="M147.424 -19.066C147.808 -18.5536 148.376 -18.1651 148.553 -17.5116C151.916 -5.03631 154.837 7.67298 156.252 21.1865C157.308 31.2851 157.165 41.5709 155.812 51.7526C153.847 66.5227 147.634 75.4085 139.622 78.5065C133.6 80.8368 127.274 80.8407 121.239 78.8207C121.001 78.7427 120.735 78.8017 120.486 78.7813C116.059 78.3666 111.649 77.5746 107.202 77.6061C94.0078 77.6953 81.3486 81.8201 69.3354 92.0416C61.0561 99.0868 53.3858 107.376 45.8091 115.916C39.4042 123.137 32.7932 129.864 25.5324 134.789C20.5922 138.138 15.4646 140.339 10.0048 141.189C-1.88687 143.039 -11.2181 136.403 -19.131 125.609C-27.2851 114.482 -34.0815 101.488 -39.7407 87.2578C-44.0761 76.3519 -47.4895 64.7614 -49.422 52.1985C-51.2234 40.491 -50.8245 28.4125 -49.4153 16.3977C-47.6914 1.70211 -43.0881 -11.6053 -37.3431 -24.19C-37.0813 -24.7652 -36.7676 -25.2911 -36.476 -25.8397" stroke="white" stroke-width="0.448571" stroke-linecap="round" stroke-linejoin="round"/>
<path d="M318.745 -12.5828C317.787 -6.02724 316.829 0.528373 315.876 7.08418C315.822 7.44915 315.825 7.82719 315.794 8.2003C314.968 17.7443 313.816 27.2978 313.405 36.8321C313.021 45.7969 313.372 54.7532 313.485 63.7005C313.579 71.0554 313.613 78.4335 314.008 85.7235C314.635 97.3648 314.876 109.06 313.506 120.782C310.654 145.141 302.853 164.832 286.543 175.676C282.25 178.53 277.711 180.019 273.091 180.865C265.823 182.196 258.914 181.189 252.417 177.048C243.944 171.643 239.63 161.734 238.49 148.18C237.782 139.762 237.891 131.307 238.798 122.812C239.765 113.757 241.277 104.755 242.076 95.6932C242.86 86.7836 243.19 77.8167 243.445 68.8906C243.602 63.3985 243.28 57.9282 243.111 52.4601C242.821 42.9756 241.505 33.801 239.377 25.1372C236.21 12.2405 232.474 -0.303361 228.978 -12.9944C228.716 -13.9455 228.437 -14.8827 228.167 -15.8232" stroke="white" stroke-width="0.448571" stroke-linecap="round" stroke-linejoin="round"/>
<path d="M128.547 -19.5984C130.406 -12.2493 132.294 -4.92096 132.786 3.13221C133.247 10.7154 133.27 18.3474 130.433 25.3952C127.135 33.5919 121.815 37.7621 115.86 39.7351C107.734 42.4254 99.5649 44.7434 91.401 47.0616C80.6631 50.1109 70.7378 56.6177 61.4083 65.4001C53.0146 73.2985 44.8322 81.7319 36.481 89.7409C31.0897 94.915 25.4099 99.4458 19.2549 101.677C14.8452 103.276 10.4134 103.896 5.80587 103.006C-4.15486 101.081 -11.5699 93.4816 -18.0088 83.5353C-22.5738 76.4871 -26.9393 69.1522 -29.858 60.0769C-32.8378 50.8139 -35.0719 41.3902 -35.3973 30.7306C-36.0284 10.1207 -30.6141 -7.54212 -21.4732 -23.574C-21.016 -24.3779 -20.2367 -24.7954 -19.6061 -25.3929" stroke="white" stroke-width="0.448571" stroke-linecap="round" stroke-linejoin="round"/>
<path d="M56.3773 798.296C56.9988 784.412 61.669 773.157 68.1333 762.896C76.0667 750.304 85.7624 741.804 96.0894 734.953C110.493 725.392 125.464 718.826 140.669 713.925C144.839 712.582 149.145 712.665 153.389 712.048C167.015 710.071 178.688 716.898 189.717 726.186C196.486 731.889 202.863 738.457 207.679 747.684C211.302 754.631 213.211 762.222 212.7 771.749C212.057 783.738 207.971 793.537 203.82 803.504" stroke="white" stroke-width="0.448571" stroke-linecap="round" stroke-linejoin="round"/>
<path d="M83.2661 -21.3112C84.2326 -14.3448 82.5706 -8.53534 79.0152 -3.35357C72.9272 5.51519 65.6988 12.1132 58.9836 19.7336C52.9018 26.6403 46.8218 33.558 40.6542 40.2906C34.278 47.2516 27.7356 53.8247 20.0889 57.071C10.0817 61.3217 1.77315 58.1254 -5.00758 47.5812C-8.42193 42.2736 -11.0602 36.3268 -11.9816 28.9769C-13.5159 16.7307 -11.3643 5.40538 -5.64472 -4.70922C-1.52031 -12.0062 3.45479 -17.8864 8.74872 -23.1804C9.28226 -23.7126 9.96407 -23.9048 10.5776 -24.2559" stroke="white" stroke-width="0.448571" stroke-linecap="round" stroke-linejoin="round"/>
<path d="M170.834 802.629C175.747 794.821 178.1 786.05 176.436 775.99C175.297 769.108 171.896 764.561 168.408 760.468C163.921 755.203 158.572 752.341 152.749 750.688C147.706 749.255 142.624 748.51 137.479 748.857C124.431 749.729 111.705 753.484 99.8667 763.738C95.7521 767.3 92.1464 771.604 89.0709 777.105C85.284 783.877 83.8784 791.215 84.549 799.366" stroke="white" stroke-width="0.448571" stroke-linecap="round" stroke-linejoin="round"/>
<path d="M279.755 -14.0595C278.335 -11.7513 276.797 -9.5674 275.519 -7.10474C273.47 -3.15233 270.655 -0.875101 267.672 -0.188588C265.682 0.270262 263.438 -0.952084 261.553 -2.15724C257.995 -4.42868 255.028 -7.98957 252.36 -12.0842C251.559 -13.3101 250.506 -14.1749 249.568 -15.2061" stroke="white" stroke-width="0.448571" stroke-linecap="round" stroke-linejoin="round"/>
<path d="M18.8612 669.651C17.2193 669.091 15.5387 668.671 13.9401 667.945C8.81859 665.622 4.74765 661.365 1.69082 654.861C-4.81161 641.017 -7.22424 624.849 -8.60925 608.15C-9.3438 599.281 -9.71921 590.262 -9.76229 581.252C-9.80639 572.104 -9.66037 562.843 -8.84569 553.694C-7.46534 538.197 -4.44129 523.118 0.72348 508.913C4.71401 497.933 9.83756 488.032 16.1608 479.736C23.0946 470.634 30.8713 463.406 39.7083 459.264C52.0791 453.464 62.6437 457.737 71.818 468.746C80.3942 479.043 85.8048 492.78 89.5504 508.166C91.8039 517.423 93.2002 527.001 93.656 537.036C94.0635 545.973 94.2273 554.919 93.2109 563.889C92.0147 574.429 90.1702 584.828 87.6048 595.03C83.173 612.661 76.2012 627.931 66.2506 640.004C57.4336 650.7 47.4793 658.582 36.881 664.352C31.0849 667.508 25.1317 668.998 19.1118 669.657" stroke="white" stroke-width="0.448571" stroke-linecap="round" stroke-linejoin="round"/>
<path d="M5.42443 703.469C-1.01827 701.223 -5.73206 695.448 -9.04948 687.553C-12.6257 679.045 -15.258 669.687 -16.732 659.703C-18.5657 647.278 -20.3406 634.805 -21.6567 622.193C-22.4576 614.513 -22.2989 606.521 -22.6532 598.687C-23.4155 581.848 -22.7183 564.919 -21.0974 548.006C-19.5662 532.046 -16.4575 516.469 -11.3635 501.759C-4.4374 481.759 5.40269 465.016 17.3713 451.042C23.554 443.823 30.1111 437.382 37.4623 432.983C42.3823 430.041 47.3172 428.258 52.4848 427.621C62.2946 426.416 70.4726 431.846 78.1644 438.805C84.8687 444.873 90.6696 452.735 95.7353 461.484C102.243 472.723 108.182 484.744 112.074 498.631C114.1 505.863 115.411 513.612 115.346 521.826C115.309 526.556 115.782 531.334 115.275 535.996C114.3 544.942 112.746 553.811 111.512 562.726C109.8 575.103 106.904 587.069 103.924 598.992C100.283 613.557 95.4007 627.224 88.5654 639.488C82.5505 650.282 75.1987 658.51 67.3087 665.926C54.7501 677.73 41.6384 687.79 28.0878 696.438C20.8756 701.041 13.4836 704.693 5.67457 703.482" stroke="white" stroke-width="0.448571" stroke-linecap="round" stroke-linejoin="round"/>
<path d="M-5.56156 745.585C-13.7216 742.532 -17.1043 732.792 -20.0986 722.631C-24.0522 709.222 -26.5343 694.977 -28.5158 680.523C-30.747 664.253 -32.7548 647.886 -33.4684 631.107C-33.8401 622.379 -34.4897 613.695 -34.6268 604.936C-34.7909 594.275 -34.7033 583.565 -34.4339 572.863C-34.2075 563.816 -33.9993 554.688 -33.0131 545.695C-31.1919 529.096 -28.3557 512.76 -23.2371 497.157C-18.9322 484.038 -13.5305 472.062 -7.1254 460.785C0.910508 446.633 9.66215 433.596 19.1321 421.595C24.5999 414.665 30.5368 408.709 36.9638 403.919C44.3658 398.403 52.0773 396.744 59.8043 398.225C67.0879 399.62 73.8788 403.366 80.3123 408.191C89.1975 414.858 97.15 423.55 105.484 431.424C111.325 436.943 117.138 442.64 124.136 445.383C132.073 448.496 139.551 446.468 146.715 439.769C154.17 432.795 160.393 423.579 166.647 414.451C170.182 409.286 173.958 404.669 178.14 400.594C184.512 394.381 187.83 399.849 189.39 406.718C191.141 414.419 191.421 422.529 191.816 430.681C192.354 441.755 191.666 452.882 190.344 463.831C187.707 485.662 181.104 504.494 167.621 517.519C158.929 525.915 149.876 533.68 142.727 545.248C138.067 552.79 134.136 561.079 131.186 570.19C125.081 589.059 119.441 608.229 113.014 626.885C107.633 642.511 100.247 656.043 90.4768 666.848C78.137 680.495 64.4515 690.482 51.4268 702.264C42.971 709.913 34.7408 718.159 26.2959 725.841C20.2365 731.354 14.0463 736.541 7.80742 741.552C3.68112 744.863 -0.746394 746.338 -5.31096 745.591" stroke="white" stroke-width="0.448571" stroke-linecap="round" stroke-linejoin="round"/>
<path d="M28.9803 632.725C27.8333 632.308 26.6834 631.893 25.5365 631.476C18.3926 628.861 14.2291 621.585 11.1924 612.305C8.29742 603.46 6.89888 593.875 6.19922 584.081C5.4753 573.911 5.457 563.51 6.76912 553.167C9.25671 533.54 14.3227 515.526 25.4368 502.065C31.6427 494.549 38.6823 490.11 46.6028 490.893C52.7598 491.501 57.6741 495.749 61.7043 501.934C68.1138 511.77 71.2498 524.164 72.9248 537.739C74.1099 547.351 74.5434 557.059 73.329 566.869C70.2846 591.493 63.1135 612.4 46.9409 625.302C41.233 629.857 35.4172 632.188 29.2333 632.735" stroke="white" stroke-width="0.448571" stroke-linecap="round" stroke-linejoin="round"/>
<path d="M229.634 700.019C227.27 698.933 224.788 698.193 222.568 696.699C216.298 692.486 210.729 686.704 206.151 679.274C202.55 673.421 200.3 666.178 199.256 658.191C198.366 651.369 202.198 643.981 207.128 642.434C212.997 640.592 218.472 642.355 223.527 645.475C228.951 648.824 233.735 653.838 237.398 660.758C241.263 668.063 243.342 676.518 243.696 686.005C243.965 693.232 239.236 700.139 234.165 700.179C232.738 700.191 231.313 700.082 229.887 700.028" stroke="white" stroke-width="0.448571" stroke-linecap="round" stroke-linejoin="round"/>
<path d="M102.076 341.495C98.6919 339.376 95.0766 337.778 91.9686 335.033C85.6508 329.452 80.586 322.141 79.5042 310.421C78.8435 303.274 79.5777 296.666 83.6021 291.16C86.0683 287.783 88.6467 284.963 91.9412 283.594C97.2515 281.39 102.295 282.318 106.955 285.093C113.845 289.191 118.927 296.517 121.554 306.842C123.302 313.704 123.251 321.122 121.123 328.408C118.686 336.746 113.131 341.917 107.106 341.689L102.326 341.508" stroke="white" stroke-width="0.448571" stroke-linecap="round" stroke-linejoin="round"/>
<path d="M450.871 440.51C450.05 440.232 449.24 439.864 448.404 439.687C443.933 438.74 439.452 437.858 434.977 436.922C430.749 436.038 426.474 435.39 422.314 434.146C415.614 432.14 408.955 429.89 402.35 427.419C398.525 425.988 395.62 422.422 393.729 417.427C392.052 412.992 392.137 407.777 393.029 402.901C394.355 395.651 395.95 388.392 398.023 381.465C402.435 366.715 407.903 352.702 413.939 339.082C419.118 327.395 425.07 316.774 432.079 307.355C441.829 294.249 453.099 286.478 465.751 283.646C470.864 282.503 475.983 281.501 481.102 280.488C488.601 279.003 496.098 277.499 503.602 276.133C508.697 275.207 513.818 274.815 518.895 273.619C524.184 272.37 529.408 272.339 534.592 272.876C542.478 273.691 548.815 278.197 551.251 289.9C552.05 293.742 552.282 298.071 552.163 302.206C551.966 309.139 551.658 316.166 550.723 323.028C548.452 339.72 547.486 356.483 546.346 373.243C546 378.328 546.25 383.465 545.698 388.509C544.932 395.541 544.379 402.773 541.794 409.246C537.982 418.782 532.07 424.569 525.341 428.344C516.93 433.058 508.201 435.628 499.474 437.801C494.486 439.044 489.443 439.376 484.431 440.32C473.222 442.432 462.22 440.544 451.121 440.527" stroke="white" stroke-width="0.448571" stroke-linecap="round" stroke-linejoin="round"/>
<path d="M328.689 580.648C319.286 576.549 313.329 566.316 307.752 555.566C302.356 545.165 298.482 533.546 297.042 520.134C295.543 506.159 296.295 492.633 302.855 480.457C307.693 471.476 314.284 466.602 321.418 463.209C328.358 459.91 335.351 459.459 342.297 460.358C347.975 461.089 351.807 467.96 352.53 475.615C352.932 479.853 352.852 484.302 352.659 488.659C352.36 495.356 351.841 502.059 351.297 508.753C350.633 516.937 349.974 525.132 349.077 533.293C348.162 541.605 347.228 549.957 345.782 558.144C344.885 563.212 343.47 568.427 341.474 572.836C338.524 579.356 334.081 581.975 328.939 580.665" stroke="white" stroke-width="0.448571" stroke-linecap="round" stroke-linejoin="round"/>
<path d="M320.538 676.598C318.896 676.038 317.264 675.406 315.606 674.932C307.979 672.761 301.979 666.909 296.758 658.953C289.376 647.699 283.573 634.637 277.377 622.007C271.854 610.748 265.97 599.877 260.592 588.463C254.193 574.877 250.287 559.485 249.167 542.545C248.698 535.449 248.87 528.148 249.121 520.922C249.49 510.379 249.889 499.798 250.827 489.281C252.126 474.733 254.204 460.229 258.803 446.71C264.11 431.107 272.054 419.086 282.866 411.366C292.038 404.82 301.734 401.248 311.349 397.178C320.179 393.439 328.941 389.345 337.276 383.214C347.089 375.994 355.767 366.518 363.282 354.43C370.887 342.199 377.216 328.764 383.131 314.838C388.19 302.928 393.096 290.861 398.515 279.285C403.586 268.455 409.103 258.06 415.642 248.856C422.006 239.9 428.687 231.744 436.203 224.964C445.499 216.58 455.411 211.192 465.713 207.639C470.228 206.081 474.892 205.665 479.491 205.105C485.495 204.373 491.502 204.008 497.507 203.498C501.65 203.146 505.796 203.037 509.937 202.424C517.003 201.38 524.07 200.183 531.125 198.756C539.757 197.016 548.397 195.268 556.992 192.98C565.929 190.601 574.841 189.913 583.599 191.237C595.725 193.066 604.849 203.248 606.665 222.918C607.464 231.575 607.355 240.34 606.259 249.016C604.832 260.325 602.823 271.543 600.974 282.775C599.362 292.554 597.764 302.345 595.898 312.05C594.104 321.386 592.776 330.802 592.533 340.285C592.107 356.774 593.877 372.376 601.024 384.962C605.598 393.017 611.711 397.63 618.852 399.979C623.056 401.363 627.293 402.022 631.603 401.749C638.206 401.334 644.832 399.975 651.425 399.708C657.591 399.458 663.87 399.398 669.274 404.032C675.796 409.629 679.019 418.018 679.205 429.737C679.419 443.197 676.097 455.089 670.466 465.494C662.92 479.439 653.049 487.721 641.137 490.399C634.019 492.001 627.112 491.121 620.157 490.811C615.629 490.607 611.195 489.112 606.716 488.198C600.747 486.976 594.787 485.704 588.804 484.569C587.244 484.274 585.624 484.347 584.027 484.363C574.017 484.46 564.01 484.346 553.986 484.795C547.728 485.074 541.434 485.955 535.17 487.044C527.058 488.456 518.951 490.18 510.859 492.065C498.535 494.935 486.228 498.059 473.912 501.074C465.104 503.23 456.257 504.955 447.498 507.665C439.827 510.038 432.131 512.16 424.961 518.444C418.368 524.226 414.636 532.458 412.625 542.433C410.626 552.354 410.863 562.462 410.811 572.58C410.767 581.06 410.538 589.609 409.331 598.27C407.175 613.749 401.613 625.828 393.714 636.51C383.935 649.738 372.683 658.724 360.641 665.852C353.161 670.278 345.535 673.867 337.736 675.57C332.129 676.793 326.441 676.32 320.788 676.604" stroke="white" stroke-width="0.448571" stroke-linecap="round" stroke-linejoin="round"/>
<path d="M328.179 646.291C326.546 645.608 324.875 645.05 323.284 644.216C316.978 640.91 311.697 635.467 307.221 628.342C297.921 613.541 289.792 597.339 282.051 580.704C277.953 571.901 274.427 562.515 271.892 552.361C269.208 541.604 267.738 530.385 267.308 518.643C266.934 508.421 267.488 498.216 268.574 488.086C271.14 464.192 278.981 445.102 294.452 433.438C302.386 427.459 310.755 423.706 319.114 419.862C332.249 413.822 345.164 407.105 356.694 394.859C361.561 389.69 365.922 383.834 369.967 377.377C378.818 363.249 385.862 347.276 392.826 331.231C399.169 316.616 405.102 301.647 412.443 287.924C420.373 273.092 429.449 260.096 440.35 250.327C448.392 243.12 457.065 237.95 466.267 235.94C472.127 234.661 478.006 233.67 483.881 232.886C488.442 232.274 493.006 232.181 497.569 231.852C504.327 231.367 511.086 230.983 517.85 230.349C524.291 229.746 530.745 229.228 537.172 228.039C545.252 226.55 553.223 227.019 561.167 227.647C569.335 228.29 576.199 233.129 580.418 243.3C582.382 248.029 583.728 253.597 583.418 259.726C582.999 268.043 582.994 276.411 582.086 284.662C581.141 293.25 579.284 301.719 577.922 310.262C577.138 315.185 576.465 320.145 575.887 325.105C574.892 333.644 573.755 342.184 573.153 350.744C572.432 360.986 572.904 371.165 574.334 380.983C576.045 392.731 578.126 404.333 580.222 415.91C581.174 421.175 582.013 426.359 581.629 432.025C581.37 435.841 580.266 438.892 578.411 441.609C573.657 448.58 567.666 451.679 561.622 454.335C553.144 458.062 544.531 460.531 535.861 462.412C527.733 464.175 519.623 466.358 511.497 468.132C504.945 469.563 498.381 470.753 491.819 471.875C485.279 472.994 478.734 474.098 472.191 474.827C466.791 475.43 461.382 475.614 455.989 475.733C449.426 475.881 442.879 475.44 436.311 475.853C427.93 476.379 419.559 476.992 411.234 480.692C402.038 484.781 394.851 492.623 389.721 504.632C387.288 510.325 385.481 516.507 384.63 523.059C383.81 529.366 382.659 535.696 382.409 541.995C382.109 549.473 382.637 556.931 382.763 564.404C382.837 568.876 382.91 573.352 382.83 577.837C382.734 583.045 382.571 588.271 382.253 593.485C381.6 604.202 378.471 613.488 373.278 621.5C368.459 628.934 363.08 635.115 356.677 639.176C351.526 642.44 346.352 645.551 340.813 645.97C336.683 646.282 332.561 646.199 328.436 646.29" stroke="white" stroke-width="0.448571" stroke-linecap="round" stroke-linejoin="round"/>
</g>
</g>
<defs>
<filter id="filter0_f_8335_32858" x="-2360.31" y="-228.582" width="2723.07" height="1050.71" filterUnits="userSpaceOnUse" color-interpolation-filters="sRGB">
<feFlood flood-opacity="0" result="BackgroundImageFix"/>
<feBlend mode="normal" in="SourceGraphic" in2="BackgroundImageFix" result="shape"/>
<feGaussianBlur stdDeviation="100" result="effect1_foregroundBlur_8335_32858"/>
</filter>
<linearGradient id="paint0_linear_8335_32858" x1="679.762" y1="-19.0549" x2="320.897" y2="1006.03" gradientUnits="userSpaceOnUse">
<stop offset="0.16" stop-color="#FC5161"/>
<stop offset="0.908654" stop-color="#FC5161" stop-opacity="0"/>
</linearGradient>
</defs>
</svg>
