<svg width="488" height="799" viewBox="0 0 488 799" fill="none" xmlns="http://www.w3.org/2000/svg">
<mask id="mask0_8335_32965" style="mask-type:alpha" maskUnits="userSpaceOnUse" x="0" y="0" width="488" height="799">
<rect width="488" height="798.285" fill="#D9D9D9"/>
</mask>
<g mask="url(#mask0_8335_32965)">
<g opacity="0.6" filter="url(#filter0_f_8335_32965)">
<path d="M606.072 76.0278C446.501 76.0279 499.413 213.443 499.413 382.953C499.413 552.462 446.501 689.877 606.072 689.877C765.642 689.877 895 552.462 895 382.953C895 213.443 765.642 76.0278 606.072 76.0278Z" fill="url(#paint0_linear_8335_32965)"/>
</g>
<g opacity="0.2">
<path d="M493.602 -105.658C492.843 -85.1273 488.751 -65.8655 482.786 -47.4574C478.599 -34.5345 473.837 -22.0733 469.73 -9.09222C466.898 -0.14235 464.301 9.15387 462.44 18.654C461.125 25.3779 461.18 32.7364 462.839 39.3188C464.942 47.6562 467.277 55.8143 469.253 64.243C470.648 70.1877 471 76.5542 470.785 83.258C470.26 99.4948 466.973 114.747 463.481 129.995C460.515 142.949 457.431 155.848 454.696 168.909C451.519 184.086 448.519 199.364 445.721 214.704C443.992 224.172 442.645 233.804 441.376 243.426C440.344 251.251 439.318 259.168 438.942 267.046C438.33 279.929 439.501 292.296 443.965 302.575C446.729 308.936 451.026 312.117 455.561 314.379C460.906 317.047 466.389 316.621 472.026 315.165C478.972 313.369 485.945 311.986 492.911 310.885C496.866 310.26 500.89 309.974 504.778 310.578C510.418 311.45 515.249 315.554 519.002 322.305C525.488 333.971 528.351 348.478 529.394 364.559C530.05 374.655 529.43 384.758 528.413 394.736C526.757 410.958 522.602 426.135 516.901 439.914C510.636 455.056 502.699 467.663 493.069 476.956C486.338 483.448 479.182 487.437 471.683 489.432C463.256 491.673 454.932 490.69 446.646 489.915C440.82 489.371 435.126 487.193 429.351 485.916C425.206 485.003 421.034 484.269 416.856 483.649C410.471 482.703 403.964 482.655 397.706 480.874C391.209 479.028 384.627 481.087 378.114 480.476C372.409 479.946 366.532 481.09 360.747 482.166C351.373 483.916 342.026 486.177 332.686 489.299C324.234 492.128 315.875 495.515 307.594 499.7C297.17 504.966 286.805 510.672 277.427 520.829C271.844 526.878 267.24 534.731 264.687 544.903C261.914 555.949 259.681 567.329 257.407 578.652C253.704 597.086 248.472 614.243 240.35 628.776C234.679 638.92 228.149 647.472 221.261 655.247C212.366 665.291 202.835 673.18 193.118 680.171C184.6 686.3 175.906 691.72 166.964 695.705C159.628 698.976 152.305 701.756 144.83 703.445C138.024 704.982 131.289 705.046 124.68 703.969C115.338 702.442 107.258 696.388 101.071 684.639C94.9501 673.014 90.6647 659.283 85.5899 646.446C82.0969 637.608 78.2425 629.158 74.2754 620.917C68.5175 608.959 62.2768 597.653 56.6828 585.488C51.5896 574.413 48.9576 561.164 48.4652 546.805C47.9578 531.94 49.0978 516.949 50.1347 502.008C50.6121 495.122 51.2699 488.244 51.8979 481.368C52.8532 470.905 53.7203 460.425 54.8787 449.995C56.0091 439.803 57.1951 429.585 58.8222 419.533C61.5928 402.434 65.653 385.979 72.565 371.836C79.1438 358.372 87.5143 348.962 97.2077 343.013C107.704 336.569 118.57 333.449 129.266 328.774C145.915 321.492 161.539 310.169 174.252 288.927C180.413 278.632 185.786 267.306 190.53 255.135C198.996 233.416 207.367 211.576 216.236 190.291C220.208 180.764 224.948 171.853 229.951 163.703C239.601 147.983 250.105 134.07 262.19 123.902C271.317 116.222 280.85 110.998 290.585 107.199C295.821 105.153 301.204 104.619 306.521 103.422C311.922 102.203 317.325 100.652 322.728 99.8789C330.931 98.7045 339.042 96.3617 347.119 93.0927C355.769 89.5918 364.196 84.7783 372.023 77.1984C375.939 73.4065 379.731 68.8988 383.114 63.8398C386.271 59.1158 388.402 52.885 388.41 45.6469C388.417 40.0859 387.23 35.1085 385.732 30.4415C382.9 21.6189 380.04 12.8119 377.024 4.17475C371.791 -10.808 368.64 -27.24 367.226 -44.6401C366.17 -57.6364 366.636 -71.0593 368.117 -84.2537C369.123 -93.2103 371.153 -101.976 372.725 -110.829" stroke="white" stroke-width="0.448571" stroke-linecap="round" stroke-linejoin="round"/>
<path d="M42.5451 824.495C45.5873 818.295 48.8443 812.336 51.6261 805.843C56.4496 794.582 60.9394 782.946 65.6442 771.55C69.6736 761.789 73.317 751.143 80.1289 745.978C83.8393 743.165 87.8607 741.232 91.8146 740.005C97.5223 738.236 103.301 737.643 109.038 736.241C117.517 734.171 125.979 731.658 134.46 729.642C145.662 726.982 156.631 722.084 167.487 716.261C175.747 711.831 183.969 707.025 192.084 701.753C199.285 697.076 206.351 691.683 213.412 686.336C227.956 675.32 241.493 661.364 253.416 643.148C262.315 629.548 270.129 614.435 276.428 597.193C280.567 585.87 285.074 574.839 289.784 564.104C296.176 549.547 304.542 538.796 314.19 531.025C325.625 521.813 337.571 516.007 349.855 512.695C355.782 511.1 361.719 509.391 367.659 508.364C372.658 507.497 377.677 507.368 382.678 507.22C389.045 507.031 395.425 506.812 401.756 507.226C408.008 507.637 414.223 508.673 420.427 509.704C425.711 510.581 430.943 511.949 436.22 512.894C441.484 513.838 446.778 514.511 452.054 515.342C454.015 515.653 455.954 516.505 457.918 516.371C466.92 515.756 475.909 515.372 484.835 510.765C496.833 504.574 507.074 493.6 516.202 478.863C523.464 467.139 529.323 453.83 534.268 439.413C538.311 427.632 541.395 415.296 543.625 402.323C545.838 389.446 546.459 376.45 546.73 363.607C546.971 352.15 545.719 340.756 544.847 329.423C543.771 315.422 541.383 302.078 537.997 289.453C534.696 277.155 530.663 265.62 522.816 259.912C520.696 258.367 518.392 257.082 516.066 256.642C510.126 255.526 504.138 256.93 498.145 258.725C492.521 260.409 486.875 262.681 481.2 261.916C473.629 260.894 468.485 255.07 467.253 241.066C466.151 228.547 468.304 216.55 470.763 204.52C475.471 181.489 484.13 162.444 494.05 144.697C500.694 132.808 505.978 119.575 509.543 104.729C510.681 99.9944 510.949 94.7642 511.558 89.746C512.009 86.0326 512.621 82.2883 512.721 78.5809C513.061 65.6738 513.225 52.8223 512.081 40.1123C510.803 25.9211 509.843 11.6048 509.034 -2.74283C508.682 -8.95811 509.014 -15.3752 509.109 -21.7101C509.184 -26.7343 509.206 -31.7776 509.539 -36.7949C510.169 -46.2637 510.977 -55.7248 511.765 -65.1826C512.183 -70.2047 512.929 -75.217 513.138 -80.227C513.461 -87.9939 513.462 -95.7535 513.55 -103.514C513.554 -103.976 513.118 -104.398 512.888 -104.841" stroke="white" stroke-width="0.448571" stroke-linecap="round" stroke-linejoin="round"/>
<path d="M591.376 397.875C590.986 400.734 590.648 403.611 590.198 406.455C588.701 415.89 587.544 425.5 585.569 434.71C580.988 456.052 575.804 477.109 571.258 498.469C568.503 511.412 566.437 524.686 564.147 537.842C561.417 553.534 559.029 569.363 556.038 584.94C551.93 606.336 546.624 627.219 537.386 644.419C529.873 658.406 520.984 669.618 510.114 676.034C503.512 679.929 496.885 683.046 490.144 685.141C485.516 686.577 480.792 686.568 476.11 687.284C461.912 689.463 447.904 687.589 433.832 687.129C426.799 686.899 419.803 686.045 412.794 685.417C407.666 684.957 402.535 684.49 397.418 683.884C390.845 683.106 384.279 682.245 377.721 681.316C372.774 680.617 367.856 679.633 362.906 679C354.892 677.976 346.885 676.83 338.833 676.3C330.966 675.782 323.064 677.831 315.341 681.368C304.464 686.345 294.125 694.032 284.039 703.091C275.164 711.064 266.101 718.502 256.909 725.229C244.195 734.538 231.345 743.294 218.431 751.643C209.826 757.21 201.008 761.687 192.277 766.601C178.221 774.511 164.11 782.112 150.112 790.374C142.656 794.775 135.313 799.962 128.053 805.381C120.717 810.859 113.593 817.2 106.953 825.07C106.158 826.011 105.166 826.469 104.266 827.149" stroke="white" stroke-width="0.448571" stroke-linecap="round" stroke-linejoin="round"/>
<path d="M83.1782 826.236C87.3604 821.093 91.4063 815.575 95.7549 810.893C102.226 803.932 108.77 797.083 115.531 791.038C128.72 779.245 142.845 772.036 156.834 764.174C172.904 755.143 188.957 745.995 204.927 736.397C212.666 731.743 220.16 725.721 227.838 720.699C243.774 710.289 258.65 696.138 273.295 681.154C281.856 672.395 290.407 663.602 298.89 654.616C309.804 643.049 321.535 635.544 333.865 631.226C337.887 629.817 342.022 629.515 346.099 629.102C351.622 628.544 357.142 628.482 362.663 628C368.2 627.518 373.751 627.201 379.275 626.055C387.948 624.253 396.512 621.093 404.916 616.089C413.875 610.756 422.906 605.704 432.24 603.472C436.026 602.567 439.854 602.416 443.655 602.188C450.379 601.782 457.098 601.99 463.821 601.198C474.546 599.938 485.066 596.337 495.07 587.992C501.836 582.351 508.188 575.696 514.123 567.686C520.049 559.688 525.716 551.242 530.592 541.51C534.889 532.934 539.024 524.061 542.772 514.835C546.79 504.952 550.404 494.619 553.963 484.288C560.914 464.119 566.935 443.242 571.643 421.581C573.473 413.156 574.33 404.214 575.357 395.451C576.192 388.328 576.968 381.106 577.147 373.964C577.392 364.159 577.192 354.356 576.926 344.605C576.602 332.616 576.101 320.656 575.514 308.723C575.124 300.744 574.379 292.865 573.922 284.905C573.386 275.558 572.984 266.167 572.527 256.799C571.688 239.587 570.221 222.605 567.601 206.112C565.285 191.536 562.745 177.085 560.222 162.626C556.809 143.063 553.978 123.215 552.574 102.722C551.236 83.1474 550.078 63.5135 548.944 43.8723C548.304 32.8065 547.849 21.6855 547.355 10.5755C546.906 0.497215 546.406 -9.57483 546.138 -19.6958C545.928 -27.5738 546.076 -35.5205 545.997 -43.4265C545.883 -55.0919 545.813 -66.7639 545.529 -78.3988C545.335 -86.3644 544.824 -94.2637 544.413 -102.184C544.387 -102.681 543.979 -103.073 543.747 -103.516" stroke="white" stroke-width="0.448571" stroke-linecap="round" stroke-linejoin="round"/>
<path d="M62.087 825.331C65.3264 820.148 68.5876 815.004 71.8004 809.769C80.9016 794.942 90.8307 782.173 102.163 772.616C110.991 765.168 120.246 760.12 129.545 755.332C139.705 750.096 149.973 745.576 160.096 740.104C172.27 733.526 184.433 726.775 196.424 719.159C206.808 712.563 217.071 705.159 227.156 697.188C238.724 688.045 249.803 677.204 260.163 664.234C273.687 647.306 285.915 627.939 298.158 608.522C308.157 592.661 318.492 577.269 330.846 566.756C338.99 559.824 347.447 554.222 356.284 550.969C362.944 548.518 369.617 546.193 376.302 544.079C380.296 542.817 384.325 542.082 388.338 541.089C400.312 538.126 412.151 539.327 423.975 540.153C430.487 540.608 436.909 542.312 443.372 543.443C443.88 543.532 444.401 543.495 444.915 543.517C451.688 543.807 458.444 544.467 465.233 544.316C482.637 543.931 498.789 535.598 513.325 517.137C523.994 503.584 532.607 487.017 539.972 468.593C545.574 454.579 550.391 439.93 554.087 424.354C556.422 414.522 558.582 404.681 559.469 394.349C560.294 384.75 561.327 375.13 561.662 365.535C561.954 357.17 561.536 348.796 561.193 340.488C560.762 330.074 560.317 319.634 559.467 309.35C558.146 293.387 556.533 277.529 554.938 261.668C553.325 245.618 550.388 230.334 546.66 215.58C543.769 204.14 540.525 192.979 537.719 181.476C535.125 170.843 533.885 159.479 533.822 147.681C533.764 136.468 533.802 125.242 533.804 114.018C533.807 105.389 533.988 96.7244 533.799 88.1328C533.52 75.4262 533.043 62.7531 532.536 50.0956C531.949 35.5221 531.164 20.9906 530.601 6.41387C530.158 -5.08072 529.801 -16.6053 529.634 -28.1553C529.498 -37.4719 529.747 -46.8519 529.75 -56.192C529.752 -66.7007 529.721 -77.2108 529.603 -87.6994C529.539 -93.1205 529.253 -98.5091 529.067 -103.91" stroke="white" stroke-width="0.448571" stroke-linecap="round" stroke-linejoin="round"/>
<path d="M-152.645 816.132C-151.212 809.577 -150.218 802.675 -148.263 796.534C-143.618 781.97 -137.518 768.999 -129.996 758.005C-121.872 746.133 -113.069 735.918 -103.42 728.084C-92.2674 719.032 -80.9772 710.512 -69.8489 701.371C-58.0126 691.651 -46.4926 680.917 -36.0093 667.078C-26.1813 654.107 -17.0327 639.875 -8.21003 625.053C-3.64969 617.392 1.08398 609.856 5.02431 601.378C11.5273 587.386 16.3745 571.713 21.0254 555.981C25.37 541.282 29.3503 526.358 32.0641 510.719C33.6271 501.715 35.3939 492.778 36.7577 483.719C38.2573 473.762 39.4331 463.712 40.6912 453.686C41.4803 447.401 42.083 441.072 42.9066 434.797C44.0537 426.057 45.4405 417.373 46.5237 408.617C48.0738 396.065 50.5516 383.981 53.9183 372.246C62.4221 342.614 75.7907 323.153 95.005 316.245C104.528 312.824 114.12 310.255 123.659 307.01C137.096 302.437 149.837 294.622 161.156 280.201C170.087 268.818 177.06 254.61 183.218 239.233C188.617 225.752 193.729 211.974 199.161 198.532C207.012 179.104 215.596 160.669 225.855 144.324C235.081 129.62 245.047 116.764 256.095 106.51C266.662 96.7019 277.749 89.2028 289.377 84.5264C301.462 79.6678 313.583 75.063 325.594 69.5581C334.173 65.6255 342.327 59.535 348.133 46.9126C350.9 40.894 352.593 34.1736 353.528 26.8785C355.139 14.2992 354.126 2.0908 353.737 -10.2422C353.44 -19.7002 353.308 -29.2184 353.425 -38.7386C353.559 -49.7839 353.604 -60.9045 354.487 -71.9135C355.548 -85.1764 357.262 -98.4197 360.38 -111.157" stroke="white" stroke-width="0.448571" stroke-linecap="round" stroke-linejoin="round"/>
<path d="M-177.818 814.622C-172.454 799.114 -166.448 784.281 -159.134 771.017C-150.011 754.467 -140.023 739.414 -128.615 727.511C-119.224 717.711 -109.558 708.671 -99.8692 699.788C-90.2748 690.994 -80.633 682.264 -72.1339 670.572C-63.5318 658.742 -57.1213 643.876 -51.855 627.577C-46.812 611.971 -42.2971 595.855 -35.6955 581.619C-30.2079 569.79 -23.6077 559.955 -16.312 551.381C-9.12122 542.933 -1.73093 534.889 4.40643 524.185C13.5459 508.246 19.7668 489.719 23.2662 468.914C24.9459 458.927 26.6497 448.945 28.1571 438.904C28.8576 434.248 29.0536 429.447 29.5952 424.737C30.5849 416.141 31.6522 407.557 32.7061 398.973C33.3566 393.675 33.8854 388.333 34.7373 383.099C36.1854 374.207 37.6196 365.277 39.4731 356.559C42.2632 343.429 46.1001 331.117 51.4085 319.877C59.2515 303.273 69.0602 292.651 81.205 288.934C86.124 287.43 91.1107 286.807 96.0695 286.065C101.522 285.252 106.98 284.998 112.428 284.084C122.738 282.357 132.99 279.954 142.801 272.527C152.232 265.385 160.247 255.254 167.129 242.089C174.767 227.477 181.116 211.49 187.5 195.462C195.512 175.351 204.068 155.78 214.217 138.396C227.31 115.964 241.977 96.8313 258.589 82.4313C268.552 73.7953 278.99 67.2773 289.514 61.259C299.294 55.6711 309.207 50.9381 318.32 41.8579C327.641 32.5724 333.125 19.356 335.98 2.41627C338.476 -12.4035 339.127 -27.3485 340.227 -42.3038C341.103 -54.2126 341.993 -66.1714 343.494 -77.9694C344.944 -89.3535 347.184 -100.561 349.075 -111.842" stroke="white" stroke-width="0.448571" stroke-linecap="round" stroke-linejoin="round"/>
<path d="M336.73 -112.378C335.547 -105.666 334.33 -98.9669 333.19 -92.2438C332.421 -87.6908 331.73 -83.1091 331.059 -78.5266C329.842 -70.2389 328.668 -61.9411 327.467 -53.6527C326.289 -45.5021 325.216 -37.3134 323.889 -29.2112C319.825 -4.38278 311.793 15.7947 297.453 27.854C287.894 35.8893 278.177 43.3336 268.476 50.8206C259.388 57.8337 250.682 66.0065 242.222 75.1229C234.805 83.1155 227.81 92.0174 221.051 101.488C208.106 119.631 196.969 140.554 186.863 163.022C181.475 175.002 176.192 187.109 170.72 198.989C163.716 214.192 156.418 228.856 146.174 238.602C139.638 244.825 132.842 248.452 125.593 250.293C119.998 251.714 114.487 251.81 109.034 251.043C103.388 250.25 97.8557 248.315 92.2561 247.033C88.3667 246.143 84.4043 245.784 80.5415 244.723C71.0149 242.104 61.2732 242.254 51.5762 241.851C48.4049 241.72 45.1975 242.179 42.0112 242.249C29.7552 242.522 19.0372 236.413 9.86602 224.041C1.56083 212.835 -6.63753 201.429 -14.0139 188.507C-19.6675 178.6 -25.6384 169.156 -30.945 158.743C-36.6737 147.501 -41.8183 135.41 -47.1563 123.609C-48.1177 121.483 -48.9106 119.074 -49.5651 116.612C-51.9703 107.564 -51.7301 103.455 -45.9923 96.1094C-43.3226 92.6886 -40.4881 89.6237 -37.6859 86.5113C-25.4106 72.8755 -14.998 56.3478 -7.67518 34.7276C-4.11573 24.2157 -1.45322 13.3964 0.327963 1.8374C1.95864 -8.76127 2.81803 -19.3804 3.12087 -29.9981C3.54997 -44.9821 2.4356 -59.6833 0.713286 -74.1163C-1.4816 -92.4872 -5.30442 -109.856 -9.43524 -127.003" stroke="white" stroke-width="0.448571" stroke-linecap="round" stroke-linejoin="round"/>
<path d="M324.9 -112.884C323.752 -106.746 322.568 -100.626 321.463 -94.469C319.977 -86.2013 318.634 -77.877 317.085 -69.633C312.611 -45.8268 308.239 -21.9279 296.571 -3.60022C291.31 4.66128 285.322 11.0085 279.084 16.8153C266.474 28.5536 253.604 39.5871 241.406 52.52C227.93 66.8105 215.377 83.4315 203.909 102.381C193.454 119.656 184.045 138.32 174.809 157.306C168.077 171.146 161.453 185.175 153.333 196.992C145.535 208.344 136.704 215.868 126.752 218.103C122.063 219.155 117.287 219.551 112.59 217.82C107.193 215.831 101.581 215.108 96.1198 213.457C91.7886 212.149 87.5714 210.081 83.2494 208.711C79.1421 207.408 74.959 206.594 70.8158 205.525C66.9225 204.522 63.0173 203.581 59.1477 202.411C55.2541 201.235 51.3982 199.796 47.5234 198.491C38.4051 195.423 29.5583 191.139 21.3248 184.376C12.8598 177.422 5.42009 168.146 -0.659543 156.237C-5.89238 145.988 -9.13625 133.911 -10.0728 120.058C-10.7302 110.345 -9.23136 100.888 -7.02127 91.7265C-3.19058 75.8458 0.81498 60.0651 4.8829 44.3248C7.51457 34.1432 9.31489 23.6863 10.9593 13.084C12.7769 1.37099 13.6105 -10.4178 13.9754 -22.1846C14.2613 -31.4201 13.8487 -40.6729 13.4003 -49.8264C12.6609 -64.873 10.7281 -79.4412 8.1054 -93.6395C6.01255 -104.969 3.99487 -116.38 0.613281 -126.777" stroke="white" stroke-width="0.448571" stroke-linecap="round" stroke-linejoin="round"/>
<path d="M311.011 -113.481C307 -95.67 303.146 -77.7726 298.934 -60.0754C295.134 -44.1136 289.161 -30.0817 281.388 -18.6953C275.784 -10.4905 269.369 -3.77489 263.118 3.07808C255.524 11.4078 247.695 19.0843 240.026 27.2132C226.004 42.073 213.036 59.3067 200.812 78.1697C190.532 94.0305 181.286 111.483 172.123 129.098C166.47 139.966 160.71 150.803 154.42 160.614C147.881 170.809 140.281 178.878 131.718 182.916C127.412 184.947 122.828 184.637 118.423 186.088C113.624 187.669 109.157 185.523 104.54 185.224C100.082 184.936 95.7223 183.253 91.3131 182.249C89.2829 181.788 87.2202 181.594 85.1982 181.087C79.9463 179.774 74.6922 178.451 69.4649 176.954C64.0492 175.402 58.6324 173.825 53.2732 171.922C46.9357 169.675 40.8559 166.304 35.0607 161.722C28.5723 156.593 22.6313 150.332 18.0159 141.117C12.6905 130.481 10.1604 118.04 9.90914 103.67C9.7184 92.7744 11.2031 82.3545 12.9582 71.841C14.9349 60.0003 16.7846 48.1163 18.764 36.2758C20.5678 25.4953 22.2159 14.6999 22.8398 3.64611C23.0987 -0.945653 24.0474 -5.55409 24.1009 -10.1C24.2529 -23.1118 24.4887 -36.0821 23.5857 -49.0256C22.2349 -68.3903 19.656 -86.9752 15.7749 -104.981C14.2532 -112.041 12.6863 -119.069 11.1393 -126.113" stroke="white" stroke-width="0.448571" stroke-linecap="round" stroke-linejoin="round"/>
<path d="M133.316 829.437C141.82 823.904 150.242 817.888 158.847 812.96C169.053 807.113 179.392 802.037 189.715 796.935C204.482 789.64 219.348 783.042 234.055 775.354C245.035 769.611 255.831 762.604 266.712 756.176C279.967 748.346 292.818 738.291 306.345 731.934C313.217 728.706 320.113 726.37 327.137 724.981C335.05 723.416 342.844 723.927 350.642 724.462C356.211 724.844 361.726 725.963 367.259 726.831C371.773 727.537 376.272 728.394 380.785 729.112C386.06 729.956 391.335 730.813 396.625 731.506C404.039 732.479 411.457 733.445 418.893 734.171C426.921 734.956 434.975 735.423 443.009 736.125C446.346 736.415 449.645 737.237 452.991 737.334C459.598 737.529 466.219 737.518 472.845 737.336C477.846 737.197 482.859 736.928 487.863 736.243C500.833 734.466 513.803 731.965 526.599 726.65C542.303 720.122 557.356 710.355 570.862 694.048C572.475 692.099 573.756 689.338 575.19 686.953" stroke="white" stroke-width="0.448571" stroke-linecap="round" stroke-linejoin="round"/>
<path d="M292.24 -114.285C290.827 -109.452 289.307 -104.692 288.021 -99.7825C282.175 -77.4391 275.038 -56.2565 263.868 -39.7024C257.164 -29.7666 249.663 -21.332 242.429 -12.4404C235.073 -3.40275 227.516 5.16392 220.216 14.3259C214.365 21.671 208.596 29.2676 203.102 37.351C197.276 45.9204 191.576 54.8189 186.259 64.2508C178.934 77.2495 171.935 90.7708 164.954 104.284C158.812 116.174 152.42 127.594 144.871 137.04C137.442 146.331 129.263 152.302 120.32 155.034C113.983 156.969 107.666 158.107 101.334 157.625C93.8059 157.047 86.2092 157.062 78.7725 155.65C67.6347 153.538 56.6001 150.135 46.6237 142.188C37.8348 135.186 30.5898 125.111 27.4823 108.723C26.1076 101.468 25.2783 94.0382 25.4954 86.1954C25.5548 84.0289 25.2104 81.8409 25.4289 79.7233C26.5118 69.1138 27.7097 58.526 28.8837 47.9288C29.6131 41.3395 30.1993 34.7062 31.1543 28.1812C33.2854 13.6359 34.1578 -1.04326 34.7391 -15.6886C35.1267 -25.483 35.0423 -35.3775 34.4728 -45.0238C33.5133 -61.3325 31.4086 -77.2447 28.6292 -92.7234C26.6159 -103.941 23.8616 -114.702 21.4359 -125.668" stroke="white" stroke-width="0.448571" stroke-linecap="round" stroke-linejoin="round"/>
<path d="M234.361 -116.55C225.006 -100.834 215.674 -85.1474 207.585 -67.4819C196.541 -43.3686 187.04 -17.7433 177.771 8.14005C171.655 25.2134 165.76 42.4852 159.639 59.5541C154.033 75.178 147.667 90.0254 139.696 102.652C131.108 116.252 120.929 124.744 109.549 128.675C102.695 131.042 95.8798 132.192 88.9606 132.215C79.5181 132.243 70.4761 130.137 61.8124 124.889C53.383 119.787 46.7205 111.493 42.8192 97.7532C41.0673 91.5872 40.1154 84.9722 40.0101 78.1622C39.8665 68.883 40.0309 59.47 40.6913 50.1623C41.385 40.3978 42.8264 30.6864 43.9211 20.9475C44.0641 19.6673 44.0627 18.3642 44.1712 17.0741C44.7624 10.0502 45.6347 3.02141 45.9201 -3.99465C46.7805 -25.1982 46.6449 -46.1501 43.9542 -66.7071C41.3016 -86.9598 36.948 -105.986 32.4625 -124.977C32.4065 -125.21 32.1493 -125.289 31.9883 -125.438" stroke="white" stroke-width="0.448571" stroke-linecap="round" stroke-linejoin="round"/>
<path d="M568.158 780.122C563.733 780.795 559.306 781.362 554.886 782.168C548.967 783.247 543.046 784.356 537.137 785.742C531.708 787.018 526.29 788.594 520.876 790.203C514.386 792.128 507.91 794.276 501.423 796.242C492.146 799.052 482.875 801.972 473.583 804.495C467.065 806.263 460.519 807.546 453.983 808.868C448.688 809.94 443.384 810.709 438.087 811.68C431.913 812.811 425.739 814.118 419.563 815.153C415.846 815.775 412.121 815.906 408.4 816.465C403.016 817.277 397.632 818.341 392.244 819.169C389.912 819.528 387.579 819.613 385.247 819.752C382.056 819.944 378.869 820.076 375.678 820.213C368.869 820.505 362.047 821.108 355.262 820.973C348.741 820.841 342.261 819.95 335.765 819.364C330.21 818.862 324.673 817.969 319.097 817.885C312.739 817.789 306.349 818.264 299.967 818.739C294.173 819.167 288.374 819.789 282.579 820.587C277.278 821.314 271.98 822.479 266.682 823.29C262.963 823.858 259.24 824.052 255.52 824.594C251.608 825.166 247.7 826.037 243.788 826.631C240.238 827.168 236.688 827.402 233.14 827.952C229.401 828.532 225.664 829.448 221.924 830.002C217.51 830.663 213.092 831.091 208.678 831.621" stroke="white" stroke-width="0.448571" stroke-linecap="round" stroke-linejoin="round"/>
<path d="M138.2 -120.884C137.221 -113.301 136.241 -105.718 135.268 -98.1343C135.212 -97.7121 135.215 -97.2748 135.183 -96.8432C134.339 -85.8031 133.161 -74.7521 132.741 -63.7232C132.348 -53.3532 132.707 -42.993 132.823 -32.6431C132.919 -24.1353 132.954 -15.6006 133.357 -7.16793C133.999 6.2982 134.245 19.8273 132.844 33.3866C129.929 61.564 121.954 84.3417 105.281 96.8853C100.892 100.186 96.2515 101.908 91.5294 102.887C84.0989 104.427 77.0361 103.263 70.3947 98.4719C61.7329 92.2201 57.3224 80.7573 56.157 65.0787C55.4336 55.3418 55.5448 45.5608 56.4719 35.7349C57.4603 25.26 59.0067 14.8469 59.8226 4.36463C60.625 -5.94165 60.9615 -16.3141 61.2222 -26.6394C61.3834 -32.9924 61.0541 -39.3202 60.8813 -45.6455C60.5845 -56.6168 59.2393 -67.2295 57.0638 -77.2514C53.826 -92.1696 50.0069 -106.68 46.4332 -121.36C46.1654 -122.461 45.8805 -123.545 45.6039 -124.633" stroke="white" stroke-width="0.448571" stroke-linecap="round" stroke-linejoin="round"/>
<path d="M-130.011 817.103C-129.376 801.043 -124.602 788.023 -117.993 776.154C-109.883 761.588 -99.9714 751.756 -89.4144 743.83C-74.6898 732.771 -59.3853 725.175 -43.8419 719.506C-39.5791 717.953 -35.1765 718.049 -30.838 717.335C-16.9086 715.049 -4.97616 722.945 6.29883 733.689C13.2188 740.287 19.7374 747.884 24.6607 758.558C28.3648 766.594 30.3162 775.375 29.7943 786.395C29.1362 800.263 24.9593 811.598 20.7164 823.127" stroke="white" stroke-width="0.448571" stroke-linecap="round" stroke-linejoin="round"/>
<path d="M-193.333 756.127C-201.675 752.596 -205.133 741.33 -208.194 729.576C-212.236 714.064 -214.773 697.587 -216.799 680.867C-219.079 662.047 -221.132 643.114 -221.862 623.705C-222.242 613.609 -222.906 603.563 -223.046 593.431C-223.213 581.099 -223.124 568.711 -222.848 556.331C-222.617 545.865 -222.404 535.307 -221.396 524.904C-219.534 505.703 -216.635 486.806 -211.402 468.757C-207.002 453.582 -201.479 439.728 -194.932 426.684C-186.717 410.314 -177.77 395.233 -168.089 381.351C-162.5 373.335 -156.43 366.445 -149.86 360.904C-142.293 354.524 -134.41 352.604 -126.511 354.317C-119.065 355.931 -112.123 360.264 -105.546 365.846C-96.4629 373.558 -88.3333 383.612 -79.8136 392.72C-73.8422 399.105 -67.8995 405.694 -60.7461 408.867C-52.6328 412.469 -44.9882 410.123 -37.6645 402.374C-30.0432 394.306 -23.6816 383.645 -17.2884 373.087C-13.6739 367.113 -9.8144 361.772 -5.53944 357.058C0.974599 349.871 4.36728 356.196 5.96184 364.142C7.75152 373.05 8.03739 382.432 8.44195 391.861C8.9911 404.671 8.28862 417.542 6.93682 430.208C4.2408 455.461 -2.50852 477.244 -16.2922 492.312C-25.1782 502.024 -34.4329 511.005 -41.7414 524.387C-46.5044 533.111 -50.5234 542.7 -53.5389 553.239C-59.7803 575.065 -65.546 597.24 -72.1154 618.821C-77.6172 636.896 -85.1671 652.55 -95.1552 665.048C-107.77 680.834 -121.76 692.387 -135.075 706.016C-143.719 714.864 -152.133 724.403 -160.766 733.289C-166.96 739.665 -173.288 745.666 -179.666 751.463C-183.884 755.292 -188.411 756.998 -193.077 756.134" stroke="white" stroke-width="0.448571" stroke-linecap="round" stroke-linejoin="round"/>
<path d="M47.1042 703.419C44.6877 702.164 42.1496 701.307 39.8808 699.579C33.4713 694.706 27.7778 688.018 23.0976 679.423C19.4161 672.653 17.116 664.273 16.0488 655.035C15.1397 647.144 19.0572 638.597 24.0962 636.808C30.0961 634.678 35.6928 636.717 40.8613 640.326C46.4052 644.2 51.2967 650 55.0406 658.004C58.9922 666.454 61.1176 676.234 61.4791 687.208C61.7544 695.568 56.9201 703.558 51.7363 703.605C50.2768 703.618 48.8205 703.493 47.3629 703.43" stroke="white" stroke-width="0.448571" stroke-linecap="round" stroke-linejoin="round"/>
<path d="M273.265 403.231C272.426 402.909 271.599 402.482 270.744 402.278C266.173 401.182 261.592 400.162 257.017 399.079C252.696 398.058 248.325 397.307 244.072 395.868C237.223 393.548 230.415 390.945 223.664 388.087C219.754 386.432 216.783 382.307 214.851 376.528C213.136 371.398 213.223 365.366 214.135 359.726C215.49 351.339 217.122 342.943 219.24 334.929C223.751 317.867 229.341 301.658 235.511 285.903C240.805 272.384 246.89 260.097 254.055 249.202C264.022 234.042 275.544 225.053 288.477 221.777C293.704 220.454 298.937 219.296 304.17 218.124C311.836 216.406 319.5 214.666 327.171 213.086C332.38 212.015 337.615 211.562 342.805 210.179C348.212 208.733 353.552 208.697 358.851 209.319C366.914 210.262 373.392 215.474 375.882 229.011C376.699 233.455 376.936 238.464 376.814 243.246C376.613 251.266 376.297 259.395 375.343 267.332C373.02 286.64 372.033 306.031 370.868 325.418C370.514 331.301 370.769 337.243 370.205 343.078C369.422 351.212 368.857 359.578 366.214 367.065C362.318 378.096 356.274 384.79 349.395 389.157C340.796 394.61 331.873 397.582 322.951 400.096C317.853 401.534 312.697 401.919 307.574 403.011C296.114 405.454 284.867 403.269 273.521 403.25" stroke="white" stroke-width="0.448571" stroke-linecap="round" stroke-linejoin="round"/>
<path d="M148.367 565.336C138.754 560.595 132.665 548.758 126.963 536.323C121.447 524.292 117.487 510.852 116.015 495.336C114.482 479.171 115.251 463.525 121.957 449.44C126.903 439.051 133.641 433.413 140.934 429.488C148.028 425.673 155.178 425.151 162.278 426.191C168.082 427.036 172 434.985 172.739 443.84C173.15 448.742 173.068 453.887 172.871 458.927C172.565 466.674 172.035 474.428 171.478 482.172C170.8 491.639 170.126 501.118 169.209 510.558C168.273 520.173 167.319 529.834 165.841 539.304C164.923 545.167 163.477 551.2 161.437 556.3C158.421 563.842 153.878 566.871 148.623 565.356" stroke="white" stroke-width="0.448571" stroke-linecap="round" stroke-linejoin="round"/>
<path d="M140.032 676.326C138.354 675.678 136.686 674.947 134.991 674.399C127.194 671.888 121.06 665.118 115.723 655.915C108.177 642.897 102.244 627.788 95.9106 613.178C90.2639 600.153 84.2492 587.579 78.7511 574.376C72.2098 558.66 68.2165 540.855 67.0715 521.26C66.5924 513.051 66.768 504.605 67.0246 496.247C67.4022 484.052 67.8096 471.812 68.7689 459.646C70.0967 442.817 72.221 426.04 76.9228 410.402C82.3473 392.354 90.4684 378.447 101.522 369.518C110.898 361.945 120.81 357.813 130.639 353.106C139.666 348.781 148.623 344.045 157.144 336.953C167.176 328.601 176.046 317.64 183.729 303.656C191.503 289.508 197.974 273.968 204.02 257.858C209.191 244.082 214.207 230.123 219.746 216.732C224.931 204.205 230.571 192.181 237.256 181.534C243.761 171.173 250.591 161.739 258.274 153.896C267.778 144.198 277.91 137.966 288.442 133.856C293.058 132.053 297.825 131.572 302.527 130.924C308.664 130.078 314.806 129.655 320.944 129.065C325.18 128.658 329.418 128.533 333.651 127.823C340.875 126.615 348.098 125.23 355.312 123.581C364.135 121.567 372.967 119.545 381.754 116.899C390.89 114.146 400.001 113.351 408.954 114.882C421.351 116.998 430.677 128.777 432.534 151.53C433.351 161.544 433.24 171.682 432.119 181.719C430.66 194.801 428.606 207.777 426.716 220.769C425.069 232.082 423.434 243.407 421.527 254.633C419.693 265.433 418.336 276.325 418.087 287.294C417.651 306.368 419.461 324.415 426.767 338.974C431.444 348.292 437.692 353.629 444.992 356.346C449.29 357.947 453.622 358.708 458.028 358.393C464.778 357.913 471.551 356.341 478.291 356.033C484.594 355.744 491.014 355.674 496.537 361.035C503.205 367.508 506.5 377.212 506.69 390.768C506.908 406.339 503.513 420.094 497.756 432.13C490.042 448.261 479.951 457.841 467.774 460.939C460.497 462.792 453.436 461.775 446.327 461.416C441.698 461.18 437.165 459.451 432.586 458.393C426.484 456.98 420.391 455.508 414.275 454.195C412.68 453.854 411.025 453.939 409.392 453.957C399.158 454.069 388.929 453.938 378.681 454.457C372.284 454.78 365.849 455.799 359.446 457.059C351.153 458.692 342.866 460.687 334.594 462.867C321.995 466.186 309.414 469.8 296.823 473.288C287.819 475.781 278.775 477.777 269.821 480.912C261.979 483.657 254.112 486.111 246.782 493.38C240.042 500.07 236.227 509.591 234.172 521.13C232.128 532.606 232.37 544.298 232.317 556.003C232.271 565.812 232.037 575.701 230.804 585.72C228.6 603.625 222.914 617.598 214.839 629.955C204.842 645.256 193.34 655.65 181.029 663.896C173.382 669.016 165.587 673.167 157.614 675.137C151.882 676.552 146.068 676.005 140.288 676.333" stroke="white" stroke-width="0.448571" stroke-linecap="round" stroke-linejoin="round"/>
<path d="M147.846 641.271C146.176 640.48 144.468 639.835 142.841 638.87C136.395 635.046 130.996 628.749 126.421 620.508C116.913 603.387 108.604 584.645 100.69 565.403C96.5011 555.219 92.8963 544.363 90.3049 532.616C87.5614 520.174 86.0582 507.196 85.6184 493.613C85.2359 481.789 85.8029 469.984 86.9131 458.266C89.5361 430.627 97.5517 408.545 113.368 395.052C121.478 388.136 130.033 383.794 138.579 379.347C152.006 372.361 165.209 364.591 176.996 350.425C181.972 344.447 186.429 337.672 190.565 330.203C199.613 313.861 206.814 295.384 213.933 276.824C220.417 259.917 226.483 242.602 233.987 226.728C242.093 209.572 251.372 194.538 262.516 183.237C270.737 174.901 279.603 168.921 289.01 166.595C295 165.116 301.01 163.97 307.016 163.062C311.679 162.354 316.345 162.247 321.009 161.867C327.918 161.305 334.828 160.862 341.742 160.128C348.327 159.431 354.925 158.831 361.494 157.456C369.754 155.733 377.903 156.276 386.025 157.002C394.375 157.746 401.391 163.343 405.704 175.109C407.712 180.58 409.088 187.02 408.771 194.11C408.343 203.73 408.338 213.411 407.409 222.955C406.443 232.889 404.545 242.685 403.153 252.567C402.351 258.262 401.663 264 401.072 269.738C400.055 279.614 398.893 289.493 398.277 299.396C397.54 311.243 398.023 323.017 399.484 334.374C401.234 347.964 403.361 361.384 405.504 374.776C406.477 380.866 407.334 386.864 406.942 393.417C406.678 397.832 405.549 401.361 403.652 404.504C398.792 412.568 392.668 416.152 386.489 419.225C377.822 423.536 369.017 426.391 360.154 428.568C351.845 430.608 343.555 433.132 335.247 435.185C328.55 436.84 321.84 438.217 315.131 439.514C308.445 440.808 301.755 442.085 295.066 442.929C289.546 443.626 284.017 443.839 278.503 443.977C271.794 444.148 265.101 443.638 258.387 444.116C249.819 444.724 241.262 445.433 232.751 449.713C223.35 454.443 216.003 463.515 210.759 477.406C208.272 483.991 206.425 491.142 205.554 498.722C204.717 506.017 203.54 513.339 203.284 520.625C202.977 529.276 203.517 537.904 203.645 546.547C203.721 551.721 203.796 556.899 203.714 562.086C203.617 568.11 203.45 574.156 203.125 580.187C202.457 592.584 199.259 603.325 193.949 612.594C189.023 621.193 183.525 628.343 176.979 633.04C171.713 636.816 166.423 640.415 160.762 640.899C156.539 641.261 152.326 641.164 148.108 641.269" stroke="white" stroke-width="0.448571" stroke-linecap="round" stroke-linejoin="round"/>
</g>
</g>
<defs>
<filter id="filter0_f_8335_32965" x="291" y="-123.972" width="804" height="1013.85" filterUnits="userSpaceOnUse" color-interpolation-filters="sRGB">
<feFlood flood-opacity="0" result="BackgroundImageFix"/>
<feBlend mode="normal" in="SourceGraphic" in2="BackgroundImageFix" result="shape"/>
<feGaussianBlur stdDeviation="100" result="effect1_foregroundBlur_8335_32965"/>
</filter>
<linearGradient id="paint0_linear_8335_32965" x1="401.091" y1="85.0154" x2="848.622" y2="320.68" gradientUnits="userSpaceOnUse">
<stop offset="0.16" stop-color="#2F87B5"/>
<stop offset="0.908654" stop-color="#2F87B5" stop-opacity="0"/>
</linearGradient>
</defs>
</svg>
