<svg width="844" height="589" viewBox="0 0 844 589" fill="none" xmlns="http://www.w3.org/2000/svg">
<mask id="mask0_6861_11414" style="mask-type:alpha" maskUnits="userSpaceOnUse" x="0" y="0" width="844" height="589">
<rect width="844" height="589" fill="#D9D9D9"/>
</mask>
<g mask="url(#mask0_6861_11414)">
<g opacity="0.6" filter="url(#filter0_f_6861_11414)">
<path d="M120.722 -208C-131.273 -208 -47.7147 -33.8387 -47.7147 181C-47.7147 395.839 -131.273 570 120.722 570C372.717 570 577 395.839 577 181C577 -33.8387 372.717 -208 120.722 -208Z" fill="url(#paint0_linear_6861_11414)"/>
</g>
<g opacity="0.6" filter="url(#filter1_f_6861_11414)">
<path d="M923.78 231.107C795.05 49.3004 695.597 210.228 520.261 334.376C344.925 458.525 160.102 498.883 288.832 680.689C417.562 862.496 664.057 909.237 839.393 785.088C1014.73 660.939 1052.51 412.914 923.78 231.107Z" fill="url(#paint1_linear_6861_11414)"/>
</g>
</g>
<defs>
<filter id="filter0_f_6861_11414" x="-261" y="-408" width="1038" height="1178" filterUnits="userSpaceOnUse" color-interpolation-filters="sRGB">
<feFlood flood-opacity="0" result="BackgroundImageFix"/>
<feBlend mode="normal" in="SourceGraphic" in2="BackgroundImageFix" result="shape"/>
<feGaussianBlur stdDeviation="100" result="effect1_foregroundBlur_6861_11414"/>
</filter>
<filter id="filter1_f_6861_11414" x="45.8306" y="-50.5811" width="1154.35" height="1105.14" filterUnits="userSpaceOnUse" color-interpolation-filters="sRGB">
<feFlood flood-opacity="0" result="BackgroundImageFix"/>
<feBlend mode="normal" in="SourceGraphic" in2="BackgroundImageFix" result="shape"/>
<feGaussianBlur stdDeviation="100" result="effect1_foregroundBlur_6861_11414"/>
</filter>
<linearGradient id="paint0_linear_6861_11414" x1="-202.985" y1="-196.609" x2="428.063" y2="217.442" gradientUnits="userSpaceOnUse">
<stop offset="0.16" stop-color="#2F87B5"/>
<stop offset="0.908654" stop-color="#2F87B5" stop-opacity="0"/>
</linearGradient>
<linearGradient id="paint1_linear_6861_11414" x1="749.12" y1="4.14471" x2="811.513" y2="691.619" gradientUnits="userSpaceOnUse">
<stop offset="0.16" stop-color="#2F87B5"/>
<stop offset="0.908654" stop-color="#2F87B5" stop-opacity="0"/>
</linearGradient>
</defs>
</svg>
