<svg width="844" height="589" viewBox="0 0 844 589" fill="none" xmlns="http://www.w3.org/2000/svg">
<mask id="mask0_6861_11358" style="mask-type:alpha" maskUnits="userSpaceOnUse" x="0" y="0" width="844" height="589">
<rect width="844" height="589" fill="#D9D9D9"/>
</mask>
<g mask="url(#mask0_6861_11358)">
<g opacity="0.6" filter="url(#filter0_f_6861_11358)">
<path d="M102.5 318C380.023 318 288 470.895 288 659.5C288 848.105 380.023 1001 102.5 1001C-175.023 1001 -400 848.105 -400 659.5C-400 470.895 -175.023 318 102.5 318Z" fill="url(#paint0_linear_6861_11358)"/>
</g>
<g opacity="0.6" filter="url(#filter1_f_6861_11358)">
<path d="M528.169 -44.0001C1050.72 -44.0001 877.451 161.949 877.451 416C877.451 670.051 1050.72 876 528.169 876C5.61414 876 -418 670.051 -418 416C-418 161.949 5.61418 -44.0001 528.169 -44.0001Z" fill="url(#paint1_linear_6861_11358)"/>
</g>
</g>
<defs>
<filter id="filter0_f_6861_11358" x="-600" y="118" width="1102.63" height="1083" filterUnits="userSpaceOnUse" color-interpolation-filters="sRGB">
<feFlood flood-opacity="0" result="BackgroundImageFix"/>
<feBlend mode="normal" in="SourceGraphic" in2="BackgroundImageFix" result="shape"/>
<feGaussianBlur stdDeviation="100" result="effect1_foregroundBlur_6861_11358"/>
</filter>
<filter id="filter1_f_6861_11358" x="-618" y="-244" width="1723" height="1320" filterUnits="userSpaceOnUse" color-interpolation-filters="sRGB">
<feFlood flood-opacity="0" result="BackgroundImageFix"/>
<feBlend mode="normal" in="SourceGraphic" in2="BackgroundImageFix" result="shape"/>
<feGaussianBlur stdDeviation="100" result="effect1_foregroundBlur_6861_11358"/>
</filter>
<linearGradient id="paint0_linear_6861_11358" x1="459" y1="328" x2="-133.646" y2="815.812" gradientUnits="userSpaceOnUse">
<stop offset="0.16" stop-color="#FC5161"/>
<stop offset="0.908654" stop-color="#FC5161" stop-opacity="0"/>
</linearGradient>
<linearGradient id="paint1_linear_6861_11358" x1="1199.43" y1="-30.53" x2="393.903" y2="896.307" gradientUnits="userSpaceOnUse">
<stop offset="0.16" stop-color="#FC5161"/>
<stop offset="0.908654" stop-color="#FC5161" stop-opacity="0"/>
</linearGradient>
</defs>
</svg>
