<?xml version="1.0" encoding="UTF-8"?><svg id="uuid-9a33ef29-438e-4eb8-936b-dcb9723ef2d6" xmlns="http://www.w3.org/2000/svg" viewBox="0 0 393 196"><g style="opacity:.2;"><path d="M271.81201,635.435c2.47598-3.75,4.711-7.83099,7.47299-11.185,6.55701-7.95001,13.81601-14.51898,21.668-19.474,8.48001-5.34998,17.08701-9.48199,25.78299-11.896,10.04901-2.78802,20.08099-5.20502,30.133-8.05603,10.69101-3.02997,21.375-6.77997,31.99301-12.75299,9.953-5.59796,19.69299-12.16595,29.32599-19.19,4.979-3.63098,10.056-7.13696,14.767-11.44299,7.77402-7.10602,14.72101-15.70099,21.539-24.38397,6.36902-8.11304,12.52502-16.46301,17.922-25.59204,3.108-5.255,6.34903-10.41595,9.32501-15.758,3.271-5.87201,6.32901-11.88696,9.44101-17.86499,1.95099-3.74701,3.77701-7.57098,5.75101-11.30298,2.74899-5.198,5.65997-10.29803,8.366-15.52301,3.87799-7.49103,8.32397-14.44598,13.336-20.94897,12.65601-16.422,26.59399-25.18005,42-24.51904,7.63501.32904,15.13202,1.21204,22.73999,1.65601,10.71698.62402,21.64301-.97296,32.992-7.09399,8.95599-4.83301,17.117-11.95197,24.94702-20.02002,6.86395-7.07196,13.586-14.40594,20.46497-21.44495,9.94299-10.17401,20.198-19.53302,31.203-27.14105,9.89899-6.84399,19.927-12.33398,30.16498-15.90497,9.79303-3.41602,19.45404-5.245,28.88605-5.15698,9.802.09198,19.57495.354,29.466.01996,7.06396-.23901,14.29596-1.94501,21.26599-8.37201,3.32196-3.06396,6.02197-6.84998,8.30096-11.19495,3.92804-7.492,5.87799-15.43402,8.30603-23.29202,1.86298-6.026,3.85901-12.047,6.03497-18.004,2.52405-6.91101,4.99902-13.89401,8.05603-20.58801,3.68097-8.065,7.82898-15.948,12.88098-23.147" style="fill:none; stroke:#000; stroke-linecap:round; stroke-linejoin:round; stroke-width:.44857px;"/><path d="M253.948,627.92798c7.284-8.35596,14.884-16.12097,23.086-22.55798,10.229-8.03198,20.755-14.89801,31.616-19.41302,8.94101-3.71698,17.91299-6.88495,26.86801-9.948,8.867-3.03198,17.754-6.01099,26.465-11.14996,8.81699-5.20001,16.716-12.88,24.104-21.75903,7.073-8.50195,13.87698-17.46198,21.776-24.69598,6.56598-6.01001,13.49698-10.47699,20.65399-13.96802,7.05301-3.44098,14.16199-6.57495,20.95001-11.70795,10.10699-7.64404,18.67398-17.677,25.77399-29.85004,3.409-5.84399,6.83301-11.67798,10.12799-17.59998,1.53-2.74701,2.72601-5.71503,4.15201-8.53601,2.604-5.14801,5.26199-10.26898,7.909-15.39398,1.634-3.16302,3.19-6.38403,4.95599-9.45502,3-5.21503,5.99802-10.45703,9.25403-15.45801,4.901-7.53101,10.37897-14.27502,16.685-19.961,9.31702-8.40002,18.73999-12.526,28.33496-11.70001,3.88605.33502,7.62701,1.242,11.37402,2.06702,4.12.909,8.12103,2.17102,12.25903,3.01501,7.83197,1.59998,15.76996,2.75897,24.49298.64301,8.38501-2.034,16.40399-6.31903,24.271-12.80603,8.72998-7.20099,16.83197-15.60199,24.96802-24.01898,10.20898-10.56201,20.69299-20.64203,31.84698-28.93201,14.39301-10.698,29.19696-18.91101,44.367-23.64001,9.099-2.836,18.07501-4.21698,27.00397-5.26099,8.297-.96698,16.50201-1.36102,25.08301-4.698,8.77802-3.41199,15.64398-10.29602,21.42999-20.20599,5.06-8.67102,8.81403-17.901,12.89502-27.02002,3.24902-7.26199,6.52002-14.552,10.19702-21.58099,3.54797-6.78201,7.63-13.24701,11.47498-19.85001" style="fill:none; stroke:#000; stroke-linecap:round; stroke-linejoin:round; stroke-width:.44857px;"/><path d="M39.0021,541.63202c2.7322-2.51202,5.7014-4.685,8.1449-7.60602,4.9934-5.974,9.8843-12.15503,14.4807-18.60602,6.1046-8.56598,11.9085-17.45599,17.8092-26.23999,3.53571-5.26398,7.0971-10.51599,10.48711-15.90802,4.6923-7.46497,9.3028-15.00195,13.822-22.60797,3.643-6.133,7.138-12.37799,10.604-18.63898,1.432-2.58704,2.663-5.31805,3.901-8.02203,5.111-11.14996,10.285-22.27496,15.245-33.492,3.05899-6.91602,5.716-14.00299,8.65199-20.97601,8.13701-19.32495,16.30101-38.63898,24.515-57.93298,1.76201-4.14001,3.752-8.19397,5.69101-12.25897,2.562-5.37,5.075-10.77301,7.79399-16.05304,3.614-7.02399,7.416-13.94,11.12001-20.91595,6.274-11.81601,13.31499-22.95102,20.892-33.73203,6.623-9.42499,13.578-18.38501,20.638-27.26001,11.00299-13.82999,22.28999-27.233,34.14099-39.814,7.06-7.49399,14.43201-14.29498,21.909-20.909,11.67902-10.332,23.52301-20.30701,34.30002-32.59698,7.79398-8.88702,14.89798-18.534,21.436-28.845,3.64398-5.74802,7.34799-11.45502,10.866-17.302,4.93399-8.20001,9.547-16.655,14.60898-24.74301,6.63-10.59299,13.43701-21.05899,21.24402-30.46899.922-1.10901,1.91199-2.125,2.87-3.18301" style="fill:none; stroke:#000; stroke-linecap:round; stroke-linejoin:round; stroke-width:.44857px;"/><path d="M63.4027,551.46503c2.0797-3.49603,4.1284-7.01904,6.2449-10.48505,3.291-5.39398,6.683-10.70697,9.9297-16.133,3.8711-6.46899,7.6895-12.98297,11.4223-19.54901,2.8512-5.01599,5.5281-10.15594,8.3035-15.22595,3.2869-6.00702,6.6899-11.94403,9.8669-18.01599,2.62-5.00702,4.888-10.22406,7.485-15.24603,6.968-13.47498,12.64301-27.51599,18.63701-41.41699,2.314-5.36499,4.40799-10.81799,6.57899-16.237,1.601-3.99902,3.159-8.01599,4.74899-12.02002,3.53601-8.896,6.97301-17.83099,10.64601-26.67401,6.64699-16.00299,13.353-31.98395,20.207-47.90198,2.84-6.59802,6.036-13.06403,9.23799-19.49799,3.131-6.29004,6.33-12.565,9.76401-18.66302,5.98599-10.62598,12.34999-20.98499,19.57899-30.49698,8.411-11.064,17.397-21.28,26.922-30.68802,10.92-10.784,21.73201-21.78198,32.59999-32.66599,9.56201-9.577,19.22702-18.965,28.68301-28.73502,9.91901-10.25098,19.564-21.013,28.073-33.27298,3.71201-5.35001,7.02798-11.13699,10.306-16.883,3.66699-6.427,7.13-13.00201,10.59698-19.56403,2.78201-5.26398,5.36401-10.65399,8.173-15.89697,4.69101-8.75601,9.31702-17.57101,14.29102-26.12601,7.099-12.207,14.89301-23.78702,23.73401-34.267" style="fill:none; stroke:#000; stroke-linecap:round; stroke-linejoin:round; stroke-width:.44857px;"/><path d="M84.3182,559.89301c2.5564-4.44,5.1069-8.883,7.6717-13.31799,2.4715-4.27002,4.9507-8.53601,7.4431-12.79199,2.643-4.51105,5.349-8.979,7.94901-13.52301,1.573-2.74701,2.988-5.60602,4.49899-8.39899,2.75101-5.086,5.538-10.15204,8.271-15.24805,1.086-2.02698,2.101-4.10297,3.094-6.185,1.776-3.72101,3.556-7.43896,5.24699-11.19995,4.164-9.26105,8.41101-18.49506,12.37601-27.836,3.104-7.31702,5.862-14.77405,8.72499-22.18506,2.07201-5.36298,4.041-10.75598,6.095-16.12598,2.496-6.52698,5-13.052,7.56201-19.55597,2.13899-5.43005,4.36899-10.83105,6.54999-16.25,1.966-4.883,3.819-9.81604,5.908-14.65002,2.509-5.802,5.16299-11.54797,7.853-17.271,2.24701-4.78003,4.519-9.56097,6.99001-14.211,5.411-10.19403,10.854-20.40302,17.189-29.91302,5.972-8.96698,12.50301-17.21399,19.755-24.61499,8.98-9.16296,18.707-16.19501,28.21199-23.87,9.02901-7.29199,17.94402-14.85199,26.42-23.44699,16.95901-17.203,34.11002-33.991,51.767-49.737,6.22501-5.55002,12.15601-11.638,17.24802-19.05002,4.15298-6.04999,7.21201-12.59299,9.62-19.66599,3.95801-11.62601,5.48801-23.224,8.035-34.83801,1.80899-8.24298,3.39099-16.508,5.565-24.72498,1.47-5.55103,3.73898-11.04901,5.75598-16.54202,1.448-3.94699,2.853-7.94998,4.651-11.746,6.50201-13.73199,14.01401-26.67398,23.57501-37.884,1.202-1.409,2.38-2.85797,3.57001-4.28799" style="fill:none; stroke:#000; stroke-linecap:round; stroke-linejoin:round; stroke-width:.44857px;"/><path d="M74.8945,555.78302c1.8906-3.05603,3.7981-6.10004,5.6651-9.17505,3.0203-4.96796,6.0796-9.91199,9.0017-14.95599,2.6995-4.664,5.2079-9.46497,7.8565-14.16699,2.1868-3.88098,4.5072-7.66901,6.6662-11.56396,1.767-3.18805,3.37-6.48303,5.07-9.71899,2.285-4.34503,4.618-8.66205,6.879-13.02301,1.278-2.46704,2.533-4.96301,3.658-7.50403,6.397-14.453,12.84899-28.88397,19.07999-43.40399,3.13501-7.30499,5.847-14.77698,8.73201-22.18298,2.60699-6.69104,5.17999-13.39301,7.79199-20.08502,1.63499-4.19098,3.237-8.39502,4.981-12.54797,7.23-17.21204,14.438-34.435,21.80699-51.59399,2.41901-5.63,5.19-11.14001,7.99001-16.59204,3.56801-6.94397,7.14799-13.90601,11.048-20.61896,5.896-10.14703,12.291-19.89001,19.60899-28.64001,7.836-9.371,16.242-17.65802,25.03101-25.25101,9.439-8.155,18.87901-16.33701,28.12901-24.923,7.77899-7.22299,15.34198-14.948,22.90698-22.62698,9.47699-9.621,18.94202-19.28201,28.254-29.19803,5.944-6.327,11.13901-13.71198,15.89301-21.44498,2.18201-3.55099,3.86499-7.508,5.77798-11.276.871-1.715,1.90402-3.371,2.61102-5.14001,2.69699-6.75998,5.31299-13.54999,7.91699-20.34299,1.987-5.18802,3.81201-10.42999,5.883-15.59201,3.27701-8.16998,6.478-16.392,10.13-24.39999,2.94901-6.46899,6.52499-12.646,9.79901-18.96899,4.521-8.73401,9.927-16.686,15.65997-24.33801,2.16202-2.88599,4.42902-5.65201,6.647-8.474" style="fill:none; stroke:#000; stroke-linecap:round; stroke-linejoin:round; stroke-width:.44857px;"/><path d="M573.22601,75.66699c-.18201,4.26001-.13599,8.48001-.60699,12.793-.65704,6.005-1.534,12.06702-2.62903,18.12802-1.21802,6.73798-2.67297,13.504-5.19,20.181-1.72498,4.573-3.08002,9.30798-5.13,13.72098-3.85498,8.29602-8.37396,16.202-14.93896,21.82901-7.58704,6.50299-15.06604,9.58499-22.38501,6.54901-5.08502-2.10901-9.677-5.02701-13.92001-8.69702-1.78198-1.54099-3.91-2.54999-5.94199-3.67899-2.02301-1.12302-4.04602-2.276-6.20102-3.09601-4.56699-1.73801-9.52698-2.01401-14.82199-1.09799-6.90601,1.19501-13.707,4.41998-20.44,8.55701-7.259,4.45798-14.45999,9.216-21.69101,13.828-5.353,3.41299-10.75699,6.375-16.276,8.31-7.41498,2.59799-14.745,4.01999-21.62698,3.17798-3.965-.48499-7.68799-2.16898-11.11002-4.121-4.17999-2.384-4.72897-8.37997-5.672-13.89099-1.32098-7.72501-.991-16.12698-1.09799-24.34-.13501-10.35001-.065-20.77802.078-31.228.173-12.79501.82001-25.71399,4.358-39.108,1.21799-4.61002,2.69299-9.21201,4.211-13.78101,1.04901-3.16,2.211-6.33798,3.60901-9.37601,4.686-10.185,10.12598-19.79999,17.20599-28.06097,2.32901-2.71701,4.647-5.45602,6.96799-8.18201" style="fill:none; stroke:#000; stroke-linecap:round; stroke-linejoin:round; stroke-width:.44857px;"/></g><g style="opacity:.2;"><path d="M116.966,635.435c-2.47501-3.75-4.71001-7.83099-7.47301-11.185-6.557-7.95001-13.8155-14.51898-21.6675-19.474-8.48-5.34998-17.0873-9.48199-25.7828-11.896-10.0495-2.78802-20.0818-5.20502-30.1335-8.05603-10.6906-3.02997-21.3754-6.77997-31.9929-12.75299-9.9533-5.59796-19.6926-12.16595-29.3259-19.19-4.9793-3.63098-10.0563-7.13696-14.7669-11.44299-7.7744-7.10602-14.7213-15.70099-21.5392-24.38397-6.3695-8.11304-12.5252-16.46301-17.9224-25.59204-3.108-5.255-6.3484-10.41595-9.3243-15.758-3.2714-5.87201-6.3294-11.88696-9.4416-17.86499-1.951-3.74701-3.777-7.57098-5.751-11.30298-2.749-5.198-5.659-10.29803-8.366-15.52301-3.878-7.49103-8.324-14.44598-13.335-20.94897-12.657-16.422-26.595-25.18005-42.00099-24.51904-7.634.32904-15.132,1.21204-22.739,1.65601-10.71701.62402-21.64301-.97296-32.992-7.09399-8.957-4.83301-17.118-11.95197-24.94701-20.02002-6.86398-7.07196-13.58701-14.40594-20.466-21.44495-9.94299-10.17401-20.19699-19.53302-31.203-27.14105-9.89899-6.84399-19.927-12.33398-30.16498-15.90497-9.79202-3.41602-19.45401-5.245-28.88602-5.15698-9.802.09198-19.57498.354-29.465.01996-7.065-.23901-14.297-1.94501-21.267-8.37201-3.32101-3.06396-6.022-6.84998-8.29999-11.19495-3.92801-7.492-5.879-15.43402-8.30701-23.29202-1.86301-6.026-3.85901-12.047-6.035-18.004-2.52402-6.91101-4.99899-13.89401-8.056-20.58801-3.681-8.065-7.82901-15.948-12.88101-23.147" style="fill:none; stroke:#000; stroke-linecap:round; stroke-linejoin:round; stroke-width:.44857px;"/><path d="M134.83,627.92798c-7.284-8.35596-14.884-16.12097-23.085-22.55798-10.23-8.03198-20.756-14.89801-31.6166-19.41302-8.9407-3.71698-17.9132-6.88495-26.8679-9.948-8.8669-3.03198-17.7538-6.01099-26.4655-11.14996-8.8165-5.20001-16.7161-12.88-24.10323-21.75903-7.07359-8.50195-13.87767-17.46198-21.77687-24.69598-6.5652-6.01001-13.4965-10.47699-20.6533-13.96802-7.0534-3.44098-14.1623-6.57495-20.95-11.70795-10.1077-7.64404-18.6745-17.677-25.7746-29.85004-3.4082-5.84399-6.8326-11.67798-10.12811-17.59998-1.5294-2.74701-2.7257-5.71503-4.15189-8.53601-2.604-5.14801-5.261-10.26898-7.909-15.39398-1.634-3.16302-3.19-6.38403-4.956-9.45502-3-5.21503-5.998-10.45703-9.253-15.45801-4.902-7.53101-10.38-14.27502-16.686-19.961-9.317-8.40002-18.74001-12.526-28.33501-11.70001-3.886.33502-7.627,1.242-11.37399,2.06702-4.119.909-8.12001,2.17102-12.259,3.01501-7.832,1.59998-15.769,2.75897-24.492.64301-8.386-2.034-16.405-6.31903-24.272-12.80603-8.73-7.20099-16.83199-15.60199-24.967-24.01898-10.20898-10.56201-20.69299-20.64203-31.84799-28.93201-14.392-10.698-29.19699-18.91101-44.367-23.64001-9.09799-2.836-18.07501-4.21698-27.004-5.26099-8.29599-.96698-16.50201-1.36102-25.08301-4.698-8.77701-3.41199-15.64398-10.29602-21.42999-20.20599-5.06-8.67102-8.814-17.901-12.89401-27.02002-3.25-7.26199-6.51999-14.552-10.19699-21.58099-3.54901-6.78201-7.63-13.24701-11.47601-19.85001" style="fill:none; stroke:#000; stroke-linecap:round; stroke-linejoin:round; stroke-width:.44857px;"/><path d="M349.776,541.63202c-2.73199-2.51202-5.70099-4.685-8.14499-7.60602-4.99301-5.974-9.884-12.15503-14.48001-18.60602-6.10501-8.56598-11.909-17.45599-17.81-26.23999-3.535-5.26398-7.09702-10.51599-10.487-15.90802-4.69202-7.46497-9.302-15.00195-13.82101-22.60797-3.64297-6.133-7.13898-12.37799-10.60498-18.63898-1.431-2.58704-2.66299-5.31805-3.901-8.02203-5.11102-11.14996-10.284-22.27496-15.24501-33.492-3.058-6.91602-5.716-14.00299-8.65199-20.97601-8.13701-19.32495-16.30101-38.63898-24.515-57.93298-1.76201-4.14001-3.752-8.19397-5.69101-12.25897-2.562-5.37-5.07399-10.77301-7.793-16.05304-3.61499-7.02399-7.41699-13.94-11.121-20.91595-6.274-11.81601-13.31499-22.95102-20.89099-33.73203-6.623-9.42499-13.578-18.38501-20.63901-27.26001-11.002-13.82999-22.289-27.233-34.141-39.814-7.059-7.49399-14.432-14.29498-21.90839-20.909-11.67931-10.332-23.5234-20.30701-34.3002-32.59698-7.7942-8.88702-14.8986-18.534-21.4357-28.845-3.6447-5.74802-7.348-11.45502-10.8662-17.302-4.9342-8.20001-9.5477-16.655-14.6096-24.74301C12.0895,26.57901,5.28198,16.11301-2.52513,6.703c-.92178-1.10901-1.91146-2.125-2.86993-3.18301" style="fill:none; stroke:#000; stroke-linecap:round; stroke-linejoin:round; stroke-width:.44857px;"/><path d="M325.37601,551.46503c-2.08002-3.49603-4.129-7.01904-6.245-10.48505-3.29102-5.39398-6.68301-10.70697-9.93002-16.133-3.871-6.46899-7.689-12.98297-11.422-19.54901-2.85098-5.01599-5.52798-10.15594-8.30399-15.22595-3.28702-6.00702-6.69-11.94403-9.867-18.01599-2.61899-5.00702-4.888-10.22406-7.48401-15.24603-6.96799-13.47498-12.64398-27.51599-18.638-41.41699-2.314-5.36499-4.40799-10.81799-6.57799-16.237-1.60201-3.99902-3.16-8.01599-4.75-12.02002-3.535-8.896-6.97301-17.83099-10.64601-26.67401-6.646-16.00299-13.353-31.98395-20.207-47.90198-2.83899-6.59802-6.03499-13.06403-9.237-19.49799-3.131-6.29004-6.33099-12.565-9.765-18.66302-5.985-10.62598-12.349-20.98499-19.57899-30.49698-8.41-11.064-17.397-21.28-26.922-30.68802-10.92-10.784-21.731-21.78198-32.6-32.66599-9.562-9.577-19.22681-18.965-28.6823-28.73502-9.9191-10.25098-19.5645-21.013-28.0731-33.27298-3.7123-5.35001-7.0286-11.13699-10.3066-16.883-3.6662-6.427-7.13-13.00201-10.597-19.56403-2.782-5.26398-5.3634-10.65399-8.1728-15.89697-4.6909-8.75601-9.3172-17.57101-14.2913-26.12601C5.98013,27.86301-1.81401,16.28299-10.6547,5.80301" style="fill:none; stroke:#000; stroke-linecap:round; stroke-linejoin:round; stroke-width:.44857px;"/><path d="M304.45999,559.89301c-2.556-4.44-5.10699-8.883-7.672-13.31799-2.47101-4.27002-4.94998-8.53601-7.44299-12.79199-2.64301-4.51105-5.34799-8.979-7.94901-13.52301-1.573-2.74701-2.98801-5.60602-4.49899-8.39899-2.75101-5.086-5.53799-10.15204-8.26999-15.24805-1.08701-2.02698-2.10202-4.10297-3.095-6.185-1.77502-3.72101-3.556-7.43896-5.24701-11.19995-4.164-9.26105-8.41101-18.49506-12.375-27.836-3.10501-7.31702-5.86301-14.77405-8.726-22.18506-2.071-5.36298-4.04001-10.75598-6.09401-16.12598-2.49699-6.52698-5-13.052-7.563-19.55597-2.13799-5.43005-4.36899-10.83105-6.549-16.25-1.967-4.883-3.819-9.81604-5.909-14.65002-2.508-5.802-5.162-11.54797-7.853-17.271-2.24701-4.78003-4.519-9.56097-6.989-14.211-5.412-10.19403-10.854-20.40302-17.18901-29.91302-5.97299-8.96698-12.504-17.21399-19.756-24.61499-8.979-9.16296-18.70599-16.19501-28.21199-23.87-9.02901-7.29199-17.94401-14.85199-26.41901-23.44699-16.96-17.203-34.1111-33.991-51.7677-49.737-6.225-5.55002-12.156-11.638-17.2475-19.05002-4.1534-6.04999-7.2127-12.59299-9.621-19.66599-3.9578-11.62601-5.4877-23.224-8.0346-34.83801-1.8091-8.24298-3.391-16.508-5.5654-24.72498-1.4691-5.55103-3.7383-11.04901-5.75536-16.54202-1.44818-3.94699-2.85309-7.94998-4.65159-11.746C-2.49354,39.26199-10.0057,26.32001-19.5662,15.10999c-1.2021-1.409-2.3806-2.85797-3.571-4.28799" style="fill:none; stroke:#000; stroke-linecap:round; stroke-linejoin:round; stroke-width:.44857px;"/><path d="M313.884,555.78302c-1.89099-3.05603-3.798-6.10004-5.66501-9.17505-3.021-4.96796-6.07999-9.91199-9.00198-14.95599-2.70001-4.664-5.20801-9.46497-7.85602-14.16699-2.18698-3.88098-4.508-7.66901-6.66699-11.56396-1.76599-3.18805-3.37-6.48303-5.069-9.71899-2.285-4.34503-4.61899-8.66205-6.879-13.02301-1.27899-2.46704-2.53299-4.96301-3.659-7.50403-6.396-14.453-12.849-28.88397-19.08-43.40399-3.13501-7.30499-5.84601-14.77698-8.731-22.18298-2.608-6.69104-5.181-13.39301-7.793-20.08502-1.634-4.19098-3.23601-8.39502-4.981-12.54797-7.23-17.21204-14.438-34.435-21.80699-51.59399-2.41901-5.63-5.18901-11.14001-7.98901-16.59204-3.56799-6.94397-7.14899-13.90601-11.049-20.61896-5.896-10.14703-12.291-19.89001-19.60899-28.64001-7.83501-9.371-16.242-17.65802-25.03101-25.25101-9.439-8.155-18.878-16.33701-28.129-24.923-7.779-7.22299-15.3415-14.948-22.9068-22.62698-9.4766-9.621-18.9415-19.28201-28.2542-29.19803-5.9437-6.327-11.1388-13.71198-15.8922-21.44498-2.1824-3.55099-3.8653-7.508-5.7781-11.276-.8711-1.715-1.904-3.371-2.6112-5.14001-2.6977-6.75998-5.3135-13.54999-7.9167-20.34299-1.9875-5.18802-3.8129-10.42999-5.8832-15.59201-3.2775-8.16998-6.4782-16.392-10.1299-24.39999-2.9489-6.46899-6.52545-12.646-9.79945-18.96899C1.19492,32.112-4.21022,24.16-9.94358,16.508c-2.16252-2.88599-4.42882-5.65201-6.64692-8.474" style="fill:none; stroke:#000; stroke-linecap:round; stroke-linejoin:round; stroke-width:.44857px;"/><path d="M-184.448,75.668c.183,4.26001.136,8.48001.608,12.79199.65599,6.00601,1.53299,12.06702,2.62799,18.12802,1.218,6.73898,2.673,13.50497,5.19101,20.181,1.72499,4.57397,3.07899,9.30899,5.129,13.72098,3.855,8.297,8.37399,16.202,14.939,21.83002,7.58701,6.50299,15.06601,9.58499,22.38501,6.548,5.08499-2.10901,9.67699-5.02701,13.91999-8.69702,1.78201-1.54099,3.91-2.54898,5.943-3.67899,2.022-1.12201,4.045-2.27499,6.2-3.095,4.568-1.73801,9.5276-2.01401,14.8224-1.099,6.906,1.19598,13.7067,4.42099,20.43961,8.55701,7.25909,4.45798,14.4606,9.21698,21.691,13.828,5.3528,3.41397,10.7569,6.375,16.2762,8.31,7.4148,2.59799,14.7454,4.021,21.6267,3.17798,3.96576-.48499,7.68839-2.16898,11.11072-4.121,4.17924-2.383,4.72854-8.37997,5.67217-13.88998,1.32095-7.72501.99069-16.12701,1.09795-24.34.13461-10.35101.06453-20.77802-.07818-31.228-.17362-12.79602-.81978-25.715-4.35869-39.10901-1.21712-4.60901-2.69259-9.211-4.21057-13.78101-1.04894-3.16-2.21144-6.33798-3.60913-9.37601-4.68567-10.18399-10.12547-19.79898-17.20577-28.06-2.3286-2.71698-4.6466-5.45599-6.9678-8.18198" style="fill:none; stroke:#000; stroke-linecap:round; stroke-linejoin:round; stroke-width:.44857px;"/></g></svg>