<?xml version="1.0" encoding="UTF-8"?>
<svg id="Layer_1" xmlns="http://www.w3.org/2000/svg" version="1.1" viewBox="0 0 560 715">
  <!-- Generator: Adobe Illustrator 29.5.1, SVG Export Plug-In . SVG Version: 2.1.0 Build 141)  -->
  <defs>
    <style>
      .st0 {
        fill: none;
        stroke: #000;
        stroke-linecap: round;
        stroke-linejoin: round;
        stroke-width: .4px;
      }

      .st1 {
        opacity: .2;
      }
    </style>
  </defs>
  <g class="st1">
    <path class="st0" d="M531.6,1369.1c-1.9-10.6-3.9-21.2-5.9-31.7-2.3-12.4-4.7-24.9-7-37.3-2.5-13.1-5.2-26.1-7.5-39.2-1.8-10.1-3-20.3-4.6-30.5-1.4-9.1-3-18.2-4.3-27.4-.8-5.8-1.5-11.6-2-17.5-2-24.3-4.1-48.7-5.7-73.1-1-15.6-1.2-31.3-1.6-46.9-.3-10.7-.3-21.3-.5-31.9-.2-12.5-.5-25-.9-37.6-.3-9-.6-17.9-1-26.9-.9-17.7-1.4-35.5-2.9-53.1-1.3-15.8-3.7-31.6-5.5-47.4-2.2-19.7-5.8-39-10.6-57.8-3.2-12.6-7-25-11.1-37.2-10.1-29.9-25.4-53.9-41-77.4-17.4-26.2-33.2-54.5-47-85.2-12.3-27.3-24-55.2-37.5-81.4-10.6-20.5-23-38.1-36.4-54.1-10.5-12.5-22.3-21.1-35.1-25.6-13.6-4.8-25.3-.3-34.4,14.5-6,9.7-11.7,19.9-17.4,30.1-11.7,20.9-24.6,40-40.2,54.5-4.5,4.2-10.1,6.6-15.5,8.1-6,1.7-11.1-2.8-15.5-9.8-7.2-11.3-12.3-24.8-18.2-37.6-11.3-24.5-24.3-45.8-43-57.2-7.9-4.8-15.8-8.3-24.1-9.1-5.8-.5-11.7-2-17.4-1.7-30.4,1.9-56.5,17.5-77.6,49.2-10.4,15.6-19.6,32.5-24.7,53.7-2.7,10.9-4.1,22.3-4.1,34.5.2,36.4,9,68.6,24.1,98,6.9,13.5,15.6,23.5,26.6,27,4.9,1.6,9.8,2,14.9,1.2,17.1-2.6,31.4-14.4,46.1-24.8,20.7-14.6,40.8-30.7,62.8-41.2,4.8-2.3,9.8-4.6,14.9-5.5,9.9-1.7,17.9,5.1,23.8,17.7,8.9,19.1,17.3,38.7,26.3,57.8,7,14.7,14.4,28.9,21.8,43,16,30.3,33.5,59,46.2,92.8,7.4,19.8,13.4,40.3,17.4,62,2.6,14,5.1,28,6.1,42.4,1.1,15,2.9,30,3.7,45,.7,13.4.3,26.7.3,40.1,0,9.2.3,18.4.2,27.6-.3,13.4-.7,26.8-1.4,40.1-.8,13.5-2,26.8-3,40.2-.8,10.3-1.6,20.5-2.5,30.8-1.7,21.2-3.5,42.3-5.2,63.5-1.2,14.7-2.6,29.3-3.6,44-.6,9.1-.5,18.4-.7,27.6-.2,14.2-.6,28.4-.4,42.6.1,9.6,1.2,19.2,1.8,28.7"/>
    <path class="st0" d="M131.8,1384.6c-2.3-9.5-3.9-19.5-7-28.4-7.4-21.1-17.2-40-29.2-55.9-13-17.2-27.1-32.1-42.5-43.4-17.8-13.1-35.9-25.5-53.7-38.8-18.9-14.1-37.4-29.7-54.1-49.8-15.7-18.8-30.4-39.5-44.5-61-7.3-11.1-14.9-22.1-21.2-34.4-10.4-20.3-18.2-43.1-25.6-65.9-6.9-21.3-13.3-43-17.7-65.7-2.5-13.1-5.3-26-7.5-39.2-2.4-14.5-4.3-29-6.3-43.6-1.3-9.1-2.2-18.3-3.5-27.4-1.8-12.7-4.1-25.3-5.8-38-2.5-18.2-6.4-35.8-11.8-52.8-13.6-43-35-71.3-65.7-81.3-15.2-5-30.6-8.7-45.8-13.4-21.5-6.6-41.9-18-60-38.9-14.3-16.5-25.4-37.1-35.3-59.5-8.6-19.6-16.8-39.6-25.5-59.1-12.6-28.2-26.3-55-42.7-78.7-14.8-21.3-30.7-40-48.4-54.9-16.9-14.2-34.6-25.1-53.2-31.9-19.3-7.1-38.7-13.7-57.9-21.7-13.7-5.7-26.8-14.5-36.1-32.9-4.4-8.7-7.1-18.5-8.6-29.1-2.6-18.3-1-36-.3-53.9.5-13.7.7-27.5.5-41.4-.2-16-.3-32.2-1.7-48.2-1.7-19.3-4.4-38.5-9.4-57"/>
    <path class="st0" d="M512.7,1369.8c-1.5-8.1-2.9-16.2-4.5-24.2-3.4-17-6.9-34-10.4-51-2.4-11.8-5-23.6-7.3-35.4-1.7-9.1-2.9-18.3-4.4-27.4-1.8-11-3.7-22-5.5-33-.7-4.1-1.2-8.3-1.7-12.5-.9-8.9-1.8-17.9-2.7-26.8-.8-7.9-1.9-15.8-2.4-23.7-.9-13.8-1.5-27.5-2-41.3-.4-11.9-.6-23.8-.8-35.7-.2-10.2-.2-20.4-.4-30.7-.3-14.2-.7-28.4-1.2-42.6-.6-15.4-1-30.9-2.4-46.3-1.5-15.4-4.2-30.7-6.2-46.1-1.9-14.6-5.5-28.5-9.4-42.3-7.9-27.8-19.6-51.6-34.2-72.5-9.5-13.7-19.4-26.8-28.7-41-11.8-18.1-22-38.3-31.4-59.4-11-24.7-22.1-49.2-33.8-73.2-7.8-16-17.6-29.7-29.4-38.9-12.7-9.9-25.7-9.6-38-2.2-9.2,5.5-17.3,14-24.5,24.4-9.6,13.8-18.6,28-24,46.8-3,10.3-4.4,21-4.5,32.7-.2,30.7,9.7,56.2,20.8,81.3,12.5,28.3,27.4,54.3,38.4,84.2,6.7,18.4,12.2,37.2,16.2,57,3.6,18.1,6.5,36.3,7.8,54.8.7,10.4,2.2,20.8,2.8,31.2.7,14,1.3,28,1.2,41.9-.1,21.6-.5,43.1-1.4,64.6-.8,18.8-2.6,37.3-4,55.9-1.8,23.7-3.8,47.3-5.5,71-1.1,14.8-2.1,29.7-2.7,44.6-.4,9.1-.1,18.3.2,27.5.5,13.5.7,27.2,2,40.6,1.8,18.8,4.5,37.4,9.4,55.4"/>
    <path class="st0" d="M172.1,1382.4c-8.6-22.5-18.2-44-29.9-63.3-14.6-24-30.6-45.9-48.8-63.2-15-14.2-30.5-27.3-46-40.2-15.3-12.8-30.8-25.4-44.4-42.4-13.8-17.2-24-38.8-32.4-62.4-8.1-22.7-15.3-46-25.8-66.7-8.8-17.2-19.3-31.4-31-43.9-11.5-12.3-23.3-23.9-33.1-39.5-14.6-23.1-24.6-50-30.2-80.2-2.7-14.5-5.4-29-7.8-43.6-1.1-6.8-1.4-13.7-2.3-20.6-1.6-12.5-3.3-24.9-5-37.4-1-7.7-1.9-15.4-3.2-23-2.3-12.9-4.6-25.9-7.6-38.5-4.5-19.1-10.6-36.9-19.1-53.2-12.5-24.1-28.2-39.5-47.7-44.9-7.9-2.2-15.8-3.1-23.8-4.2-8.7-1.2-17.5-1.5-26.2-2.9-16.5-2.5-32.9-6-48.6-16.8-15.1-10.4-27.9-25.1-38.9-44.2-12.2-21.2-22.4-44.4-32.6-67.7-12.8-29.2-26.5-57.6-42.7-82.8-20.9-32.6-44.4-60.3-71-81.2-15.9-12.5-32.6-22-49.5-30.7-15.6-8.1-31.5-15-46.1-28.2-14.9-13.5-23.7-32.7-28.3-57.2-4-21.5-5-43.2-6.8-64.9-1.4-17.3-2.8-34.6-5.2-51.8-2.3-16.5-5.9-32.8-8.9-49.2"/>
    <path class="st0" d="M653.8,1364.3c-3.6-7.2-8-13.8-10.8-21.6-5.7-15.9-11.1-32.2-15.7-48.8-6.1-22.1-11.4-44.6-17-66.9-3.3-13.4-6.7-26.8-9.7-40.4-4.1-18.8-8-37.6-11.6-56.5-3-15.3-5.5-30.7-8-46-1-6.4-1.6-12.9-2.2-19.3-2.4-26.6-4.9-53.3-7-79.9-1.3-16.4-1.6-32.9-2.6-49.4-2.7-45.6-5.5-91.2-8.4-136.9-.6-9.8-1.8-19.6-2.8-29.3-1.3-12.9-2.6-25.8-4.3-38.7-2.3-17.1-5-34.1-7.5-51.1-4.2-28.9-10.4-56.9-17.9-84.6-6.5-24.2-14.1-47.7-21.9-71.1-12.1-36.5-25.1-72.3-39.8-106.8-8.7-20.6-18.6-40-28.7-59-15.9-29.8-32.3-59-45-92.2-9.2-24-16.6-49-22.3-75-3.2-14.5-6.6-28.9-9.5-43.5-4.1-20.5-7.3-41.2-11.7-61.5-5.8-26.6-12-53.1-20.8-78.1-1-3-2.3-5.8-3.5-8.6"/>
    <path class="st0" d="M599.1,1366.4c-1.7-8.7-3.3-17.4-5.1-26.1-2.8-13.5-5.8-26.9-8.4-40.4-3.2-16.1-6.2-32.3-9-48.5-2.2-12.4-3.9-24.9-5.9-37.3-2.3-14.7-4.9-29.4-7-44.2-1.7-12.2-2.6-24.6-4.2-36.8-4.4-32.8-6-65.7-8.2-98.7-.9-12.7-1.2-25.4-1.8-38.1-.4-9.4-.7-18.8-1.1-28.1-.8-20.8-1.5-41.7-2.6-62.5-2.1-37.7-4.3-75.4-6.8-113.1-1.1-15.6-2.9-31.2-4.8-46.8-1.8-15.2-3.8-30.4-6.4-45.5-4.5-26.2-9.9-52.1-17.5-77-8.9-28.9-19.6-56.5-31.8-82.8-14.1-30.2-27.8-60.7-41.7-91-12.2-26.7-24.8-53.1-36.6-80.1-12.5-28.3-24-57.5-32.3-88.9-3.6-13.7-6.2-28-8.7-42.2-2.8-15.9-5.1-31.9-7.4-47.9-1.9-12.8-3.2-25.8-5.1-38.6-3.2-21.4-6.2-42.9-10.2-64.1-5.6-30.3-12.9-59.8-23.1-87.8"/>
    <path class="st0" d="M552.2,1368.3c-2-11-3.9-22-5.9-33-1.9-10.6-3.9-21.2-5.8-31.7-2.1-11.2-4.3-22.4-6.3-33.6-1.2-6.8-2-13.7-3.1-20.5-1.9-12.5-3.9-24.9-5.8-37.4-.7-4.9-1.3-10-1.8-15-.9-8.9-1.9-17.9-2.6-26.8-1.8-22.1-3.8-44.1-5.2-66.2-1.1-17.3-1.4-34.6-1.9-51.9-.4-12.5-.6-25-.9-37.6-.4-15.2-.9-30.4-1.4-45.7-.5-12.7-1.1-25.4-1.7-38.1-.5-11.5-.8-22.9-1.6-34.4-.9-13.7-2.2-27.5-3.6-41.2-1.1-11.5-2.3-22.9-4-34.3-3.6-24.9-7.3-49.8-13.2-74-5.6-22.8-12.8-44.5-21.9-65-11.4-25.4-25.7-47-39.1-69.8-12.7-21.6-25.1-43.7-35.8-67.6-21.5-47.8-43.7-94.9-67.6-140.2-8.4-16-15.9-32.8-20.8-51.8-4-15.5-5.5-31.1-5.4-47.4.2-26.8,5.2-51.7,8.1-77.3,2.1-18.2,4.7-36.3,6-54.8.9-12.5.2-25.4,0-38.2-.1-9.2-.1-18.4-1.1-27.5-3.4-33-9.2-65-20.3-95.1-1.4-3.8-2.7-7.6-4.1-11.4"/>
    <path class="st0" d="M573.6,1366.8c-1.6-7.7-3.3-15.3-4.8-23-2.5-12.4-5.1-24.8-7.4-37.3-2.1-11.6-3.7-23.2-5.7-34.8-1.6-9.6-3.6-19.1-5.2-28.6-1.3-7.8-2.2-15.8-3.3-23.7-1.5-10.6-3.1-21.2-4.6-31.8-.8-6-1.6-12-2-18.1-2.6-34.3-5.4-68.7-7.7-103.1-1.1-17.3-1.3-34.6-1.9-51.9-.5-15.6-1-31.3-1.5-46.9-.3-9.8-.6-19.6-1.2-29.4-2.4-40.6-4.7-81.3-7.4-121.9-.9-13.3-2.6-26.7-4.3-39.9-2.2-16.9-4.5-33.8-7.6-50.4-4.6-25.2-10.5-49.8-18.9-73.2-9-25-19.8-48.2-31.9-70.3-13-23.7-25.9-47.4-38.2-71.9-10.3-20.5-19.9-42-29.5-63.3-12-26.7-24-53.5-35.5-80.7-7.3-17.4-12.5-36.3-16.5-55.7-1.9-8.9-2.4-18.2-3.6-27.4-.5-4.2-1.4-8.3-1.6-12.5-.7-15.8-1.1-31.7-1.6-47.5-.3-12.1-.3-24.2-.9-36.3-.8-19.2-1.5-38.4-3.2-57.5-1.4-15.4-4.1-30.7-6.2-46.1-2.9-21.2-8.1-41.5-14.1-61.5-2.3-7.5-4.8-14.9-7.2-22.3"/>
    <path class="st0" d="M-76.3,14.6c-2.6,8.9-5.6,17.5-7.6,26.7-2.8,12.8-5.3,25.9-7.3,39.1-2.2,14.7-4,29.7-3.7,45.2.3,10.6-.3,21.4.7,31.9,1.9,19.9,5.3,39.4,14.4,55.8,10.4,18.9,23,30.8,39.5,30,11.4-.6,22.5-3.2,33.3-7.5,4.6-1.8,9.4-2.3,14.2-3.2,4.7-.8,9.5-1.7,14.3-1.8,10.2-.2,20.1,2.9,29.9,8.7,12.8,7.6,23.9,19.2,34.3,32.6,11.2,14.5,22.1,29.6,33.1,44.4,8.2,11,16.8,21,26.3,29.1,12.8,10.8,26.2,19.1,40.3,22.5,8.1,1.9,16.6,1.2,24.7-.2,9.9-1.8,15-13.7,20.7-24.3,7.9-14.9,13-32.3,18.9-49.1,7.4-21.1,14.4-42.5,21.3-64.1,8.4-26.4,16-53.3,18.3-83.4.8-10.3,1-20.9,1.2-31.4.1-7.3,0-14.6-.7-21.9-2.2-24.3-6.3-48.1-14.6-70.2-2.7-7.3-5.4-14.6-8.1-21.9"/>
    <path class="st0" d="M-53.3,13.7c-.6.9-1.6,1.5-1.8,2.6-5.5,20.9-10.3,42.3-12.6,65-1.7,17-1.5,34.2.7,51.3,3.2,24.8,13.4,39.7,26.5,44.9,9.8,3.9,20.2,3.9,30.1.5.4-.1.8,0,1.2,0,7.2-.7,14.5-2,21.7-2,21.6.1,42.3,7.1,61.9,24.2,13.5,11.8,26.1,25.7,38.5,40.1,10.5,12.1,21.3,23.4,33.2,31.7,8.1,5.6,16.5,9.3,25.4,10.7,19.4,3.1,34.7-8,47.6-26.2,13.3-18.7,24.4-40.5,33.7-64.4,7.1-18.3,12.7-37.8,15.8-58.9,2.9-19.7,2.3-39.9,0-60.1-2.8-24.7-10.3-47-19.7-68.1-.4-1-.9-1.8-1.4-2.8"/>
    <path class="st0" d="M-22.4,12.8c-3,12.3-6.1,24.6-6.9,38.2-.8,12.7-.8,25.5,3.8,37.4,5.4,13.8,14.1,20.8,23.8,24.1,13.3,4.5,26.6,8.4,40,12.3,17.6,5.1,33.8,16,49,30.8,13.7,13.3,27.1,27.4,40.8,40.9,8.8,8.7,18.1,16.3,28.2,20,7.2,2.7,14.5,3.7,22,2.2,16.3-3.2,28.4-16,38.9-32.7,7.5-11.8,14.6-24.2,19.4-39.4,4.9-15.6,8.5-31.4,9.1-49.3,1-34.6-7.8-64.3-22.8-91.2-.7-1.3-2-2.1-3.1-3.1"/>
    <path class="st0" d="M51.6,9.9c-1.6,11.7,1.1,21.5,7,30.2,10,14.9,21.8,26,32.8,38.8,9.9,11.6,19.9,23.2,30,34.5,10.4,11.7,21.1,22.7,33.6,28.2,16.4,7.1,30,1.8,41-15.9,5.6-8.9,9.9-18.9,11.4-31.2,2.5-20.6-1-39.6-10.4-56.6-6.7-12.3-14.9-22.1-23.5-31-.9-.9-2-1.2-3-1.8"/>
    <path class="st0" d="M196.9,1297.5c13.3-5.1,18.9-21.5,23.8-38.5,6.5-22.5,10.5-46.4,13.8-70.7,3.6-27.3,6.9-54.8,8.1-83,.6-14.7,1.7-29.2,1.9-43.9.3-17.9.1-35.9-.3-53.8-.4-15.2-.7-30.5-2.3-45.6-3-27.9-7.6-55.3-16-81.5-7-22-15.9-42.1-26.3-61.1-13.1-23.8-27.5-45.7-42.9-65.8-8.9-11.6-18.7-21.6-29.2-29.7-12.1-9.3-24.7-12-37.4-9.6-11.9,2.3-23,8.6-33.5,16.7-14.5,11.2-27.5,25.8-41.2,39-9.6,9.3-19.1,18.8-30.5,23.4-13,5.2-25.2,1.8-36.9-9.4-12.2-11.7-22.4-27.2-32.6-42.5-5.8-8.7-12-16.4-18.8-23.3-10.4-10.4-15.8-1.3-18.4,10.3-2.9,12.9-3.3,26.5-4,40.2-.9,18.6.2,37.3,2.4,55.7,4.3,36.7,15.1,68.3,37.2,90.1,14.2,14.1,29,27.1,40.7,46.6,7.6,12.7,14,26.6,18.9,41.9,10,31.7,19.2,63.9,29.7,95.2,8.8,26.2,20.9,49,36.9,67.1,20.2,22.9,42.6,39.7,63.9,59.5,13.8,12.8,27.3,26.7,41.1,39.6,9.9,9.2,20,18,30.2,26.4,6.7,5.6,14,8,21.5,6.8"/>
    <path class="st0" d="M20.9,619c5.5-3.6,11.4-6.2,16.5-10.9,10.3-9.4,18.6-21.6,20.4-41.3,1.1-12-.1-23.1-6.7-32.3-4-5.7-8.2-10.4-13.6-12.7-8.7-3.7-16.9-2.1-24.6,2.5-11.3,6.9-19.6,19.2-23.9,36.5-2.9,11.5-2.8,24,.7,36.2,4,14,13.1,22.7,22.9,22.3l7.8-.3"/>
  </g>
</svg>