<?xml version="1.0" encoding="UTF-8"?><svg id="uuid-fe4f7b43-51dd-48cb-9ea3-28d3823755b5" xmlns="http://www.w3.org/2000/svg" xmlns:xlink="http://www.w3.org/1999/xlink" viewBox="0 0 232.722 65"><defs><clipPath id="uuid-ae975f82-41ef-45e5-b285-0c89811e93fa"><rect width="63" height="65" style="fill:none;"/></clipPath></defs><path d="M87.1931,56.54v-12.852h6.048c2.43,0,3.90601,1.296,3.90601,3.366,0,1.566-.666,2.826-2.232,3.258v.036c1.494.288,1.782,1.404,1.926,2.646.09,1.242.036,2.682.756,3.546h-1.908c-.486-.522-.216-1.908-.468-3.168-.198-1.242-.486-2.322-2.142-2.322h-4.176v5.49h-1.71ZM88.9031,49.61h3.564c1.584,0,2.97-.414,2.97-2.286,0-1.278-.68401-2.196-2.286-2.196h-4.248v4.482ZM107.507,55.316v1.188c-.27.162-.648.252-1.09801.252-.792,0-1.296-.432-1.296-1.44-.846,1.008-1.98,1.44-3.276,1.44-1.692,0-3.0777-.738-3.0777-2.61,0-2.106,1.5657-2.574,3.1497-2.862,1.674-.342,3.132-.198,3.132-1.368,0-1.35-1.116-1.548-2.07-1.548-1.296,0-2.25.396-2.322,1.764h-1.5297c.09-2.304,1.8537-3.114,3.9417-3.114,1.674,0,3.492.378,3.492,2.556v4.788c0,.72,0,1.044.486,1.044.144,0,.306-.036.468-.09ZM105.023,53.3v-1.566c-1.188.882-4.644.018-4.644,2.304,0,1.008.864,1.368,1.8,1.368,2.016,0,2.844-1.242,2.844-2.106ZM111.055,44.444v2.79h1.854v1.35h-1.854v5.778c0,.72.198.828,1.152.828h.702v1.35h-1.17c-1.584,0-2.214-.324-2.214-2.034v-5.922h-1.584v-1.35h1.584v-2.79h1.53ZM115.725,50.996h5.346c-.09-1.458-1.152-2.628-2.682-2.628-1.584,0-2.574,1.188-2.664,2.628ZM121.035,53.588h1.51199c-.41399,2.07-1.87199,3.168-3.978,3.168-2.97,0-4.374-2.07-4.464-4.896,0-2.808,1.836-4.842,4.37399-4.842,3.29401,0,4.302,3.078,4.21201,5.328h-6.966c-.054,1.62.864,3.06,2.898,3.06,1.278,0,2.142-.594,2.412-1.818ZM125.393,51.968c0,1.746.9,3.438,2.88,3.438,2.07001,0,2.84401-1.782,2.84401-3.51,0-1.818-.828-3.528-2.93401-3.528-2.088,0-2.79,1.782-2.79,3.6ZM132.593,43.688v12.852h-1.53v-1.26h-.03601c-.504,1.026-1.674,1.476-2.96999,1.476-2.86201,0-4.284-2.268-4.284-4.896s1.404-4.842,4.24799-4.842c.936,0,2.34.36,3.006,1.458h.03601v-4.788h1.53ZM140.623,52.202h4.284v-6.246h-.036l-4.248,6.246ZM146.347,43.778v8.424h1.728v1.35h-1.728v2.988h-1.44v-2.988h-5.59799v-1.476l5.814-8.298h1.224ZM150.30099,56.54v-1.998h1.998v1.998h-1.998ZM156.606,47.09c0,1.386,1.026,2.052,2.26799,2.052,1.22401,0,2.106-.756,2.106-2.052s-.89999-1.962-2.142-1.962c-1.224,0-2.23199.684-2.23199,1.962ZM154.98599,47.036c0-2.088,1.78201-3.258,3.744-3.258,2.79001,0,3.87001,1.62,3.87001,3.258,0,1.152-.70201,2.16-1.76401,2.646,1.53.486,2.26801,1.602,2.26801,3.186,0,2.466-1.87201,3.888-4.23001,3.888-2.448,0-4.338-1.296-4.338-3.888,0-1.512.79201-2.682,2.23201-3.186-1.08-.432-1.78201-1.494-1.78201-2.646ZM156.15601,52.94c0,1.53,1.13399,2.466,2.71799,2.466,1.53001,0,2.61-1.062,2.61-2.484,0-1.368-1.18799-2.43-2.62799-2.43-1.51201,0-2.7.954-2.7,2.448ZM163.494,56.846l5.328-13.464h1.314l-5.328,13.464h-1.314ZM178.27299,43.994v1.35h-5.14799l-.68401,3.672.03601.036c.558-.63,1.51199-.918,2.37599-.918,2.26801,0,4.12201,1.44,4.12201,4.374,0,2.16-1.494,4.248-4.464,4.248-2.214,0-4.01401-1.35-4.06801-3.654h1.53001c.08899,1.314,1.15199,2.304,2.68199,2.304,1.45801,0,2.7-1.008,2.7-3.024,0-1.674-1.15199-2.898-2.87999-2.898-.99001,0-1.78201.486-2.37601,1.206l-1.314-.072,1.188-6.624h6.29999ZM187.092,51.896c0,2.25,1.29601,3.51,2.89801,3.51s2.89799-1.26,2.89799-3.51-1.29601-3.528-2.89799-3.528-2.89801,1.278-2.89801,3.528ZM185.472,51.896c0-2.736,1.56599-4.878,4.51801-4.878s4.51799,2.142,4.51799,4.878c0,2.718-1.56599,4.86-4.51799,4.86s-4.51801-2.142-4.51801-4.86ZM196.312,56.54v-9.306h1.44v1.476h.036c.64801-1.152,1.67401-1.692,3.024-1.692,2.448,0,3.20401,1.404,3.20401,3.402v6.12h-1.53001v-6.3c0-1.152-.71999-1.872-1.89-1.872-1.85399,0-2.754,1.242-2.754,2.916v5.256h-1.53ZM221.638,56.54l-.45-1.602c-1.00801,1.332-2.62801,1.908-4.12201,1.908-3.834,0-6.12-3.114-6.12-6.48,0-3.744,2.052-6.984,6.12-6.984,2.79001,0,5.058,1.26,5.526,4.266h-1.70999c-.34201-1.944-1.89-2.826-3.81601-2.826-3.114,0-4.40999,2.718-4.40999,5.454,0,2.682,1.54799,5.13,4.40999,5.13,2.664,0,4.21201-1.836,4.12201-4.194h-4.104v-1.44h5.634v6.768h-1.08ZM226.15199,48.296h-1.53c-.144-2.592,1.40401-4.518,4.104-4.518,2.214,0,3.996,1.296,3.996,3.672,0,2.25-1.51199,3.366-3.09599,4.374-1.584.954-3.29401,1.8-3.582,3.366h6.55199v1.35h-8.334c.23401-3.006,1.78201-4.14,3.582-5.22,2.16-1.35,3.25801-2.106,3.25801-3.888,0-1.386-1.11601-2.304-2.466-2.304-1.782,0-2.53799,1.638-2.48401,3.168Z"/><path d="M219.946,5.85668c.35201-.79049,1.474-.79049,1.827,0l2.08101,4.66992c.14499.326.45399.5499.80899.5873l5.084.5367c.86101.0908,1.20801,1.1579.565,1.7373l-3.79799,3.4228c-.26601.239-.38301.6012-.30901.9504l1.061,5.0015c.179.8467-.729,1.5062-1.47801,1.0738l-4.429-2.5545c-.30899-.1784-.68999-.1784-.99899,0l-4.429,2.5545c-.75.4324-1.658-.2271-1.478-1.0738l1.061-5.0015c.07399-.3492-.04401-.7114-.30901-.9504l-3.798-3.4228c-.64299-.5794-.29601-1.6465.564-1.7373l5.08501-.5367c.355-.0374.66299-.2613.808-.5873l2.082-4.66992Z"/><path d="M158.67,5.85668c.353-.79049,1.47501-.79049,1.827,0l2.082,4.66992c.145.326.453.5499.808.5873l5.08501.5367c.86.0908,1.207,1.1579.564,1.7373l-3.79799,3.4228c-.265.239-.38301.6012-.30901.9504l1.061,5.0015c.17999.8467-.72801,1.5062-1.47801,1.0738l-4.429-2.5545c-.30899-.1784-.68999-.1784-.99899,0l-4.429,2.5545c-.74899.4324-1.657-.2271-1.478-1.0738l1.061-5.0015c.07399-.3492-.043-.7114-.30901-.9504l-3.798-3.4228c-.64299-.5794-.29599-1.6465.565-1.7373l5.084-.5367c.355-.0374.66299-.2613.80901-.5873l2.08099-4.66992Z"/><path d="M190.13699,5.85668c.35301-.79049,1.47501-.79049,1.82701,0l2.082,4.66992c.14499.326.45299.5499.808.5873l5.08499.5367c.86.0908,1.207,1.1579.56401,1.7373l-3.798,3.4228c-.265.239-.383.6012-.30901.9504l1.061,5.0015c.17999.8467-.728,1.5062-1.478,1.0738l-4.429-2.5545c-.30901-.1784-.69-.1784-.99901,0l-4.429,2.5545c-.75.4324-1.657-.2271-1.478-1.0738l1.061-5.0015c.07401-.3492-.04401-.7114-.30901-.9504l-3.79799-3.4228c-.64301-.5794-.29601-1.6465.56499-1.7373l5.084-.5367c.35501-.0374.66301-.2613.80901-.5873l2.08099-4.66992Z"/><path d="M128.862,5.85668c.35201-.79049,1.474-.79049,1.827,0l2.08101,4.66992c.14499.326.45399.5499.80899.5873l5.084.5367c.86101.0908,1.20801,1.1579.565,1.7373l-3.798,3.4228c-.26599.239-.383.6012-.30899.9504l1.061,5.0015c.17899.8467-.729,1.5062-1.47801,1.0738l-4.429-2.5545c-.30899-.1784-.68999-.1784-.99899,0l-4.429,2.5545c-.75.4324-1.658-.2271-1.478-1.0738l1.061-5.0015c.074-.3492-.044-.7114-.309-.9504l-3.798-3.4228c-.643-.5794-.296-1.6465.564-1.7373l5.085-.5367c.355-.0374.663-.2613.808-.5873l2.082-4.66992Z"/><path d="M96.5669,5.85668c.35239-.79049,1.4744-.79049,1.8267,0l2.0814,4.66992c.146.326.454.5499.809.5873l5.084.5367c.861.0908,1.208,1.1579.565,1.7373l-3.798,3.4228c-.266.239-.383.6012-.30901.9504l1.061,5.0015c.179.8467-.728,1.5062-1.478,1.0738l-4.4291-2.5545c-.3092-.1784-.68999-.1784-.9993,0l-4.4289,2.5545c-.74969.4324-1.65739-.2271-1.4779-1.0738l1.0609-5.0015c.07401-.3492-.04369-.7114-.3088-.9504l-3.7981-3.4228c-.6429-.5794-.2962-1.6465.5645-1.7373l5.0846-.5367c.355-.0374.66309-.2613.8084-.5873l2.0816-4.66992Z"/><g style="clip-path:url(#uuid-ae975f82-41ef-45e5-b285-0c89811e93fa);"><path d="M33.326,0l5.3225.70078-6.3005,13.10922c-.8983.2056-1.8181.1637-2.7379.3034-12.9697,1.9538-19.86059,16.6156-13.1065,27.9474,5.6037,9.4022,17.6092,11.714,26.6172,5.6507.2546-.1714,1.2745-1.1184,1.4684-.9839l6.7997,12.0542c-4.9905,3.6829-11.3797,6.0151-17.6194,6.09-.2141.00249-.5625-.08131-.6956.12949h-1.5203l-3.0875-.27039C13.9025,63.0208,2.09464,51.1596.28165,36.6095L.01179,33.6426c.02661-.7579-.03674-1.5285,0-2.2852C.84797,14.0029,14.2978.79853,31.5536,0h1.7737-.0013Z"/><path d="M31.1738,41.7674l7.8525-13.7757,15.7798-.0698c.4954.0609.8223.8798,1.0908,1.319,2.4668,4.0384,4.5927,8.2989,7.1051,12.3132v.4266l-7.6511,13.2894-.2965.2082-7.9817-13.7109h-15.8989Z"/><path d="M46.7543,19.2964h9.6275v3.9356h-14.5673v-2.3486c0-2.4934,1.7281-5.3892,3.6133-6.9152,1.5178-1.2289,5.6087-2.9136,6.3727-4.15008.9033-1.46377.1394-3.03926-1.4684-3.43789-2.3869-.5916-4.8296.92041-5.7329,3.14209l-2.7645-2.83233c1.6483-3.18398,4.8968-4.56396,8.4011-4.27451,6.7807.55987,8.5506,7.99302,2.7151,11.73052-2.1475,1.3749-5.9141,2.2483-6.1966,5.1517v-.0013Z"/></g></svg>