<svg width="164" height="36" viewBox="0 0 164 36" fill="none" xmlns="http://www.w3.org/2000/svg">
<g clip-path="url(#clip0_8687_16031)">
<path d="M146.069 0.32925C142.699 0.485712 140.163 2.87437 140.212 6.49124C140.322 14.875 152.092 19.9783 152.107 19.9861V3.34115C150.738 1.76349 148.709 0.206688 146.072 0.326643L146.069 0.32925Z" fill="#6544E0"/>
<path d="M149.087 0.329433C147.401 0.485895 146.133 2.87455 146.157 6.49143C146.21 14.8752 152.096 19.9785 152.104 19.9863V3.34133C151.42 1.76367 150.406 0.206871 149.087 0.326827V0.329433Z" fill="#FFD401"/>
<path d="M158.139 0.329433C161.509 0.485895 164.046 2.87455 163.997 6.49143C163.886 14.8752 152.117 19.9785 152.102 19.9863V3.34133C153.47 1.76367 155.5 0.206871 158.137 0.326827L158.139 0.329433Z" fill="#60CCB7"/>
<path d="M155.123 0.329433C156.808 0.485895 158.076 2.87455 158.053 6.49143C157.999 14.8752 152.113 19.9785 152.105 19.9863V3.34133C152.79 1.76367 153.803 0.206871 155.123 0.326827V0.329433Z" fill="#FB4E03"/>
<path d="M20.5109 18.8387C20.5109 24.9251 16.3511 28.8862 10.707 28.8862C8.24758 28.8862 6.07636 28.0439 4.51997 26.2472V35.7445H0V9.04942H4.30386V11.6154C5.82425 9.74566 8.06494 8.82776 10.707 8.82776C16.3511 8.82776 20.5109 12.7889 20.5109 18.8387ZM15.9164 18.8387C15.9164 15.0993 13.457 12.7159 10.2002 12.7159C6.94331 12.7159 4.44795 15.0993 4.44795 18.8387C4.44795 22.5782 6.94331 24.9616 10.2002 24.9616C13.457 24.9616 15.9164 22.5782 15.9164 18.8387Z" fill="#08173A"/>
<path d="M34.028 8.82764V13.1903C33.6291 13.1173 33.3052 13.0808 32.9785 13.0808C29.5414 13.0808 27.3702 15.1331 27.3702 19.1307V28.6279H22.8477V9.04929H27.1515V11.9099C28.4532 9.85769 30.8045 8.83024 34.0255 8.83024L34.028 8.82764Z" fill="#08173A"/>
<path d="M36.6172 3.07242C36.6172 1.53126 37.8469 0.321289 39.5113 0.321289C41.1759 0.321289 42.4056 1.45825 42.4056 2.96028C42.4056 4.57446 41.2117 5.82093 39.5113 5.82093C37.8108 5.82093 36.6172 4.61095 36.6172 3.06981V3.07242ZM37.232 9.04926H41.7547V28.6305H37.232V9.04926Z" fill="#08173A"/>
<path d="M77.3022 17.4096V28.6305H72.7795V17.9963C72.7795 14.5124 71.1873 12.8252 68.4399 12.8252C65.4736 12.8252 63.4103 14.8045 63.4103 18.6926V28.6305H58.888V17.9963C58.888 14.5124 57.2955 12.8252 54.548 12.8252C51.5456 12.8252 49.5188 14.8045 49.5188 18.6926V28.6305H44.9961V9.04929H49.3V11.5423C50.7456 9.78205 52.989 8.82764 55.6311 8.82764C58.453 8.82764 60.8044 9.8916 62.142 12.0925C63.6984 10.0767 66.3018 8.82764 69.3761 8.82764C74.0428 8.82764 77.2971 11.5031 77.2971 17.407L77.3022 17.4096Z" fill="#08173A"/>
<path d="M100.1 9.04962V28.6309H95.7961V26.1014C94.2758 27.9711 92.0352 28.889 89.3931 28.889C83.7487 28.889 79.625 24.9279 79.625 18.8416C79.625 12.7552 83.7487 8.83057 89.3931 8.83057C91.8525 8.83057 94.0238 9.67287 95.5799 11.4331V9.04962H100.103H100.1ZM95.6495 18.8416C95.6495 15.1021 93.1901 12.7187 89.8972 12.7187C86.6045 12.7187 84.1809 15.1021 84.1809 18.8416C84.1809 22.581 86.6403 24.9644 89.8972 24.9644C93.1541 24.9644 95.6495 22.581 95.6495 18.8416Z" fill="#08173A"/>
<path d="M114.509 8.82764V13.1903C114.11 13.1173 113.786 13.0808 113.459 13.0808C110.022 13.0808 107.851 15.1331 107.851 19.1307V28.6279H103.328V9.04929H107.632V11.9099C108.934 9.85769 111.285 8.83024 114.506 8.83024L114.509 8.82764Z" fill="#08173A"/>
<path d="M136.599 9.04932V25.6604C136.599 32.7741 133.09 35.9999 126.579 35.9999C123.142 35.9999 119.705 35.0456 117.572 33.2122L119.597 29.7649C121.225 31.1939 123.721 32.0753 126.324 32.0753C130.304 32.0753 132.076 30.1326 132.076 26.1715V25.2536C130.631 26.8677 128.459 27.7465 126.072 27.7465C121.117 27.7465 117.752 25.0319 117.752 19.0916V9.04932H122.275V18.5101C122.275 22.0304 123.939 23.7176 126.797 23.7176C129.944 23.7176 132.079 21.7749 132.079 17.8503V9.04932H136.602H136.599Z" fill="#08173A"/>
</g>
<defs>
<clipPath id="clip0_8687_16031">
<rect width="164" height="36" fill="white"/>
</clipPath>
</defs>
</svg>
