<svg width="69" height="57" viewBox="0 0 69 57" fill="none" xmlns="http://www.w3.org/2000/svg">
<path d="M32.3613 4.49902C33.3039 2.94197 35.5219 2.89345 36.5439 4.35352L36.6387 4.49902L65.8164 52.7051C66.8248 54.3711 65.6251 56.4998 63.6777 56.5H5.32227C3.4358 56.4998 2.25134 54.5028 3.0957 52.8633L3.18359 52.7051L32.3613 4.49902Z" fill="#FEF6F0" stroke="#E3D4C4"/>
<path fill-rule="evenodd" clip-rule="evenodd" d="M33.5346 11.0965L9.92632 50.0235C9.52089 50.692 9.73657 51.5612 10.4081 51.9648C10.6305 52.0985 10.8855 52.1689 11.1453 52.1683L50.9228 52.0816C51.315 52.0807 51.6322 51.7635 51.6314 51.3731C51.6311 51.2408 51.5935 51.1113 51.523 50.9992L43.9424 38.9543L38.7434 48.1734L16.2725 48.2923L37.2706 13.343L35.9802 11.1199C35.5877 10.4438 34.719 10.2124 34.0399 10.6031C33.8323 10.7225 33.6585 10.8922 33.5346 11.0965Z" fill="#2F87B5"/>
<path fill-rule="evenodd" clip-rule="evenodd" d="M39.3935 16.6306L22.2051 45.2588H27.4628L41.8541 21.1106L39.3935 16.6306Z" fill="#9FBDCD"/>
<path fill-rule="evenodd" clip-rule="evenodd" d="M30.8159 45.2591H36.3744L43.7447 33.052L55.5939 51.5299C55.8516 51.9318 56.2954 52.1773 56.7743 52.1829L58.9383 52.2082C59.7227 52.2174 60.366 51.5918 60.3752 50.8109C60.3784 50.5374 60.3018 50.2688 60.1548 50.0377L43.9076 24.5032L31.1737 45.2298" fill="#FC5161"/>
</svg>
