<?xml version="1.0" encoding="UTF-8"?><svg id="uuid-bf8544a0-145a-4925-a68d-fec77dddeeac" xmlns="http://www.w3.org/2000/svg" viewBox="0 0 67.64985 55.81943"><path d="M31.80331.91267L.27331,52.9015c-.5415.8928-.2534,2.0536.6434,2.5927.297.1786.6376.2726.9846.2718l53.1247-.1158c.5238-.0011.9475-.4248.9464-.9463-.0004-.1766-.0506-.3496-.1448-.4992l-10.1242-16.0866-6.9435,12.3125-30.011.1588L36.79292,3.913l-1.7234-2.96909c-.5241-.90302-1.6844-1.21205-2.5914-.69023-.2772.15946-.5093.38616-.6748.65899Z" style="fill:#2f87b5; fill-rule:evenodd;"/><path d="M39.62782,8.30371l-22.9559,38.23439h7.0219L42.91402,14.2869l-3.2862-5.98319Z" style="fill:#9fbdcd; fill-rule:evenodd;"/><path d="M28.17191,46.5385h7.4236l9.8434-16.3032,15.8251,24.6781c.3442.5367.9369.8646,1.5765.8721l2.89021.0338c1.0475.0122,1.9067-.8233,1.919-1.8661.0043-.3654-.098-.7241-.2944-1.0328l-21.6989-34.1025-17.0067,27.6813" style="fill:#fc5161; fill-rule:evenodd;"/></svg>