<svg width="736" height="78" viewBox="0 0 736 78" fill="none" xmlns="http://www.w3.org/2000/svg">
<mask id="mask0_8083_30350" style="mask-type:alpha" maskUnits="userSpaceOnUse" x="0" y="0" width="736" height="78">
<rect width="735" height="76.7007" transform="matrix(-1 0 0 1 735.352 0.931641)" fill="#FEF6F0"/>
</mask>
<g mask="url(#mask0_8083_30350)">
<g opacity="0.2">
<path d="M90.8973 -31.1593C90.5565 -27.0191 92.5658 -23.1057 95.9028 -19.3481C98.2454 -16.7101 101.003 -14.1602 103.288 -11.5112C104.864 -9.68485 106.262 -7.7908 107.145 -5.86204C107.769 -4.49693 107.42 -3.01588 106 -1.70493C104.199 -0.0444586 102.245 1.57793 100.528 3.25787C99.3162 4.44271 98.806 5.7215 98.6719 7.07307C98.3497 10.3466 99.9735 13.4458 101.739 16.5459C103.238 19.1796 104.821 21.8032 106.156 24.4564C107.707 27.5395 109.132 30.6413 110.415 33.7541C111.208 35.6752 111.731 37.626 112.201 39.5742C112.582 41.1585 112.957 42.7614 112.884 44.3508C112.763 46.9498 111.435 49.4295 107.925 51.4607C105.752 52.7175 102.655 53.3209 99.4335 53.7373C95.6365 54.2282 91.875 54.0953 88.0501 53.7534C83.3369 53.3319 78.5883 52.9934 73.8324 52.7116C71.1322 52.5516 68.3706 52.4594 65.6649 52.5474C61.7394 52.6743 58.2367 53.4588 55.3652 54.7859C50.4025 57.0785 47.8178 59.9747 46.4212 63.2034C45.5441 65.2303 45.546 67.2699 45.8272 69.2875C46.2853 72.5678 48.5106 75.6594 51.8606 78.4828C55.5421 81.5854 60.4825 84.192 66.7301 86.1462C71.0969 87.5113 75.8621 88.3762 80.9477 88.8425C86.6627 89.3664 92.4429 89.2403 98.1877 89.1557C102.227 89.0964 106.243 88.7071 110.279 88.4998C113.174 88.3517 116.081 88.2399 118.988 88.1511C123.429 88.0157 127.917 88.0622 132.306 87.7576C136.863 87.4419 141.314 87.9133 145.83 87.8464C149.785 87.7889 153.788 88.0698 157.731 88.3364C164.12 88.7697 170.468 89.3055 176.775 90.0147C182.483 90.657 188.103 91.4111 193.635 92.3251C200.6 93.4753 207.505 94.7134 213.542 96.8394C217.136 98.1055 219.979 99.7262 221.311 101.796C222.758 104.044 223.817 106.355 224.908 108.654C226.685 112.397 229.57 115.897 234.556 118.893C238.039 120.984 242.18 122.762 246.601 124.387C252.31 126.486 258.549 128.156 264.953 129.648C270.567 130.955 276.332 132.121 282.329 133.001C287.248 133.723 292.179 134.346 297.261 134.75C301.889 135.118 306.529 135.189 311.131 135.029C317.635 134.803 323.46 133.653 328.22 131.341C332.929 129.054 336.462 126.326 340.501 123.785C343.281 122.036 346.294 120.368 349.376 118.743C353.849 116.385 358.627 114.163 362.996 111.762C366.974 109.576 369.346 106.931 370.29 104.044C371.266 101.056 371.111 98.0276 371.026 95.0105C370.987 93.62 370.823 92.2295 370.679 90.8398C370.461 88.7249 370.305 86.6074 369.946 84.4975C369.595 82.4359 369.208 80.3684 368.51 78.3304C367.32 74.8639 365.214 71.5159 361.044 68.6088C357.076 65.8413 351.702 63.8745 345.27 62.5932C338.305 61.2052 330.946 60.4833 323.769 59.4499C312.598 57.8402 302.304 55.4257 294.435 51.0392C290.621 48.9133 287.394 46.5868 284.636 44.0952C279.714 39.6495 274.863 35.1801 269.645 30.8182C267.308 28.8657 264.416 27.0309 261.31 25.3467C255.32 22.0986 248.664 19.2067 240.761 17.0554C234.793 15.4304 228.441 14.2964 221.89 13.4475C218.367 12.9905 214.678 12.8365 211.063 12.5496C207.391 12.2576 203.732 11.8988 200.039 11.6965C194.434 11.3893 188.941 10.8476 183.511 10.1198C177.695 9.34035 172.088 8.29853 167.012 6.70492C164.472 5.90769 162.047 4.96743 159.928 3.91969C157.95 2.94135 156.744 1.66849 157.044 0.211128C157.273 -0.90855 158.3 -1.90043 159.529 -2.82715C161.853 -4.57903 164.196 -6.32752 166.639 -8.04046C170.878 -11.0119 173.742 -14.2931 175.449 -17.7841C176.725 -20.3916 176.969 -23.0981 176.503 -25.7674C176.187 -27.5794 175.157 -29.3617 174.445 -31.1576" stroke="black" stroke-width="0.5" stroke-linecap="round" stroke-linejoin="round"/>
<path d="M670.363 160.005C669.831 158.528 669.306 157.049 668.762 155.573C668.119 153.835 667.471 152.097 666.807 150.36C666.108 148.534 665.315 146.716 664.7 144.883C664.227 143.473 663.98 142.046 663.605 140.628C663.27 139.353 662.861 138.082 662.557 136.804C662.365 135.997 662.235 135.183 662.2 134.371C662.052 130.983 661.838 127.593 661.872 124.205C661.894 122.033 662.278 119.86 662.551 117.689C662.738 116.21 663.032 114.734 663.248 113.257C663.503 111.519 663.745 109.782 663.957 108.043C664.108 106.799 664.239 105.553 664.311 104.307C664.456 101.845 664.736 99.3812 664.62 96.9218C664.518 94.718 663.933 92.5192 663.615 90.3171C663.218 87.5759 662.263 84.877 660.723 82.2416C659.689 80.4745 658.421 78.7311 657.002 77.0283C653.505 72.8314 647.628 69.4216 641.578 66.0693C634.835 62.3345 628.846 58.3306 623.783 53.9983C619.276 50.1425 615.055 46.2096 609.979 42.5095C605.992 39.6033 601.169 37.0965 595.852 34.8106C591.703 33.0265 586.858 31.7571 581.482 31.0656C575.759 30.3302 570.573 30.8938 566.218 32.8894C563.346 34.2055 560.601 35.5892 557.853 36.9678C552.19 39.8098 546.071 42.3834 538.967 44.3173C536.901 44.8801 534.425 45.172 532.062 45.3591C529.445 45.5664 527.369 44.9063 525.658 43.9229C522.863 42.3149 521.073 40.4115 518.924 38.6148C514.784 35.1542 509.779 32.132 502.04 30.4419C498.792 29.7327 495.468 29.1987 491.904 29.0548C489.412 28.9541 486.923 28.7112 484.439 28.729C471.275 28.8254 459.584 30.8557 449.581 35.1296C444.644 37.2387 440.208 39.5297 437.361 42.4452C435.895 43.9457 434.927 45.5114 434.605 47.2151C433.648 52.2701 436.499 56.7827 442.141 60.944C444.735 62.8575 448.176 64.2819 452.81 64.8345C454.869 65.08 456.964 65.1654 459.206 65.0859C466.644 64.821 473.15 63.2629 479.811 61.897C489.139 59.9834 498.297 57.8549 508.082 56.5245C510.239 56.2317 512.442 55.9397 514.658 55.8441C518.989 55.6562 522.242 56.654 524.408 58.433C527.691 61.1319 530.732 63.9002 534.06 66.5856C536.63 68.659 539.414 70.6724 542.22 72.6723C548.238 76.9623 554.946 81.0305 559.456 85.7953C562.091 88.5796 564.08 91.4529 565.165 94.4844C565.868 96.4453 566.547 98.3952 566.577 100.396C566.609 102.481 566.974 104.569 566.86 106.652C566.76 108.509 566.199 110.36 565.847 112.214C565.605 113.488 565.462 114.769 565.113 116.036C564.603 117.895 564.039 119.753 563.331 121.596C562.616 123.461 561.704 125.306 560.866 127.159C560.223 128.579 559.57 129.998 558.91 131.417C557.551 134.343 556.188 137.268 554.823 140.193C553.877 142.221 552.845 144.24 552.009 146.279C551.492 147.537 551.242 148.823 550.92 150.1C550.423 152.069 549.851 154.035 549.533 156.01C549.32 157.334 549.492 158.673 549.492 160.005" stroke="black" stroke-width="0.5" stroke-linecap="round" stroke-linejoin="round"/>
<path d="M362.68 160.004C360.844 158.73 358.849 157.502 357.205 156.17C354.354 153.862 351.749 151.48 348.985 149.145C346.618 147.145 344.555 144.97 340.077 143.872C337.637 143.273 334.946 142.849 332.272 142.568C328.412 142.163 324.453 141.994 320.557 141.662C314.8 141.172 309.071 140.593 303.31 140.114C295.699 139.482 288.344 138.401 281.105 137.135C275.597 136.172 270.132 135.133 264.759 134.002C259.992 132.998 255.348 131.851 250.705 130.714C241.143 128.37 232.398 125.444 224.946 121.674C219.384 118.859 214.633 115.748 211.017 112.223C208.641 109.907 205.998 107.648 203.203 105.445C199.41 102.46 194.095 100.223 187.772 98.575C180.276 96.6217 172.286 95.3497 163.956 94.577C159.938 94.2046 155.917 93.8094 151.865 93.5513C148.455 93.3338 145.001 93.2644 141.56 93.1916C137.178 93.0985 132.789 92.9995 128.407 93.0283C124.08 93.057 119.752 93.2119 115.432 93.3659C111.752 93.4971 108.087 93.7273 104.41 93.872C100.741 94.0168 97.0633 94.1065 93.3911 94.2283C92.0261 94.274 90.6537 94.4289 89.3055 94.3849C83.1249 94.1835 76.9444 94.0286 70.9854 93.024C62.9744 91.6742 56.3767 89.3764 50.7045 86.3305C46.1925 83.9075 42.714 81.1773 39.9114 78.2321C37.6209 75.8252 36.0139 73.315 35.0232 70.6838C34.04 68.0721 34.1591 65.4502 34.513 62.8621C34.8295 60.5534 36.1721 58.27 37.2503 55.996C38.5818 53.1862 40.7903 50.5203 43.6562 48.0076C46.4495 45.56 49.7157 43.2724 55.3656 42.1909C56.8925 41.898 58.535 41.6594 60.1569 41.5908C64.2984 41.4173 68.3672 41.7516 72.4231 42.1646C76.2293 42.5522 80.0263 43.0583 83.9704 42.9534C89.2329 42.8129 93.0242 41.6848 94.4637 38.8758C95.7505 36.3648 94.771 33.9308 93.5829 31.4875C91.3073 26.8099 86.1398 22.9007 80.0486 19.2421C75.9686 16.7912 72.883 14.0813 71.0506 11.0616C70.4659 10.0985 70.5013 9.04316 70.2927 8.02758C70.1381 7.27605 69.8737 6.5169 69.9612 5.7696C70.2703 3.16802 70.6987 0.57914 72.0227 -1.96997C73.5012 -4.81613 74.7656 -7.69022 75.9276 -10.5719C76.4323 -11.8203 76.4732 -13.1151 76.6744 -14.3914C76.8345 -15.4036 77.0319 -16.4191 77.0133 -17.4322C76.9779 -19.344 76.8196 -21.2558 76.6744 -23.1668C76.598 -24.1816 76.2945 -25.1971 76.3615 -26.2076C76.4658 -27.7742 76.7917 -29.3365 77.058 -30.8996C77.0747 -30.9927 77.3932 -31.074 77.5701 -31.1611" stroke="black" stroke-width="0.5" stroke-linecap="round" stroke-linejoin="round"/>
<path d="M46.8164 -31.1593C45.9877 -28.8421 45.0958 -26.5299 44.3472 -24.2068C43.6675 -22.0995 43.1721 -19.9778 42.5427 -17.8654C41.9896 -16.0085 41.3416 -14.1593 40.7811 -12.3034C40.2727 -10.626 39.917 -8.93671 39.3304 -7.26608C38.4645 -4.79738 37.5856 -2.32613 36.472 0.118032C35.3305 2.62652 34.0307 5.1223 32.5615 7.58932C31.0643 10.1037 29.4237 12.6021 27.5876 15.0615C24.6286 19.0222 21.3232 22.922 18.4257 26.893C16.5133 29.5132 14.8541 32.1884 13.4649 34.8864C12.3215 37.1072 11.7852 39.4007 10.9025 41.6553C9.64 44.8738 8.31786 48.0873 6.99944 51.3007C5.9529 53.8515 4.73506 56.388 3.84866 58.9514C3.20435 60.815 2.98085 62.7133 2.55069 64.5955C2.49669 64.8308 2.32167 65.0593 2.20435 65.2912" stroke="black" stroke-width="0.5" stroke-linecap="round" stroke-linejoin="round"/>
<path d="M2.28821 69.3759C2.43719 69.9547 2.5489 70.537 2.73885 71.1133C3.37385 73.026 3.76676 74.9709 4.74068 76.8421C6.99949 81.1786 9.68662 85.4626 11.9212 89.8026C13.275 92.4321 14.1409 95.1225 15.1651 97.7909C16.3867 100.974 17.3662 104.181 18.7722 107.343C20.7032 111.687 23.4816 115.937 29.1259 119.48C33.7161 122.36 39.3715 124.695 46.5948 126.08C50.9821 126.921 55.4197 127.606 59.9783 128.086C63.1086 128.415 66.3655 128.454 69.5629 128.638C79.2592 129.199 88.9947 128.943 98.7152 128.972C103.574 128.986 108.432 128.874 113.29 128.808C116.845 128.76 120.402 128.71 123.955 128.632C128.519 128.533 133.082 128.416 137.642 128.285C141.081 128.187 144.513 128.032 147.953 127.947C153.521 127.81 159.089 127.648 164.662 127.611C170.107 127.575 175.468 128.055 180.643 128.834C187.932 129.93 194.736 131.567 201.308 133.478C207.09 135.159 213.025 136.735 219.078 138.169C227.451 140.153 235.94 142.026 244.492 143.819C250.19 145.014 256.08 145.991 261.892 147.056C271.249 148.77 280.657 150.422 289.958 152.206C294.914 153.156 299.757 154.264 304.534 155.418C309.36 156.584 314.005 157.922 318.25 159.564C318.759 159.76 319.423 159.861 320.016 160.005" stroke="black" stroke-width="0.5" stroke-linecap="round" stroke-linejoin="round"/>
<path d="M334.594 160.004C331.927 158.932 329.37 157.787 326.57 156.806C322.402 155.349 318.179 153.914 313.773 152.638C305.177 150.15 295.743 148.577 286.431 146.873C275.732 144.917 265.051 142.936 254.446 140.866C249.306 139.862 244.394 138.585 239.312 137.508C228.765 135.275 219.106 132.297 209.64 129.154C204.108 127.317 198.583 125.472 193.113 123.59C186.076 121.167 178.305 119.555 169.987 118.579C167.274 118.261 164.436 118.165 161.643 118.046C157.859 117.886 154.056 117.826 150.27 117.681C146.473 117.537 142.66 117.425 138.9 117.146C132.997 116.709 127.226 115.999 121.643 114.919C115.692 113.768 109.679 112.673 103.338 112.143C100.766 111.928 98.1333 111.865 95.5226 111.786C90.9044 111.646 86.2639 111.63 81.6624 111.413C74.3218 111.066 67.2213 110.251 60.6758 108.484C56.2494 107.29 52.1508 105.895 48.3966 104.232C44.6481 102.57 41.0969 100.821 38.1454 98.8194C35.5439 97.0557 33.0672 95.2335 30.8717 93.3437C28.5179 91.3193 26.4621 89.2078 24.4435 87.0971C20.5013 82.9763 17.2294 78.7211 14.8961 74.3194C13.9893 72.6073 13.7751 70.7995 13.4362 69.0265C13.1606 67.5852 12.9297 66.1245 13.1066 64.6849C13.3506 62.7087 13.9018 60.7368 14.4958 58.7759C15.2239 56.3647 16.073 53.9612 16.9799 51.5636C17.5851 49.9607 18.4305 48.3806 19.0804 46.7819C19.8439 44.9048 20.5162 43.0175 21.2257 41.1353C22.5292 37.6772 24.2554 34.2708 26.7563 30.9727C28.9667 28.058 31.3261 25.1703 33.6743 22.281C36.8512 18.3719 39.6388 14.4001 41.4693 10.2862C43.216 6.35671 44.8417 2.41372 46.4506 -1.53096C47.3575 -3.75339 48.1397 -5.98852 48.9478 -8.2211C49.6815 -10.2463 50.4506 -12.2699 51.0614 -14.3053C51.5381 -15.8896 51.7709 -17.4908 52.1582 -19.0819C52.728 -21.4296 53.2681 -23.7789 53.9533 -26.119C54.4226 -27.7211 55.1079 -29.3071 55.7243 -30.8982C55.7634 -30.998 56.0613 -31.0734 56.2401 -31.1605" stroke="black" stroke-width="0.5" stroke-linecap="round" stroke-linejoin="round"/>
<path d="M349.172 160.003C347.157 158.932 345.125 157.868 343.131 156.787C337.481 153.723 331.174 151.066 323.764 149.045C317.992 147.469 311.824 146.373 305.616 145.328C298.832 144.187 291.944 143.188 285.195 141.999C277.08 140.569 268.979 139.105 261.033 137.469C254.153 136.051 247.389 134.472 240.773 132.78C233.183 130.839 226.002 128.561 219.406 125.861C210.796 122.336 203.181 118.331 195.56 114.316C189.334 111.036 182.858 107.848 174.783 105.625C169.461 104.159 163.867 102.958 157.912 102.227C153.424 101.676 148.921 101.151 144.402 100.667C141.702 100.379 138.955 100.196 136.231 99.9615C128.1 99.2616 119.888 99.4012 111.702 99.4656C107.194 99.5011 102.695 99.7889 98.1921 99.9607C97.8383 99.9742 97.4808 99.9624 97.1251 99.9624C92.4436 99.9624 87.7584 100.037 83.0844 99.948C71.1031 99.7203 60.3193 97.9033 51.0755 94.061C44.2916 91.2402 39.0514 87.8304 34.7498 84.0575C31.478 81.1877 28.7741 78.1968 26.8821 75.029C25.6866 73.0292 24.6121 71.0293 24.4352 68.9415C24.2714 67.0017 23.9641 65.056 24.1373 63.1213C24.2881 61.4346 24.9287 59.7521 25.5153 58.0824C26.2509 55.9894 26.9976 53.8914 28.0162 51.8281C29.599 48.6256 31.3793 45.4468 33.1465 42.2672C34.9342 39.0495 37.6027 35.9977 40.7944 33.0593C43.2692 30.781 45.975 28.562 48.394 26.2701C50.6304 24.1518 51.9637 21.8744 52.5037 19.4996C53.0158 17.2425 53.4628 14.982 53.9339 12.7223C54.2952 10.9848 54.5354 9.23887 55.027 7.51069C55.7551 4.95481 56.6173 2.4074 57.5 -0.136633C58.5186 -3.06574 59.6713 -5.98468 60.6731 -8.91463C61.4627 -11.2251 62.1945 -13.5423 62.796 -15.8663C63.282 -17.7409 63.5055 -19.6315 63.8965 -21.5121C64.3379 -23.6279 64.8015 -25.7436 65.3248 -27.8544C65.5967 -28.9453 66.0212 -30.0277 66.3769 -31.1135" stroke="black" stroke-width="0.5" stroke-linecap="round" stroke-linejoin="round"/>
<path d="M497.59 160.003C496.878 158.671 496.484 157.273 495.394 156.02C492.806 153.048 489.147 150.383 484.424 148.105C479.324 145.645 473.685 143.512 467.363 141.852C460.056 139.933 452.631 138.12 445.345 136.184C437.594 134.125 430.105 131.864 423.461 128.988C417.232 126.291 411.524 123.347 406.066 120.287C403.245 118.705 400.299 117.147 397.939 115.406C394.046 112.533 391.364 109.335 388.82 106.128C386.444 103.131 384.329 100.092 383.117 96.9198C382.418 95.0935 381.577 93.279 381.018 91.4433C380.403 89.4257 380.016 87.392 379.571 85.3625C379.292 84.0905 379.143 82.8109 378.839 81.5405C378.416 79.7709 377.826 78.0106 377.448 76.2384C376.908 73.6977 375.709 71.2434 373.882 68.8517C369.268 62.8124 360.871 58.7788 347.916 57.2225C341.495 56.4515 334.991 55.8514 328.551 55.116C319.481 54.0792 311.026 52.3959 303.831 49.3949C298.153 47.026 293.945 44.1054 290.347 40.9563C287.192 38.1956 284.248 35.3773 281.07 32.6243C276.476 28.6449 271.334 24.8593 264.951 21.48C259.21 18.44 252.88 15.7656 245.696 13.6058C238.824 11.54 231.497 9.9345 223.677 8.89268C215.551 7.81025 207.389 6.77859 199.341 5.56666C193.592 4.70088 188.227 3.40432 184.756 0.812896C183.103 -0.422727 182.218 -1.79037 181.881 -3.2672C181.3 -5.81377 182.512 -8.26301 183.3 -10.7427C183.903 -12.6444 184.395 -14.5596 184.715 -16.4774C185.088 -18.7023 185.525 -20.9417 185.38 -23.1658C185.207 -25.8452 184.583 -28.5264 182.97 -31.1178" stroke="black" stroke-width="0.5" stroke-linecap="round" stroke-linejoin="round"/>
<path d="M662.188 160.004C661.772 158.874 661.398 157.741 660.934 156.616C659.955 154.238 658.932 151.865 657.919 149.49C657.215 147.838 656.428 146.194 655.811 144.535C655.34 143.27 655.094 141.986 654.718 140.714C654.264 139.177 653.759 137.644 653.309 136.107C653.139 135.532 653.022 134.95 652.953 134.37C652.806 133.125 652.713 131.879 652.588 130.633C652.476 129.532 652.242 128.431 652.258 127.332C652.288 125.42 652.419 123.507 652.605 121.597C652.767 119.944 653.05 118.294 653.303 116.643C653.521 115.223 653.808 113.806 654.001 112.386C654.271 110.417 654.538 108.448 654.705 106.477C654.888 104.335 655.188 102.186 655.011 100.048C654.832 97.8992 654.096 95.7614 653.662 93.616C653.253 91.5815 652.128 89.64 650.836 87.7037C648.232 83.803 643.871 80.4372 638.186 77.4556C634.471 75.5074 630.594 73.6286 627.024 71.6185C622.449 69.0424 618.654 66.1928 615.227 63.2129C611.22 59.7278 607.116 56.2647 602.766 52.8802C599.851 50.6138 596.045 48.6614 591.239 47.325C586.056 45.8837 580.42 45.8609 574.935 46.8155C570.814 47.5324 567.085 48.6614 563.68 50.0654C559.161 51.929 554.854 53.8552 551.982 56.428C550.407 57.8388 549.455 59.3199 549.087 60.9431C548.118 65.2026 551.64 68.7859 555.697 72.3328C560.271 76.3317 565.93 80.0165 569.794 84.2244C572.165 86.8065 573.98 89.4496 575.116 92.2238C576.151 94.7535 576.872 97.2882 576.885 99.8728C576.893 101.321 577.25 102.771 577.185 104.217C577.096 106.159 576.913 108.107 576.472 110.037C575.788 113.028 575.006 116.019 573.975 118.985C573.071 121.582 571.788 124.147 570.639 126.722C569.178 129.997 567.647 133.265 566.213 136.543C565.315 138.593 564.448 140.647 563.748 142.713C563.321 143.973 563.153 145.257 563.021 146.535C562.826 148.415 562.524 150.305 562.705 152.18C562.956 154.79 563.548 157.395 565.135 159.915" stroke="black" stroke-width="0.5" stroke-linecap="round" stroke-linejoin="round"/>
<path d="M515.008 159.917C511.963 156.748 508.447 153.71 503.963 150.976C498.371 147.566 492.12 144.449 484.757 141.954C478.695 139.9 472.413 137.996 466.107 136.124C459.863 134.271 453.584 132.43 448.217 130.003C442.785 127.547 438.992 124.498 436.048 121.171C433.229 117.986 430.795 114.702 426.843 111.779C423.558 109.35 419.423 107.313 414.754 105.524C410.153 103.761 405.397 102.078 401.616 99.8697C395.987 96.5817 392.479 92.7979 390.943 88.579C390.205 86.5537 389.451 84.5293 388.835 82.4948C388.548 81.5512 388.615 80.583 388.44 79.63C388.119 77.8908 387.745 76.1533 387.38 74.4159C387.155 73.3436 387.015 72.2637 386.648 71.2024C386.025 69.3997 385.412 67.5895 384.501 65.8181C383.131 63.1505 381.004 60.6387 377.818 58.3299C373.11 54.9192 366.796 52.696 358.58 51.8429C355.252 51.4976 351.841 51.3292 348.453 51.1371C344.729 50.9263 340.977 50.8282 337.26 50.5971C330.225 50.1604 323.258 49.5883 316.808 48.0082C310.607 46.4891 305.508 44.3801 301.318 41.6702C296.668 38.6623 292.964 35.3888 289.238 32.1068C284.562 27.9886 279.488 23.9745 273.223 20.387C265.142 15.7576 255.836 11.7791 244.991 8.73658C238.487 6.91192 231.565 5.50957 224.563 4.20709C218.057 2.9977 211.422 1.95927 205.522 0.0525179C199.487 -1.8974 196.264 -4.60561 195.009 -8.04081C193.912 -11.0461 194.092 -14.0607 193.964 -17.0812C193.861 -19.4864 193.752 -21.9018 193.213 -24.2901C192.694 -26.5946 191.621 -28.8704 190.793 -31.158" stroke="black" stroke-width="0.5" stroke-linecap="round" stroke-linejoin="round"/>
<path d="M199.328 -31.1593C199.86 -29.7976 200.417 -28.4384 200.92 -27.075C201.259 -26.1516 201.542 -25.2232 201.812 -24.2948C202.301 -22.6157 202.761 -20.9349 203.24 -19.2559C203.709 -17.6047 204.104 -15.9468 204.678 -14.3041C206.434 -9.27016 211.121 -5.13844 220.499 -2.58679C226.75 -0.886543 233.135 0.69607 239.508 2.28715C245.478 3.77751 251.135 5.49807 256.584 7.40652C261.36 9.07969 265.807 10.9323 270.068 12.8974C278.228 16.6618 285.025 20.9704 291.045 25.5812C294.255 28.0397 297.388 30.5228 300.659 32.9619C304.847 36.0831 309.261 39.0986 315.912 41.1492C320.156 42.4584 324.689 43.2472 329.609 43.6805C333.406 44.0148 337.201 44.0817 340.992 43.9742C344.918 43.8633 348.813 43.5214 352.728 43.3115C355.446 43.166 358.193 43.1279 360.901 42.9476C367.578 42.5024 374.288 42.6167 380.99 42.6192C383.182 42.6201 385.373 42.7403 387.567 42.7817C396.004 42.9425 403.651 41.8051 410.494 39.3931C416.691 37.2087 422.823 34.9829 428.453 32.4448C432.767 30.4991 437.281 28.6491 441.378 26.5984C445.801 24.3845 449.857 21.9945 454.033 19.6646C454.786 19.2448 455.434 18.7666 455.989 18.2766C458.028 16.4757 458.035 15.6463 454.389 14.1178C452.693 13.4061 450.868 12.7646 449.067 12.1137C441.179 9.26249 434.697 5.84506 430.559 1.42898C428.548 -0.718124 427.168 -2.91939 426.427 -5.262C425.749 -7.40995 425.604 -9.55537 425.842 -11.6957C426.177 -14.7162 427.565 -17.6665 429.36 -20.5575C431.646 -24.2373 435.013 -27.7013 438.583 -31.1178" stroke="black" stroke-width="0.5" stroke-linecap="round" stroke-linejoin="round"/>
<path d="M578.464 160.004C577.693 159.019 576.756 158.056 576.186 157.045C574.81 154.606 574.265 152.113 573.881 149.581C573.622 147.875 573.937 146.201 574.14 144.54C574.481 141.756 575.486 138.983 577.052 136.283C579.324 132.367 581.775 128.476 583.94 124.547C585.765 121.237 587.417 117.903 588.899 114.553C589.667 112.817 589.98 111.029 590.352 109.257C590.795 107.147 591.102 105.03 591.432 102.915C591.594 101.874 591.682 100.829 591.793 99.7867C591.918 98.6281 592.182 97.4678 592.119 96.3117C591.987 93.9353 591.905 91.5495 591.384 89.1891C590.706 86.1221 589.417 83.0846 586.412 80.3367C584.246 78.3563 581.62 76.4952 579.171 74.5893C576.723 72.6826 574.16 70.8088 572.948 68.5932C571.762 66.4266 571.728 64.4039 575.054 62.5818C577.261 61.3724 581.864 61.3224 584.326 61.8218C588.155 62.5995 590.59 64.1221 592.469 65.8223C595.114 68.214 597.557 70.6616 599.959 73.1142C604.011 77.2527 610.182 80.4501 617.726 83.1193C624.398 85.4806 630.795 88.0161 635.167 91.5326C637.811 93.6585 639.498 95.9664 640.498 98.3971C642.167 102.453 641.496 106.561 641.526 110.648C641.539 112.386 641.254 114.133 640.824 115.86C639.914 119.504 640.1 123.159 640.199 126.81C640.241 128.406 640.835 129.999 641.219 131.59C641.541 132.924 641.873 134.259 642.292 135.586C642.832 137.299 643.329 139.019 644.087 140.71C645.401 143.647 646.882 146.567 648.329 149.489C649.606 152.07 650.958 154.642 652.219 157.225C652.666 158.141 652.945 159.077 653.301 160.004" stroke="black" stroke-width="0.5" stroke-linecap="round" stroke-linejoin="round"/>
<path d="M723.156 160.004C721.793 158.99 720.113 158.045 719.134 156.949C717.134 154.708 715.292 152.42 713.79 150.09C711.793 146.996 710.16 143.845 708.41 140.713C707.361 138.836 706.287 136.96 705.404 135.063C704.183 132.438 703.054 129.801 702.026 127.156C701.198 125.023 700.531 122.875 699.894 120.726C699.631 119.839 699.585 118.933 699.523 118.034C699.266 114.327 698.948 110.62 698.838 106.912C698.771 104.625 699.095 102.336 699.149 100.047C699.298 93.7043 699.421 87.3611 699.495 81.018C699.512 79.6571 699.309 78.2945 699.153 76.9345C698.946 75.1378 698.792 73.3376 698.423 71.5485C697.935 69.1687 697.253 66.7981 696.674 64.4217C695.693 60.3966 693.836 56.4756 691.412 52.5936C689.293 49.1998 686.734 45.8992 684.058 42.6104C679.889 37.4851 675.332 32.4478 670.017 27.5773C666.852 24.6761 663.181 21.934 659.358 19.2326C653.386 15.0128 647.152 10.8744 642.621 6.20691C639.344 2.8318 636.906 -0.678722 635.172 -4.31111C634.206 -6.33635 633.176 -8.35651 632.349 -10.3953C631.189 -13.2541 630.385 -16.1486 629.079 -18.9905C627.37 -22.7126 625.469 -26.4195 622.366 -29.9427C621.999 -30.3582 621.543 -30.7551 621.128 -31.1605" stroke="black" stroke-width="0.5" stroke-linecap="round" stroke-linejoin="round"/>
<path d="M699.516 160.004C699.041 158.788 698.601 157.568 698.085 156.356C697.285 154.47 696.372 152.595 695.62 150.706C694.722 148.453 693.884 146.193 693.136 143.928C692.564 142.198 692.181 140.453 691.691 138.717C691.112 136.659 690.411 134.609 689.946 132.545C689.562 130.844 689.544 129.124 689.184 127.421C688.22 122.852 688.523 118.27 688.514 113.691C688.51 111.924 688.719 110.157 688.853 108.391C688.952 107.087 689.093 105.784 689.203 104.481C689.445 101.584 689.782 98.6884 689.892 95.7915C690.091 90.5494 690.233 85.3064 690.231 80.0643C690.231 77.8919 689.89 75.716 689.533 73.5486C689.182 71.4294 688.771 69.3068 688.102 67.2071C686.937 63.5485 685.363 59.922 682.775 56.4352C679.762 52.3796 675.972 48.4967 671.451 44.7797C666.267 40.5185 661.248 36.2099 656.142 31.9267C651.65 28.158 647.006 24.4309 642.671 20.6199C638.124 16.6219 633.984 12.5113 631.315 8.10878C630.152 6.18764 629.47 4.18864 628.805 2.20572C628.062 -0.0124763 627.539 -2.24929 627.008 -4.48272C626.582 -6.27438 626.366 -8.07872 625.91 -9.86784C625.148 -12.8553 624.461 -15.8521 623.394 -18.8151C621.871 -23.0433 619.55 -27.1742 615.975 -31.1146" stroke="black" stroke-width="0.5" stroke-linecap="round" stroke-linejoin="round"/>
<path d="M679.25 160.004C678.717 158.469 678.19 156.934 677.649 155.399C677.125 153.922 676.595 152.444 676.049 150.968C675.47 149.403 674.824 147.844 674.291 146.274C673.969 145.326 673.816 144.363 673.561 143.409C673.097 141.67 672.596 139.934 672.151 138.195C671.974 137.503 671.874 136.806 671.794 136.109C671.65 134.864 671.502 133.619 671.442 132.373C671.295 129.303 671.069 126.232 671.116 123.162C671.153 120.758 671.526 118.354 671.796 115.95C671.991 114.211 672.282 112.475 672.494 110.736C672.753 108.622 673.004 106.508 673.2 104.393C673.364 102.627 673.442 100.859 673.567 99.0923C673.678 97.4995 673.902 95.9059 673.894 94.3131C673.885 92.4013 673.736 90.4886 673.548 88.5785C673.392 86.9832 673.215 85.3845 672.827 83.8002C671.982 80.3278 671.116 76.8477 669.265 73.4624C667.52 70.271 665.058 67.2183 661.701 64.3214C657.543 60.7347 652.01 57.6617 646.889 54.433C642.025 51.3659 637.351 48.2363 633.407 44.8662C625.517 38.1211 617.322 31.4707 608.339 25.0556C605.171 22.7943 602.437 20.4153 600.867 17.7595C599.588 15.5921 599.387 13.4103 599.912 11.1532C600.776 7.44294 603.635 4.01536 605.659 0.468441C607.095 -2.04935 608.726 -4.54768 609.851 -7.09933C610.61 -8.82327 610.69 -10.6225 610.977 -12.3922C611.184 -13.6634 611.446 -14.9455 611.311 -16.2142C610.823 -20.8029 609.219 -25.2841 605.309 -29.5106C604.817 -30.0421 604.359 -30.5821 603.884 -31.1178" stroke="black" stroke-width="0.5" stroke-linecap="round" stroke-linejoin="round"/>
<path d="M688.492 159.917C688.017 158.846 687.524 157.776 687.075 156.702C686.347 154.966 685.578 153.233 684.958 151.487C684.386 149.873 684.021 148.242 683.505 146.623C683.079 145.287 682.509 143.961 682.111 142.624C681.785 141.53 681.632 140.424 681.379 139.324C681.036 137.846 680.643 136.371 680.327 134.891C680.148 134.054 679.999 133.212 679.973 132.372C679.828 127.593 679.628 122.814 679.643 118.035C679.651 115.63 680.068 113.227 680.317 110.822C680.543 108.65 680.8 106.478 681.021 104.305C681.161 102.944 681.332 101.583 681.368 100.22C681.515 94.5729 681.684 88.9246 681.697 83.2763C681.701 81.4229 681.371 79.5635 680.997 77.7168C680.518 75.3649 680.036 73.0062 679.202 70.6814C677.939 67.1675 676.122 63.7103 673.189 60.4274C670.049 56.9118 666.053 53.6357 661.494 50.5111C656.599 47.1555 651.712 43.7922 647.126 40.3367C643.269 37.4305 639.77 34.4074 636.253 31.3971C631.847 27.6259 627.465 23.8445 623.299 20.009C620.64 17.5615 618.975 14.9015 617.799 12.1941C617.259 10.9509 617.275 9.6501 617.035 8.37639C616.925 7.79667 616.661 7.21525 616.705 6.63891C616.881 4.43679 617.134 2.23552 617.398 0.0350949C617.601 -1.64569 617.957 -3.32309 618.082 -5.00557C618.279 -7.66893 618.558 -10.3382 618.389 -12.9982C618.253 -15.147 617.495 -17.2848 617.039 -19.4293C616.409 -22.3915 614.773 -25.2342 612.758 -28.0296C611.998 -29.0841 611.11 -30.1166 610.281 -31.1593" stroke="black" stroke-width="0.5" stroke-linecap="round" stroke-linejoin="round"/>
<path d="M207.502 -31.1593C208.035 -29.9135 208.594 -28.6711 209.096 -27.422C209.772 -25.7446 210.348 -24.057 211.068 -22.3838C213.15 -17.5522 215.158 -12.7028 222.43 -8.91217C225.709 -7.20346 229.569 -5.87389 233.625 -4.65096C241.824 -2.17887 250.232 0.153577 258.096 2.86264C266.785 5.85606 274.738 9.31073 281.846 13.2249C288.326 16.793 294.026 20.6319 299.594 24.5343C303.652 27.3787 307.628 30.2605 312.728 32.7097C317.626 35.0625 323.396 36.6535 330.164 37.1892C333.352 37.4415 336.627 37.5625 339.938 37.2544C343.743 36.9007 347.642 36.8033 351.476 36.5181C354.517 36.2922 357.511 35.9122 360.549 35.6735C363.435 35.4467 366.353 35.3189 369.254 35.1395C371.981 34.9711 374.712 34.8153 377.429 34.6131C380.163 34.4099 382.882 34.1535 385.608 33.9242C392.023 33.3851 398.302 32.5988 404.263 31.3082C410.392 29.9812 415.911 28.1777 420.604 25.8325C424.643 23.8141 427.388 21.4105 428.617 18.6295C429.479 16.6796 428.844 14.7627 427.706 12.8991C425.734 9.66871 423.637 6.45694 421.496 3.25279C420.11 1.18016 419.309 -0.940712 418.622 -3.08951C417.863 -5.46343 417.784 -7.84412 418.028 -10.2163C418.22 -12.0782 418.894 -13.9376 419.589 -15.7766C420.732 -18.7997 422.678 -21.7161 425.084 -24.5521C427.004 -26.8152 428.875 -29.0951 431.645 -31.1593" stroke="black" stroke-width="0.5" stroke-linecap="round" stroke-linejoin="round"/>
<path d="M217.102 -31.1593C219.116 -27.5388 221.02 -23.9021 223.178 -20.3027C225.126 -17.0563 228.653 -14.1796 233.531 -11.8201C237.049 -10.1199 241.189 -8.71244 245.209 -7.27878C250.094 -5.53621 255.168 -3.92313 260.112 -2.22034C269.153 0.892412 277.367 4.47402 285 8.37724C291.419 11.6593 297.058 15.2527 302.633 18.8783C306.072 21.1152 309.586 23.3469 313.51 25.3764C317.588 27.4854 322.487 29.1755 328.221 30.0624C331.104 30.5084 334.277 30.4856 337.253 30.8156C340.495 31.1753 343.664 30.7818 346.86 30.7615C349.945 30.742 353.021 30.4407 356.103 30.2765C357.522 30.2012 358.952 30.1801 360.368 30.0954C364.044 29.8762 367.721 29.6553 371.388 29.3989C375.187 29.1332 378.988 28.8623 382.762 28.5255C387.226 28.1277 391.559 27.5015 395.747 26.6289C400.436 25.6523 404.795 24.4429 408.365 22.6275C412.484 20.532 414.752 18.0489 415.531 15.1579C416.121 12.966 415.536 10.8553 414.769 8.72338C413.905 6.32238 413.13 3.91376 412.265 1.51276C411.475 -0.673276 410.793 -2.86101 410.829 -5.0919C410.844 -6.01861 410.384 -6.95464 410.538 -7.87035C410.982 -10.4914 411.365 -13.1048 412.533 -15.703C414.279 -19.5901 416.84 -23.3097 420.274 -26.9015C421.62 -28.3098 422.996 -29.7113 424.359 -31.1161" stroke="black" stroke-width="0.5" stroke-linecap="round" stroke-linejoin="round"/>
<path d="M729.023 116.297C727.245 115.92 725.256 115.685 723.733 115.139C720.13 113.846 718.444 111.893 717.335 109.861C716.305 107.976 715.523 106.053 714.843 104.128C714.398 102.872 714.342 101.583 714.091 100.309C713.746 98.5706 713.374 96.8331 713.031 95.0948C712.888 94.372 712.798 93.6467 712.67 92.9231C712.318 90.9241 711.999 88.9243 711.594 86.9278C711.169 84.8399 710.651 82.7563 710.184 80.671C709.703 78.5281 709.234 76.3844 708.761 74.2407C708.286 72.0969 707.903 69.9481 707.316 67.812C706.582 65.1411 705.601 62.4862 704.869 59.8152C703.795 55.9001 701.812 52.0815 699.845 48.2629C698.702 46.0422 697.327 43.8477 695.949 41.6574C693.629 37.9717 691.335 34.2801 688.823 30.6249C686.041 26.5795 682.071 22.8379 676.823 19.39C672.46 16.5244 667.488 13.9304 662.704 11.2518C657.112 8.12128 652.032 4.82234 647.974 1.16286C644.371 -2.08699 641.835 -5.54589 639.82 -9.09281C638.051 -12.2056 636.418 -15.3386 634.835 -18.4759C632.708 -22.6914 630.395 -26.8765 627.006 -30.9015C626.943 -30.976 626.999 -31.0734 626.999 -31.1605" stroke="black" stroke-width="0.5" stroke-linecap="round" stroke-linejoin="round"/>
<path d="M230.079 -31.1593C230.85 -30.1742 231.697 -29.2026 232.377 -28.2031C235.467 -23.6542 239.494 -19.3278 246.498 -15.8985C250.701 -13.8403 255.517 -12.0774 260.129 -10.2248C264.82 -8.34175 269.669 -6.55179 274.315 -4.64419C278.039 -3.1149 281.697 -1.53567 285.144 0.139187C288.799 1.91476 292.354 3.7555 295.622 5.70034C300.125 8.38062 304.38 11.1633 308.624 13.9443C312.357 16.391 316.283 18.7455 321.089 20.7123C325.819 22.647 331.206 23.9198 337.257 24.547C341.543 24.9913 345.85 25.2748 350.236 25.2325C355.45 25.1809 360.686 25.2494 365.873 25.0294C373.64 24.7002 381.39 24.1103 388.602 22.5962C394.956 21.2624 400.375 19.2964 403.207 16.0237C404.46 14.5748 405.345 13.0861 405.526 11.5052C405.576 11.0685 405.905 10.631 405.844 10.2027C405.544 8.05733 405.164 5.9153 404.801 3.77158C404.576 2.43863 404.451 1.09807 404.068 -0.223881C403.211 -3.17076 403.228 -6.13371 403.444 -9.08736C403.589 -11.0627 404.064 -13.054 404.863 -14.9913C406.211 -18.2665 408.332 -21.452 410.9 -24.5445C412.76 -26.7855 415.112 -28.9284 417.246 -31.1153" stroke="black" stroke-width="0.5" stroke-linecap="round" stroke-linejoin="round"/>
<path d="M447.646 -31.1593C446.283 -29.9431 444.745 -28.7642 443.601 -27.5007C442.009 -25.7412 440.579 -23.9411 439.33 -22.1164C437.94 -20.0878 436.737 -18.0245 436.443 -15.8664C436.242 -14.3878 435.678 -12.9059 435.803 -11.4359C436.037 -8.67181 436.959 -5.94244 440.38 -3.621C444.333 -0.938171 449.413 0.772236 456.536 0.747692C461.484 0.730766 466.312 0.431171 471.12 -0.118935C473.139 -0.34998 475.255 -0.392297 477.335 -0.479467C479.403 -0.565792 481.483 -0.660577 483.554 -0.647036C487.943 -0.618262 492.137 -0.135014 496.183 0.720612C501.461 1.8369 505.93 3.51092 510.019 5.4329C514.429 7.50469 518.684 9.65433 523.015 11.7659C526.222 13.329 529.632 14.7712 533.501 15.9382C538.701 17.5056 544.248 18.7336 550.229 19.2753C553.676 19.5876 557.348 19.5359 560.868 19.3751C565.166 19.1788 567.75 17.5581 570.488 16.1185C574.324 14.1 577.037 11.705 580.044 9.41229C583.834 6.52296 587.482 3.58878 591.078 0.640211C595.482 -2.97018 599.54 -6.66858 601.378 -10.8274C602.011 -12.2585 602.428 -13.7167 602.798 -15.1707C603.055 -16.1761 603.225 -17.1993 603.15 -18.2098C602.901 -21.5976 601.826 -24.9109 598.916 -28.0296C597.959 -29.0554 597.018 -30.0862 596.07 -31.1136" stroke="black" stroke-width="0.5" stroke-linecap="round" stroke-linejoin="round"/>
<path d="M270.075 -31.1165C275.862 -27.8717 281.635 -24.6329 286.467 -21.0064C293.065 -16.0563 298.536 -10.8151 303.836 -5.52389C307.333 -2.03368 310.67 1.49462 314.171 4.98398C317.378 8.17799 321.141 11.2222 326.104 13.8331C331.452 16.6454 338.111 18.443 345.791 19.3324C350.416 19.8682 355.066 20.1585 359.835 20.2228C366.343 20.3099 372.665 19.9638 378.859 18.9821C384.885 18.0274 389.827 16.4152 393.095 13.6824C394.563 12.4561 395.497 11.1325 395.857 9.76229C396.347 7.89532 396.63 5.99872 396.566 4.11905C396.499 2.14713 395.915 0.179444 395.57 -1.79078C395.525 -2.04976 395.581 -2.31211 395.561 -2.57278C395.449 -3.99205 395.144 -5.41471 395.242 -6.82975C395.542 -11.1062 396.518 -15.3234 399.239 -19.439C401.92 -23.4937 405.723 -27.2869 409.615 -31.0717C409.663 -31.1182 409.844 -31.1317 409.961 -31.1605" stroke="black" stroke-width="0.5" stroke-linecap="round" stroke-linejoin="round"/>
<path d="M729.199 83.5383C726.14 81.3776 723.97 78.9927 722.505 76.4919C720.879 73.7193 719.62 70.8918 718.386 68.0685C717.188 65.3306 716.199 62.5708 715.164 59.816C714.067 56.8937 713.112 53.957 711.931 51.0431C710.87 48.4246 709.533 45.8323 708.417 43.2189C707.283 40.5615 706.416 37.8744 705.17 35.2297C703.12 30.8787 701.168 26.5117 696.702 22.5307C694.243 20.3379 691.375 18.2932 687.922 16.4736C683.937 14.373 679.706 12.3808 675.502 10.3818C672.857 9.12417 669.889 8.02226 667.383 6.70539C663.951 4.90105 660.612 3.03576 657.625 1.05454C654.902 -0.751506 652.392 -2.67011 650.349 -4.67588C647.442 -7.53135 645.115 -10.5231 643.331 -13.6062C641.247 -17.2048 639.158 -20.8033 636.914 -24.3781C635.536 -26.5743 633.862 -28.7274 632.329 -30.9007C632.275 -30.9786 632.322 -31.0734 632.322 -31.1605" stroke="black" stroke-width="0.5" stroke-linecap="round" stroke-linejoin="round"/>
<path d="M457.598 -31.1593C457.302 -31.0434 456.883 -30.9579 456.727 -30.8072C453.749 -27.9314 451.072 -24.9973 449.416 -21.8625C448.18 -19.5199 447.779 -17.1231 448.237 -14.7399C448.902 -11.2827 452.848 -9.15845 458.343 -8.3663C462.474 -7.77049 466.932 -7.71379 471.284 -8.13102C471.455 -8.1471 471.639 -8.13102 471.816 -8.13356C474.956 -8.19111 478.103 -8.33667 481.235 -8.29013C490.529 -8.15302 499.25 -7.08074 507.218 -4.59426C512.709 -2.88047 517.711 -0.882317 522.635 1.17339C526.797 2.91172 531.128 4.53665 536.005 5.74773C539.324 6.5712 542.83 7.12892 546.636 7.3752C554.927 7.91092 561.826 6.44763 567.928 4.00347C574.217 1.48399 579.64 -1.48235 584.321 -4.7466C587.908 -7.24831 590.878 -9.91759 592.852 -12.8264C594.692 -15.5371 594.999 -18.3537 594.591 -21.1643C594.092 -24.602 591.496 -27.7419 588.06 -30.7234C587.904 -30.8597 587.708 -30.985 587.53 -31.1153" stroke="black" stroke-width="0.5" stroke-linecap="round" stroke-linejoin="round"/>
<path d="M336.547 -31.1593C336.903 -29.6241 337.259 -28.0889 337.611 -26.5536C337.631 -26.4682 337.611 -26.3801 337.614 -26.293C337.732 -24.0629 338.078 -21.8278 337.903 -19.6037C337.737 -17.5124 337.054 -15.4297 336.538 -13.3469C336.114 -11.6348 335.73 -9.91675 335.097 -8.22242C334.087 -5.51675 333.348 -2.79499 333.743 -0.0529228C334.566 5.64533 339.104 10.3001 350.07 12.9694C352.957 13.6718 356.083 14.0586 359.298 14.2964C364.355 14.6705 369.273 14.497 374.053 13.5897C380.288 12.4057 383.811 10.1359 385.275 6.98928C386.184 5.03513 386.519 3.06491 386.293 1.0786C386.053 -1.03888 385.426 -3.14875 385.305 -5.26624C385.185 -7.34818 385.39 -9.43942 385.645 -11.5205C385.802 -12.801 386.295 -14.0722 386.681 -15.3442C387.347 -17.5505 388.722 -19.6756 390.643 -21.6746C393.504 -24.6503 396.748 -27.5388 399.83 -30.4636C400.06 -30.6828 400.303 -30.8986 400.539 -31.1153" stroke="black" stroke-width="0.5" stroke-linecap="round" stroke-linejoin="round"/>
<path d="M729.023 61.8156C728.549 60.7729 728.064 59.7311 727.604 58.6876C726.532 56.2553 725.424 53.8263 724.416 51.3873C723.523 49.2215 722.679 47.049 721.942 44.8698C721.554 43.723 721.446 42.5542 721.202 41.3965C720.733 39.1664 720.225 36.9372 719.795 34.7047C719.595 33.6654 719.502 32.6202 719.433 31.5767C719.148 27.3205 717.109 23.2904 711.523 19.9669C707.629 17.6505 703.152 15.5398 698.575 13.534C694.03 11.5418 689 9.81616 684.242 7.93734C679.168 5.93326 673.931 4.00704 669.184 1.82862C663.751 -0.664627 659.488 -3.63859 655.732 -6.81227C651.119 -10.7113 648.341 -14.9547 645.58 -19.1829C642.978 -23.1665 640.593 -27.184 637.662 -31.1151" stroke="black" stroke-width="0.5" stroke-linecap="round" stroke-linejoin="round"/>
<path d="M2.20247 36.9641C2.97341 35.0523 3.61587 33.1261 4.53951 31.232C6.72756 26.7406 10.2806 22.4667 13.8205 18.2081C16.7888 14.6366 19.8503 11.0905 22.3046 7.42343C24.8223 3.66156 26.8521 -0.157871 28.3362 -4.04839C29.1425 -6.16503 30.0624 -8.27151 30.7961 -10.3941C31.2821 -11.8023 31.4926 -13.2335 31.8985 -14.6494C32.3231 -16.1296 32.8706 -17.6022 33.2989 -19.0824C33.7011 -20.4695 33.9413 -21.8684 34.3938 -23.2513C35.0958 -25.4001 35.9171 -27.5396 36.6861 -29.6825C36.8631 -30.175 37.0418 -30.6676 37.2188 -31.1593" stroke="black" stroke-width="0.5" stroke-linecap="round" stroke-linejoin="round"/>
<path d="M643.348 -31.1167C646.31 -26.8157 649.279 -22.5156 652.234 -18.2129C654.9 -14.3283 658.243 -10.5884 662.936 -7.18963C668.425 -3.21363 675.569 -0.00185818 683.731 2.61495C689.656 4.51409 695.829 6.23804 702.03 7.91798C705.79 8.93609 709.868 9.67154 714.097 10.0998C719.062 10.6016 723.404 9.90597 727.06 8.19895C727.816 7.84604 728.488 7.44912 729.199 7.07251" stroke="black" stroke-width="0.5" stroke-linecap="round" stroke-linejoin="round"/>
<path d="M650.101 -31.1167C652.233 -28.0319 654.349 -24.9445 656.505 -21.8631C659.177 -18.0428 662.151 -14.2801 666.834 -10.9219C670.67 -8.1722 675.086 -5.68318 680.639 -3.67826C684.823 -2.16673 689.134 -0.784699 693.838 0.285046C698.745 1.40134 703.806 2.37545 709.294 2.44823C716.193 2.53963 721.618 1.08059 725.437 -1.71311C726.815 -2.72192 727.837 -3.84667 729.023 -4.91811" stroke="black" stroke-width="0.5" stroke-linecap="round" stroke-linejoin="round"/>
<path d="M2.20232 16.631C2.67717 15.965 3.04029 15.2735 3.64177 14.6362C7.6771 10.364 11.1649 5.98349 14.0476 1.50139C15.7068 -1.07988 16.8688 -3.74493 17.9768 -6.40067C18.9097 -8.63749 19.4404 -10.9149 20.1574 -13.1737C20.7439 -15.028 21.3696 -16.8789 21.9246 -18.7357C22.3287 -20.0932 22.5819 -21.4626 23.0177 -22.8175C23.5409 -24.445 24.1946 -26.0623 24.7756 -27.6847C25.148 -28.7257 25.4757 -29.7709 25.8631 -30.811C25.9096 -30.9388 26.2001 -31.0446 26.3789 -31.1605" stroke="black" stroke-width="0.5" stroke-linecap="round" stroke-linejoin="round"/>
<path d="M522.476 138.368C527.126 137.902 530.729 136.599 533.451 134.789C536.386 132.839 538.697 130.683 540.222 128.371C542.12 125.493 543.978 122.604 545.52 119.678C546.459 117.897 546.736 116.034 547.367 114.213C548.725 110.298 549.058 106.349 548.74 102.395C548.438 98.6649 547.006 95.0097 544.133 91.5389C540.226 86.8199 534.107 82.8337 526.353 79.4738C522.347 77.738 518.04 76.18 513.074 75.0907C509.75 74.3621 506.359 73.9034 502.748 73.7096C495.893 73.3423 489.865 74.5347 484.106 76.0877C479.085 77.4418 474.614 79.2216 470.618 81.2147C465.484 83.7748 460.713 86.522 457.294 89.7219C455.514 91.3883 454.212 93.1816 453.858 95.0951C453.654 96.197 453.088 97.3057 453.218 98.3958C453.469 100.488 454.132 102.567 454.568 104.654C455.171 107.552 456.629 110.364 458.149 113.167C460.005 116.592 462.78 119.818 467 122.734C470.713 125.301 475.493 127.282 480.692 129.079C488.968 131.939 497.718 134.397 506.847 136.531C511.705 137.667 516.737 138.582 522.299 138.369" stroke="black" stroke-width="0.5" stroke-linecap="round" stroke-linejoin="round"/>
<path d="M528.166 148.273C534.066 147.634 536.924 145.396 539.529 143.056C542.969 139.968 545.412 136.672 547.512 133.323C549.877 129.554 552.09 125.76 553.41 121.858C554.097 119.829 554.978 117.812 555.501 115.773C556.136 113.292 556.596 110.797 556.927 108.302C557.209 106.193 557.507 104.065 557.25 101.962C556.775 98.08 555.572 94.2505 552.725 90.5715C550.33 87.4782 547.106 84.6414 543.142 81.9586C538.168 78.5919 532.635 75.4783 526.546 72.6C523.03 70.9378 519.137 69.4982 514.841 68.3261C509.893 66.9762 504.539 66.5217 499.021 66.7985C493.82 67.0591 488.852 67.8716 484.083 68.9388C477.497 70.4131 471.469 72.3672 465.212 74.1276C460.826 75.3615 456.452 76.6369 451.387 77.2141C445.642 77.8691 440.471 77.3309 435.749 75.7077C430.834 74.0176 426.898 71.8163 422.935 69.6353C420.695 68.4014 418.259 67.2927 415.51 66.3068C411.322 64.8037 408.717 66.0478 407.283 67.6338C405.674 69.4119 405.082 71.2983 404.406 73.1932C403.488 75.7677 403.431 78.3651 403.829 80.9269C404.624 86.0344 408.36 90.4784 417.227 93.6309C422.944 95.663 428.946 97.5511 433.421 100.308C436.337 102.106 438.704 104.071 440.339 106.219C443.722 110.667 446.763 115.182 450.383 119.583C453.415 123.27 457.96 126.487 464.32 129.089C472.351 132.376 481.51 134.823 490.115 137.682C495.701 139.538 501.1 141.531 506.677 143.394C510.679 144.732 514.788 145.994 518.941 147.216C521.688 148.024 524.736 148.406 527.989 148.273" stroke="black" stroke-width="0.5" stroke-linecap="round" stroke-linejoin="round"/>
<path d="M471.996 53.2137C474.484 52.7499 477.11 52.4097 479.434 51.7978C484.158 50.5537 488.084 48.8958 489.417 46.1757C490.231 44.517 490.035 42.9716 487.467 41.6539C485.894 40.8456 484.214 40.166 481.959 39.8182C478.324 39.2579 474.724 39.4297 471.305 40.0349C466.25 40.9286 462.311 42.5899 459.957 44.9714C458.391 46.554 458.065 48.2822 459.211 49.9977C460.522 51.9612 464.184 53.2146 468.441 53.2146H471.819" stroke="black" stroke-width="0.5" stroke-linecap="round" stroke-linejoin="round"/>
<path d="M221.368 73.1981C221.96 73.1406 222.548 73.0619 223.146 73.028C226.343 72.8469 229.545 72.681 232.744 72.5024C235.766 72.334 238.811 72.2206 241.803 71.9676C246.623 71.5596 251.425 71.0942 256.2 70.5771C258.965 70.2775 261.187 69.4726 262.762 68.3259C264.16 67.3077 264.354 66.0924 263.963 64.9491C263.382 63.2488 262.611 61.5443 261.488 59.9126C259.097 56.4385 255.926 53.1269 252.336 49.9015C249.256 47.1341 245.578 44.6078 241.097 42.3524C234.865 39.2143 227.301 37.305 218.522 36.534C214.975 36.2225 211.416 35.9441 207.858 35.6631C202.645 35.251 197.435 34.8346 192.214 34.4503C188.668 34.1897 185.078 34.0534 181.558 33.7301C177.892 33.3924 174.212 33.3391 170.532 33.4187C164.935 33.5389 160.249 34.5324 157.963 37.2364C157.212 38.1242 156.838 39.1305 156.721 40.0944C156.521 41.7109 156.397 43.3502 156.721 44.9565C157.508 48.864 157.372 52.7765 157.359 56.6899C157.356 57.8772 156.929 59.0714 157.073 60.2512C157.27 61.8956 157.307 63.5848 158.814 65.1149C161.035 67.3695 164.92 68.7693 169.478 69.7079C175.177 70.8801 181.203 71.5554 187.247 72.1385C190.702 72.472 194.24 72.5938 197.726 72.8579C205.523 73.4486 213.368 73.1059 221.191 73.1998" stroke="black" stroke-width="0.5" stroke-linecap="round" stroke-linejoin="round"/>
<path d="M301.713 129.331C302.897 129.215 304.078 129.082 305.27 128.987C310.75 128.548 315.264 127.238 319.331 125.431C325.081 122.875 329.807 119.885 334.789 116.998C339.23 114.424 343.906 111.944 348.252 109.334C353.423 106.226 356.926 102.676 358.541 98.7402C359.217 97.0916 359.451 95.3896 359.626 93.7046C359.88 91.2461 360.114 88.7782 359.965 86.3205C359.758 82.9209 359.001 79.5246 356.418 76.3357C353.438 72.655 348.425 69.7852 341.181 67.892C335.036 66.2865 328.377 65.3691 321.8 64.3366C315.759 63.3879 309.783 62.357 304.208 60.8557C297.644 59.0877 291.99 56.8044 287.283 53.9227C282.519 51.0071 278.713 47.8224 275.223 44.5268C272.238 41.7086 269.369 38.8548 266.114 36.1111C263.067 33.5442 259.685 31.0746 255.525 28.8734C251.477 26.7313 247.166 24.773 242.2 23.1277C236.056 21.0932 229.334 19.7509 222.246 18.8327C219.14 18.4298 215.874 18.2919 212.66 18.1209C208.465 17.8975 204.249 17.7595 200.042 17.5877C197.139 17.4692 194.223 17.4075 191.334 17.228C186.405 16.9225 181.484 16.5815 176.58 16.1871C170.582 15.7055 164.579 15.2223 158.633 14.6138C152.45 13.9807 146.203 13.7421 139.966 13.9731C131.332 14.2922 124.406 16.5832 122.168 21.1482C121.183 23.1573 120.833 25.1995 121.183 27.2298C121.637 29.8763 122.507 32.5066 123.263 35.1387C123.922 37.4305 124.572 39.7248 125.414 42.0014C126.224 44.1917 126.7 46.3964 126.41 48.6069C125.907 52.4509 123.9 56.0689 118.25 58.9371C114.633 60.7727 110.101 61.7934 104.954 62.2775C101.924 62.5627 98.9055 62.6787 95.8814 62.5771C91.2483 62.4222 86.645 62.0473 82.0119 61.9271C77.6786 61.8146 73.256 61.7452 69.2225 62.7768C64.3529 64.0226 61.6733 65.948 60.9712 68.6756C60.1649 71.8087 61.9265 74.6075 65.3883 77.0804C70.027 80.3946 76.58 82.4105 84.8443 83.1392C89.7827 83.5751 94.6933 83.4312 99.6094 83.4202C102.811 83.4126 106.008 83.1037 109.209 82.9302C113.475 82.6983 117.738 82.4545 122.009 82.243C123.123 82.1879 124.261 82.2193 125.386 82.237C132.436 82.3479 139.493 82.4097 146.536 82.6026C150.933 82.7228 155.326 82.9835 159.687 83.2924C165.335 83.6927 170.964 84.1658 176.575 84.6761C185.12 85.453 193.642 86.2892 202.174 87.1C208.276 87.6797 214.427 88.1596 220.468 88.8679C225.759 89.4883 231.079 90.0502 235.825 91.577C240.19 92.9819 242.419 94.9318 243.35 97.2727C244.276 99.6009 243.617 101.953 243.16 104.31C242.779 106.285 242.524 108.278 242.952 110.306C243.717 113.93 247.049 116.792 252.095 119.35C258.343 122.517 265.834 124.709 273.974 126.475C279.03 127.572 284.229 128.475 289.642 128.94C293.534 129.274 297.566 129.214 301.536 129.33" stroke="black" stroke-width="0.5" stroke-linecap="round" stroke-linejoin="round"/>
<path d="M297.804 122.206C298.988 122.061 300.193 121.946 301.355 121.766C305.96 121.052 309.947 119.83 313.448 118.21C320.724 114.845 327.241 111.144 333.507 107.338C336.824 105.324 339.766 103.169 342.047 100.826C344.463 98.3448 346.045 95.745 346.921 93.0139C347.682 90.6366 347.788 88.255 347.517 85.8862C346.872 80.2988 342.276 75.7837 331.941 72.9308C326.642 71.4683 320.927 70.5205 315.223 69.5514C306.26 68.0289 297.486 66.3507 289.957 63.397C286.778 62.1504 283.99 60.748 281.454 59.2086C275.905 55.8403 271.719 52.0581 267.592 48.2598C263.834 44.8 260.382 41.2616 255.877 38.0007C251.011 34.4767 245.248 31.3698 238.041 28.9985C232.725 27.2491 226.865 25.9686 220.477 25.4194C216.41 25.0699 212.315 24.7872 208.213 24.5528C205.029 24.37 201.817 24.3082 198.617 24.1914C193.878 24.0187 189.133 23.8698 184.398 23.6624C179.888 23.4652 175.364 23.2875 170.893 22.9541C165.271 22.536 159.631 22.5749 154.002 22.6511C148.214 22.7289 143.141 23.7953 139.672 26.1269C138.058 27.211 136.838 28.4957 136.758 29.926C136.648 31.8666 136.244 33.8157 136.482 35.7453C136.73 37.7536 137.626 39.7425 138.169 41.744C138.482 42.8975 138.715 44.0587 138.881 45.219C139.166 47.2163 139.551 49.2153 139.559 51.2143C139.568 53.606 138.739 55.9723 137.253 58.2463C135.475 60.9672 133.443 63.6509 131.402 66.3287C130.475 67.5465 129.631 68.7466 129.626 70.0694C129.622 70.9606 130.251 71.6808 131.426 72.3299C134.438 73.9954 138.508 74.7698 142.639 75.4418C148.432 76.3846 154.381 77.0354 160.4 77.55C166.042 78.0324 171.651 78.6121 177.292 79.097C181.839 79.488 186.407 79.8232 190.977 80.1422C195.532 80.4605 200.09 80.7753 204.666 81.003C208.442 81.1908 212.245 81.2814 216.04 81.3567C220.658 81.449 225.293 81.4041 229.902 81.5581C235.783 81.7545 241.652 81.9711 247.339 82.9063C253.62 83.9397 258.304 85.8295 261.333 88.6714C262.771 90.0188 263.743 91.4744 264.024 93.008C264.294 94.4839 264.797 95.9684 264.667 97.4376C264.514 99.1818 263.778 100.914 263.326 102.653C263.056 103.694 262.786 104.736 262.624 105.781C262.438 106.995 262.298 108.214 262.268 109.431C262.207 111.932 263.959 114.123 267.229 116.035C270.262 117.808 273.752 119.295 278.067 120.297C281.538 121.103 285.033 121.873 288.916 122.02C291.812 122.129 294.72 122.146 297.623 122.203" stroke="black" stroke-width="0.5" stroke-linecap="round" stroke-linejoin="round"/>
</g>
</g>
</svg>
