<svg width="123" height="123" viewBox="0 0 123 123" fill="none" xmlns="http://www.w3.org/2000/svg">
<rect y="61.2017" width="86.5522" height="86.5522" rx="10" transform="rotate(-45 0 61.2017)" fill="#262D36"/>
<rect x="16.3398" y="61.2017" width="63.4419" height="63.4419" rx="5" transform="rotate(-45 16.3398 61.2017)" stroke="#E2ECF7"/>
<path d="M40.6593 65.156C39.4547 65.156 38.523 64.87 37.8643 64.298C37.2057 63.726 36.8373 62.972 36.7593 62.036H37.8903C37.977 62.7727 38.2543 63.3143 38.7223 63.661C39.1903 63.999 39.849 64.168 40.6983 64.168C41.3743 64.168 41.9117 64.025 42.3103 63.739C42.7177 63.4443 42.9213 63.0197 42.9213 62.465C42.9213 62.1097 42.8347 61.828 42.6613 61.62C42.488 61.4033 42.254 61.2387 41.9593 61.126C41.6733 61.0047 41.24 60.8617 40.6593 60.697C40.59 60.6797 40.4167 60.632 40.1393 60.554C39.394 60.3373 38.8307 60.151 38.4493 59.995C38.068 59.839 37.743 59.605 37.4743 59.293C37.2143 58.981 37.0843 58.5607 37.0843 58.032C37.0843 57.5553 37.223 57.135 37.5003 56.771C37.7777 56.407 38.159 56.1253 38.6443 55.926C39.1297 55.718 39.6757 55.614 40.2823 55.614C41.331 55.614 42.163 55.8567 42.7783 56.342C43.3937 56.8187 43.7707 57.4687 43.9093 58.292H42.8173C42.722 57.72 42.4533 57.2953 42.0113 57.018C41.5693 56.7407 40.993 56.602 40.2823 56.602C39.667 56.602 39.1687 56.7277 38.7873 56.979C38.406 57.2303 38.2153 57.5727 38.2153 58.006C38.2153 58.318 38.3107 58.5693 38.5013 58.76C38.7007 58.9507 38.952 59.1023 39.2553 59.215C39.5673 59.3277 40.0223 59.4663 40.6203 59.631C41.4437 59.8563 42.072 60.0557 42.5053 60.229C42.9387 60.4023 43.3027 60.6667 43.5973 61.022C43.9007 61.3773 44.0523 61.8583 44.0523 62.465C44.0523 63.011 43.905 63.4877 43.6103 63.895C43.3243 64.3023 42.9257 64.6143 42.4143 64.831C41.903 65.0477 41.318 65.156 40.6593 65.156ZM49.421 65.156C48.5457 65.156 47.7744 64.9523 47.107 64.545C46.4484 64.129 45.937 63.5613 45.573 62.842C45.2177 62.114 45.04 61.295 45.04 60.385C45.04 59.475 45.2177 58.6603 45.573 57.941C45.937 57.213 46.4484 56.6453 47.107 56.238C47.7744 55.822 48.5457 55.614 49.421 55.614C50.461 55.614 51.3104 55.8957 51.969 56.459C52.6364 57.0137 53.0697 57.759 53.269 58.695H52.125C51.9777 58.0537 51.6657 57.5467 51.189 57.174C50.7124 56.8013 50.123 56.615 49.421 56.615C48.745 56.615 48.1644 56.7797 47.679 57.109C47.1937 57.4297 46.821 57.876 46.561 58.448C46.3097 59.02 46.184 59.6657 46.184 60.385C46.184 61.1043 46.3097 61.75 46.561 62.322C46.821 62.894 47.1937 63.3447 47.679 63.674C48.1644 63.9947 48.745 64.155 49.421 64.155C50.175 64.155 50.773 63.973 51.215 63.609C51.6657 63.245 51.969 62.7337 52.125 62.075H53.269C53.0697 63.011 52.645 63.7607 51.995 64.324C51.345 64.8787 50.487 65.156 49.421 65.156ZM58.4963 55.77C59.0857 55.77 59.6057 55.8697 60.0563 56.069C60.507 56.2683 60.8537 56.5543 61.0963 56.927C61.3477 57.291 61.4733 57.7157 61.4733 58.201C61.4733 58.8163 61.2913 59.3233 60.9273 59.722C60.5633 60.1207 60.065 60.3677 59.4323 60.463C60.013 60.5497 60.4333 60.775 60.6933 61.139C60.9533 61.503 61.118 62.049 61.1873 62.777C61.2307 63.3057 61.3087 63.7433 61.4213 64.09C61.534 64.428 61.6683 64.7313 61.8243 65H60.5763C60.4463 64.6967 60.338 64.389 60.2513 64.077C60.1733 63.765 60.1083 63.3187 60.0563 62.738C60.013 62.2787 59.9263 61.919 59.7963 61.659C59.6663 61.399 59.4627 61.2127 59.1853 61.1C58.9167 60.9873 58.544 60.931 58.0673 60.931H55.7663V65H54.6613V55.77H58.4963ZM58.1973 59.969C58.8993 59.969 59.4323 59.8347 59.7963 59.566C60.1603 59.2973 60.3423 58.8987 60.3423 58.37C60.3423 57.8413 60.1603 57.4427 59.7963 57.174C59.4323 56.9053 58.8993 56.771 58.1973 56.771H55.7663V59.969H58.1973ZM67.0421 65.156C66.1668 65.156 65.3954 64.9523 64.7281 64.545C64.0694 64.129 63.5581 63.5613 63.1941 62.842C62.8388 62.114 62.6611 61.295 62.6611 60.385C62.6611 59.475 62.8388 58.6603 63.1941 57.941C63.5581 57.213 64.0694 56.6453 64.7281 56.238C65.3954 55.822 66.1668 55.614 67.0421 55.614C67.9174 55.614 68.6844 55.822 69.3431 56.238C70.0104 56.6453 70.5218 57.213 70.8771 57.941C71.2411 58.6603 71.4231 59.475 71.4231 60.385C71.4231 61.295 71.2411 62.114 70.8771 62.842C70.5218 63.5613 70.0104 64.129 69.3431 64.545C68.6844 64.9523 67.9174 65.156 67.0421 65.156ZM67.0421 64.155C67.7181 64.155 68.2988 63.9947 68.7841 63.674C69.2694 63.3447 69.6378 62.894 69.8891 62.322C70.1491 61.75 70.2791 61.1043 70.2791 60.385C70.2791 59.6657 70.1491 59.02 69.8891 58.448C69.6378 57.876 69.2694 57.4297 68.7841 57.109C68.2988 56.7797 67.7181 56.615 67.0421 56.615C66.3661 56.615 65.7854 56.7797 65.3001 57.109C64.8148 57.4297 64.4421 57.876 64.1821 58.448C63.9308 59.02 63.8051 59.6657 63.8051 60.385C63.8051 61.1043 63.9308 61.75 64.1821 62.322C64.4421 62.894 64.8148 63.3447 65.3001 63.674C65.7854 63.9947 66.3661 64.155 67.0421 64.155ZM74.0349 63.986H79.0399V65H72.9299V55.77H74.0349V63.986ZM81.3728 63.986H86.3778V65H80.2678V55.77H81.3728V63.986Z" fill="white"/>
</svg>
