<svg width="65" height="30" viewBox="0 0 65 30" fill="none" xmlns="http://www.w3.org/2000/svg">
<rect y="0.5" width="64.5" height="29" rx="5" fill="#779D48"/>
<circle cx="14.3438" cy="15.1562" r="8.34375" fill="#C2DCA3"/>
<path d="M9.75 14.8125L13 18.3125L22.25 4.3125" stroke="black" stroke-width="2"/>
<path d="M33.4135 20.485C33.3135 20.485 33.2635 20.435 33.2635 20.335V16.12C33.2635 16.08 33.2585 16.055 33.2485 16.045L30.1285 10.18C30.1185 10.16 30.1135 10.135 30.1135 10.105C30.1135 10.035 30.1535 10 30.2335 10H31.4635C31.5535 10 31.6135 10.035 31.6435 10.105L33.9385 14.5C33.9485 14.52 33.9635 14.53 33.9835 14.53C34.0035 14.53 34.0185 14.52 34.0285 14.5L36.3235 10.105C36.3535 10.035 36.4135 10 36.5035 10H37.7485C37.7985 10 37.8335 10.02 37.8535 10.06C37.8835 10.09 37.8835 10.13 37.8535 10.18L34.7185 16.045C34.7085 16.055 34.7035 16.08 34.7035 16.12V20.335C34.7035 20.435 34.6535 20.485 34.5535 20.485H33.4135ZM46.4218 11.095C46.4218 11.195 46.3718 11.245 46.2718 11.245H40.9468C40.9068 11.245 40.8868 11.265 40.8868 11.305V14.53C40.8868 14.57 40.9068 14.59 40.9468 14.59H44.6068C44.7068 14.59 44.7568 14.64 44.7568 14.74V15.685C44.7568 15.785 44.7068 15.835 44.6068 15.835H40.9468C40.9068 15.835 40.8868 15.855 40.8868 15.895V19.195C40.8868 19.235 40.9068 19.255 40.9468 19.255H46.2718C46.3718 19.255 46.4218 19.305 46.4218 19.405V20.35C46.4218 20.45 46.3718 20.5 46.2718 20.5H39.5968C39.4968 20.5 39.4468 20.45 39.4468 20.35V10.15C39.4468 10.05 39.4968 10 39.5968 10H46.2718C46.3718 10 46.4218 10.05 46.4218 10.15V11.095ZM51.6516 20.62C50.8816 20.62 50.2116 20.5 49.6416 20.26C49.0816 20.02 48.6466 19.68 48.3366 19.24C48.0366 18.8 47.8866 18.285 47.8866 17.695V17.26C47.8866 17.16 47.9366 17.11 48.0366 17.11H49.1316C49.2316 17.11 49.2816 17.16 49.2816 17.26V17.62C49.2816 18.13 49.5016 18.55 49.9416 18.88C50.3816 19.21 50.9866 19.375 51.7566 19.375C52.4466 19.375 52.9666 19.23 53.3166 18.94C53.6666 18.65 53.8416 18.27 53.8416 17.8C53.8416 17.49 53.7516 17.225 53.5716 17.005C53.3916 16.785 53.1266 16.585 52.7766 16.405C52.4366 16.215 51.9366 15.99 51.2766 15.73C50.5466 15.45 49.9666 15.195 49.5366 14.965C49.1166 14.735 48.7666 14.435 48.4866 14.065C48.2066 13.685 48.0666 13.21 48.0666 12.64C48.0666 11.78 48.3716 11.105 48.9816 10.615C49.6016 10.125 50.4366 9.88 51.4866 9.88C52.2266 9.88 52.8766 10.005 53.4366 10.255C53.9966 10.505 54.4266 10.855 54.7266 11.305C55.0366 11.755 55.1916 12.275 55.1916 12.865V13.165C55.1916 13.265 55.1416 13.315 55.0416 13.315H53.9166C53.8166 13.315 53.7666 13.265 53.7666 13.165V12.94C53.7666 12.42 53.5566 11.99 53.1366 11.65C52.7266 11.3 52.1566 11.125 51.4266 11.125C50.8066 11.125 50.3266 11.255 49.9866 11.515C49.6466 11.765 49.4766 12.13 49.4766 12.61C49.4766 12.94 49.5616 13.21 49.7316 13.42C49.9016 13.63 50.1516 13.82 50.4816 13.99C50.8216 14.15 51.3366 14.36 52.0266 14.62C52.7366 14.9 53.3116 15.16 53.7516 15.4C54.1916 15.63 54.5566 15.94 54.8466 16.33C55.1366 16.71 55.2816 17.185 55.2816 17.755C55.2816 18.635 54.9566 19.335 54.3066 19.855C53.6666 20.365 52.7816 20.62 51.6516 20.62Z" fill="white"/>
</svg>
