<svg width="66" height="30" viewBox="0 0 66 30" fill="none" xmlns="http://www.w3.org/2000/svg">
<rect x="0.917969" y="0.312012" width="64.5" height="29" rx="5" fill="#FC5161"/>
<circle cx="15.2617" cy="14.9683" r="8.34375" fill="#FFD7DB"/>
<path d="M12.0391 19.3245L18.4837 10.6118" stroke="black" stroke-width="2"/>
<path d="M18.4844 19.3245L12.0397 10.6118" stroke="black" stroke-width="2"/>
<path d="M37.9315 9.96201C37.9315 9.86201 37.9815 9.81201 38.0815 9.81201H39.2215C39.3215 9.81201 39.3715 9.86201 39.3715 9.96201V20.162C39.3715 20.262 39.3215 20.312 39.2215 20.312H38.1265C38.0565 20.312 37.9965 20.277 37.9465 20.207L33.2515 12.542C33.2415 12.512 33.2265 12.502 33.2065 12.512C33.1865 12.512 33.1765 12.527 33.1765 12.557L33.1915 20.162C33.1915 20.262 33.1415 20.312 33.0415 20.312H31.9015C31.8015 20.312 31.7515 20.262 31.7515 20.162V9.96201C31.7515 9.86201 31.8015 9.81201 31.9015 9.81201H33.0115C33.0815 9.81201 33.1415 9.84701 33.1915 9.91701L37.8715 17.582C37.8815 17.612 37.8965 17.627 37.9165 17.627C37.9365 17.617 37.9465 17.597 37.9465 17.567L37.9315 9.96201ZM45.2643 20.447C44.5343 20.447 43.8893 20.297 43.3293 19.997C42.7693 19.697 42.3343 19.277 42.0243 18.737C41.7143 18.187 41.5593 17.557 41.5593 16.847V13.277C41.5593 12.567 41.7143 11.942 42.0243 11.402C42.3343 10.862 42.7693 10.442 43.3293 10.142C43.8893 9.84201 44.5343 9.69201 45.2643 9.69201C46.0043 9.69201 46.6543 9.84201 47.2143 10.142C47.7743 10.442 48.2093 10.862 48.5193 11.402C48.8293 11.942 48.9843 12.567 48.9843 13.277V16.847C48.9843 17.557 48.8293 18.187 48.5193 18.737C48.2093 19.277 47.7743 19.697 47.2143 19.997C46.6543 20.297 46.0043 20.447 45.2643 20.447ZM45.2643 19.202C45.9443 19.202 46.4943 18.992 46.9143 18.572C47.3343 18.152 47.5443 17.597 47.5443 16.907V13.262C47.5443 12.562 47.3343 12.002 46.9143 11.582C46.4943 11.152 45.9443 10.937 45.2643 10.937C44.5843 10.937 44.0343 11.152 43.6143 11.582C43.2043 12.002 42.9993 12.562 42.9993 13.262V16.907C42.9993 17.597 43.2043 18.152 43.6143 18.572C44.0343 18.992 44.5843 19.202 45.2643 19.202Z" fill="white"/>
</svg>
