<?xml version="1.0" encoding="UTF-8"?>
<svg id="Layer_1" xmlns="http://www.w3.org/2000/svg" version="1.1" viewBox="0 0 122 104">
  <!-- Generator: Adobe Illustrator 29.5.1, SVG Export Plug-In . SVG Version: 2.1.0 Build 141)  -->
  <defs>
    <style>
      .st0 {
        fill-rule: evenodd;
      }

      .st1 {
        fill: none;
        stroke: #000;
      }
    </style>
  </defs>
  <path d="M53.9,50.2c0,.2-.1.3-.3.3h-7.2c0,0-.1,0-.1.1v7c0,0,0,.1.1.1h4.4c.2,0,.3.1.3.3v2c0,.2-.1.3-.3.3h-4.4c0,0-.1,0-.1.1v7c0,0,0,.1.1.1h7.2c.2,0,.3.1.3.3v2c0,.2-.1.3-.3.3h-10.1c-.2,0-.3-.1-.3-.3v-21.9c0-.2.1-.3.3-.3h10.1c.2,0,.3.1.3.3v2ZM66,70.4c-.2,0-.3,0-.4-.3l-3-9.6c0,0,0,0-.1,0h-2.3c0,0-.1,0-.1.1v9.5c0,.2-.1.3-.3.3h-2.4c-.2,0-.3-.1-.3-.3v-21.9c0-.2.1-.3.3-.3h5.8c1.1,0,2.1.3,2.9.8.8.5,1.5,1.3,1.9,2.3.5,1,.7,2.1.7,3.3s-.3,2.5-.8,3.5c-.6,1-1.3,1.7-2.3,2.2,0,0,0,.1,0,.2l3.3,9.9h0c0,.3,0,.4-.3.4h-2.5ZM60.3,50.6c0,0-.1,0-.1.1v7.2c0,0,0,.1.1.1h2.4c.9,0,1.6-.3,2.1-1,.5-.7.8-1.6.8-2.7s-.3-2.1-.8-2.7c-.5-.7-1.2-1-2.1-1h-2.4ZM77.7,47.9c1.7,0,3,.6,4,1.8,1,1.2,1.5,2.7,1.5,4.7s-.5,3.4-1.5,4.6c-1,1.2-2.3,1.7-3.9,1.7h-3c0,0-.1,0-.1.1v9.3c0,.2-.1.3-.3.3h-2.4c-.2,0-.3-.1-.3-.3v-21.9c0-.2.1-.3.3-.3h5.8ZM77.2,58.2c.9,0,1.6-.3,2.1-1,.5-.7.8-1.6.8-2.8s-.3-2.1-.8-2.8c-.5-.7-1.2-1.1-2.1-1.1h-2.4c0,0-.1,0-.1.1v7.4c0,0,0,.1.1.1h2.4Z"/>
  <path class="st1" d="M35,41.3h51.6"/>
  <path class="st1" d="M14.6,76.4h92.6"/>
  <path class="st1" d="M59,1.6c.8-1.4,2.8-1.4,3.6-.1h0c0,.1,58.2,98.2,58.2,98.2.9,1.4-.2,3.3-1.9,3.3H2.7c-1.6,0-2.7-1.7-1.9-3.1h0C.8,99.6,59,1.6,59,1.6Z"/>
  <path d="M25.9,96.7c-.1,0-.2,0-.2-.2l-1.8-5.7s0,0,0,0h-1.3c0,0,0,0,0,0v5.6c0,.1,0,.2-.2.2h-1.5c-.1,0-.2,0-.2-.2v-13c0-.1,0-.2.2-.2h3.4c.7,0,1.2.2,1.7.5.5.3.9.8,1.1,1.4.3.6.4,1.2.4,2s-.2,1.5-.5,2.1c-.3.6-.8,1-1.4,1.3,0,0,0,0,0,.1l2,5.9h0c0,.2,0,.2-.2.2h-1.5ZM22.5,84.9c0,0,0,0,0,0v4.3c0,0,0,0,0,0h1.4c.5,0,.9-.2,1.3-.6.3-.4.5-.9.5-1.6s-.2-1.2-.5-1.6c-.3-.4-.7-.6-1.3-.6h-1.4ZM35.6,84.7c0,.1,0,.2-.2.2h-4.3c0,0,0,0,0,0v4.2c0,0,0,0,0,0h2.6c.1,0,.2,0,.2.2v1.2c0,.1,0,.2-.2.2h-2.6c0,0,0,0,0,0v4.2c0,0,0,0,0,0h4.3c.1,0,.2,0,.2.2v1.2c0,.1,0,.2-.2.2h-6c-.1,0-.2,0-.2-.2v-13c0-.1,0-.2.2-.2h6c.1,0,.2,0,.2.2v1.2ZM37.7,96.7c-.1,0-.2,0-.2-.2v-13c0-.1,0-.2.2-.2h1.5c.1,0,.2,0,.2.2v13c0,.1,0,.2-.2.2h-1.5ZM47.1,83.5c0-.1,0-.2.2-.2h1.4c.1,0,.2,0,.2.2v13c0,.1,0,.2-.2.2h-1.6c-.1,0-.2,0-.2-.2l-3.3-8.7s0,0,0,0c0,0,0,0,0,0v8.7c0,.1,0,.2-.2.2h-1.5c-.1,0-.2,0-.2-.2v-13c0-.1,0-.2.2-.2h1.6c.1,0,.2,0,.2.2l3.3,8.7s0,0,0,0c0,0,0,0,0,0v-8.7ZM53.7,96.7c-.1,0-.2,0-.2-.2l-2.8-13h0c0-.2,0-.2.2-.2h1.6c.1,0,.2,0,.2.2l1.8,9.9s0,0,0,0,0,0,0,0l1.8-9.9c0-.1,0-.2.2-.2h1.5c.1,0,.2,0,.2.2l-2.8,13c0,.1,0,.2-.2.2h-1.6ZM66.4,84.7c0,.1,0,.2-.2.2h-4.3c0,0,0,0,0,0v4.2c0,0,0,0,0,0h2.6c.1,0,.2,0,.2.2v1.2c0,.1,0,.2-.2.2h-2.6c0,0,0,0,0,0v4.2c0,0,0,0,0,0h4.3c.1,0,.2,0,.2.2v1.2c0,.1,0,.2-.2.2h-6c-.1,0-.2,0-.2-.2v-13c0-.1,0-.2.2-.2h6c.1,0,.2,0,.2.2v1.2ZM73.7,83.5c0-.1,0-.2.2-.2h1.4c.1,0,.2,0,.2.2v13c0,.1,0,.2-.2.2h-1.6c-.1,0-.2,0-.2-.2l-3.3-8.7s0,0,0,0c0,0,0,0,0,0v8.7c0,.1,0,.2-.2.2h-1.5c-.1,0-.2,0-.2-.2v-13c0-.1,0-.2.2-.2h1.6c.1,0,.2,0,.2.2l3.3,8.7s0,0,0,0c0,0,0,0,0,0v-8.7ZM84.3,83.3c.1,0,.2,0,.2.2v1.2c0,.1,0,.2-.2.2h-2.5c0,0,0,0,0,0v11.5c0,.1,0,.2-.2.2h-1.5c-.1,0-.2,0-.2-.2v-11.5c0,0,0,0,0,0h-2.4c-.1,0-.2,0-.2-.2v-1.2c0-.1,0-.2.2-.2h6.9ZM92.7,84.7c0,.1,0,.2-.2.2h-4.3c0,0,0,0,0,0v4.2c0,0,0,0,0,0h2.6c.1,0,.2,0,.2.2v1.2c0,.1,0,.2-.2.2h-2.6c0,0,0,0,0,0v4.2c0,0,0,0,0,0h4.3c.1,0,.2,0,.2.2v1.2c0,.1,0,.2-.2.2h-6c-.1,0-.2,0-.2-.2v-13c0-.1,0-.2.2-.2h6c.1,0,.2,0,.2.2v1.2ZM94.7,96.7c-.1,0-.2,0-.2-.2v-13c0-.1,0-.2.2-.2h3.1c1.1,0,1.9.3,2.5,1s.9,1.5.9,2.6v6.2c0,1.1-.3,2-.9,2.6-.6.7-1.5,1-2.5,1h-3.1ZM96.4,95.1c0,0,0,0,0,0h1.4c.5,0,.9-.2,1.2-.6.3-.4.4-.9.5-1.5v-6c0-.7-.1-1.2-.4-1.5s-.7-.6-1.2-.6h-1.4c0,0,0,0,0,0v10.1Z"/>
  <path class="st0" d="M60.3,12.4l-13.5,22.2c-.2.4-.1.9.3,1.1.1,0,.3.1.4.1h22.7c.2,0,.4-.2.4-.5,0,0,0-.1,0-.2l-4.3-6.9-3,5.3h-12.8c0,0,12-19.8,12-19.8l-.7-1.3c-.2-.4-.7-.5-1.1-.3-.1,0-.2.2-.3.3Z"/>
  <path class="st0" d="M63.6,15.6l-9.8,16.3h3l8.2-13.8-1.4-2.6Z"/>
  <path class="st0" d="M58.7,31.9h3.2l4.2-7,6.8,10.5c.1.2.4.4.7.4h1.2c.4,0,.8-.3.8-.8,0-.2,0-.3-.1-.4l-9.3-14.5-7.3,11.8"/>
</svg>