<svg width="123" height="123" viewBox="0 0 123 123" fill="none" xmlns="http://www.w3.org/2000/svg">
<rect y="61.2017" width="86.5522" height="86.5522" rx="10" transform="rotate(-45 0 61.2017)" stroke="#FC5161" stroke-width="2"/>
<rect x="33" y="48.0005" width="57" height="26" stroke="#FC5161" stroke-width="2"/>
<ellipse cx="61.5" cy="61.0005" rx="8.5" ry="13" stroke="#FC5161" stroke-width="2"/>
<circle cx="61.5" cy="29.5005" r="9.5" fill="#FC5161"/>
<path d="M60.4525 31.7371C60.4035 31.7371 60.3594 31.7224 60.3202 31.693C60.2908 31.6538 60.2761 31.6097 60.2761 31.5607V31.0903C60.2761 30.6003 60.3741 30.2083 60.5701 29.9143C60.7759 29.6105 61.0699 29.292 61.4521 28.9588C61.7657 28.6844 61.996 28.4492 62.143 28.2532C62.29 28.0474 62.3635 27.7975 62.3635 27.5035C62.3635 27.1899 62.2851 26.94 62.1283 26.7538C61.9813 26.5578 61.7853 26.4598 61.5403 26.4598C61.2561 26.4598 61.0307 26.5627 60.8641 26.7685C60.6975 26.9645 60.6142 27.2291 60.6142 27.5623V27.7975C60.6142 27.9053 60.5554 27.9592 60.4378 27.9592L58.7179 27.8857C58.6689 27.8857 58.6248 27.871 58.5856 27.8416C58.5562 27.8024 58.5415 27.7583 58.5415 27.7093V27.5623C58.5415 26.9743 58.6689 26.4549 58.9237 26.0041C59.1785 25.5435 59.5362 25.1907 59.9968 24.9457C60.4574 24.6909 60.9866 24.5635 61.5844 24.5635C62.4566 24.5635 63.1524 24.8281 63.6718 25.3573C64.1912 25.8767 64.4509 26.5676 64.4509 27.43C64.4509 27.8612 64.3872 28.2336 64.2598 28.5472C64.1422 28.851 63.9952 29.1009 63.8188 29.2969C63.6522 29.4929 63.4317 29.7085 63.1573 29.9437C62.8731 30.1887 62.6624 30.3994 62.5252 30.5758C62.3978 30.7522 62.3341 30.9678 62.3341 31.2226V31.5607C62.3341 31.6097 62.3145 31.6538 62.2753 31.693C62.2459 31.7224 62.2067 31.7371 62.1577 31.7371H60.4525ZM61.3051 35.0299C60.9719 35.0299 60.6975 34.9221 60.4819 34.7065C60.2663 34.4909 60.1585 34.2116 60.1585 33.8686C60.1585 33.5256 60.2663 33.2512 60.4819 33.0454C60.6975 32.8298 60.9719 32.722 61.3051 32.722C61.6481 32.722 61.9274 32.8298 62.143 33.0454C62.3586 33.261 62.4664 33.5354 62.4664 33.8686C62.4664 34.2018 62.3586 34.4811 62.143 34.7065C61.9274 34.9221 61.6481 35.0299 61.3051 35.0299Z" fill="#FEF6F0"/>
</svg>
