<?xml version="1.0" encoding="UTF-8"?><svg id="uuid-c2eeb654-3d58-4bb9-98fb-b007a885f39e" xmlns="http://www.w3.org/2000/svg" viewBox="0 0 26.60645 20.64453"><path d="M24.61035,1.99561c-1.28711-1.28711-2.99805-1.99561-4.81934-1.99561-1.82031,0-3.53125.7085-4.81836,1.99561l-1.59753,1.59729c-2.47192-1.02301-5.42688-.534-7.43323,1.47156l-3.94629,3.94629c-1.28662,1.28711-1.99561,2.99805-1.99561,4.81836,0,1.82129.7085,3.53223,1.99561,4.81934,1.2876,1.28711,2.99902,1.99609,4.81934,1.99609s3.53174-.70898,4.81885-1.99609l1.59729-1.59692c.8349.34558,1.72437.52075,2.61462.52075,1.74512,0,3.49023-.66406,4.81934-1.99219l3.94531-3.94629c1.28711-1.28711,1.99609-2.99854,1.99609-4.81885s-.70898-3.53174-1.99609-4.81934ZM10.14941,17.16406c-.89062.8916-2.07471,1.38184-3.33447,1.38184s-2.44434-.49121-3.33496-1.38184c-.89111-.89062-1.38135-2.07422-1.38135-3.33496,0-1.25977.49023-2.44336,1.38135-3.33398l3.94629-3.94629c.91943-.91943,2.12695-1.37891,3.33447-1.37891.31519,0,.62958.03485.9397.09747l-.67407.67401c-2.65674,2.65771-2.65674,6.98145.00049,9.63867.11932.11932.24573.22693.37146.33551l-1.2489,1.24847ZM14.0957,6.54834c1.83789,1.83936,1.83789,4.83154.00049,6.67041l-1.1955,1.19507c-.13062-.10522-.26868-.1969-.38995-.31812-1.83887-1.83887-1.83887-4.83105,0-6.66992l1.19543-1.19525c.13049.1051.26837.19672.38953.31781ZM23.12598,10.14941l-3.94531,3.94629c-1.15875,1.15875-2.77594,1.58331-4.27429,1.28094l.67371-.67352c2.65625-2.65723,2.65625-6.98096,0-9.63867-.11951-.11938-.24597-.22717-.37189-.33582l1.24884-1.24866c.89062-.89111,2.07422-1.38135,3.33398-1.38135,1.26074,0,2.44434.49023,3.33496,1.38135.89062.89062,1.38184,2.0752,1.38184,3.33496s-.49023,2.44385-1.38184,3.33447Z" style="fill:#fc5161;"/></svg>