<?xml version="1.0" encoding="UTF-8"?><svg id="uuid-d89f08b7-9b97-4a75-94f9-b9f33d6f5f76" xmlns="http://www.w3.org/2000/svg" viewBox="0 0 94 81"><path d="M42.94786-8.18515c1.25764-2.07745,4.21693-2.14218,5.58051-.19413l.12648.19413,38.92946,64.31751c1.34543,2.22281-.25524,5.06296-2.85349,5.06323H6.87184c-2.51697-.00026-4.0973-2.6647-2.97073-4.85216l.11726-.21107L42.94786-8.18515Z" style="fill:#fef6f0; stroke:#e3d4c4; stroke-width:1.33422px;"/><path d="M7.69676,80.079c3.95954,0,6.73814-2.0056,7.21054-5.1176h-4.4458c-.3474,1.0235-1.37544,1.6459-2.69528,1.6459-1.77831,0-2.98701-1.2448-2.98701-3.0429v-.3043h10.21139v-1.3831c0-4.6058-2.9036-7.5795-7.46056-7.5795-4.62639,0-7.53004,3.0982-7.53004,7.9668s2.87586,7.8147,7.69676,7.8147ZM10.3503,70.4662h-5.50162c.12504-1.5629,1.25037-2.6833,2.76472-2.6833,1.55602,0,2.6536,1.0789,2.7369,2.6833ZM24.9195,79.7194l5.0154-15.0623h-5.1543l-2.5841,10.95441h-.0973l-2.6397-10.95441h-5.2932l5.071,15.0623h5.6822ZM36.7101,80.079c3.9595,0,6.7381-2.0056,7.2105-5.1176h-4.4458c-.3473,1.0235-1.3754,1.6459-2.6952,1.6459-1.7783,0-2.987-1.2448-2.987-3.0429v-.3043h10.2114v-1.3831c0-4.6058-2.9037-7.5795-7.4606-7.5795-4.6264,0-7.5301,3.0982-7.5301,7.9668s2.8759,7.8147,7.6968,7.8147ZM39.3637,70.4662h-5.5017c.1251-1.5629,1.2504-2.6833,2.7647-2.6833,1.5561,0,2.6536,1.0789,2.737,2.6833ZM49.6538,79.7194v-7.9254c0-2.10229,1.1253-3.2642,3.1954-3.2642.5835,0,1.1531.1107,1.5699.2767v-4.1771c-.3334-.1245-.7502-.1936-1.2504-.1936-1.7783,0-3.0009,1.0373-3.5566,3.0705h-.0972v-2.84921h-4.7931v15.0623h4.932ZM61.939,80.079c3.9595,0,6.7381-2.0056,7.2105-5.1176h-4.4458c-.3473,1.0235-1.3754,1.6459-2.6953,1.6459-1.7783,0-2.987-1.2448-2.987-3.0429v-.3043h10.2114v-1.3831c0-4.6058-2.9036-7.5795-7.4605-7.5795-4.6264,0-7.5301,3.0982-7.5301,7.9668s2.8759,7.8147,7.6968,7.8147ZM64.5925,70.4662h-5.5016c.125-1.5629,1.2504-2.6833,2.7647-2.6833,1.556,0,2.6536,1.0789,2.7369,2.6833ZM76.9611,80.079c4.154,0,6.9882-2.0056,6.9882-5.1314,0-2.2545-1.38931-3.4994-4.6125-4.1218l-2.6675-.5256c-1.44489-.2904-1.8894-.7054-1.8894-1.3554,0-.8161.8058-1.3417,2.0006-1.3417,1.3615,0,2.1534.74689,2.2506,1.8119h4.5014c-.0834-3.0982-2.5841-5.1175-6.752-5.1175-4.14021,0-6.7243,1.9087-6.7243,4.9239,0,2.29601,1.52831,3.8451,4.5014,4.426l2.6535.5256c1.3755.2766,1.8617.6362,1.8617,1.314,0,.7884-.8058,1.2863-2.1117,1.2863-1.431,0-2.2785-.6224-2.4869-1.7427h-4.7792c.264,3.029,2.7647,5.0484,7.2661,5.0484ZM91.8174,79.747c.9586,0,1.681-.083,2.1534-.1798v-3.4855c-.2917.0554-.5835.0692-.9725.0692-1.1809,0-1.7366-.5256-1.7366-1.563v-6.3209h2.723v-3.6099h-2.723v-3.3749h-4.93211v3.3749h-2.0561v3.6099h2.0561v7.3168c0,2.9599,1.5561,4.1632,5.4878,4.1632Z" style="fill:#262d36;"/><path d="M44.1666.91267L12.6366,52.9015c-.5415.8928-.2534,2.0536.6434,2.5927.297.1786.6376.2726.9846.2718l53.1247-.1158c.5238-.0011.9475-.4248.9464-.9463-.0004-.1766-.0506-.3496-.1448-.4992l-10.1242-16.0866-6.9435,12.3125-30.011.1588L49.1562,3.913l-1.7234-2.96909c-.5241-.90302-1.6844-1.21205-2.5914-.69023-.2772.15946-.5093.38616-.6748.65899Z" style="fill:#2f87b5; fill-rule:evenodd;"/><path d="M51.9911,8.30371l-22.9559,38.23439h7.0219L55.2773,14.2869l-3.2862-5.98319Z" style="fill:#9fbdcd; fill-rule:evenodd;"/><path d="M40.5352,46.5385h7.4236l9.8434-16.3032,15.8251,24.6781c.3442.5367.9369.8646,1.5765.8721l2.89021.0338c1.0475.0122,1.9067-.8233,1.919-1.8661.0043-.3654-.098-.7241-.2944-1.0328l-21.6989-34.1025-17.0067,27.6813" style="fill:#fc5161; fill-rule:evenodd;"/></svg>