<svg width="94" height="20" viewBox="0 0 94 20" fill="none" xmlns="http://www.w3.org/2000/svg">
<path d="M7.69676 19.079C11.6563 19.079 14.4349 17.0734 14.9073 13.9614H10.4615C10.1141 14.9849 9.08606 15.6073 7.76622 15.6073C5.98791 15.6073 4.77921 14.3625 4.77921 12.5644V12.2601H14.9906V10.877C14.9906 6.27118 12.087 3.29745 7.53004 3.29745C2.90365 3.29745 0 6.39567 0 11.2643C0 16.1329 2.87586 19.079 7.69676 19.079ZM10.3503 9.46621H4.84868C4.97372 7.90328 6.09905 6.78294 7.6134 6.78294C9.16942 6.78294 10.267 7.86178 10.3503 9.46621ZM24.9195 18.7194L29.9349 3.65707H24.7806L22.1965 14.6115H22.0992L19.4595 3.65707H14.1663L19.2373 18.7194H24.9195ZM36.7101 19.079C40.6696 19.079 43.4482 17.0734 43.9206 13.9614H39.4748C39.1275 14.9849 38.0994 15.6073 36.7796 15.6073C35.0013 15.6073 33.7926 14.3625 33.7926 12.5644V12.2601H44.004V10.877C44.004 6.27118 41.1003 3.29745 36.5434 3.29745C31.917 3.29745 29.0133 6.39567 29.0133 11.2643C29.0133 16.1329 31.8892 19.079 36.7101 19.079ZM39.3637 9.46621H33.862C33.9871 7.90328 35.1124 6.78294 36.6267 6.78294C38.1828 6.78294 39.2803 7.86178 39.3637 9.46621ZM49.6538 18.7194V10.794C49.6538 8.69166 50.7791 7.52983 52.8492 7.52983C53.4327 7.52983 54.0023 7.64049 54.4191 7.80646V3.6294C54.0857 3.50492 53.6689 3.43576 53.1687 3.43576C51.3904 3.43576 50.1678 4.47311 49.6121 6.50632H49.5149V3.65707H44.7218V18.7194H49.6538ZM61.939 19.079C65.8985 19.079 68.6771 17.0734 69.1495 13.9614H64.7037C64.3564 14.9849 63.3283 15.6073 62.0084 15.6073C60.2301 15.6073 59.0214 14.3625 59.0214 12.5644V12.2601H69.2328V10.877C69.2328 6.27118 66.3292 3.29745 61.7723 3.29745C57.1459 3.29745 54.2422 6.39567 54.2422 11.2643C54.2422 16.1329 57.1181 19.079 61.939 19.079ZM64.5925 9.46621H59.0909C59.2159 7.90328 60.3413 6.78294 61.8556 6.78294C63.4116 6.78294 64.5092 7.86178 64.5925 9.46621ZM76.9611 19.079C81.1151 19.079 83.9493 17.0734 83.9493 13.9476C83.9493 11.6931 82.56 10.4482 79.3368 9.82583L76.6693 9.30024C75.2244 9.00978 74.7799 8.59484 74.7799 7.94477C74.7799 7.12872 75.5857 6.60314 76.7805 6.60314C78.142 6.60314 78.9339 7.35002 79.0311 8.41503H83.5325C83.4491 5.31682 80.9484 3.29745 76.7805 3.29745C72.6403 3.29745 70.0562 5.20617 70.0562 8.2214C70.0562 10.5174 71.5845 12.0665 74.5576 12.6474L77.2111 13.173C78.5866 13.4496 79.0728 13.8092 79.0728 14.487C79.0728 15.2754 78.267 15.7733 76.9611 15.7733C75.5301 15.7733 74.6826 15.1509 74.4742 14.0306H69.695C69.959 17.0596 72.4597 19.079 76.9611 19.079ZM91.8174 18.747C92.776 18.747 93.4984 18.664 93.9708 18.5672V15.0817C93.6791 15.1371 93.3873 15.1509 92.9983 15.1509C91.8174 15.1509 91.2617 14.6253 91.2617 13.5879V7.26704H93.9847V3.65707H91.2617V0.282227H86.3296V3.65707H84.2735V7.26704H86.3296V14.5838C86.3296 17.5437 87.8857 18.747 91.8174 18.747Z" fill="#ffffff"/>
</svg>
