<?xml version="1.0" encoding="UTF-8"?>
<svg id="Layer_1" xmlns="http://www.w3.org/2000/svg" version="1.1" viewBox="0 0 42.8 37.6">
  <!-- Generator: Adobe Illustrator 29.6.0, SVG Export Plug-In . SVG Version: 2.1.1 Build 207)  -->
  <defs>
    <style>
      .st0 {
        isolation: isolate;
        opacity: .5;
      }

      .st0, .st1 {
        fill: #fc5161;
      }
    </style>
  </defs>
  <path class="st0" d="M19.7,1c.8-1.3,2.7-1.3,3.4,0l19.4,33.6c.8,1.3-.2,3-1.7,3H2c-1.5,0-2.5-1.7-1.7-3L19.7,1Z"/>
  <path class="st0" d="M20.3,8.3c.5-.9,1.8-.9,2.3,0l13.3,23.1c.5.9-.1,2-1.1,2H8.1c-1,0-1.7-1.1-1.1-2l13.3-23.1Z"/>
  <path class="st1" d="M20.8,15.7c.3-.4.9-.4,1.1,0l7.3,12.6c.3.4,0,1-.6,1h-14.5c-.5,0-.8-.6-.6-1l7.3-12.6Z"/>
</svg>