<svg width="132" height="29" viewBox="0 0 132 29" fill="none" xmlns="http://www.w3.org/2000/svg">
<mask id="mask0_4388_1323" style="mask-type:alpha" maskUnits="userSpaceOnUse" x="0" y="0" width="132" height="29">
<g clip-path="url(#clip0_4388_1323)">
<path fill-rule="evenodd" clip-rule="evenodd" d="M13.9882 3.38439L15.8443 0.169922L21.1062 3.20843L19.2509 6.42219C18.925 6.98597 19.4128 7.67152 20.0519 7.54835L23.6077 6.8621L24.7585 12.8286L21.2027 13.5142C15.4508 14.6234 11.0595 8.45772 13.9882 3.38439Z" fill="#3A724F"/>
<path fill-rule="evenodd" clip-rule="evenodd" d="M10.7703 25.1092L8.91422 28.3237L3.65156 25.2859L5.5076 22.0714C5.83348 21.5076 5.34572 20.8221 4.70592 20.9453L1.15079 21.6308L0 15.665L3.55583 14.9795C9.30767 13.8702 13.6983 20.0359 10.7703 25.1092Z" fill="#DC8E43"/>
<path fill-rule="evenodd" clip-rule="evenodd" d="M10.9329 3.38439L9.07758 0.169922L3.81492 3.20843L5.67096 6.42219C5.99614 6.98597 5.50907 7.67152 4.86928 7.54835L1.31344 6.8621L0.164062 12.8286L3.71919 13.5142C9.47173 14.6234 13.863 8.45772 10.9336 3.38439H10.9329Z" fill="#14424C"/>
<path fill-rule="evenodd" clip-rule="evenodd" d="M13.8292 25.1092L15.6838 28.3237L20.9465 25.2859L19.0904 22.0714C18.7653 21.5076 19.2523 20.8221 19.8921 20.9453L23.4473 21.6308L24.5981 15.665L21.0422 14.9795C15.2904 13.8702 10.8998 20.0359 13.8278 25.1092H13.8292Z" fill="#C85D1B"/>
<path d="M114.807 21.3929V15.4102C114.807 14.581 114.998 13.8371 115.379 13.179C115.774 12.5075 116.334 11.981 117.058 11.5988C117.782 11.2174 118.645 11.0266 119.645 11.0266C120.111 11.0221 120.577 11.0817 121.027 11.204C121.449 11.3096 121.83 11.4609 122.172 11.658C122.528 11.8424 122.83 12.0662 123.081 12.3294H123.12C123.389 12.0624 123.694 11.8362 124.028 11.658C124.395 11.4561 124.787 11.3034 125.194 11.204C125.651 11.0826 126.123 11.023 126.596 11.0266C127.596 11.0266 128.458 11.2166 129.183 11.5988C129.906 11.981 130.466 12.5068 130.861 13.179C131.256 13.8371 131.453 14.5803 131.453 15.4102V21.3929H128.372V15.5087C128.372 15.18 128.287 14.8837 128.116 14.6205C127.959 14.3451 127.735 14.1141 127.464 13.949C127.179 13.7754 126.85 13.6863 126.516 13.6921C126.161 13.6921 125.839 13.7779 125.549 13.949C125.279 14.1139 125.054 14.345 124.898 14.6205C124.738 14.8889 124.656 15.1964 124.66 15.5087V21.3929H121.6V15.5087C121.6 15.18 121.514 14.8837 121.343 14.6205C121.183 14.3411 120.951 14.1094 120.672 13.949C120.386 13.7754 120.058 13.6863 119.724 13.6921C119.368 13.6921 119.046 13.7779 118.756 13.949C118.486 14.1139 118.261 14.345 118.105 14.6205C117.945 14.8891 117.863 15.1964 117.868 15.5087V21.3929H114.807ZM108.113 21.6301C107.073 21.6301 106.171 21.433 105.408 21.0374C104.658 20.6292 104.078 20.083 103.67 19.3989C103.262 18.7014 103.058 17.9306 103.058 17.0881V11.2631H106.119V17.0093C106.119 17.3647 106.204 17.6941 106.375 17.9968C106.546 18.2861 106.777 18.5233 107.066 18.7077C107.369 18.8787 107.712 18.9646 108.093 18.9646C108.462 18.9646 108.791 18.8787 109.081 18.7077C109.383 18.5233 109.621 18.2861 109.792 17.9968C109.963 17.6941 110.048 17.3647 110.048 17.0093V11.2631H113.109V17.0881C113.109 17.9306 112.911 18.7014 112.516 19.3989C112.121 20.083 111.549 20.6299 110.799 21.0374C110.061 21.4323 109.166 21.6301 108.113 21.6301ZM93.1991 21.3929V18.9646H98.0767C98.2084 18.9646 98.3266 18.9378 98.4322 18.8851C98.5371 18.8196 98.6229 18.7337 98.6884 18.6289C98.7529 18.5251 98.7871 18.4054 98.7871 18.2833C98.7871 18.1611 98.7529 18.0414 98.6884 17.9377C98.6269 17.8362 98.5381 17.754 98.4322 17.7005C98.3255 17.6344 98.2022 17.6002 98.0767 17.6019H96.2995C95.6407 17.6019 95.0418 17.4964 94.5026 17.2859C93.9904 17.0738 93.5511 16.7169 93.2385 16.259C92.9359 15.7853 92.7845 15.173 92.7845 14.4227C92.7845 13.8434 92.9225 13.3169 93.1991 12.8432C93.4869 12.371 93.887 11.9773 94.364 11.6974C94.8617 11.4085 95.4278 11.2586 96.0032 11.2631H100.88V13.7118H96.4769C96.302 13.7083 96.1325 13.772 96.0032 13.8899C95.9455 13.9463 95.8999 14.0139 95.8693 14.0886C95.8387 14.1633 95.8236 14.2434 95.8251 14.3241C95.8251 14.5085 95.885 14.6662 96.0032 14.7978C96.1325 14.9157 96.302 14.9794 96.4769 14.9759H98.2147C98.9516 14.9759 99.5837 15.0878 100.11 15.3109C100.65 15.5221 101.065 15.8641 101.355 16.3385C101.657 16.8122 101.809 17.4239 101.809 18.1742C101.809 18.7668 101.657 19.3067 101.355 19.793C101.067 20.2778 100.659 20.6795 100.169 20.9586C99.6822 21.2486 99.1297 21.3929 98.511 21.3929H93.1991ZM86.5308 11.0266C87.3867 11.0266 88.1434 11.1646 88.8015 11.4412C89.4479 11.6876 90.029 12.0794 90.4998 12.5863C90.9798 13.083 91.3498 13.6751 91.5859 14.3241C91.8357 14.9822 91.961 15.7128 91.961 16.5159C91.961 17.5161 91.7506 18.405 91.329 19.1814C90.9396 19.9254 90.352 20.5473 89.6313 20.9783C88.907 21.4126 88.0645 21.6301 87.1038 21.6301C86.6955 21.6301 86.307 21.5773 85.9382 21.4724C85.5889 21.3697 85.2564 21.2165 84.9514 21.0177C84.6638 20.8226 84.4159 20.5747 84.2208 20.2871H84.161V25.6786H81.1007V16.5152C81.1007 15.3961 81.3245 14.4283 81.7721 13.6125C82.2061 12.8096 82.8648 12.1506 83.6676 11.7164C84.4841 11.2561 85.4385 11.0259 86.5308 11.0259V11.0266ZM86.5308 13.6724C86.0572 13.6724 85.6426 13.7906 85.2871 14.0278C84.9444 14.2516 84.6811 14.5677 84.4967 14.9759C84.313 15.37 84.2208 15.8184 84.2208 16.3181C84.2208 16.8186 84.313 17.2662 84.4967 17.6611C84.6811 18.0559 84.9444 18.372 85.2871 18.6092C85.6426 18.833 86.0572 18.9449 86.5308 18.9449C87.0045 18.9449 87.4128 18.8323 87.7548 18.6092C88.0991 18.3703 88.3722 18.0427 88.5453 17.6611C88.7423 17.2662 88.8409 16.8186 88.8409 16.3181C88.8409 15.8184 88.7423 15.3708 88.5453 14.9759C88.3608 14.5677 88.0976 14.2509 87.7548 14.0278C87.4128 13.7906 87.0045 13.6724 86.5308 13.6724ZM76.4496 21.3929V11.2631H79.5304V21.3929H76.4496ZM77.9897 10.1179C77.5026 10.1179 77.0817 9.94057 76.7263 9.58513C76.3708 9.22969 76.1927 8.80809 76.1927 8.32102C76.1927 7.83396 76.3708 7.41306 76.7263 7.05762C77.0817 6.6888 77.5026 6.50439 77.9897 6.50439C78.4767 6.50439 78.8983 6.6888 79.2538 7.05762C79.6092 7.41306 79.7866 7.83396 79.7866 8.32102C79.7866 8.80809 79.6092 9.22899 79.2538 9.58513C78.8983 9.94057 78.4767 10.1179 77.9897 10.1179ZM69.7547 21.6301C68.7151 21.6301 67.7804 21.3999 66.9505 20.9389C66.1365 20.4926 65.4553 19.8386 64.9762 19.0434C64.5026 18.2403 64.2654 17.3387 64.2654 16.3378C64.2654 15.3243 64.5026 14.4227 64.9762 13.633C65.4553 12.8378 66.1365 12.1837 66.9505 11.7375C67.7804 11.2631 68.7151 11.0266 69.7547 11.0266C70.7949 11.0266 71.7226 11.2631 72.5391 11.7375C73.3502 12.1806 74.0258 12.8358 74.4937 13.633C74.9807 14.4227 75.2243 15.3243 75.2243 16.3378C75.2243 17.3387 74.9807 18.2403 74.4937 19.0434C74.0258 19.8406 73.3502 20.4957 72.5391 20.9389C71.7099 21.3999 70.7816 21.6301 69.7547 21.6301ZM69.7547 18.9646C70.2417 18.9646 70.6633 18.8456 71.0188 18.6092C71.3743 18.3722 71.6604 18.045 71.8479 17.6611C72.0457 17.2662 72.1442 16.8186 72.1442 16.3181C72.1442 15.8311 72.0457 15.3905 71.8479 14.9949C71.6604 14.6112 71.3742 14.2842 71.0188 14.0475C70.6633 13.8103 70.2417 13.6921 69.7547 13.6921C69.2676 13.6921 68.8397 13.8103 68.4715 14.0475C68.1158 14.2845 67.8295 14.6117 67.6417 14.9956C67.4406 15.4073 67.3393 15.8607 67.3461 16.3188C67.3461 16.8186 67.4446 17.2662 67.6417 17.6611C67.8295 18.045 68.1159 18.3721 68.4715 18.6092C68.8397 18.8456 69.2676 18.9646 69.7547 18.9646ZM54.3186 25.402V22.7752H59.3729C59.5707 22.7752 59.7354 22.7098 59.867 22.5781C59.9312 22.5214 59.9821 22.4513 60.0162 22.3727C60.0502 22.2942 60.0666 22.2091 60.0641 22.1235V19.8923H60.005C59.7549 20.183 59.4698 20.4417 59.1561 20.6623C58.8661 20.8734 58.5367 21.0311 58.1686 21.1367C57.7769 21.2467 57.3713 21.2998 56.9644 21.2943C56.0691 21.2943 55.266 21.0832 54.5551 20.6623C53.8576 20.228 53.3043 19.629 52.8961 18.8654C52.502 18.1024 52.3042 17.2331 52.3042 16.259C52.3042 15.2983 52.5083 14.4227 52.9165 13.633C53.3374 12.8432 53.9498 12.2112 54.7529 11.7375C55.5553 11.2631 56.5364 11.0266 57.6949 11.0266C58.8007 11.0266 59.7551 11.2568 60.5582 11.7178C61.3646 12.1555 62.024 12.8215 62.4537 13.6323C62.9013 14.4487 63.1251 15.4102 63.1251 16.5159V22.4395C63.1251 23.3474 62.8556 24.0654 62.3157 24.5919C61.7892 25.1317 61.0586 25.4013 60.1239 25.4013L54.3186 25.402ZM57.7147 18.7274C58.1883 18.7274 58.5966 18.6218 58.9393 18.4114C59.2776 18.1918 59.5502 17.8849 59.7284 17.5231C59.9156 17.1423 60.0103 16.7227 60.005 16.2984C60.005 15.8247 59.9135 15.3905 59.7291 14.9956C59.5447 14.6007 59.2814 14.2911 58.9386 14.0672C58.5966 13.83 58.1883 13.7118 57.714 13.7118C57.2536 13.7118 56.8454 13.8237 56.49 14.0475C56.1479 14.2713 55.8847 14.574 55.7002 14.9555C55.5165 15.3377 55.4243 15.7649 55.4243 16.2393C55.4243 16.7003 55.5158 17.1212 55.7002 17.5034C55.8847 17.8715 56.1479 18.1678 56.4907 18.3917C56.8454 18.6155 57.2536 18.7274 57.7147 18.7274ZM46.0829 21.6301C45.0433 21.6301 44.1086 21.3999 43.2795 20.9389C42.4651 20.4928 41.7836 19.8388 41.3045 19.0434C40.8308 18.2403 40.5936 17.3387 40.5936 16.3378C40.5936 15.3243 40.8308 14.4227 41.3045 13.633C41.7836 12.8376 42.4651 12.1836 43.2795 11.7375C44.1086 11.2631 45.0433 11.0266 46.0829 11.0266C47.1232 11.0266 48.0508 11.2631 48.8673 11.7375C49.6784 12.1807 50.354 12.8358 50.8219 13.633C51.3089 14.4227 51.5525 15.3243 51.5525 16.3378C51.5525 17.3387 51.3089 18.2403 50.8219 19.0434C50.354 19.8406 49.6784 20.4957 48.8673 20.9389C48.0382 21.3999 47.1098 21.6301 46.0829 21.6301ZM46.0829 18.9646C46.5699 18.9646 46.9908 18.8456 47.347 18.6092C47.7024 18.3721 47.9885 18.0449 48.1761 17.6611C48.3732 17.2662 48.4717 16.8186 48.4717 16.3181C48.4717 15.8311 48.3732 15.3905 48.1761 14.9949C47.9884 14.6113 47.7023 14.2844 47.347 14.0475C46.9915 13.8103 46.5699 13.6921 46.0829 13.6921C45.5958 13.6921 45.1679 13.8103 44.7998 14.0475C44.4441 14.2845 44.1577 14.6117 43.9699 14.9956C43.7688 15.4073 43.6676 15.8607 43.6743 16.3188C43.6743 16.8186 43.7729 17.2662 43.9699 17.6611C44.1578 18.045 44.4441 18.3721 44.7998 18.6092C45.1679 18.8456 45.5958 18.9646 46.0829 18.9646ZM36.2811 21.3929C35.4252 21.3929 34.6749 21.2028 34.0302 20.8206C33.4032 20.457 32.885 19.9321 32.5296 19.3003C32.1742 18.6683 31.9961 17.9701 31.9961 17.2071V7.57072H35.3133V17.4436C35.3133 17.7603 35.4259 18.0362 35.6491 18.2734C35.8729 18.5099 36.1488 18.6289 36.4782 18.6289H40.1312V21.3929H36.2811Z" fill="#14424C"/>
</g>
</mask>
<g mask="url(#mask0_4388_1323)">
<rect x="-10.5586" y="-7.57227" width="147.104" height="38.0077" fill="black"/>
</g>
<defs>
<clipPath id="clip0_4388_1323">
<rect width="131.619" height="28.1539" fill="white" transform="translate(0 0.169922)"/>
</clipPath>
</defs>
</svg>
