<svg width="129" height="28" viewBox="0 0 129 28" fill="none" xmlns="http://www.w3.org/2000/svg">
<mask id="mask0_4231_631" style="mask-type:alpha" maskUnits="userSpaceOnUse" x="0" y="0" width="129" height="28">
<g clip-path="url(#clip0_4231_631)">
<path fill-rule="evenodd" clip-rule="evenodd" d="M13.6879 3.14528L15.504 0L20.6526 2.9731L18.8372 6.11769C18.5184 6.66934 18.9956 7.34013 19.621 7.2196L23.1003 6.54813L24.2263 12.3862L20.747 13.057C15.119 14.1424 10.8222 8.1094 13.6879 3.14528Z" fill="#3A724F"/>
<path fill-rule="evenodd" clip-rule="evenodd" d="M10.5387 24.4025L8.72259 27.5478L3.5732 24.5754L5.38929 21.4301C5.70816 20.8785 5.23089 20.2077 4.60487 20.3282L1.12626 20.999L0.000244141 15.1616L3.47954 14.4908C9.10757 13.4054 13.4037 19.4384 10.5387 24.4025Z" fill="#DC8E43"/>
<path fill-rule="evenodd" clip-rule="evenodd" d="M10.6972 3.14528L8.88181 0L3.73242 2.9731L5.54852 6.11769C5.86669 6.66934 5.39012 7.34013 4.76409 7.2196L1.2848 6.54813L0.160156 12.3862L3.63876 13.057C9.26748 14.1424 13.5643 8.1094 10.6979 3.14528H10.6972Z" fill="#14424C"/>
<path fill-rule="evenodd" clip-rule="evenodd" d="M13.5317 24.4025L15.3464 27.5478L20.4958 24.5754L18.6797 21.4301C18.3616 20.8785 18.8381 20.2077 19.4642 20.3282L22.9428 20.999L24.0688 15.1616L20.5895 14.4908C14.9615 13.4054 10.6654 19.4384 13.5304 24.4025H13.5317Z" fill="#C85D1B"/>
<path d="M112.336 20.7662V14.9123C112.336 14.101 112.523 13.3731 112.896 12.7292C113.283 12.0721 113.83 11.557 114.539 11.183C115.248 10.8098 116.091 10.6231 117.07 10.6231C117.527 10.6187 117.982 10.6771 118.422 10.7967C118.835 10.9 119.208 11.048 119.543 11.2409C119.891 11.4213 120.187 11.6403 120.432 11.8979H120.471C120.733 11.6366 121.032 11.4153 121.359 11.2409C121.718 11.0434 122.102 10.894 122.5 10.7967C122.947 10.6779 123.408 10.6196 123.871 10.6231C124.85 10.6231 125.694 10.8091 126.402 11.183C127.11 11.557 127.658 12.0714 128.044 12.7292C128.431 13.3731 128.624 14.1003 128.624 14.9123V20.7662H125.61V15.0087C125.61 14.6871 125.526 14.3972 125.359 14.1396C125.205 13.8702 124.986 13.6441 124.721 13.4826C124.442 13.3127 124.12 13.2255 123.794 13.2312C123.446 13.2312 123.13 13.3152 122.847 13.4826C122.582 13.6439 122.363 13.87 122.21 14.1396C122.053 14.4023 121.973 14.7031 121.978 15.0087V20.7662H118.983V15.0087C118.983 14.6871 118.899 14.3972 118.732 14.1396C118.575 13.8663 118.348 13.6396 118.075 13.4826C117.795 13.3127 117.474 13.2255 117.147 13.2312C116.799 13.2312 116.484 13.3152 116.201 13.4826C115.936 13.6439 115.716 13.87 115.563 14.1396C115.407 14.4024 115.327 14.7032 115.331 15.0087V20.7662H112.336ZM105.786 20.9983C104.769 20.9983 103.886 20.8055 103.14 20.4184C102.405 20.019 101.839 19.4846 101.439 18.8152C101.04 18.1327 100.84 17.3785 100.84 16.5542V10.8545H103.835V16.477C103.835 16.8248 103.919 17.1471 104.086 17.4433C104.253 17.7263 104.479 17.9584 104.762 18.1389C105.058 18.3062 105.394 18.3902 105.767 18.3902C106.128 18.3902 106.449 18.3062 106.733 18.1389C107.029 17.9584 107.261 17.7263 107.429 17.4433C107.596 17.1471 107.68 16.8248 107.68 16.477V10.8545H110.675V16.5542C110.675 17.3785 110.481 18.1327 110.095 18.8152C109.708 19.4846 109.148 20.0197 108.414 20.4184C107.693 20.8048 106.817 20.9983 105.786 20.9983ZM91.1935 20.7662V18.3902H95.9661C96.0949 18.3902 96.2106 18.3641 96.3139 18.3124C96.4165 18.2484 96.5005 18.1643 96.5646 18.0617C96.6277 17.9602 96.6611 17.8431 96.6611 17.7236C96.6611 17.6041 96.6277 17.4869 96.5646 17.3854C96.5044 17.2861 96.4176 17.2057 96.3139 17.1533C96.2096 17.0887 96.0889 17.0552 95.9661 17.0569H94.2272C93.5825 17.0569 92.9965 16.9536 92.4689 16.7477C91.9677 16.5401 91.5379 16.1909 91.232 15.7429C90.9359 15.2794 90.7878 14.6802 90.7878 13.9461C90.7878 13.3793 90.9228 12.8641 91.1935 12.4006C91.475 11.9386 91.8666 11.5534 92.3332 11.2794C92.8202 10.9968 93.3742 10.8501 93.9372 10.8545H98.7092V13.2505H94.4007C94.2296 13.2471 94.0637 13.3094 93.9372 13.4247C93.8807 13.4799 93.8362 13.5461 93.8062 13.6192C93.7762 13.6923 93.7615 13.7707 93.763 13.8497C93.763 14.0301 93.8215 14.1844 93.9372 14.3132C94.0637 14.4285 94.2296 14.4908 94.4007 14.4874H96.1011C96.8222 14.4874 97.4406 14.5969 97.9558 14.8152C98.484 15.0218 98.8896 15.3565 99.1734 15.8207C99.4695 16.2842 99.6176 16.8827 99.6176 17.6168C99.6176 18.1967 99.4695 18.7249 99.1734 19.2008C98.8923 19.6752 98.4926 20.0682 98.0136 20.3413C97.537 20.6251 96.9964 20.7662 96.391 20.7662H91.1935ZM84.6687 10.6231C85.5062 10.6231 86.2466 10.7581 86.8905 11.0288C87.523 11.2699 88.0916 11.6533 88.5523 12.1493C89.0219 12.6352 89.384 13.2146 89.615 13.8497C89.8594 14.4936 89.982 15.2085 89.982 15.9943C89.982 16.9729 89.7761 17.8427 89.3636 18.6024C88.9826 19.3304 88.4077 19.9389 87.7025 20.3606C86.9938 20.7855 86.1694 20.9983 85.2293 20.9983C84.8299 20.9983 84.4497 20.9467 84.0889 20.8441C83.7471 20.7436 83.4218 20.5937 83.1233 20.3992C82.8419 20.2083 82.5993 19.9657 82.4084 19.6843H82.3499V24.9597H79.3555V15.9936C79.3555 14.8985 79.5745 13.9516 80.0125 13.1534C80.4371 12.3677 81.0816 11.7229 81.8671 11.298C82.666 10.8476 83.5999 10.6224 84.6687 10.6224V10.6231ZM84.6687 13.2119C84.2053 13.2119 83.7996 13.3276 83.4518 13.5597C83.1164 13.7787 82.8589 14.0879 82.6784 14.4874C82.4987 14.8731 82.4084 15.3118 82.4084 15.8007C82.4084 16.2904 82.4987 16.7284 82.6784 17.1148C82.8589 17.5011 83.1164 17.8104 83.4518 18.0424C83.7996 18.2614 84.2053 18.371 84.6687 18.371C85.1322 18.371 85.5317 18.2608 85.8664 18.0424C86.2032 17.8087 86.4705 17.4881 86.6398 17.1148C86.8326 16.7284 86.929 16.2904 86.929 15.8007C86.929 15.3118 86.8326 14.8738 86.6398 14.4874C86.4594 14.0879 86.2018 13.778 85.8664 13.5597C85.5317 13.3276 85.1322 13.2119 84.6687 13.2119ZM74.8045 20.7662V10.8545H77.819V20.7662H74.8045ZM76.3114 9.73401C75.8348 9.73401 75.423 9.56046 75.0752 9.21267C74.7274 8.86487 74.5532 8.45235 74.5532 7.97577C74.5532 7.49919 74.7274 7.08735 75.0752 6.73956C75.423 6.37868 75.8348 6.19824 76.3114 6.19824C76.788 6.19824 77.2005 6.37868 77.5483 6.73956C77.8961 7.08735 78.0697 7.49919 78.0697 7.97577C78.0697 8.45235 77.8961 8.86419 77.5483 9.21267C77.2005 9.56046 76.788 9.73401 76.3114 9.73401ZM68.2537 20.9983C67.2365 20.9983 66.3219 20.7731 65.5099 20.322C64.7134 19.8854 64.0468 19.2455 63.5781 18.4674C63.1146 17.6816 62.8825 16.7993 62.8825 15.82C62.8825 14.8283 63.1146 13.9461 63.5781 13.1734C64.0468 12.3953 64.7134 11.7553 65.5099 11.3187C66.3219 10.8545 67.2365 10.6231 68.2537 10.6231C69.2716 10.6231 70.1793 10.8545 70.9781 11.3187C71.7719 11.7523 72.4329 12.3933 72.8907 13.1734C73.3672 13.9461 73.6055 14.8283 73.6055 15.82C73.6055 16.7993 73.3672 17.6816 72.8907 18.4674C72.4329 19.2474 71.7719 19.8884 70.9781 20.322C70.1669 20.7731 69.2585 20.9983 68.2537 20.9983ZM68.2537 18.3902C68.7302 18.3902 69.1428 18.2738 69.4906 18.0424C69.8384 17.8106 70.1184 17.4904 70.3019 17.1148C70.4954 16.7284 70.5918 16.2904 70.5918 15.8007C70.5918 15.3242 70.4954 14.893 70.3019 14.506C70.1184 14.1305 69.8384 13.8106 69.4906 13.579C69.1428 13.3469 68.7302 13.2312 68.2537 13.2312C67.7771 13.2312 67.3584 13.3469 66.9982 13.579C66.6501 13.8109 66.3699 14.131 66.1862 14.5067C65.9894 14.9095 65.8903 15.3531 65.8969 15.8014C65.8969 16.2904 65.9934 16.7284 66.1862 17.1148C66.37 17.4904 66.6502 17.8105 66.9982 18.0424C67.3584 18.2738 67.7771 18.3902 68.2537 18.3902ZM53.1499 24.6891V22.1188H58.0954C58.2889 22.1188 58.4501 22.0548 58.5789 21.926C58.6416 21.8705 58.6915 21.8019 58.7248 21.725C58.7581 21.6481 58.7741 21.5649 58.7717 21.4811V19.2979H58.7138C58.4692 19.5825 58.1902 19.8355 57.8833 20.0514C57.5995 20.258 57.2772 20.4122 56.917 20.5156C56.5337 20.6233 56.1368 20.6752 55.7387 20.6698C54.8627 20.6698 54.0769 20.4632 53.3813 20.0514C52.6988 19.6264 52.1575 19.0404 51.758 18.2931C51.3723 17.5466 51.1788 16.696 51.1788 15.7429C51.1788 14.8028 51.3785 13.9461 51.778 13.1734C52.1898 12.4006 52.789 11.7822 53.5748 11.3187C54.3599 10.8545 55.32 10.6231 56.4535 10.6231C57.5355 10.6231 58.4694 10.8483 59.2552 11.2994C60.0443 11.7277 60.6894 12.3794 61.1098 13.1727C61.5478 13.9716 61.7668 14.9123 61.7668 15.9943V21.7903C61.7668 22.6787 61.5031 23.3812 60.9748 23.8964C60.4597 24.4246 59.7448 24.6884 58.8302 24.6884L53.1499 24.6891ZM56.4728 18.1581C56.9363 18.1581 57.3358 18.0548 57.6712 17.8489C58.0021 17.634 58.2688 17.3338 58.4432 16.9798C58.6264 16.6072 58.7191 16.1966 58.7138 15.7815C58.7138 15.318 58.6243 14.893 58.4439 14.5067C58.2634 14.1203 58.0059 13.8173 57.6705 13.5983C57.3358 13.3662 56.9363 13.2505 56.4721 13.2505C56.0217 13.2505 55.6223 13.36 55.2745 13.579C54.9398 13.798 54.6822 14.0941 54.5018 14.4674C54.322 14.8414 54.2318 15.2594 54.2318 15.7236C54.2318 16.1747 54.3213 16.5865 54.5018 16.9605C54.6822 17.3207 54.9398 17.6106 55.2752 17.8296C55.6223 18.0486 56.0217 18.1581 56.4728 18.1581ZM45.0914 20.9983C44.0742 20.9983 43.1596 20.7731 42.3484 20.322C41.5515 19.8856 40.8847 19.2456 40.4159 18.4674C39.9524 17.6816 39.7203 16.7993 39.7203 15.82C39.7203 14.8283 39.9524 13.9461 40.4159 13.1734C40.8847 12.3951 41.5515 11.7552 42.3484 11.3187C43.1596 10.8545 44.0742 10.6231 45.0914 10.6231C46.1093 10.6231 47.017 10.8545 47.8159 11.3187C48.6096 11.7524 49.2706 12.3934 49.7284 13.1734C50.205 13.9461 50.4433 14.8283 50.4433 15.82C50.4433 16.7993 50.205 17.6816 49.7284 18.4674C49.2706 19.2473 48.6096 19.8884 47.8159 20.322C47.0046 20.7731 46.0962 20.9983 45.0914 20.9983ZM45.0914 18.3902C45.568 18.3902 45.9798 18.2738 46.3283 18.0424C46.6761 17.8105 46.956 17.4903 47.1396 17.1148C47.3324 16.7284 47.4289 16.2904 47.4289 15.8007C47.4289 15.3242 47.3324 14.893 47.1396 14.506C46.956 14.1307 46.676 13.8108 46.3283 13.579C45.9805 13.3469 45.568 13.2312 45.0914 13.2312C44.6149 13.2312 44.1961 13.3469 43.8359 13.579C43.4879 13.8109 43.2077 14.131 43.024 14.5067C42.8272 14.9096 42.7281 15.3531 42.7347 15.8014C42.7347 16.2904 42.8311 16.7284 43.024 17.1148C43.2077 17.4904 43.4879 17.8105 43.8359 18.0424C44.1961 18.2738 44.6149 18.3902 45.0914 18.3902ZM35.5006 20.7662C34.6632 20.7662 33.929 20.5803 33.2982 20.2063C32.6846 19.8506 32.1776 19.3369 31.8299 18.7187C31.4821 18.1003 31.3079 17.4171 31.3079 16.6706V7.24162H34.5537V16.902C34.5537 17.2119 34.6639 17.4818 34.8822 17.7139C35.1012 17.9453 35.3712 18.0617 35.6935 18.0617H39.2678V20.7662H35.5006Z" fill="#14424C"/>
</g>
</mask>
<g mask="url(#mask0_4231_631)">
<rect x="-10.3311" y="-7.57568" width="143.938" height="37.1896" fill="white"/>
</g>
<defs>
<clipPath id="clip0_4231_631">
<rect width="128.786" height="27.5479" fill="white"/>
</clipPath>
</defs>
</svg>
