<svg width="21" height="14" viewBox="0 0 21 14" fill="none" xmlns="http://www.w3.org/2000/svg">
<path d="M10.1699 3.81693e-10C10.2066 3.46678e-06 16.5347 0.000833478 18.1172 0.413086C18.9927 0.641006 19.6807 1.31083 19.915 2.16211H19.9131C20.3357 3.69454 20.3389 6.88291 20.3389 6.9209C20.3389 6.9209 20.3383 10.1391 19.9131 11.6807C19.6787 12.532 18.9908 13.2008 18.1152 13.4287C16.5344 13.841 10.2066 13.8428 10.1699 13.8428C10.1699 13.8428 3.81047 13.8421 2.22461 13.4287C1.34903 13.2008 0.660162 12.532 0.425781 11.6807C0.000616356 10.1391 0.000976564 6.9209 0.000976564 6.9209C0.000991607 6.88291 0.00322733 3.6946 0.425781 2.16211C0.660162 1.31079 1.34903 0.640972 2.22461 0.413086C3.81075 -0.000253772 10.1699 3.81693e-10 10.1699 3.81693e-10ZM8.1377 9.88672L13.4229 6.9209L8.1377 3.95508V9.88672Z" fill="#FC5161"/>
</svg>
