<svg width="363" height="354" viewBox="0 0 363 354" fill="none" xmlns="http://www.w3.org/2000/svg">
<g opacity="0.2">
<path d="M-144.525 0.927734C-144.796 8.55275 -143.199 15.76 -140.548 22.6805C-138.687 27.5389 -136.495 32.2352 -134.68 37.1138C-133.428 40.4775 -132.317 43.9658 -131.615 47.518C-131.12 50.0321 -131.396 52.7598 -132.525 55.1742C-133.956 58.2323 -135.508 61.2202 -136.872 64.3142C-137.836 66.4963 -138.241 68.8515 -138.348 71.3407C-138.604 77.3696 -137.313 83.0775 -135.911 88.7869C-134.72 93.6375 -133.462 98.4694 -132.401 103.356C-131.169 109.034 -130.037 114.747 -129.017 120.479C-128.387 124.018 -127.971 127.61 -127.598 131.198C-127.295 134.116 -126.998 137.068 -127.055 139.995C-127.151 144.782 -128.206 149.349 -130.995 153.09C-132.722 155.404 -135.183 156.516 -137.743 157.283C-140.759 158.187 -143.748 157.942 -146.787 157.312C-150.532 156.536 -154.305 155.913 -158.084 155.394C-160.23 155.099 -162.424 154.929 -164.574 155.091C-167.693 155.325 -170.476 156.77 -172.758 159.214C-176.701 163.436 -178.754 168.77 -179.864 174.716C-180.561 178.449 -180.56 182.206 -180.336 185.922C-179.972 191.963 -178.204 197.657 -175.542 202.857C-172.617 208.571 -168.692 213.371 -163.727 216.97C-160.258 219.485 -156.471 221.078 -152.431 221.936C-147.89 222.901 -143.297 222.669 -138.732 222.513C-135.523 222.404 -132.332 221.687 -129.125 221.305C-126.824 221.032 -124.515 220.827 -122.205 220.663C-118.676 220.414 -115.11 220.499 -111.623 219.938C-108.002 219.357 -104.466 220.225 -100.878 220.102C-97.7353 219.996 -94.5541 220.513 -91.4218 221.004C-86.3452 221.802 -81.3012 222.789 -76.2898 224.095C-71.7548 225.278 -67.2893 226.667 -62.8934 228.35C-57.3596 230.469 -51.8732 232.749 -47.0763 236.664C-44.2207 238.996 -41.9613 241.981 -40.9034 245.793C-39.7537 249.933 -38.9118 254.188 -38.0448 258.423C-36.6332 265.317 -34.3413 271.762 -30.3789 277.28C-27.612 281.132 -24.3214 284.406 -20.8088 287.399C-16.2723 291.265 -11.3156 294.341 -6.2272 297.088C-1.76617 299.496 2.81472 301.644 7.57907 303.263C11.4882 304.593 15.4062 305.74 19.4441 306.485C23.1209 307.163 26.8081 307.294 30.4642 306.999C35.6325 306.582 40.2607 304.465 44.0426 300.207C47.7845 295.994 50.5914 290.97 53.8006 286.291C56.0097 283.069 58.4037 279.997 60.8525 277.004C64.4065 272.662 68.2032 268.569 71.6744 264.147C74.8348 260.121 76.7198 255.25 77.47 249.933C78.2453 244.43 78.1225 238.853 78.0544 233.296C78.0234 230.735 77.8932 228.174 77.7792 225.615C77.6061 221.72 77.4818 217.82 77.1963 213.934C76.9181 210.137 76.6103 206.329 76.0555 202.576C75.11 196.192 73.4366 190.026 70.1237 184.672C66.9707 179.575 62.7005 175.952 57.5899 173.593C52.0562 171.036 46.2088 169.707 40.5064 167.804C31.6302 164.839 23.4509 160.392 17.198 152.314C14.1678 148.398 11.6036 144.113 9.41229 139.525C5.50168 131.337 1.64728 123.106 -2.49859 115.072C-4.3555 111.476 -6.65334 108.097 -9.12133 104.996C-13.8812 99.0133 -19.1694 93.6874 -25.4488 89.7252C-30.191 86.7326 -35.238 84.644 -40.4432 83.0806C-43.2427 82.2389 -46.1738 81.9552 -49.0457 81.4269C-51.9635 80.8891 -54.8709 80.2282 -57.805 79.8557C-62.2586 79.2899 -66.6235 78.2924 -70.938 76.9519C-75.5589 75.5164 -80.014 73.5977 -84.0474 70.6627C-86.0656 69.1944 -87.992 67.4627 -89.6758 65.5331C-91.2472 63.7313 -92.206 61.387 -91.9677 58.703C-91.7858 56.6409 -90.969 54.8141 -89.9925 53.1074C-88.1459 49.8809 -86.2846 46.6607 -84.3433 43.5059C-80.9757 38.0335 -78.7001 31.9905 -77.3433 25.561C-76.3298 20.7587 -76.1359 15.7741 -76.5058 10.858C-76.7573 7.52091 -77.5756 4.23835 -78.1408 0.930852" stroke="black" stroke-width="0.5" stroke-linecap="round" stroke-linejoin="round"/>
<path d="M315.898 352.996C315.475 350.276 315.058 347.553 314.626 344.835C314.116 341.633 313.601 338.432 313.072 335.233C312.518 331.871 311.887 328.522 311.399 325.147C311.023 322.551 310.826 319.921 310.529 317.31C310.263 314.961 309.937 312.62 309.696 310.267C309.544 308.781 309.44 307.282 309.412 305.787C309.295 299.546 309.125 293.304 309.151 287.064C309.169 283.063 309.474 279.061 309.691 275.063C309.839 272.34 310.073 269.621 310.245 266.9C310.448 263.7 310.64 260.5 310.809 257.298C310.928 255.007 311.032 252.713 311.09 250.417C311.205 245.883 311.427 241.345 311.335 236.816C311.254 232.757 310.789 228.708 310.536 224.652C310.221 219.603 309.462 214.633 308.238 209.779C307.417 206.525 306.41 203.314 305.282 200.178C302.504 192.448 297.834 186.168 293.027 179.994C287.669 173.116 282.91 165.742 278.887 157.763C275.307 150.662 271.952 143.419 267.919 136.604C264.751 131.252 260.919 126.635 256.695 122.425C253.398 119.139 249.548 116.801 245.277 115.528C240.73 114.173 236.609 115.211 233.148 118.887C230.867 121.311 228.686 123.859 226.502 126.398C222.002 131.632 217.14 136.372 211.496 139.934C209.855 140.97 207.887 141.508 206.009 141.852C203.93 142.234 202.281 141.018 200.921 139.207C198.7 136.246 197.278 132.74 195.57 129.431C192.281 123.058 188.304 117.492 182.155 114.379C179.574 113.073 176.933 112.089 174.101 111.824C172.122 111.639 170.143 111.192 168.17 111.224C157.71 111.402 148.421 115.141 140.473 123.013C136.55 126.897 133.026 131.116 130.763 136.486C129.599 139.249 128.83 142.133 128.574 145.27C127.813 154.58 130.078 162.891 134.562 170.555C136.623 174.079 139.357 176.703 143.038 177.72C144.675 178.172 146.339 178.33 148.121 178.183C154.03 177.695 159.2 174.826 164.493 172.31C171.904 168.786 179.181 164.866 186.956 162.416C188.67 161.876 190.42 161.339 192.181 161.163C195.622 160.817 198.207 162.654 199.928 165.931C202.537 170.901 204.953 176 207.597 180.945C209.639 184.764 211.851 188.472 214.08 192.155C218.863 200.056 224.192 207.549 227.776 216.324C229.869 221.452 231.45 226.744 232.312 232.327C232.87 235.938 233.41 239.53 233.434 243.214C233.459 247.055 233.749 250.9 233.659 254.736C233.579 258.156 233.133 261.564 232.854 264.979C232.661 267.327 232.547 269.685 232.271 272.018C231.865 275.443 231.417 278.864 230.855 282.259C230.287 285.693 229.562 289.092 228.896 292.504C228.385 295.12 227.866 297.733 227.342 300.346C226.262 305.734 225.179 311.122 224.094 316.509C223.343 320.244 222.523 323.963 221.859 327.718C221.447 330.035 221.249 332.403 220.993 334.755C220.598 338.38 220.144 342.001 219.891 345.639C219.722 348.078 219.858 350.544 219.858 352.998" stroke="black" stroke-width="0.5" stroke-linecap="round" stroke-linejoin="round"/>
<path d="M71.4219 352.997C69.963 350.65 68.3783 348.388 67.0718 345.936C64.8065 341.684 62.7365 337.298 60.5408 332.998C58.6602 329.314 57.0208 325.309 53.4623 323.286C51.524 322.184 49.386 321.403 47.2613 320.885C44.1941 320.139 41.0484 319.827 37.9531 319.216C33.3781 318.313 28.8268 317.247 24.2489 316.365C18.2017 315.201 12.3572 313.21 6.60599 310.878C2.2293 309.105 -2.11337 307.192 -6.38205 305.108C-10.1699 303.26 -13.86 301.148 -17.5487 299.053C-25.1465 294.737 -32.0947 289.347 -38.0162 282.403C-42.4358 277.219 -46.2102 271.491 -49.0836 264.997C-50.9716 260.733 -53.0712 256.571 -55.2921 252.516C-58.3061 247.017 -62.5289 242.897 -67.5536 239.862C-73.5091 236.265 -79.8581 233.922 -86.4764 232.499C-89.6694 231.813 -92.8639 231.085 -96.0835 230.61C-98.7927 230.209 -101.537 230.082 -104.272 229.948C-107.753 229.776 -111.241 229.594 -114.722 229.647C-118.161 229.7 -121.599 229.985 -125.032 230.269C-127.956 230.51 -130.868 230.934 -133.79 231.201C-136.705 231.467 -139.627 231.633 -142.545 231.857C-143.629 231.941 -144.72 232.226 -145.791 232.145C-150.702 231.774 -155.613 231.489 -160.348 229.639C-166.713 227.153 -171.955 222.921 -176.462 217.311C-180.047 212.849 -182.811 207.821 -185.038 202.397C-186.858 197.964 -188.135 193.341 -188.922 188.495C-189.703 183.685 -189.608 178.856 -189.327 174.089C-189.076 169.837 -188.009 165.632 -187.152 161.444C-186.094 156.269 -184.339 151.359 -182.062 146.732C-179.843 142.224 -177.248 138.011 -172.758 136.019C-171.545 135.48 -170.24 135.04 -168.951 134.914C-165.661 134.594 -162.428 135.21 -159.205 135.971C-156.181 136.684 -153.164 137.617 -150.03 137.423C-145.849 137.165 -142.836 135.087 -141.693 129.914C-140.67 125.289 -141.448 120.806 -142.392 116.306C-144.2 107.692 -148.306 100.492 -153.146 93.754C-156.388 89.2401 -158.84 84.2492 -160.296 78.6879C-160.76 76.9141 -160.732 74.9705 -160.898 73.1001C-161.021 71.716 -161.231 70.3178 -161.161 68.9415C-160.916 64.1502 -160.575 59.3822 -159.523 54.6875C-158.349 49.4457 -157.344 44.1524 -156.421 38.8451C-156.02 36.5461 -155.987 34.1613 -155.827 31.8109C-155.7 29.9467 -155.543 28.0763 -155.558 26.2105C-155.586 22.6895 -155.712 19.1685 -155.827 15.649C-155.888 13.7801 -156.129 11.9097 -156.076 10.0487C-155.993 7.16358 -155.734 4.28628 -155.522 1.40741C-155.509 1.23596 -155.256 1.08632 -155.116 0.925781" stroke="black" stroke-width="0.5" stroke-linecap="round" stroke-linejoin="round"/>
<path d="M-214.931 186.086C-214.813 187.152 -214.724 188.224 -214.573 189.286C-214.068 192.808 -213.756 196.39 -212.982 199.837C-211.187 207.823 -209.052 215.713 -207.277 223.706C-206.201 228.549 -205.513 233.504 -204.699 238.418C-203.729 244.28 -202.95 250.188 -201.833 256.011C-200.299 264.01 -198.091 271.838 -193.607 278.362C-189.959 283.668 -185.466 287.967 -179.726 290.518C-176.241 292.068 -172.715 293.329 -169.093 294.213C-166.605 294.819 -164.017 294.891 -161.477 295.23C-153.773 296.264 -146.037 295.791 -138.314 295.844C-134.453 295.871 -130.593 295.665 -126.733 295.544C-123.908 295.455 -121.082 295.363 -118.259 295.219C-114.632 295.036 -111.007 294.82 -107.384 294.58C-104.651 294.4 -101.924 294.113 -99.1912 293.957C-94.7672 293.704 -90.3431 293.407 -85.9147 293.338C-81.5883 293.271 -77.3285 294.156 -73.2166 295.59C-67.4254 297.609 -62.0189 300.623 -56.7974 304.143C-52.2032 307.24 -47.4877 310.142 -42.6774 312.783C-36.0251 316.436 -29.2796 319.887 -22.4852 323.188C-17.9576 325.389 -13.2775 327.189 -8.65967 329.15C-1.22462 332.306 6.25037 335.349 13.641 338.635C17.5783 340.385 21.4268 342.425 25.222 344.55C29.0571 346.698 32.7473 349.162 36.1208 352.186C36.5247 352.547 37.0529 352.733 37.5234 352.999" stroke="black" stroke-width="0.5" stroke-linecap="round" stroke-linejoin="round"/>
<path d="M49.1055 352.995C46.9867 351.022 44.9551 348.912 42.7298 347.107C39.4184 344.423 36.0627 341.779 32.5619 339.43C25.732 334.848 18.2363 331.95 10.8368 328.813C2.33643 325.209 -6.15062 321.562 -14.577 317.749C-18.6607 315.901 -22.564 313.548 -26.6018 311.564C-34.9823 307.451 -42.6571 301.968 -50.178 296.179C-54.5739 292.795 -58.9639 289.398 -63.3095 285.932C-68.901 281.469 -75.0754 278.5 -81.6848 276.703C-83.8406 276.117 -86.0955 275.939 -88.315 275.721C-91.3215 275.427 -94.3429 275.316 -97.351 275.049C-100.368 274.783 -103.398 274.577 -106.385 274.064C-111.076 273.258 -115.661 271.951 -120.097 269.962C-124.826 267.842 -129.604 265.825 -134.642 264.849C-136.685 264.453 -138.777 264.337 -140.852 264.192C-144.521 263.934 -148.208 263.905 -151.864 263.504C-157.697 262.867 -163.339 261.364 -168.54 258.111C-172.057 255.912 -175.313 253.343 -178.296 250.279C-181.275 247.219 -184.096 243.997 -186.441 240.311C-188.508 237.063 -190.476 233.707 -192.221 230.227C-194.091 226.498 -195.724 222.609 -197.328 218.722C-200.461 211.133 -203.06 203.296 -204.914 195.189C-205.635 192.036 -205.805 188.707 -206.074 185.441C-206.293 182.787 -206.477 180.097 -206.336 177.445C-206.142 173.806 -205.704 170.174 -205.232 166.563C-204.654 162.122 -203.979 157.695 -203.259 153.28C-202.778 150.328 -202.106 147.418 -201.59 144.473C-200.983 141.016 -200.449 137.54 -199.885 134.074C-198.849 127.705 -197.478 121.431 -195.491 115.357C-193.734 109.989 -191.86 104.671 -189.994 99.3496C-187.47 92.1501 -185.255 84.8353 -183.8 77.2586C-182.412 70.0217 -181.121 62.7598 -179.842 55.4949C-179.122 51.4018 -178.5 47.2853 -177.858 43.1736C-177.275 39.4437 -176.664 35.7169 -176.179 31.9683C-175.8 29.0504 -175.615 26.1014 -175.307 23.1711C-174.854 18.8474 -174.425 14.5205 -173.881 10.2108C-173.508 7.26022 -172.964 4.33927 -172.474 1.40897C-172.443 1.22505 -172.206 1.08632 -172.064 0.925781" stroke="black" stroke-width="0.5" stroke-linecap="round" stroke-linejoin="round"/>
<path d="M60.6875 352.996C59.0866 351.023 57.4723 349.063 55.8876 347.071C51.3985 341.429 46.3871 336.536 40.4997 332.813C35.9129 329.91 31.0124 327.892 26.0794 325.969C20.6892 323.866 15.2161 322.027 9.85395 319.837C3.4058 317.204 -3.03051 314.508 -9.34402 311.493C-14.8112 308.882 -20.1851 305.974 -25.4422 302.858C-31.4731 299.284 -37.1785 295.088 -42.4193 290.114C-49.261 283.623 -55.3111 276.247 -61.3671 268.853C-66.3135 262.813 -71.4596 256.941 -77.8752 252.847C-82.1039 250.147 -86.5487 247.935 -91.2805 246.589C-94.8463 245.574 -98.4241 244.606 -102.015 243.716C-104.161 243.184 -106.343 242.848 -108.508 242.416C-114.968 241.127 -121.493 241.384 -127.997 241.503C-131.579 241.568 -135.154 242.098 -138.732 242.414C-139.013 242.439 -139.297 242.418 -139.579 242.418C-143.299 242.418 -147.022 242.555 -150.736 242.391C-160.256 241.972 -168.824 238.625 -176.169 231.549C-181.559 226.354 -185.723 220.074 -189.141 213.125C-191.74 207.84 -193.889 202.332 -195.392 196.498C-196.342 192.814 -197.196 189.131 -197.336 185.286C-197.466 181.714 -197.71 178.13 -197.573 174.567C-197.453 171.461 -196.944 168.362 -196.478 165.287C-195.893 161.432 -195.3 157.568 -194.491 153.768C-193.233 147.87 -191.819 142.016 -190.414 136.16C-188.994 130.234 -186.874 124.613 -184.338 119.201C-182.371 115.006 -180.221 110.919 -178.299 106.698C-176.522 102.796 -175.463 98.6021 -175.034 94.2284C-174.627 90.0715 -174.272 85.9083 -173.898 81.7466C-173.611 78.5467 -173.42 75.3311 -173.029 72.1483C-172.451 67.4411 -171.765 62.7495 -171.064 58.0642C-170.255 52.6696 -169.339 47.2937 -168.543 41.8976C-167.915 37.6424 -167.334 33.3748 -166.856 29.0947C-166.47 25.6422 -166.292 22.1602 -165.982 18.6968C-165.631 14.8001 -165.263 10.9034 -164.847 7.01611C-164.631 5.00699 -164.293 3.01345 -164.011 1.01367" stroke="black" stroke-width="0.5" stroke-linecap="round" stroke-linejoin="round"/>
<path d="M178.617 352.996C178.052 350.543 177.738 347.968 176.873 345.659C174.816 340.185 171.909 335.278 168.156 331.083C164.104 326.551 159.623 322.624 154.6 319.566C148.794 316.032 142.895 312.693 137.105 309.127C130.947 305.335 124.996 301.172 119.717 295.874C114.767 290.908 110.232 285.485 105.896 279.849C103.654 276.936 101.313 274.066 99.4387 270.86C96.3448 265.568 94.2142 259.68 92.193 253.772C90.3051 248.253 88.6242 242.656 87.661 236.814C87.1061 233.451 86.4374 230.109 85.9935 226.728C85.5052 223.012 85.1975 219.267 84.8438 215.529C84.6219 213.186 84.5035 210.83 84.2623 208.49C83.9265 205.231 83.4574 201.989 83.1571 198.725C82.728 194.046 81.7751 189.526 80.3236 185.121C76.6571 173.998 69.9856 166.569 59.6919 163.703C54.5902 162.283 49.4219 161.178 44.3054 159.824C37.0982 157.914 30.3808 154.814 24.6636 149.287C20.1522 144.924 16.8083 139.545 13.9497 133.745C11.4432 128.661 9.10398 123.471 6.57828 118.4C2.92808 111.071 -1.15714 104.099 -6.22925 97.8757C-10.7909 92.277 -15.8201 87.3516 -21.5284 83.3738C-26.9882 79.5691 -32.8105 76.6123 -39.0233 74.6936C-45.4804 72.7001 -51.9655 70.8 -58.3604 68.568C-62.928 66.9735 -67.1907 64.5856 -69.9487 59.813C-71.2626 57.5373 -71.9655 55.0185 -72.2333 52.2986C-72.6949 47.6086 -71.7317 43.0978 -71.1058 38.5309C-70.6264 35.0285 -70.2358 31.5013 -69.9813 27.9693C-69.6854 23.8716 -69.3377 19.7473 -69.4531 15.6511C-69.5907 10.7164 -70.0863 5.77851 -71.3677 1.00586" stroke="black" stroke-width="0.5" stroke-linecap="round" stroke-linejoin="round"/>
<path d="M309.398 352.998C309.068 350.917 308.771 348.83 308.403 346.759C307.624 342.379 306.812 338.008 306.007 333.635C305.448 330.592 304.822 327.565 304.332 324.509C303.958 322.18 303.763 319.815 303.464 317.471C303.103 314.642 302.702 311.818 302.344 308.987C302.209 307.927 302.116 306.857 302.061 305.787C301.944 303.495 301.87 301.2 301.771 298.906C301.682 296.878 301.496 294.85 301.509 292.825C301.533 289.304 301.636 285.782 301.784 282.264C301.913 279.22 302.138 276.18 302.339 273.141C302.512 270.526 302.74 267.915 302.894 265.299C303.109 261.674 303.32 258.047 303.453 254.417C303.598 250.472 303.837 246.514 303.696 242.577C303.554 238.62 302.97 234.682 302.625 230.731C302.299 226.984 301.406 223.408 300.379 219.842C298.31 212.658 294.845 206.459 290.328 200.968C287.376 197.38 284.295 193.92 281.459 190.218C277.824 185.474 274.808 180.226 272.086 174.737C268.901 168.319 265.64 161.941 262.184 155.708C259.868 151.533 256.844 147.938 253.025 145.476C248.907 142.822 244.429 142.78 240.071 144.538C236.797 145.858 233.833 147.938 231.128 150.523C227.537 153.956 224.115 157.503 221.834 162.242C220.582 164.84 219.826 167.568 219.533 170.557C218.763 178.402 221.561 185.001 224.785 191.534C228.419 198.898 232.916 205.685 235.986 213.435C237.87 218.19 239.312 223.058 240.215 228.167C241.037 232.826 241.61 237.494 241.62 242.254C241.626 244.921 241.91 247.591 241.859 250.255C241.788 253.832 241.643 257.42 241.292 260.974C240.749 266.482 240.127 271.991 239.308 277.454C238.59 282.236 237.571 286.96 236.658 291.703C235.496 297.735 234.28 303.753 233.141 309.79C232.428 313.565 231.738 317.348 231.182 321.154C230.843 323.474 230.71 325.84 230.605 328.192C230.449 331.655 230.21 335.136 230.353 338.59C230.553 343.397 231.023 348.194 232.284 352.834" stroke="black" stroke-width="0.5" stroke-linecap="round" stroke-linejoin="round"/>
<path d="M192.457 352.836C190.038 347 187.244 341.405 183.681 336.37C179.238 330.089 174.271 324.348 168.421 319.753C163.605 315.97 158.612 312.465 153.602 309.017C148.641 305.604 143.652 302.213 139.388 297.743C135.072 293.22 132.058 287.606 129.719 281.478C127.478 275.612 125.545 269.564 122.405 264.18C119.795 259.707 116.509 255.955 112.799 252.66C109.143 249.413 105.364 246.313 102.361 242.247C97.8877 236.191 95.1001 229.222 93.8794 221.452C93.2934 217.723 92.6942 213.994 92.2045 210.247C91.9766 208.509 92.0299 206.726 91.8908 204.971C91.6363 201.768 91.3389 198.568 91.0489 195.368C90.8698 193.393 90.7589 191.404 90.4674 189.45C89.9717 186.13 89.4849 182.796 88.7614 179.534C87.6724 174.621 85.9827 169.994 83.4511 165.742C79.7106 159.461 74.6933 155.366 68.1652 153.795C65.5211 153.159 62.8105 152.849 60.1191 152.495C57.1599 152.107 54.1784 151.926 51.2251 151.501C45.6352 150.697 40.0999 149.643 34.9745 146.733C30.0474 143.935 25.9963 140.051 22.6671 135.06C18.9726 129.52 16.0296 123.492 13.0689 117.447C9.35358 109.863 5.32164 102.47 0.344226 95.8625C-6.07729 87.3366 -13.4709 80.0093 -22.0881 74.4059C-27.2564 71.0454 -32.7562 68.4626 -38.3195 66.0638C-43.4893 63.8365 -48.7611 61.924 -53.4486 58.4123C-58.244 54.8211 -60.8052 49.8334 -61.8024 43.5068C-62.6739 37.9719 -62.5304 32.4199 -62.6325 26.857C-62.7139 22.4273 -62.8012 17.9788 -63.2288 13.5803C-63.6416 9.336 -64.4938 5.14473 -65.1523 0.931641" stroke="black" stroke-width="0.5" stroke-linecap="round" stroke-linejoin="round"/>
<path d="M-58.3732 0.927734C-57.95 3.43564 -57.5077 5.93886 -57.1082 8.44988C-56.8389 10.1504 -56.614 11.8603 -56.3994 13.5701C-56.0103 16.6625 -55.6448 19.758 -55.2646 22.8504C-54.8917 25.8914 -54.578 28.9449 -54.1223 31.9702C-52.727 41.2412 -49.0028 48.8506 -41.5515 53.55C-36.5845 56.6814 -31.5109 59.5961 -26.4476 62.5264C-21.704 65.2712 -17.2089 68.44 -12.8796 71.9548C-9.08439 75.0363 -5.55109 78.4483 -2.16574 82.0675C4.31792 89.0005 9.71852 96.9357 14.5021 105.427C17.053 109.955 19.5416 114.528 22.1413 119.02C25.469 124.769 28.9756 130.322 34.2608 134.099C37.6329 136.51 41.2342 137.963 45.1434 138.761C48.1603 139.377 51.1758 139.5 54.1883 139.302C57.3073 139.098 60.4026 138.468 63.5128 138.081C65.673 137.813 67.8554 137.743 70.0068 137.411C75.3127 136.591 80.6437 136.802 85.9688 136.806C87.7103 136.808 89.4518 137.029 91.1948 137.106C97.8989 137.402 103.974 135.307 109.412 130.865C114.336 126.842 119.208 122.743 123.681 118.068C127.109 114.485 130.696 111.077 133.951 107.301C137.465 103.223 140.688 98.8216 144.007 94.5306C144.604 93.7575 145.119 92.8769 145.56 91.9744C147.18 88.6576 147.186 87.1301 144.289 84.3151C142.941 83.0043 141.491 81.8228 140.06 80.6242C133.793 75.373 128.642 69.0791 125.355 60.9459C123.757 56.9916 122.66 52.9375 122.071 48.6231C121.533 44.6672 121.417 40.7159 121.607 36.7741C121.873 31.2112 122.975 25.7776 124.402 20.4532C126.219 13.6761 128.894 7.29647 131.73 1.00411" stroke="black" stroke-width="0.5" stroke-linecap="round" stroke-linejoin="round"/>
<path d="M242.881 352.999C242.269 351.184 241.524 349.412 241.072 347.549C239.978 343.057 239.545 338.465 239.24 333.804C239.034 330.661 239.284 327.578 239.445 324.518C239.716 319.39 240.515 314.284 241.76 309.312C243.565 302.1 245.512 294.933 247.233 287.696C248.683 281.602 249.995 275.461 251.173 269.292C251.782 266.095 252.031 262.801 252.327 259.537C252.679 255.652 252.923 251.752 253.185 247.857C253.314 245.94 253.383 244.016 253.472 242.096C253.571 239.962 253.781 237.825 253.731 235.696C253.626 231.319 253.561 226.925 253.147 222.578C252.608 216.93 251.584 211.336 249.196 206.275C247.475 202.627 245.389 199.2 243.443 195.69C241.498 192.178 239.462 188.727 238.499 184.646C237.556 180.656 237.529 176.931 240.172 173.575C241.925 171.348 245.583 171.256 247.539 172.176C250.581 173.608 252.516 176.412 254.009 179.543C256.11 183.948 258.052 188.456 259.96 192.973C263.18 200.595 268.083 206.483 274.077 211.399C279.379 215.748 284.461 220.418 287.935 226.894C290.036 230.81 291.377 235.06 292.171 239.537C293.497 247.006 292.964 254.572 292.988 262.1C292.999 265.3 292.772 268.519 292.43 271.698C291.707 278.41 291.855 285.142 291.933 291.866C291.967 294.804 292.439 297.737 292.744 300.668C293 303.126 293.263 305.584 293.596 308.028C294.025 311.182 294.42 314.351 295.023 317.465C296.067 322.874 297.244 328.252 298.393 333.634C299.408 338.388 300.482 343.124 301.484 347.881C301.839 349.568 302.061 351.292 302.344 352.999" stroke="black" stroke-width="0.5" stroke-linecap="round" stroke-linejoin="round"/>
<path d="M357.844 352.995C356.761 351.128 355.426 349.387 354.648 347.369C353.059 343.241 351.595 339.028 350.401 334.737C348.815 329.039 347.518 323.236 346.127 317.467C345.294 314.01 344.44 310.554 343.739 307.061C342.768 302.226 341.871 297.371 341.055 292.499C340.396 288.571 339.866 284.615 339.36 280.657C339.152 279.022 339.115 277.355 339.066 275.699C338.862 268.872 338.609 262.045 338.521 255.215C338.468 251.004 338.726 246.787 338.769 242.573C338.887 230.891 338.985 219.208 339.044 207.526C339.057 205.02 338.896 202.51 338.772 200.006C338.607 196.696 338.485 193.381 338.192 190.086C337.804 185.703 337.262 181.337 336.802 176.961C336.022 169.548 334.547 162.326 332.621 155.177C330.937 148.926 328.904 142.847 326.778 136.79C323.465 127.351 319.844 118.074 315.622 109.104C313.106 103.761 310.19 98.7106 307.152 93.7353C302.407 85.9638 297.453 78.3419 293.853 69.7458C291.249 63.5298 289.313 57.0644 287.935 50.3746C287.167 46.6447 286.349 42.9242 285.692 39.1693C284.77 33.9041 284.131 28.5735 283.094 23.3395C281.735 16.4844 280.225 9.65746 277.76 3.16871C277.468 2.4034 277.106 1.67238 276.776 0.925781" stroke="black" stroke-width="0.5" stroke-linecap="round" stroke-linejoin="round"/>
<path d="M339.059 352.997C338.681 350.757 338.332 348.51 337.922 346.278C337.286 342.805 336.561 339.353 335.963 335.872C335.25 331.723 334.584 327.561 333.989 323.39C333.535 320.204 333.23 316.99 332.841 313.792C332.381 310.003 331.825 306.226 331.455 302.426C331.15 299.293 331.135 296.124 330.85 292.988C330.083 284.573 330.324 276.134 330.317 267.702C330.314 264.447 330.48 261.193 330.586 257.94C330.665 255.54 330.777 253.139 330.865 250.739C331.057 245.405 331.325 240.071 331.412 234.736C331.57 225.082 331.683 215.426 331.681 205.771C331.681 201.77 331.41 197.763 331.126 193.771C330.848 189.868 330.521 185.959 329.99 182.092C329.064 175.354 327.814 168.675 325.757 162.253C323.363 154.784 320.352 147.633 316.759 140.787C312.64 132.939 308.653 125.004 304.595 117.116C301.027 110.175 297.336 103.31 293.892 96.2917C290.279 88.9286 286.99 81.3581 284.869 73.2499C283.945 69.7117 283.403 66.0301 282.875 62.3782C282.284 58.2929 281.869 54.1733 281.447 50.06C281.108 46.7603 280.936 43.4372 280.574 40.1422C279.969 34.6401 279.423 29.1208 278.575 23.6639C277.365 15.8768 275.521 8.26889 272.68 1.01172" stroke="black" stroke-width="0.5" stroke-linecap="round" stroke-linejoin="round"/>
<path d="M322.961 352.996C322.538 350.168 322.119 347.341 321.688 344.515C321.273 341.793 320.851 339.072 320.417 336.354C319.957 333.472 319.444 330.599 319.021 327.709C318.765 325.962 318.643 324.19 318.441 322.432C318.072 319.23 317.674 316.032 317.321 312.829C317.18 311.555 317.1 310.271 317.037 308.988C316.923 306.695 316.804 304.402 316.757 302.106C316.64 296.453 316.461 290.797 316.498 285.143C316.528 280.715 316.824 276.287 317.038 271.86C317.193 268.657 317.424 265.461 317.593 262.257C317.799 258.364 317.998 254.47 318.154 250.575C318.284 247.324 318.346 244.068 318.445 240.813C318.534 237.88 318.711 234.945 318.706 232.011C318.698 228.49 318.58 224.968 318.43 221.45C318.306 218.512 318.166 215.567 317.858 212.65C317.186 206.254 316.498 199.845 315.027 193.61C313.641 187.733 311.685 182.111 309.017 176.775C305.713 170.17 301.317 164.51 297.248 158.564C293.383 152.915 289.67 147.151 286.536 140.945C280.267 128.522 273.755 116.274 266.617 104.459C264.101 100.294 261.928 95.913 260.681 91.0218C259.665 87.0301 259.505 83.0118 259.922 78.8549C260.609 72.0216 262.88 65.709 264.488 59.1766C265.629 54.5396 266.925 49.9384 267.819 45.239C268.422 42.064 268.486 38.7502 268.714 35.4911C268.878 33.1499 269.087 30.7886 268.979 28.4521C268.591 20.001 267.317 11.7478 264.21 3.96382C263.819 2.98498 263.455 1.99055 263.078 1.00391" stroke="black" stroke-width="0.5" stroke-linecap="round" stroke-linejoin="round"/>
<path d="M330.301 352.835C329.923 350.862 329.531 348.892 329.175 346.914C328.596 343.717 327.985 340.525 327.492 337.309C327.038 334.337 326.748 331.333 326.338 328.352C326 325.89 325.547 323.45 325.23 320.987C324.971 318.972 324.85 316.934 324.649 314.908C324.376 312.187 324.064 309.47 323.813 306.745C323.671 305.204 323.552 303.653 323.532 302.105C323.416 293.303 323.258 284.501 323.27 275.7C323.276 271.271 323.607 266.845 323.805 262.417C323.984 258.416 324.189 254.416 324.365 250.413C324.476 247.907 324.612 245.401 324.64 242.891C324.757 232.49 324.891 222.088 324.902 211.685C324.905 208.272 324.643 204.847 324.345 201.446C323.965 197.115 323.582 192.771 322.919 188.489C321.916 182.017 320.472 175.65 318.141 169.604C315.647 163.129 312.471 157.096 308.849 151.341C304.959 145.161 301.077 138.967 297.433 132.603C294.368 127.25 291.588 121.683 288.793 116.138C285.292 109.193 281.811 102.229 278.501 95.165C276.388 90.6573 275.065 85.7584 274.13 80.7722C273.701 78.4825 273.714 76.0869 273.524 73.7411C273.436 72.6734 273.226 71.6026 273.262 70.5411C273.401 66.4854 273.602 62.4313 273.812 58.3788C273.973 55.2833 274.256 52.194 274.355 49.0954C274.512 44.1902 274.734 39.2742 274.599 34.3753C274.491 30.4178 273.889 26.4806 273.527 22.5309C273.026 17.0756 271.726 11.84 270.125 6.6917C269.521 4.7496 268.816 2.84802 268.157 0.927734" stroke="black" stroke-width="0.5" stroke-linecap="round" stroke-linejoin="round"/>
<path d="M-51.8762 0.927734C-51.453 3.2221 -51.0092 5.51023 -50.6097 7.81083C-50.0726 10.9001 -49.6154 14.0081 -49.0428 17.0896C-47.3886 25.988 -45.7935 34.9192 -40.0157 41.9005C-37.4101 45.0475 -34.3428 47.4961 -31.1202 49.7484C-24.6055 54.3013 -17.925 58.597 -11.6766 63.5863C-4.77278 69.0993 1.54665 75.4618 7.19433 82.6707C12.3434 89.242 16.8725 96.3122 21.2965 103.499C24.5206 108.738 27.6796 114.045 31.7322 118.556C35.6236 122.889 40.2089 125.819 45.5858 126.806C48.1189 127.27 50.7215 127.493 53.3523 126.926C56.3751 126.274 59.4735 126.095 62.52 125.57C64.9362 125.154 67.3154 124.454 69.7286 124.014C72.022 123.597 74.3406 123.361 76.6458 123.031C78.812 122.721 80.9826 122.434 83.1413 122.061C85.3134 121.687 87.4736 121.215 89.6398 120.793C94.737 119.8 99.7263 118.352 104.463 115.975C109.332 113.531 113.718 110.209 117.446 105.89C120.655 102.173 122.836 97.7461 123.813 92.6243C124.498 89.0332 123.993 85.5028 123.089 82.0706C121.522 76.1211 119.856 70.206 118.155 64.3049C117.054 60.4877 116.418 56.5816 115.872 52.6242C115.268 48.2521 115.206 43.8676 115.4 39.4986C115.552 36.0695 116.088 32.6451 116.64 29.2581C117.548 23.6906 119.094 18.3194 121.006 13.0963C122.532 8.92839 124.019 4.72933 126.219 0.927734" stroke="black" stroke-width="0.5" stroke-linecap="round" stroke-linejoin="round"/>
<path d="M-44.2496 0.927734C-42.6487 7.59573 -41.1365 14.2933 -39.4217 20.9224C-37.874 26.9014 -35.0716 32.1994 -31.195 36.5449C-28.4 39.6763 -25.1109 42.2684 -21.9164 44.9088C-18.0354 48.1181 -14.0034 51.0889 -10.075 54.2249C-2.89152 59.9577 3.63503 66.554 9.69996 73.7426C14.8002 79.7871 19.2805 86.4053 23.7104 93.0826C26.4433 97.2022 29.2353 101.312 32.3528 105.05C35.5932 108.934 39.486 112.047 44.0418 113.68C46.3322 114.502 48.8535 114.46 51.2179 115.068C53.7939 115.73 56.3122 115.005 58.8512 114.968C61.3029 114.932 63.7472 114.377 66.196 114.075C67.3235 113.936 68.4598 113.897 69.5843 113.741C72.5051 113.338 75.4273 112.931 78.3406 112.458C81.359 111.969 84.3789 111.47 87.3781 110.85C90.9247 110.117 94.3678 108.964 97.6954 107.357C101.421 105.558 104.885 103.331 107.721 99.9875C110.994 96.1283 112.796 91.5551 113.415 86.2307C113.884 82.1937 113.419 78.3064 112.81 74.3801C112.123 69.9582 111.508 65.5222 110.82 61.1002C110.192 57.0742 109.651 53.045 109.679 48.9364C109.691 47.2296 109.325 45.5057 109.448 43.8192C109.8 38.992 110.105 34.1789 111.033 29.3937C112.421 22.2348 114.455 15.3844 117.183 8.76941C118.253 6.17578 119.347 3.59462 120.43 1.00723" stroke="black" stroke-width="0.5" stroke-linecap="round" stroke-linejoin="round"/>
<path d="M362.504 272.499C361.091 271.806 359.511 271.372 358.3 270.367C355.437 267.985 354.098 264.39 353.216 260.647C352.398 257.174 351.777 253.633 351.237 250.089C350.883 247.774 350.839 245.4 350.639 243.054C350.365 239.853 350.069 236.653 349.797 233.451C349.683 232.12 349.612 230.785 349.51 229.452C349.23 225.77 348.977 222.087 348.655 218.41C348.317 214.565 347.906 210.728 347.535 206.887C347.153 202.94 346.78 198.992 346.404 195.044C346.027 191.096 345.722 187.139 345.256 183.205C344.673 178.285 343.893 173.396 343.312 168.477C342.458 161.266 340.882 154.234 339.32 147.201C338.411 143.111 337.319 139.069 336.225 135.035C334.381 128.247 332.558 121.448 330.562 114.717C328.352 107.266 325.197 100.375 321.027 94.0252C317.561 88.7476 313.61 83.9702 309.809 79.037C305.366 73.2715 301.329 67.1958 298.105 60.4561C295.242 54.4708 293.227 48.1005 291.626 41.5681C290.22 35.8353 288.923 30.0651 287.665 24.2871C285.975 16.5234 284.138 8.81578 281.445 1.40273C281.395 1.26557 281.439 1.08632 281.439 0.925781" stroke="black" stroke-width="0.5" stroke-linecap="round" stroke-linejoin="round"/>
<path d="M22.2734 352.996C17.8006 350.809 13.3884 348.444 8.84007 346.48C3.44541 344.15 -2.04841 342.104 -7.53185 340.048C-15.3768 337.108 -23.2986 334.426 -31.0976 331.341C-36.9199 329.037 -42.5986 326.267 -48.344 323.711C-55.3425 320.597 -62.0452 316.664 -69.242 314.093C-72.8981 312.787 -76.5972 311.811 -80.3983 311.184C-84.6803 310.478 -88.9667 310.544 -93.2561 310.618C-96.3189 310.671 -99.3773 310.999 -102.437 311.233C-104.933 311.423 -107.426 311.669 -109.922 311.864C-112.84 312.093 -115.758 312.327 -118.679 312.5C-122.773 312.743 -126.868 312.983 -130.966 313.134C-135.39 313.298 -139.817 313.343 -144.241 313.475C-146.078 313.53 -147.913 313.783 -149.749 313.765C-153.374 313.733 -157.001 313.624 -160.624 313.451C-163.359 313.32 -166.096 313.14 -168.814 312.807C-175.858 311.942 -182.879 310.809 -189.711 308.634C-198.094 305.964 -206.013 302.103 -212.865 295.842C-213.683 295.094 -214.293 294.05 -214.999 293.143" stroke="black" stroke-width="0.5" stroke-linecap="round" stroke-linejoin="round"/>
<path d="M-33.9384 0.927734C-33.3259 2.74203 -32.6526 4.53138 -32.1126 6.37217C-29.6579 14.75 -26.4575 22.718 -20.8927 29.0337C-17.5532 32.8244 -13.7269 36.0711 -10.0619 39.483C-6.33478 42.9511 -2.48188 46.2477 1.20975 49.7609C4.16897 52.5774 7.07491 55.4859 9.81368 58.5705C12.7182 61.8406 15.5427 65.2307 18.1395 68.8125C21.7172 73.7489 25.0981 78.8738 28.4701 83.9956C31.4367 88.5017 34.5557 92.8379 38.3746 96.4602C42.1328 100.023 46.4134 102.368 51.2206 103.523C54.6267 104.341 58.049 104.863 61.5335 104.785C65.6764 104.69 69.8371 104.816 73.9578 104.411C80.1293 103.805 86.2874 102.718 92.018 99.9298C97.0664 97.4734 101.372 93.8526 103.623 87.8252C104.618 85.1568 105.321 82.4151 105.465 79.5035C105.505 78.6992 105.767 77.8934 105.718 77.1047C105.479 73.1534 105.178 69.2084 104.889 65.2603C104.71 62.8054 104.611 60.3365 104.306 57.9018C103.626 52.4745 103.639 47.0176 103.81 41.5779C103.926 37.9399 104.303 34.2724 104.938 30.7046C106.009 24.6725 107.694 18.8057 109.735 13.1103C111.213 8.98295 113.082 5.03639 114.777 1.00879" stroke="black" stroke-width="0.5" stroke-linecap="round" stroke-linejoin="round"/>
<path d="M138.928 0.927734C137.845 3.16755 136.623 5.33877 135.714 7.66587C134.449 10.9063 133.313 14.2216 132.32 17.5821C131.216 21.3183 130.26 25.1183 130.027 29.0929C129.867 31.8159 129.419 34.5452 129.518 37.2526C129.704 42.3432 130.437 47.3699 133.155 51.6453C136.296 56.5863 140.332 59.7364 145.992 59.6912C149.923 59.66 153.76 59.1083 157.58 58.0951C159.184 57.6696 160.865 57.5917 162.517 57.4311C164.161 57.2721 165.814 57.0976 167.459 57.1225C170.947 57.1755 174.279 58.0655 177.494 59.6413C181.687 61.6972 185.238 64.7803 188.488 68.32C191.991 72.1356 195.372 76.0947 198.814 79.9835C201.362 82.8624 204.071 85.5184 207.146 87.6678C211.277 90.5545 215.684 92.8161 220.437 93.8136C223.176 94.3888 226.093 94.2937 228.89 93.9976C232.305 93.6359 234.359 90.6511 236.534 87.9998C239.582 84.2824 241.737 79.8713 244.127 75.6489C247.138 70.3276 250.037 64.9237 252.894 59.4932C256.393 52.844 259.617 46.0326 261.077 38.3733C261.58 35.7375 261.912 33.0519 262.206 30.3742C262.411 28.5225 262.545 26.638 262.486 24.777C262.288 18.5376 261.434 12.4354 259.121 6.6917C258.361 4.80259 257.614 2.90413 256.86 1.0119" stroke="black" stroke-width="0.5" stroke-linecap="round" stroke-linejoin="round"/>
<path d="M-2.16015 1.00683C2.43848 6.98278 7.02528 12.9478 10.8649 19.6267C16.1071 28.7434 20.4542 38.3962 24.6652 48.1411C27.4439 54.569 30.0954 61.0671 32.8771 67.4935C35.425 73.3759 38.4152 78.9825 42.3584 83.791C46.6078 88.9705 51.899 92.2811 58.0009 93.9192C61.6762 94.9059 65.3708 95.4405 69.1601 95.559C74.3313 95.7195 79.3546 95.082 84.2758 93.2739C89.0638 91.5158 92.9907 88.5465 95.5874 83.5135C96.7534 81.255 97.4961 78.8173 97.7817 76.2938C98.1708 72.8554 98.3958 69.3624 98.3454 65.9006C98.2922 62.2689 97.8276 58.6449 97.5539 55.0164C97.5183 54.5394 97.5627 54.0562 97.5464 53.5761C97.4577 50.9623 97.215 48.3421 97.2934 45.736C97.5317 37.8601 98.307 30.0932 100.469 22.5134C102.599 15.0458 105.621 8.05982 108.713 1.08944C108.752 1.00371 108.895 0.978776 108.988 0.925781" stroke="black" stroke-width="0.5" stroke-linecap="round" stroke-linejoin="round"/>
<path d="M362.645 212.168C360.214 208.189 358.49 203.796 357.325 199.19C356.034 194.084 355.033 188.877 354.052 183.677C353.101 178.635 352.315 173.552 351.493 168.478C350.621 163.096 349.862 157.688 348.924 152.321C348.081 147.499 347.018 142.724 346.132 137.911C345.231 133.017 344.541 128.068 343.552 123.197C341.923 115.184 340.372 107.141 336.824 99.8095C334.869 95.7709 332.591 92.0052 329.847 88.654C326.681 84.7854 323.319 81.1163 319.978 77.4347C317.877 75.1185 315.519 73.0891 313.527 70.6639C310.8 67.3408 308.147 63.9055 305.774 60.2566C303.611 56.9304 301.616 53.3969 299.993 49.7028C297.684 44.4439 295.834 38.934 294.417 33.2557C292.761 26.6283 291.101 20.0008 289.318 13.417C288.223 9.37222 286.893 5.40696 285.675 1.40429C285.632 1.2609 285.669 1.08632 285.669 0.925781" stroke="black" stroke-width="0.5" stroke-linecap="round" stroke-linejoin="round"/>
<path d="M146.841 0.927734C146.606 1.14127 146.273 1.2987 146.148 1.57614C143.783 6.87251 141.655 12.2764 140.34 18.0497C139.357 22.3641 139.039 26.7783 139.403 31.1675C139.931 37.5347 143.066 41.4469 147.433 42.9059C150.715 44.0032 154.257 44.1076 157.715 43.3392C157.851 43.3096 157.997 43.3392 158.138 43.3345C160.632 43.2285 163.133 42.9604 165.622 43.0461C173.006 43.2987 179.935 45.2735 186.267 49.8529C190.63 53.0092 194.604 56.6892 198.516 60.4752C201.823 63.6767 205.265 66.6694 209.14 68.8998C211.777 70.4164 214.563 71.4436 217.587 71.8971C224.174 72.8838 229.656 70.1888 234.505 65.6874C239.502 61.0472 243.81 55.5841 247.53 49.5723C250.38 44.9649 252.74 40.0488 254.308 34.6917C255.77 29.6992 256.014 24.512 255.69 19.3356C255.294 13.0043 253.231 7.22165 250.501 1.73045C250.377 1.4795 250.221 1.24882 250.079 1.00879" stroke="black" stroke-width="0.5" stroke-linecap="round" stroke-linejoin="round"/>
<path d="M50.6585 0.927734C50.9411 3.75516 51.2237 6.58259 51.5034 9.41002C51.5197 9.56745 51.5034 9.72955 51.5063 9.89009C51.5996 13.9972 51.8748 18.1136 51.7357 22.2098C51.604 26.0613 51.061 29.8972 50.6511 33.7331C50.3138 36.8863 50.009 40.0504 49.5059 43.1708C48.7039 48.1539 48.1165 53.1666 48.4302 58.2167C49.0842 68.7112 52.69 77.2839 61.4035 82.2C63.6969 83.4937 66.1811 84.206 68.7349 84.644C72.7536 85.3329 76.6612 85.0134 80.4594 83.3425C85.4131 81.1619 88.2126 76.9815 89.3755 71.1864C90.0976 67.5874 90.3639 63.9588 90.1849 60.3006C89.994 56.4008 89.4954 52.5151 89.3992 48.6153C89.3045 44.7809 89.4673 40.9295 89.67 37.0967C89.7943 34.7384 90.1863 32.3973 90.4926 30.0546C91.0223 25.9912 92.1143 22.0773 93.6412 18.3958C95.9139 12.9155 98.4914 7.59573 100.94 2.20896C101.124 1.80527 101.316 1.40781 101.504 1.00879" stroke="black" stroke-width="0.5" stroke-linecap="round" stroke-linejoin="round"/>
<path d="M362.504 172.163C362.127 170.243 361.742 168.324 361.376 166.402C360.524 161.923 359.644 157.449 358.843 152.957C358.133 148.969 357.463 144.967 356.877 140.954C356.569 138.842 356.483 136.689 356.29 134.557C355.917 130.45 355.513 126.344 355.171 122.233C355.013 120.319 354.939 118.394 354.884 116.472C354.658 108.633 353.037 101.211 348.599 95.09C345.505 90.8239 341.948 86.9366 338.311 83.2425C334.699 79.5734 330.703 76.3953 326.922 72.935C322.89 69.2441 318.73 65.6966 314.958 61.6846C310.641 57.0927 307.254 51.6155 304.269 45.7705C300.604 38.5897 298.397 30.7745 296.202 22.9874C294.135 15.6508 292.24 8.25175 289.911 1.01172" stroke="black" stroke-width="0.5" stroke-linecap="round" stroke-linejoin="round"/>
<path d="M157.434 1.00723C156.108 4.12925 154.768 7.24191 154.18 10.6881C153.628 13.9333 153.321 17.2065 154.636 20.2755C156.166 23.8449 158.983 25.72 162.241 26.663C166.687 27.9489 171.172 29.0758 175.654 30.2027C181.549 31.685 186.855 34.6371 191.739 38.5556C196.133 42.0798 200.389 45.8299 204.755 49.4009C207.574 51.7077 210.579 53.7433 213.939 54.8001C216.346 55.5576 218.804 55.8958 221.418 55.5888C227.07 54.9248 231.517 51.7856 235.507 47.624C238.336 44.675 241.065 41.5997 243.05 37.7545C245.077 33.8297 246.693 29.8239 247.288 25.257C248.439 16.4272 246.091 8.76317 241.593 1.73824C241.368 1.38598 240.948 1.19427 240.618 0.927734" stroke="black" stroke-width="0.5" stroke-linecap="round" stroke-linejoin="round"/>
<path d="M166.188 352.998C166.377 347.033 164.198 342.129 160.975 337.623C157.02 332.093 151.92 328.29 146.402 325.184C138.707 320.849 130.578 317.789 122.254 315.44C119.971 314.797 117.556 314.762 115.203 314.429C107.65 313.359 100.85 316.098 94.3142 319.903C90.3029 322.239 86.4781 324.953 83.4242 328.832C81.1264 331.753 79.7636 334.978 79.6808 339.073C79.5772 344.226 81.4859 348.495 83.4242 352.837" stroke="black" stroke-width="0.5" stroke-linecap="round" stroke-linejoin="round"/>
<path d="M293.441 353C293.111 351.879 292.724 350.777 292.462 349.636C290.606 341.539 288.286 333.624 285.73 325.771C283.532 319.022 281.196 312.371 278.351 305.939C276.794 302.418 274.866 299.261 272.249 296.679C270.337 294.793 267.998 294.242 265.483 295.561C261.658 297.567 259.128 301.189 256.896 305.016C254.048 309.898 252.163 315.33 250.968 321.003C249.954 325.821 249.79 330.795 250.129 335.712C250.543 341.693 252.061 347.401 254.319 352.839" stroke="black" stroke-width="0.5" stroke-linecap="round" stroke-linejoin="round"/>
<path d="M294.43 1.00781C296.784 8.92898 299.143 16.8486 301.491 24.7729C303.609 31.9272 306.265 38.8149 309.994 45.0746C314.356 52.3972 320.032 58.3124 326.517 63.1318C331.225 66.6294 336.13 69.8044 341.057 72.8984C344.044 74.7735 347.285 76.128 350.645 76.9167C354.59 77.8409 358.04 76.5597 360.944 73.4159C361.545 72.7659 362.079 72.0349 362.645 71.3413" stroke="black" stroke-width="0.5" stroke-linecap="round" stroke-linejoin="round"/>
<path d="M305.446 0.927734C306.669 5.08783 307.962 9.2261 309.1 13.4158C310.5 18.5657 312.283 23.5285 314.496 28.2855C318.244 36.3439 323.46 42.8669 330.442 47.5008C333.748 49.6939 337.303 51.332 341.047 51.89C346.225 52.6616 350.848 51.0951 354.328 46.2305C357.899 41.2365 359.601 35.3525 360.773 29.2441C361.53 25.2913 361.939 21.2512 362.504 17.2501" stroke="black" stroke-width="0.5" stroke-linecap="round" stroke-linejoin="round"/>
<path d="M299.795 1.00781C301.489 6.68917 303.17 12.3752 304.883 18.0503C307.007 25.0862 309.37 32.016 313.091 38.2008C316.139 43.2649 319.647 47.849 324.059 51.5415C327.384 54.3253 330.809 56.8706 334.547 58.8408C338.445 60.8966 342.467 62.6907 346.827 62.8247C352.309 62.9931 356.619 60.3059 359.654 55.1607C360.749 53.3028 361.561 51.2313 362.504 49.258" stroke="black" stroke-width="0.5" stroke-linecap="round" stroke-linejoin="round"/>
<path d="M312.226 0.927734C313.449 5.19538 314.575 9.50354 315.923 13.7197C317.608 18.999 319.674 24.0724 322.663 28.6253C325.477 32.9132 328.852 36.3984 333.133 38.6865C335.496 39.9491 337.955 40.917 340.613 40.7611C344.068 40.5585 346.961 39.017 349.24 35.9838C352.449 31.7115 353.857 26.5554 354.844 21.2435C355.589 17.2314 356.044 13.1493 356.562 9.08738C356.908 6.37685 357.139 3.64762 357.422 0.927734" stroke="black" stroke-width="0.5" stroke-linecap="round" stroke-linejoin="round"/>
<path d="M182.854 1.00839C182.043 3.98078 182.749 6.49959 184.539 8.77993C187.605 12.6828 191.397 15.6303 194.862 19.0079C198.001 22.0692 201.137 25.1351 204.33 28.123C207.631 31.2123 211.04 34.138 215.197 35.6545C220.636 37.6403 225.412 36.4043 229.617 31.9917C231.734 29.7706 233.442 27.2627 234.242 24.125C235.575 18.8973 234.809 14.0046 231.998 9.57329C229.971 6.37645 227.412 3.77347 224.653 1.41676C224.375 1.17984 224 1.08632 223.67 0.925781" stroke="black" stroke-width="0.5" stroke-linecap="round" stroke-linejoin="round"/>
<path d="M101.929 352.997C99.4806 349.568 98.5026 345.768 99.8239 341.48C100.728 338.546 102.808 336.651 104.92 334.952C107.636 332.767 110.742 331.626 114.067 331.012C116.946 330.478 119.821 330.242 122.688 330.474C129.961 331.06 136.941 332.877 143.174 337.468C145.34 339.062 147.192 340.967 148.701 343.376C150.56 346.343 151.063 349.513 150.372 352.998" stroke="black" stroke-width="0.5" stroke-linecap="round" stroke-linejoin="round"/>
<path d="M322.11 0.927734C322.675 3.16755 323.117 5.46035 323.831 7.63781C325.241 11.9429 326.96 16.092 329.6 19.6458C331.363 22.0212 333.546 23.8433 336.242 24.3951C339.143 24.9889 341.833 23.3851 343.572 20.288C345.603 16.6688 346.534 12.5959 347.241 8.44832C347.663 5.97783 348.003 3.48863 348.379 1.00879" stroke="black" stroke-width="0.5" stroke-linecap="round" stroke-linejoin="round"/>
<path d="M72.5525 0.92734C73.2583 1.94048 74.0351 2.90218 74.6551 3.97922C75.6494 5.70779 77.1379 6.73027 78.7817 7.07318C79.8781 7.30231 81.1816 6.81444 82.2839 6.32814C84.3643 5.41164 86.1635 3.93246 87.8162 2.21948C88.3119 1.70668 88.9348 1.35286 89.5 0.925781" stroke="black" stroke-width="0.5" stroke-linecap="round" stroke-linejoin="round"/>
<path d="M192.175 298.426C193.116 298.213 194.073 298.06 194.997 297.775C197.954 296.861 200.399 295.102 202.362 292.361C206.539 286.529 208.516 279.633 209.938 272.493C210.692 268.701 211.252 264.838 211.624 260.974C212.003 257.051 212.28 253.077 212.178 249.139C212.005 242.47 210.895 235.953 208.553 229.776C206.743 225.002 204.257 220.672 201.038 217.011C197.507 212.994 193.433 209.767 188.645 207.847C181.942 205.158 175.861 206.82 170.297 211.393C165.097 215.67 161.535 221.475 158.842 228.013C157.222 231.947 156.069 236.033 155.426 240.33C154.852 244.156 154.414 247.991 154.636 251.855C154.898 256.395 155.528 260.886 156.57 265.303C158.369 272.937 161.682 279.601 166.786 284.941C171.309 289.671 176.578 293.214 182.29 295.861C185.413 297.309 188.689 298.044 192.034 298.425" stroke="black" stroke-width="0.5" stroke-linecap="round" stroke-linejoin="round"/>
<path d="M198.39 313.149C202.085 312.29 204.948 309.89 207.111 306.558C209.443 302.966 211.279 298.995 212.491 294.737C213.999 289.437 215.475 284.116 216.701 278.728C217.446 275.447 217.667 272.016 218.168 268.662C219.247 261.451 219.512 254.178 219.259 246.898C219.019 240.027 217.881 233.295 215.598 226.903C212.494 218.212 207.632 210.871 201.471 204.683C198.288 201.486 194.866 198.616 190.92 196.61C188.279 195.268 185.584 194.424 182.715 194.067C177.269 193.39 172.479 195.586 167.903 198.447C163.914 200.94 160.361 204.218 157.186 207.889C153.107 212.604 149.316 217.663 146.6 223.557C145.185 226.626 144.151 229.929 143.87 233.453C143.707 235.482 143.257 237.524 143.361 239.532C143.56 243.385 144.087 247.214 144.433 251.058C144.913 256.395 146.071 261.574 147.279 266.737C148.754 273.043 150.959 278.985 154.311 284.356C157.262 289.083 161.06 292.732 165.191 296.041C171.766 301.308 178.719 305.836 185.972 309.765C189.832 311.857 193.83 313.544 198.25 313.151" stroke="black" stroke-width="0.5" stroke-linecap="round" stroke-linejoin="round"/>
<path d="M202.911 331.393C207.599 330.216 209.87 326.093 211.94 321.784C214.673 316.096 216.614 310.027 218.283 303.859C220.162 296.917 221.92 289.929 222.969 282.744C223.515 279.006 224.215 275.292 224.63 271.537C225.135 266.967 225.5 262.372 225.764 257.777C225.987 253.893 226.224 249.974 226.02 246.101C225.642 238.951 224.687 231.898 222.424 225.123C220.522 219.426 217.96 214.201 214.81 209.26C210.858 203.06 206.462 197.325 201.624 192.024C198.83 188.963 195.737 186.312 192.323 184.153C188.392 181.667 184.138 180.83 179.754 181.34C175.621 181.82 171.674 183.316 167.884 185.281C162.651 187.997 157.861 191.596 152.89 194.838C149.405 197.11 145.93 199.459 141.905 200.522C137.341 201.729 133.232 200.737 129.48 197.748C125.575 194.635 122.447 190.581 119.298 186.564C117.518 184.292 115.583 182.25 113.399 180.434C110.071 177.666 108.001 179.957 106.862 182.878C105.584 186.153 105.113 189.627 104.576 193.117C103.847 197.858 103.801 202.642 104.118 207.36C104.749 216.767 107.717 224.951 114.763 230.757C119.306 234.5 124.074 237.977 127.63 243.055C129.947 246.366 131.828 249.985 133.127 253.941C135.815 262.133 138.231 270.447 141.108 278.554C143.517 285.343 147.128 291.268 152.181 296.061C158.563 302.115 165.84 306.621 172.677 311.886C177.116 315.304 181.405 318.975 185.836 322.407C189.016 324.87 192.282 327.195 195.581 329.446C197.764 330.933 200.186 331.638 202.771 331.391" stroke="black" stroke-width="0.5" stroke-linecap="round" stroke-linejoin="round"/>
<path d="M187.937 282.425C188.595 282.265 189.255 282.106 189.914 281.945C194.015 280.94 196.628 277.887 198.688 273.956C200.651 270.208 201.805 266.12 202.576 261.93C203.375 257.58 203.788 253.119 203.454 248.661C202.82 240.203 200.681 232.394 194.978 226.439C191.794 223.115 188.024 221.096 183.559 221.304C180.088 221.464 177.171 223.207 174.675 225.794C170.705 229.909 168.47 235.174 167.006 240.969C165.971 245.073 165.352 249.23 165.653 253.457C166.404 264.069 169.61 273.153 178.167 278.95C181.187 280.996 184.353 282.09 187.795 282.425" stroke="black" stroke-width="0.5" stroke-linecap="round" stroke-linejoin="round"/>
<path d="M72.9756 308.03C74.3412 307.603 75.7602 307.325 77.0608 306.72C80.7346 305.015 84.0771 302.626 86.9283 299.513C89.1714 297.061 90.7116 293.991 91.6053 290.582C92.3673 287.67 90.5075 284.439 87.8072 283.696C84.592 282.81 81.4581 283.477 78.5063 284.734C75.34 286.082 72.4665 288.155 70.148 291.063C67.7007 294.134 66.2093 297.727 65.6441 301.79C65.2135 304.886 67.5942 307.925 70.4321 308.025C71.2311 308.053 72.033 308.03 72.8335 308.03" stroke="black" stroke-width="0.5" stroke-linecap="round" stroke-linejoin="round"/>
<path d="M158.28 156.321C160.257 155.467 162.343 154.841 164.19 153.714C167.943 151.423 171.062 148.369 172.122 143.36C172.768 140.305 172.613 137.458 170.573 135.032C169.322 133.543 167.988 132.291 166.196 131.651C163.308 130.619 160.448 130.935 157.731 132.05C153.714 133.696 150.584 136.755 148.714 141.142C147.47 144.056 147.211 147.239 148.121 150.399C149.163 154.015 152.073 156.323 155.455 156.323H158.139" stroke="black" stroke-width="0.5" stroke-linecap="round" stroke-linejoin="round"/>
<path d="M22.1321 255.218C27.5564 253.613 31.288 249.32 34.8272 244.8C38.251 240.426 40.8699 235.506 42.1957 229.776C43.5761 223.806 43.6782 217.992 40.4763 212.663C38.1149 208.732 34.6126 206.535 30.7494 204.963C26.9912 203.436 23.0924 203.129 19.1684 203.402C15.9606 203.623 13.5489 206.508 12.8475 209.78C12.4584 211.591 12.3312 213.5 12.2705 215.372C12.1788 218.25 12.2098 221.133 12.2557 224.014C12.3105 227.535 12.3622 231.06 12.5487 234.575C12.7395 238.155 12.9393 241.753 13.432 245.288C13.7383 247.476 14.3287 249.736 15.2756 251.66C16.6753 254.504 19.0619 255.7 21.9916 255.221" stroke="black" stroke-width="0.5" stroke-linecap="round" stroke-linejoin="round"/>
<path d="M22.9786 296.506C23.9196 296.292 24.8577 296.048 25.8047 295.872C30.1592 295.064 33.7457 292.651 36.9772 289.324C41.5463 284.616 45.3015 279.108 49.2595 273.791C52.7883 269.052 56.5036 264.485 59.9571 259.676C64.0659 253.953 66.8491 247.414 68.1319 240.166C68.669 237.13 68.8555 233.995 68.9945 230.892C69.1958 226.364 69.3822 221.819 69.2638 217.293C69.0996 211.032 68.4974 204.777 66.4452 198.904C64.0778 192.125 60.0947 186.839 54.339 183.353C49.4563 180.396 44.1652 178.706 38.9392 176.805C34.1393 175.057 29.3912 173.159 24.9613 170.394C19.7457 167.138 15.2535 162.933 11.5131 157.625C7.72823 152.256 4.7039 146.39 1.93111 140.321C-0.440706 135.131 -2.72078 129.875 -5.30714 124.821C-7.72778 120.094 -10.4147 115.546 -13.7202 111.492C-16.9369 107.547 -20.3622 103.94 -24.3083 100.91C-29.1895 97.1628 -34.531 94.6908 -40.1624 92.9996C-42.6304 92.2577 -45.2256 92.0036 -47.7794 91.6888C-51.113 91.2773 -54.4628 91.0232 -57.8053 90.7068C-60.112 90.4886 -62.429 90.3748 -64.7239 90.0444C-68.6405 89.4817 -72.5511 88.8536 -76.4469 88.1272C-81.2127 87.2403 -85.983 86.3503 -90.7074 85.2296C-95.6197 84.0638 -100.584 83.6242 -105.539 84.0497C-112.4 84.6374 -117.903 88.8567 -119.681 97.2642C-120.464 100.964 -120.742 104.726 -120.464 108.465C-120.103 113.339 -119.412 118.183 -118.811 123.031C-118.287 127.251 -117.771 131.477 -117.102 135.67C-116.459 139.704 -116.08 143.764 -116.311 147.835C-116.71 154.915 -118.305 161.578 -122.794 166.86C-125.668 170.241 -129.269 172.121 -133.359 173.012C-135.766 173.538 -138.164 173.751 -140.567 173.564C-144.249 173.279 -147.906 172.588 -151.587 172.367C-155.031 172.16 -158.545 172.032 -161.749 173.932C-165.619 176.226 -167.748 179.772 -168.306 184.796C-168.946 190.566 -167.547 195.721 -164.796 200.275C-161.11 206.379 -155.904 210.092 -149.337 211.434C-145.413 212.236 -141.511 211.971 -137.605 211.951C-135.062 211.937 -132.521 211.368 -129.978 211.049C-126.588 210.622 -123.201 210.173 -119.807 209.783C-118.922 209.682 -118.018 209.739 -117.124 209.772C-111.523 209.976 -105.915 210.09 -100.319 210.445C-96.8256 210.667 -93.3352 211.147 -89.8699 211.716C-85.3823 212.453 -80.9094 213.324 -76.4513 214.264C-69.6614 215.695 -62.8907 217.235 -56.1111 218.728C-51.2624 219.796 -46.3752 220.68 -41.5754 221.984C-37.3718 223.127 -33.1445 224.162 -29.373 226.974C-25.9048 229.561 -24.1337 233.152 -23.3939 237.463C-22.6585 241.751 -23.1823 246.083 -23.5448 250.424C-23.8482 254.062 -24.0508 257.732 -23.7105 261.467C-23.1024 268.141 -20.4554 273.413 -16.4457 278.123C-11.4816 283.956 -5.52909 287.992 0.938298 291.245C4.95544 293.265 9.08654 294.929 13.3878 295.786C16.4802 296.402 19.6835 296.291 22.838 296.504" stroke="black" stroke-width="0.5" stroke-linecap="round" stroke-linejoin="round"/>
<path d="M19.8689 283.385C20.81 283.119 21.7673 282.907 22.6906 282.575C26.3496 281.259 29.5175 279.01 32.2992 276.027C38.08 269.83 43.2586 263.012 48.2375 256.003C50.8727 252.293 53.2105 248.325 55.023 244.01C56.9421 239.44 58.1998 234.652 58.8952 229.622C59.5003 225.244 59.5847 220.858 59.3687 216.495C58.8567 206.205 55.205 197.889 46.9932 192.635C42.7822 189.942 38.2413 188.196 33.7092 186.411C26.5879 183.607 19.6159 180.516 13.6339 175.077C11.1082 172.781 8.8932 170.198 6.87797 167.363C2.46873 161.159 -0.857469 154.193 -4.13629 147.198C-7.12215 140.826 -9.86533 134.309 -13.4445 128.304C-17.3107 121.814 -21.8901 116.092 -27.6162 111.724C-31.8405 108.503 -36.4969 106.144 -41.5719 105.133C-44.8034 104.489 -48.0571 103.968 -51.3167 103.537C-53.8468 103.2 -56.3991 103.086 -58.9411 102.871C-62.7067 102.553 -66.4768 102.279 -70.2394 101.897C-73.823 101.534 -77.417 101.206 -80.9696 100.592C-85.4365 99.8223 -89.9183 99.894 -94.3911 100.034C-98.9898 100.178 -103.02 102.142 -105.777 106.436C-107.06 108.432 -108.029 110.798 -108.092 113.433C-108.18 117.007 -108.501 120.596 -108.311 124.15C-108.115 127.849 -107.403 131.512 -106.971 135.198C-106.722 137.322 -106.537 139.461 -106.406 141.598C-106.179 145.276 -105.873 148.958 -105.867 152.639C-105.86 157.044 -106.518 161.402 -107.699 165.59C-109.112 170.602 -110.726 175.544 -112.348 180.476C-113.085 182.719 -113.755 184.929 -113.759 187.365C-113.762 189.006 -113.262 190.333 -112.328 191.528C-109.936 194.596 -106.702 196.022 -103.42 197.26C-98.8167 198.996 -94.0893 200.194 -89.3072 201.142C-84.8239 202.031 -80.3674 203.098 -75.8856 203.991C-72.2724 204.712 -68.6429 205.329 -65.0119 205.916C-61.3928 206.502 -57.7707 207.082 -54.1353 207.502C-51.1347 207.848 -48.1133 208.014 -45.0978 208.153C-41.4284 208.323 -37.7457 208.24 -34.0836 208.524C-29.411 208.886 -24.7473 209.285 -20.2285 211.007C-15.2378 212.91 -11.5166 216.391 -9.10924 221.625C-7.96698 224.106 -7.19463 226.787 -6.97121 229.611C-6.75667 232.33 -6.35718 235.064 -6.46075 237.769C-6.58208 240.982 -7.16652 244.172 -7.52607 247.375C-7.74061 249.293 -7.95516 251.211 -8.08388 253.136C-8.23184 255.371 -8.3428 257.616 -8.36648 259.857C-8.4153 264.465 -7.023 268.499 -4.42481 272.02C-2.01452 275.287 0.758267 278.025 4.18653 279.871C6.94452 281.355 9.72176 282.773 12.8067 283.043C15.1075 283.244 17.4187 283.275 19.7254 283.381" stroke="black" stroke-width="0.5" stroke-linecap="round" stroke-linejoin="round"/>
</g>
</svg>
