<svg width="1797" height="665" viewBox="0 0 1797 665" fill="none" xmlns="http://www.w3.org/2000/svg">
<g opacity="0.2">
<path d="M1576.87 -0.992676C1577.72 16.8097 1572.75 33.6369 1564.51 49.7945C1558.72 61.1375 1551.91 72.1021 1546.26 83.4924C1542.37 91.3456 1538.92 99.4898 1536.74 107.783C1535.2 113.653 1536.06 120.022 1539.57 125.659C1544.01 132.798 1548.84 139.775 1553.08 146.998C1556.08 152.093 1557.34 157.592 1557.67 163.403C1558.46 177.479 1554.45 190.806 1550.09 204.135C1546.39 215.46 1542.48 226.742 1539.18 238.15C1535.35 251.407 1531.83 264.745 1528.66 278.129C1526.7 286.39 1525.41 294.778 1524.25 303.155C1523.3 309.967 1522.38 316.86 1522.56 323.694C1522.86 334.87 1526.14 345.532 1534.81 354.266C1540.18 359.67 1547.83 362.265 1555.79 364.055C1565.17 366.166 1574.46 365.595 1583.91 364.124C1595.55 362.312 1607.28 360.857 1619.03 359.645C1625.7 358.957 1632.53 358.56 1639.21 358.939C1648.91 359.485 1657.56 362.858 1664.65 368.564C1676.91 378.422 1683.3 390.875 1686.75 404.759C1688.92 413.474 1688.91 422.244 1688.22 430.92C1687.09 445.025 1681.59 458.319 1673.31 470.459C1664.22 483.8 1652.01 495.008 1636.58 503.411C1625.79 509.28 1614.02 513 1601.45 515.005C1587.34 517.257 1573.06 516.715 1558.86 516.351C1548.89 516.096 1538.96 514.422 1528.99 513.531C1521.84 512.894 1514.66 512.414 1507.48 512.032C1496.51 511.449 1485.42 511.649 1474.58 510.339C1463.32 508.982 1452.32 511.009 1441.17 510.721C1431.4 510.474 1421.51 511.682 1411.77 512.829C1395.98 514.692 1380.3 516.995 1364.72 520.045C1350.62 522.807 1336.74 526.049 1323.07 529.98C1305.86 534.925 1288.8 540.249 1273.89 549.39C1265.01 554.835 1257.99 561.803 1254.7 570.705C1251.12 580.37 1248.51 590.305 1245.81 600.192C1241.42 616.288 1234.3 631.335 1221.98 644.218C1213.37 653.21 1203.14 660.856 1192.22 667.843C1178.12 676.868 1162.7 684.051 1146.88 690.463C1133.01 696.086 1118.77 701.1 1103.96 704.881C1091.8 707.986 1079.62 710.664 1067.07 712.403C1055.64 713.986 1044.17 714.292 1032.8 713.604C1016.74 712.629 1002.35 707.687 990.587 697.745C978.952 687.909 970.226 676.18 960.247 665.255C953.379 657.733 945.936 650.561 938.322 643.574C927.272 633.435 915.468 623.879 904.675 613.555C894.849 604.155 888.988 592.783 886.655 580.37C884.245 567.52 884.627 554.5 884.838 541.526C884.935 535.547 885.34 529.568 885.694 523.593C886.232 514.499 886.619 505.394 887.507 496.322C888.371 487.457 889.328 478.567 891.053 469.804C893.993 454.898 899.196 440.502 909.496 428.001C919.3 416.102 932.576 407.644 948.466 402.135C965.671 396.167 983.852 393.062 1001.58 388.619C1029.18 381.698 1054.61 371.315 1074.05 352.454C1083.47 343.312 1091.45 333.309 1098.26 322.595C1110.42 303.479 1122.4 284.261 1135.29 265.505C1141.06 257.11 1148.21 249.22 1155.88 241.978C1170.68 228.012 1187.12 215.577 1206.65 206.326C1221.39 199.339 1237.08 194.463 1253.27 190.813C1261.97 188.848 1271.08 188.185 1280.01 186.952C1289.09 185.696 1298.13 184.153 1307.25 183.284C1321.09 181.963 1334.67 179.634 1348.08 176.504C1362.45 173.152 1376.3 168.673 1388.84 161.82C1395.11 158.392 1401.1 154.349 1406.34 149.844C1411.23 145.637 1414.21 140.164 1413.47 133.897C1412.9 129.083 1410.36 124.818 1407.32 120.833C1401.58 113.3 1395.8 105.782 1389.76 98.4163C1379.29 85.6395 1372.21 71.5307 1368 56.5195C1364.84 45.3075 1364.24 33.6696 1365.39 22.192C1366.17 14.4007 1368.72 6.73675 1370.48 -0.985398" stroke="black" stroke-width="0.5" stroke-linecap="round" stroke-linejoin="round"/>
<path d="M145.354 820.996C146.669 814.645 147.967 808.288 149.31 801.941C150.897 794.467 152.498 786.992 154.14 779.525C155.865 771.675 157.825 763.855 159.343 755.976C160.512 749.913 161.124 743.774 162.048 737.679C162.876 732.195 163.888 726.729 164.638 721.234C165.112 717.766 165.434 714.265 165.521 710.775C165.885 696.204 166.414 681.63 166.331 667.062C166.276 657.721 165.328 648.376 164.652 639.041C164.192 632.684 163.465 626.337 162.931 619.983C162.301 612.512 161.703 605.041 161.179 597.567C160.806 592.217 160.484 586.86 160.305 581.5C159.946 570.914 159.256 560.32 159.541 549.745C159.794 540.269 161.239 530.815 162.025 521.346C163.005 509.559 165.365 497.954 169.17 486.622C171.723 479.023 174.856 471.527 178.361 464.205C187.001 446.159 201.519 431.497 216.466 417.082C233.124 401.023 247.918 383.806 260.427 365.178C271.56 348.598 281.989 331.687 294.529 315.777C304.379 303.281 316.294 292.502 329.428 282.673C339.677 275.001 351.647 269.543 364.929 266.57C379.066 263.407 391.878 265.831 402.638 274.412C409.731 280.071 416.512 286.02 423.303 291.949C437.292 304.169 452.409 315.235 469.959 323.55C475.061 325.97 481.18 327.226 487.017 328.03C493.481 328.922 498.61 326.083 502.838 321.855C509.743 314.94 514.164 306.756 519.473 299.03C529.7 284.15 542.065 271.155 561.184 263.888C569.208 260.838 577.419 258.542 586.224 257.923C592.379 257.49 598.53 256.446 604.667 256.522C637.187 256.937 666.068 265.667 690.781 284.044C702.977 293.113 713.935 302.964 720.969 315.501C724.589 321.953 726.981 328.685 727.777 336.011C730.142 357.747 723.099 377.151 709.16 395.044C702.751 403.272 694.25 409.397 682.804 411.773C677.716 412.828 672.541 413.196 667.002 412.854C648.628 411.715 632.554 405.015 616.099 399.142C593.056 390.914 570.431 381.761 546.256 376.041C540.929 374.782 535.487 373.526 530.012 373.115C519.312 372.307 511.275 376.597 505.925 384.247C497.815 395.852 490.302 407.755 482.081 419.302C475.733 428.218 468.855 436.875 461.923 445.474C447.054 463.921 430.484 481.414 419.342 501.902C412.832 513.875 407.919 526.23 405.237 539.265C403.503 547.696 401.823 556.081 401.75 564.684C401.672 573.65 400.77 582.628 401.051 591.584C401.299 599.568 402.684 607.527 403.553 615.5C404.151 620.98 404.505 626.486 405.366 631.934C406.626 639.929 408.02 647.917 409.768 655.843C411.535 663.86 413.789 671.797 415.859 679.763C417.446 685.869 419.061 691.972 420.69 698.071C424.048 710.651 427.415 723.232 430.787 735.808C433.124 744.528 435.673 753.21 437.738 761.977C439.017 767.388 439.634 772.916 440.43 778.407C441.658 786.872 443.07 795.326 443.857 803.819C444.381 809.514 443.958 815.271 443.958 820.999" stroke="black" stroke-width="0.5" stroke-linecap="round" stroke-linejoin="round"/>
<path d="M905.46 820.994C909.996 815.513 914.923 810.233 918.985 804.509C926.028 794.581 932.464 784.341 939.291 774.301C945.138 765.701 950.235 756.349 961.299 751.626C967.326 749.053 973.973 747.229 980.579 746.021C990.116 744.278 999.896 743.55 1009.52 742.124C1023.74 740.017 1037.9 737.528 1052.13 735.468C1070.93 732.75 1089.1 728.102 1106.98 722.658C1120.59 718.517 1134.09 714.052 1147.37 709.186C1159.14 704.87 1170.62 699.94 1182.08 695.049C1205.71 684.972 1227.31 672.388 1245.72 656.176C1259.46 644.072 1271.2 630.699 1280.13 615.538C1286 605.582 1292.53 595.865 1299.43 586.396C1308.81 573.558 1321.93 563.939 1337.56 556.854C1356.07 548.455 1375.81 542.986 1396.39 539.663C1406.32 538.062 1416.25 536.362 1426.26 535.253C1434.69 534.317 1443.22 534.019 1451.72 533.706C1462.54 533.306 1473.39 532.88 1484.21 533.004C1494.9 533.127 1505.6 533.793 1516.27 534.456C1525.36 535.02 1534.41 536.009 1543.5 536.632C1552.56 537.254 1561.65 537.64 1570.72 538.164C1574.09 538.36 1577.48 539.026 1580.81 538.837C1596.08 537.971 1611.35 537.305 1626.07 532.985C1645.86 527.181 1662.16 517.301 1676.17 504.204C1687.32 493.785 1695.91 482.045 1702.84 469.381C1708.49 459.032 1712.46 448.238 1714.91 436.924C1717.34 425.694 1717.05 414.42 1716.17 403.292C1715.39 393.364 1712.07 383.546 1709.41 373.768C1706.12 361.686 1700.66 350.223 1693.58 339.419C1686.68 328.894 1678.61 319.058 1664.66 314.407C1660.88 313.148 1656.83 312.122 1652.82 311.827C1642.59 311.081 1632.54 312.518 1622.52 314.294C1613.11 315.961 1603.73 318.137 1593.99 317.686C1580.99 317.082 1571.62 312.231 1568.07 300.153C1564.89 289.356 1567.31 278.89 1570.24 268.384C1575.87 248.27 1588.63 231.461 1603.68 215.73C1613.76 205.191 1621.38 193.538 1625.91 180.554C1627.35 176.413 1627.27 171.875 1627.78 167.508C1628.16 164.277 1628.82 161.012 1628.6 157.799C1627.84 146.612 1626.78 135.48 1623.51 124.519C1619.85 112.281 1616.73 99.9229 1613.86 87.5318C1612.61 82.1641 1612.51 76.5963 1612.02 71.1086C1611.62 66.7562 1611.13 62.3893 1611.18 58.0333C1611.27 49.8126 1611.66 41.5919 1612.02 33.3748C1612.2 29.0116 1612.95 24.6447 1612.79 20.2996C1612.53 13.5636 1611.73 6.84588 1611.07 0.124479C1611.03 -0.275821 1610.24 -0.625174 1609.8 -1" stroke="black" stroke-width="0.5" stroke-linecap="round" stroke-linejoin="round"/>
<path d="M1685.78 -0.992676C1687.82 8.97115 1690.03 18.9131 1691.88 28.9024C1693.55 37.9638 1694.78 47.087 1696.33 56.1701C1697.7 64.1543 1699.3 72.1057 1700.69 80.0862C1701.94 87.2989 1702.82 94.5625 1704.27 101.746C1706.41 112.361 1708.58 122.987 1711.33 133.497C1714.15 144.283 1717.36 155.015 1720.99 165.623C1724.69 176.435 1728.74 187.177 1733.28 197.753C1740.59 214.783 1748.75 231.552 1755.91 248.627C1760.64 259.894 1764.74 271.397 1768.17 282.998C1770.99 292.547 1772.32 302.409 1774.5 312.104C1777.62 325.943 1780.88 339.761 1784.14 353.578C1786.73 364.547 1789.73 375.453 1791.92 386.476C1793.52 394.489 1794.07 402.651 1795.13 410.745C1795.26 411.756 1795.7 412.739 1795.99 413.736" stroke="black" stroke-width="0.5" stroke-linecap="round" stroke-linejoin="round"/>
<path d="M1795.78 431.301C1795.41 433.79 1795.13 436.294 1794.66 438.772C1793.1 446.996 1792.13 455.359 1789.72 463.405C1784.14 482.052 1777.5 500.473 1771.98 519.134C1768.64 530.44 1766.5 542.009 1763.97 553.483C1760.95 567.17 1758.53 580.962 1755.06 594.558C1750.28 613.233 1743.42 631.509 1729.48 646.742C1718.14 659.13 1704.17 669.166 1686.32 675.123C1675.48 678.741 1664.52 681.685 1653.26 683.748C1645.53 685.164 1637.48 685.331 1629.58 686.124C1605.63 688.537 1581.58 687.434 1557.56 687.558C1545.56 687.62 1533.56 687.14 1521.55 686.856C1512.77 686.648 1503.99 686.434 1495.21 686.099C1483.93 685.67 1472.66 685.167 1461.4 684.607C1452.9 684.185 1444.42 683.515 1435.92 683.151C1422.17 682.562 1408.41 681.867 1394.64 681.707C1381.19 681.55 1367.95 683.617 1355.16 686.965C1337.16 691.678 1320.35 698.716 1304.11 706.933C1289.83 714.164 1275.17 720.94 1260.21 727.104C1239.53 735.634 1218.56 743.691 1197.43 751.399C1183.36 756.537 1168.8 760.74 1154.45 765.318C1131.33 772.687 1108.09 779.791 1085.11 787.462C1072.87 791.549 1060.9 796.312 1049.1 801.272C1037.18 806.287 1025.71 812.041 1015.22 819.1C1013.96 819.945 1012.32 820.378 1010.86 821" stroke="black" stroke-width="0.5" stroke-linecap="round" stroke-linejoin="round"/>
<path d="M974.845 820.992C981.433 816.385 987.749 811.458 994.668 807.244C1004.96 800.977 1015.4 794.805 1026.28 789.321C1047.52 778.622 1070.82 771.857 1093.83 764.532C1120.26 756.118 1146.65 747.603 1172.84 738.701C1185.54 734.385 1197.68 728.894 1210.23 724.262C1236.29 714.658 1260.15 701.856 1283.53 688.34C1297.2 680.44 1310.85 672.51 1324.36 664.417C1341.75 653.998 1360.94 647.066 1381.49 642.87C1388.2 641.501 1395.21 641.086 1402.11 640.577C1411.46 639.889 1420.85 639.631 1430.2 639.009C1439.58 638.386 1449 637.906 1458.29 636.709C1472.88 634.827 1487.13 631.774 1500.92 627.131C1515.63 622.181 1530.48 617.472 1546.15 615.194C1552.5 614.27 1559 613.997 1565.45 613.659C1576.86 613.058 1588.33 612.989 1599.69 612.054C1617.83 610.565 1635.37 607.057 1651.54 599.463C1662.47 594.328 1672.6 588.331 1681.87 581.176C1691.13 574.033 1699.91 566.511 1707.2 557.904C1713.63 550.32 1719.74 542.485 1725.17 534.359C1730.98 525.655 1736.06 516.575 1741.05 507.499C1750.79 489.78 1758.87 471.483 1764.63 452.556C1766.87 445.194 1767.4 437.421 1768.24 429.797C1768.92 423.6 1769.49 417.319 1769.06 411.129C1768.45 402.632 1767.09 394.152 1765.62 385.721C1763.82 375.353 1761.73 365.018 1759.49 354.708C1757.99 347.816 1755.9 341.022 1754.3 334.148C1752.41 326.076 1750.75 317.961 1749 309.868C1745.78 294.998 1741.51 280.351 1735.33 266.169C1729.87 253.636 1724.05 241.22 1718.24 228.796C1710.4 211.987 1703.51 194.909 1698.99 177.219C1694.67 160.323 1690.66 143.368 1686.68 126.406C1684.44 116.85 1682.51 107.239 1680.51 97.6395C1678.7 88.9311 1676.8 80.2301 1675.29 71.4781C1674.11 64.6657 1673.54 57.7805 1672.58 50.939C1671.17 40.8442 1669.84 30.7421 1668.15 20.68C1666.99 13.7912 1665.29 6.97156 1663.77 0.130071C1663.67 -0.299342 1662.94 -0.623221 1662.5 -0.998047" stroke="black" stroke-width="0.5" stroke-linecap="round" stroke-linejoin="round"/>
<path d="M938.834 820.99C943.811 816.383 948.83 811.809 953.757 807.158C967.715 793.985 983.296 782.562 1001.6 773.868C1015.86 767.092 1031.1 762.379 1046.44 757.889C1063.2 752.98 1080.21 748.685 1096.88 743.572C1116.93 737.426 1136.94 731.13 1156.57 724.092C1173.57 717.997 1190.28 711.206 1206.63 703.932C1225.38 695.587 1243.12 685.791 1259.41 674.179C1280.68 659.022 1299.49 641.802 1318.32 624.538C1333.7 610.436 1349.7 596.728 1369.65 587.168C1382.8 580.865 1396.62 575.701 1411.33 572.557C1422.41 570.188 1433.54 567.928 1444.7 565.85C1451.37 564.609 1458.16 563.823 1464.89 562.815C1484.97 559.806 1505.26 560.406 1525.49 560.683C1536.62 560.836 1547.74 562.073 1558.86 562.812C1559.73 562.87 1560.62 562.819 1561.5 562.819C1573.06 562.819 1584.64 563.139 1596.18 562.757C1625.78 561.778 1652.42 553.965 1675.26 537.444C1692.02 525.314 1704.96 510.653 1715.59 494.43C1723.67 482.089 1730.35 469.229 1735.03 455.608C1737.98 447.009 1740.63 438.409 1741.07 429.432C1741.48 421.091 1742.24 412.725 1741.81 404.406C1741.44 397.153 1739.85 389.919 1738.4 382.739C1736.59 373.739 1734.74 364.718 1732.23 355.846C1728.32 342.075 1723.92 328.407 1719.55 314.735C1715.13 300.899 1708.54 287.777 1700.66 275.142C1694.54 265.345 1687.86 255.804 1681.88 245.949C1676.36 236.84 1673.06 227.047 1671.73 216.836C1670.47 207.131 1669.36 197.411 1668.2 187.694C1667.31 180.223 1666.71 172.716 1665.5 165.285C1663.7 154.295 1661.57 143.341 1659.39 132.402C1656.87 119.807 1654.02 107.256 1651.55 94.6574C1649.6 84.7227 1647.79 74.7589 1646.3 64.7659C1645.1 56.7053 1644.55 48.5756 1643.59 40.4896C1642.5 31.3918 1641.35 22.2941 1640.06 13.2182C1639.39 8.52745 1638.34 3.87305 1637.46 -0.795898" stroke="black" stroke-width="0.5" stroke-linecap="round" stroke-linejoin="round"/>
<path d="M572.172 820.991C573.929 815.263 574.905 809.251 577.596 803.862C583.99 791.081 593.03 779.626 604.696 769.829C617.297 759.25 631.227 750.08 646.845 742.94C664.897 734.69 683.238 726.895 701.24 718.569C720.386 709.715 738.889 699.995 755.303 687.626C770.691 676.032 784.791 663.371 798.275 650.212C805.244 643.411 812.522 636.711 818.351 629.226C827.97 616.871 834.595 603.123 840.879 589.33C846.749 576.444 851.975 563.376 854.97 549.737C856.695 541.884 858.774 534.082 860.154 526.189C861.672 517.513 862.629 508.768 863.729 500.042C864.419 494.572 864.787 489.07 865.537 483.608C866.581 475.998 868.039 468.429 868.973 460.809C870.307 449.884 873.27 439.331 877.783 429.047C889.183 403.078 909.926 385.734 941.93 379.042C957.792 375.727 973.861 373.147 989.769 369.984C1012.18 365.526 1033.06 358.288 1050.84 345.384C1064.87 335.198 1075.26 322.64 1084.15 309.099C1091.94 297.228 1099.22 285.11 1107.07 273.272C1118.42 256.161 1131.12 239.883 1146.89 225.352C1161.07 212.281 1176.71 200.781 1194.46 191.494C1211.43 182.611 1229.54 175.708 1248.85 171.228C1268.93 166.574 1289.09 162.138 1308.97 156.926C1323.18 153.204 1336.43 147.629 1345 136.486C1349.09 131.173 1351.27 125.292 1352.11 118.942C1353.54 107.992 1350.55 97.4601 1348.6 86.7976C1347.11 78.6206 1345.9 70.3853 1345.11 62.1391C1344.19 52.572 1343.1 42.9429 1343.46 33.3794C1343.89 21.8581 1345.43 10.3294 1349.42 -0.813477" stroke="black" stroke-width="0.5" stroke-linecap="round" stroke-linejoin="round"/>
<path d="M165.55 820.992C166.576 816.134 167.5 811.261 168.646 806.425C171.066 796.199 173.591 785.995 176.094 775.784C177.833 768.68 179.779 761.613 181.301 754.477C182.465 749.04 183.073 743.52 184.002 738.046C185.124 731.441 186.371 724.847 187.484 718.239C187.903 715.764 188.193 713.264 188.363 710.768C188.726 705.415 188.956 700.058 189.265 694.701C189.541 689.967 190.12 685.232 190.079 680.505C190.005 672.284 189.683 664.06 189.223 655.847C188.823 648.739 188.124 641.643 187.498 634.547C186.96 628.441 186.251 622.345 185.773 616.239C185.106 607.774 184.448 599.306 184.034 590.831C183.583 581.62 182.843 572.38 183.28 563.188C183.721 553.948 185.538 544.756 186.61 535.531C187.622 526.783 190.401 518.435 193.594 510.108C200.025 493.336 210.799 478.863 224.844 466.043C234.022 457.665 243.599 449.587 252.418 440.944C263.721 429.866 273.097 417.614 281.562 404.8C291.462 389.815 301.601 374.923 312.347 360.371C319.547 350.625 328.95 342.23 340.823 336.484C353.626 330.286 367.552 330.188 381.1 334.293C391.28 337.375 400.495 342.23 408.904 348.267C420.069 356.28 430.71 364.563 437.804 375.626C441.696 381.692 444.046 388.061 444.957 395.04C447.349 413.356 438.65 428.764 428.626 444.015C417.327 461.21 403.347 477.054 393.801 495.148C387.945 506.251 383.46 517.616 380.653 529.545C378.096 540.422 376.315 551.321 376.283 562.435C376.265 568.661 375.381 574.895 375.542 581.114C375.763 589.466 376.214 597.843 377.304 606.14C378.993 619.001 380.925 631.861 383.473 644.616C385.705 655.781 388.874 666.811 391.713 677.885C395.324 691.968 399.105 706.019 402.648 720.113C404.865 728.927 407.009 737.759 408.739 746.645C409.792 752.06 410.206 757.585 410.533 763.076C411.016 771.162 411.761 779.288 411.315 787.352C410.694 798.575 409.231 809.776 405.311 820.61" stroke="black" stroke-width="0.5" stroke-linecap="round" stroke-linejoin="round"/>
<path d="M529.142 820.618C536.663 806.993 545.349 793.929 556.426 782.174C570.241 767.509 585.685 754.106 603.875 743.378C618.849 734.546 634.37 726.362 649.947 718.312C665.372 710.342 680.884 702.427 694.143 691.99C707.562 681.43 716.933 668.322 724.206 654.016C731.171 640.319 737.184 626.199 746.946 613.63C755.061 603.186 765.278 594.426 776.811 586.733C788.179 579.153 799.928 571.915 809.267 562.421C823.174 548.283 831.841 532.012 835.636 513.871C837.458 505.163 839.321 496.458 840.844 487.71C841.552 483.652 841.386 479.489 841.819 475.392C842.61 467.913 843.535 460.442 844.436 452.971C844.993 448.361 845.338 443.717 846.244 439.154C847.785 431.402 849.299 423.618 851.549 416.002C854.934 404.531 860.188 393.731 868.059 383.803C879.689 369.138 895.289 359.578 915.586 355.91C923.806 354.425 932.234 353.701 940.602 352.875C949.803 351.968 959.073 351.546 968.255 350.553C985.635 348.675 1002.85 346.215 1018.78 339.421C1034.1 332.889 1046.7 323.82 1057.05 312.168C1068.53 299.234 1077.68 285.158 1086.89 271.046C1098.44 253.338 1110.98 236.078 1126.45 220.652C1146.42 200.746 1169.41 183.639 1196.2 170.556C1212.27 162.71 1229.37 156.68 1246.66 151.08C1262.74 145.88 1279.13 141.414 1293.7 133.216C1308.61 124.831 1316.58 113.186 1319.68 98.4149C1322.39 85.4925 1321.94 72.5301 1322.26 59.5421C1322.51 49.1999 1322.78 38.8139 1324.11 28.5444C1325.39 18.6352 1328.04 8.84964 1330.09 -0.986816" stroke="black" stroke-width="0.5" stroke-linecap="round" stroke-linejoin="round"/>
<path d="M1309.01 -0.992676C1307.7 4.86262 1306.32 10.707 1305.08 16.5696C1304.24 20.5398 1303.54 24.5319 1302.88 28.524C1301.67 35.7439 1300.53 42.9712 1299.35 50.1911C1298.19 57.291 1297.21 64.42 1295.8 71.4834C1291.46 93.1287 1279.88 110.895 1256.71 121.867C1241.27 129.178 1225.49 135.983 1209.75 142.824C1195 149.233 1181.03 156.631 1167.57 164.837C1155.77 172.031 1144.78 179.997 1134.25 188.447C1114.1 204.634 1097.3 223.161 1082.43 242.986C1074.5 253.558 1066.76 264.235 1058.68 274.723C1048.33 288.144 1037.43 301.11 1021 309.927C1010.51 315.557 999.317 318.949 987.163 320.812C977.783 322.249 968.407 322.537 959.041 322.075C949.343 321.598 939.719 320.128 930.049 319.225C923.333 318.599 916.547 318.436 909.858 317.661C893.362 315.746 876.786 316.238 860.23 316.249C854.815 316.252 849.401 316.769 843.981 316.947C823.137 317.639 804.248 312.748 787.342 302.376C772.032 292.984 756.883 283.413 742.976 272.499C732.317 264.133 721.166 256.178 711.045 247.361C700.119 237.841 690.099 227.564 679.781 217.546C677.922 215.741 676.321 213.684 674.95 211.577C669.913 203.833 669.895 200.267 678.902 193.695C683.093 190.634 687.601 187.876 692.05 185.078C711.537 172.818 727.551 158.123 737.773 139.134C742.741 129.902 746.15 120.436 747.981 110.363C749.656 101.127 750.014 91.9024 749.426 82.6991C748.598 69.7112 745.17 57.0253 740.735 44.5942C735.086 28.7714 726.769 13.8766 717.95 -0.81436" stroke="black" stroke-width="0.5" stroke-linecap="round" stroke-linejoin="round"/>
<path d="M372.376 820.992C374.281 816.756 376.595 812.619 378.002 808.27C381.402 797.782 382.75 787.061 383.698 776.177C384.337 768.841 383.56 761.642 383.058 754.499C382.216 742.526 379.732 730.605 375.863 718.996C370.251 702.158 364.197 685.425 358.846 668.529C354.338 654.3 350.258 639.962 346.596 625.559C344.7 618.095 343.928 610.405 343.007 602.785C341.913 593.713 341.153 584.608 340.339 575.514C339.939 571.038 339.723 566.547 339.447 562.064C339.139 557.082 338.485 552.093 338.642 547.122C338.968 536.903 339.171 526.644 340.459 516.495C342.133 503.307 345.317 490.246 352.742 478.43C358.092 469.915 364.579 461.912 370.628 453.717C376.677 445.518 383.008 437.461 386.002 427.934C388.933 418.618 389.016 409.921 380.799 402.086C375.348 396.885 363.976 396.671 357.894 398.818C348.436 402.162 342.419 408.709 337.777 416.02C331.244 426.304 325.209 436.828 319.274 447.374C309.264 465.169 294.018 478.918 275.382 490.396C258.899 500.549 243.097 511.451 232.295 526.572C225.763 535.713 221.595 545.637 219.124 556.088C215.002 573.527 216.659 591.191 216.585 608.768C216.553 616.239 217.257 623.754 218.319 631.177C220.569 646.847 220.109 662.564 219.865 678.264C219.759 685.123 218.292 691.972 217.344 698.813C216.548 704.552 215.729 710.291 214.694 715.997C213.36 723.363 212.132 730.761 210.26 738.032C207.012 750.66 203.354 763.214 199.78 775.78C196.624 786.879 193.284 797.939 190.17 809.045C189.066 812.983 188.376 817.007 187.497 820.992" stroke="black" stroke-width="0.5" stroke-linecap="round" stroke-linejoin="round"/>
<path d="M14.9258 820.992C18.2932 816.633 22.4428 812.568 24.8626 807.855C29.8033 798.219 34.3531 788.382 38.0656 778.364C42.9972 765.059 47.0317 751.511 51.356 738.043C53.946 729.971 56.6004 721.903 58.781 713.748C61.7988 702.46 64.5866 691.124 67.126 679.748C69.1732 670.578 70.8201 661.342 72.3935 652.102C73.0421 648.285 73.1571 644.391 73.3089 640.526C73.9438 624.587 74.7304 608.648 75.0019 592.701C75.1675 582.868 74.367 573.025 74.2336 563.185C73.8656 535.91 73.5619 508.635 73.3779 481.36C73.3365 475.508 73.838 469.649 74.2244 463.801C74.735 456.075 75.1169 448.335 76.0277 440.642C77.233 430.409 78.9168 420.216 80.3475 409.997C82.7719 392.69 87.3584 375.83 93.3481 359.137C98.5833 344.544 104.904 330.352 111.515 316.21C121.815 294.172 133.072 272.512 146.202 251.569C154.022 239.094 163.09 227.304 172.534 215.688C187.287 197.543 202.689 179.748 213.882 159.679C221.979 145.166 228.001 130.071 232.283 114.452C234.671 105.744 237.215 97.0572 239.258 88.2906C242.124 75.9978 244.111 63.5521 247.336 51.3321C251.559 35.3273 256.256 19.3881 263.92 4.2386C264.826 2.45181 265.953 0.745077 266.979 -0.998047" stroke="black" stroke-width="0.5" stroke-linecap="round" stroke-linejoin="round"/>
<path d="M73.332 820.993C74.5051 815.764 75.5908 810.516 76.8651 805.305C78.8433 797.197 81.0974 789.137 82.956 781.011C85.1734 771.323 87.2435 761.607 89.0929 751.869C90.5052 744.431 91.4528 736.927 92.6627 729.459C94.0935 720.613 95.8232 711.795 96.9733 702.923C97.9209 695.609 97.9669 688.21 98.8548 680.888C101.238 661.241 100.488 641.539 100.511 621.852C100.52 614.253 100.005 606.655 99.6737 599.06C99.4299 593.456 99.0802 587.852 98.8088 582.247C98.2108 569.794 97.3781 557.341 97.1067 544.885C96.6144 522.344 96.2648 499.8 96.2694 477.26C96.2694 467.918 97.1113 458.562 97.9946 449.242C98.8594 440.13 99.8761 431.003 101.528 421.975C104.407 406.243 108.295 390.649 114.689 375.656C122.133 358.218 131.494 341.522 142.664 325.539C155.471 307.216 167.869 288.689 180.484 270.272C191.58 254.067 203.053 238.04 213.763 221.654C224.997 204.463 235.223 186.787 241.816 167.857C244.691 159.596 246.375 151.001 248.017 142.474C249.852 132.936 251.145 123.318 252.456 113.715C253.51 106.011 254.043 98.2521 255.17 90.559C257.052 77.7131 258.749 64.827 261.386 52.0866C265.149 33.9057 270.881 16.1433 279.713 -0.800293" stroke="black" stroke-width="0.5" stroke-linecap="round" stroke-linejoin="round"/>
<path d="M123.395 820.995C124.711 814.393 126.013 807.792 127.352 801.195C128.644 794.841 129.955 788.487 131.303 782.14C132.734 775.412 134.33 768.705 135.646 761.958C136.442 757.878 136.819 753.741 137.449 749.636C138.595 742.161 139.832 734.694 140.932 727.215C141.369 724.242 141.617 721.244 141.815 718.249C142.169 712.896 142.537 707.543 142.685 702.182C143.048 688.983 143.605 675.777 143.49 662.578C143.398 652.239 142.478 641.901 141.811 631.566C141.328 624.087 140.61 616.624 140.085 609.145C139.446 600.055 138.825 590.964 138.342 581.87C137.937 574.279 137.744 566.677 137.436 559.079C137.16 552.23 136.608 545.377 136.626 538.529C136.649 530.308 137.017 522.084 137.482 513.87C137.868 507.011 138.305 500.136 139.262 493.324C141.351 478.393 143.49 463.429 148.063 448.872C152.373 435.149 158.455 422.023 166.749 409.567C177.022 394.144 190.689 380.931 203.34 367.047C215.357 353.859 226.903 340.402 236.647 325.911C256.139 296.908 276.385 268.312 298.577 240.727C306.402 231.004 313.156 220.774 317.034 209.355C320.194 200.035 320.691 190.654 319.394 180.948C317.259 164.994 310.198 150.256 305.197 135.005C301.65 124.178 297.62 113.436 294.842 102.464C292.965 95.051 292.767 87.3143 292.058 79.705C291.548 74.2391 290.899 68.7259 291.235 63.2709C292.44 43.5397 296.401 24.2708 306.062 6.09715C307.276 3.81181 308.408 1.49007 309.581 -0.813477" stroke="black" stroke-width="0.5" stroke-linecap="round" stroke-linejoin="round"/>
<path d="M100.562 820.619C101.735 816.012 102.954 811.412 104.063 806.794C105.861 799.33 107.761 791.878 109.293 784.37C110.705 777.43 111.607 770.418 112.881 763.456C113.935 757.71 115.343 752.011 116.327 746.262C117.132 741.556 117.509 736.8 118.135 732.069C118.981 725.715 119.952 719.372 120.734 713.011C121.176 709.412 121.544 705.791 121.608 702.178C121.967 681.628 122.459 661.078 122.423 640.528C122.404 630.189 121.374 619.854 120.757 609.515C120.201 600.174 119.566 590.836 119.018 581.491C118.673 575.639 118.25 569.788 118.163 563.929C117.799 539.645 117.381 515.358 117.348 491.07C117.339 483.101 118.153 475.106 119.078 467.165C120.26 457.052 121.452 446.91 123.513 436.914C126.632 421.804 131.122 406.938 138.367 392.822C146.124 377.706 155.996 363.619 167.258 350.183C179.352 335.754 191.423 321.292 202.754 306.434C212.281 293.937 220.925 280.938 229.616 267.994C240.5 251.778 251.325 235.519 261.616 219.027C268.185 208.502 272.298 197.065 275.205 185.423C276.539 180.077 276.498 174.484 277.091 169.007C277.363 166.515 278.016 164.015 277.905 161.536C277.473 152.067 276.847 142.602 276.194 133.141C275.693 125.913 274.814 118.701 274.506 111.466C274.018 100.014 273.328 88.5362 273.747 77.0985C274.083 67.8589 275.955 58.6666 277.082 49.4451C278.637 36.7083 282.681 24.4846 287.658 12.4647C289.535 7.93037 291.73 3.49068 293.777 -0.992676" stroke="black" stroke-width="0.5" stroke-linecap="round" stroke-linejoin="round"/>
<path d="M1288.81 -0.992676C1287.5 4.36406 1286.12 9.70625 1284.87 15.0775C1283.2 22.2902 1281.78 29.5466 1280 36.741C1274.86 57.5166 1269.9 78.3686 1251.94 94.6681C1243.84 102.015 1234.3 107.732 1224.28 112.991C1204.02 123.621 1183.25 133.65 1163.83 145.299C1142.36 158.17 1122.71 173.025 1105.15 189.856C1089.14 205.198 1075.06 221.705 1061.31 238.485C1051.28 250.716 1041.46 263.107 1028.86 273.638C1016.76 283.755 1002.5 290.597 985.787 292.9C977.911 293.985 969.819 294.505 961.64 293.18C952.241 291.659 942.608 291.241 933.136 290.014C925.624 289.043 918.226 287.409 910.723 286.383C903.593 285.407 896.384 284.858 889.216 284.086C882.481 283.362 875.733 282.693 869.021 281.823C862.267 280.949 855.551 279.847 848.816 278.861C832.968 276.542 817.455 273.162 802.73 267.612C787.59 261.906 773.954 254.151 762.361 244.067C752.383 235.388 745.602 225.053 742.566 213.095C740.436 204.71 742.005 196.468 744.816 188.455C749.687 174.564 754.867 160.754 760.158 146.976C763.581 138.064 765.559 128.945 767.256 119.705C769.133 109.497 769.326 99.2606 768.724 89.0602C768.25 81.0542 766.585 73.0592 764.869 65.1514C762.044 52.1526 757.237 39.6123 751.293 27.4177C746.55 17.6868 741.927 7.88306 735.086 -0.992676" stroke="black" stroke-width="0.5" stroke-linecap="round" stroke-linejoin="round"/>
<path d="M1265.1 -0.992676C1260.12 14.5753 1255.42 30.2125 1250.09 45.6896C1245.28 59.6491 1236.56 72.0184 1224.51 82.1641C1215.82 89.4751 1205.6 95.5269 1195.66 101.691C1183.6 109.184 1171.06 116.12 1158.85 123.442C1136.51 136.827 1116.22 152.228 1097.36 169.011C1081.51 183.123 1067.58 198.575 1053.8 214.165C1045.31 223.783 1036.62 233.379 1026.93 242.106C1016.86 251.174 1004.75 258.442 990.588 262.255C983.467 264.173 975.628 264.075 968.277 265.494C960.267 267.041 952.438 265.349 944.543 265.261C936.921 265.178 929.321 263.882 921.707 263.176C918.202 262.852 914.669 262.761 911.172 262.397C902.091 261.455 893.006 260.505 883.948 259.402C874.563 258.26 865.173 257.095 855.848 255.647C844.821 253.936 834.116 251.243 823.77 247.492C812.187 243.292 801.417 238.092 792.598 230.286C782.422 221.276 776.819 210.598 774.896 198.167C773.438 188.742 774.882 179.666 776.778 170.499C778.912 160.175 780.826 149.818 782.965 139.494C784.916 130.095 786.599 120.688 786.512 111.095C786.475 107.11 787.611 103.085 787.23 99.1478C786.135 87.8775 785.187 76.64 782.303 65.468C777.987 48.7537 771.662 32.7599 763.179 17.3156C759.853 11.2601 756.453 5.2338 753.086 -0.807082" stroke="black" stroke-width="0.5" stroke-linecap="round" stroke-linejoin="round"/>
<path d="M0.436523 633.055C4.82987 631.436 9.74305 630.424 13.5061 628.077C22.4078 622.516 26.5712 614.121 29.313 605.383C31.857 597.276 33.7891 589.008 35.4683 580.732C36.5677 575.328 36.7057 569.786 37.3268 564.309C38.1779 556.834 39.0979 549.363 39.9444 541.889C40.2986 538.781 40.5194 535.662 40.8369 532.551C41.7063 523.955 42.493 515.356 43.4959 506.771C44.5448 497.794 45.8237 488.834 46.9783 479.868C48.1652 470.653 49.3245 461.436 50.493 452.218C51.6661 443 52.6138 433.76 54.0629 424.575C55.8754 413.09 58.2998 401.675 60.1078 390.19C62.7622 373.355 67.6616 356.936 72.5195 340.516C75.3442 330.967 78.7392 321.531 82.1435 312.113C87.8755 296.265 93.5432 280.391 99.7491 264.674C106.622 247.279 116.43 231.19 129.394 216.365C140.172 204.043 152.455 192.889 164.274 181.371C178.089 167.91 190.638 153.725 200.663 137.99C209.564 124.016 215.83 109.143 220.807 93.8912C225.178 80.5066 229.212 67.0347 233.123 53.5446C238.376 35.4183 244.09 17.423 252.463 0.115514C252.619 -0.204725 252.481 -0.623221 252.481 -0.998047" stroke="black" stroke-width="0.5" stroke-linecap="round" stroke-linejoin="round"/>
<path d="M1233.04 -0.992676C1231.14 3.24322 1229.04 7.4209 1227.37 11.7187C1219.73 31.2788 1209.78 49.8818 1192.48 64.6274C1182.1 73.4776 1170.2 81.0578 1158.81 89.0238C1147.22 97.1208 1135.24 104.817 1123.76 113.02C1114.56 119.596 1105.52 126.386 1097.01 133.588C1087.98 141.223 1079.2 149.138 1071.12 157.501C1060 169.026 1049.49 180.991 1039 192.949C1029.78 203.469 1020.08 213.593 1008.21 222.051C996.524 230.37 983.215 235.843 968.269 238.539C957.678 240.45 947.038 241.669 936.204 241.487C923.323 241.265 910.387 241.56 897.575 240.614C878.387 239.198 859.24 236.662 841.423 230.151C825.726 224.416 812.339 215.962 805.342 201.89C802.246 195.66 800.061 189.259 799.615 182.461C799.491 180.583 798.676 178.702 798.828 176.86C799.569 167.635 800.507 158.425 801.404 149.207C801.961 143.475 802.269 137.711 803.217 132.027C805.333 119.356 805.292 106.615 804.758 93.9147C804.399 85.4211 803.226 76.8583 801.253 68.5285C797.922 54.4452 792.682 40.7477 786.338 27.4504C781.742 17.8141 775.932 8.59996 770.66 -0.803443" stroke="black" stroke-width="0.5" stroke-linecap="round" stroke-linejoin="round"/>
<path d="M695.559 -0.992676C698.927 4.23669 702.726 9.30595 705.551 14.7391C709.484 22.3048 713.017 30.0451 716.104 37.891C719.536 46.6139 722.508 55.486 723.235 64.7657C723.732 71.1231 725.126 77.4952 724.817 83.8163C724.238 95.7016 721.961 107.438 713.51 117.42C703.743 128.956 691.193 136.31 673.597 136.205C661.374 136.132 649.445 134.844 637.567 132.478C632.58 131.485 627.354 131.303 622.216 130.928C617.105 130.557 611.966 130.149 606.85 130.207C596.007 130.331 585.647 132.409 575.651 136.088C562.613 140.888 551.573 148.086 541.47 156.351C530.576 165.259 520.065 174.502 509.364 183.582C501.442 190.303 493.019 196.504 483.46 201.523C470.615 208.262 456.911 213.543 442.135 215.872C433.619 217.214 424.547 216.992 415.853 216.301C405.235 215.457 398.85 208.488 392.087 202.298C382.611 193.619 375.908 183.32 368.478 173.462C359.117 161.038 350.104 148.421 341.221 135.742C330.341 120.218 320.317 104.315 315.777 86.4328C314.212 80.2791 313.182 74.0089 312.266 67.757C311.632 63.4338 311.213 59.0341 311.397 54.689C312.013 40.1218 314.668 25.8747 321.858 12.4647C324.223 8.0541 326.546 3.62169 328.888 -0.796165" stroke="black" stroke-width="0.5" stroke-linecap="round" stroke-linejoin="round"/>
<path d="M1134.24 -0.808814C1119.94 13.1435 1105.68 27.0702 1093.74 42.6637C1077.44 63.9488 1063.93 86.4857 1050.83 109.237C1042.2 124.245 1033.95 139.416 1025.3 154.42C1017.38 168.154 1008.08 181.244 995.824 192.47C982.611 204.563 966.16 212.293 947.188 216.117C935.761 218.421 924.274 219.669 912.493 219.946C896.414 220.32 880.796 218.832 865.495 214.611C850.609 210.506 838.399 203.573 830.326 191.823C826.7 186.55 824.391 180.858 823.503 174.966C822.293 166.939 821.594 158.783 821.751 150.701C821.916 142.222 823.361 133.761 824.212 125.289C824.322 124.176 824.184 123.048 824.235 121.927C824.511 115.824 825.265 109.707 825.021 103.622C824.281 85.2338 821.87 67.1002 815.149 49.4033C808.524 31.9685 799.131 15.6581 789.516 -0.615943C789.396 -0.816092 788.95 -0.874318 788.66 -0.998047" stroke="black" stroke-width="0.5" stroke-linecap="round" stroke-linejoin="round"/>
<path d="M0 492.198C7.55839 482.908 12.9178 472.653 16.5383 461.899C20.5544 449.978 23.6642 437.819 26.7143 425.679C29.6723 413.907 32.1151 402.04 34.6729 390.195C37.3825 377.629 39.7425 365.001 42.6591 352.472C45.2813 341.212 48.5844 330.066 51.34 318.828C54.1416 307.402 56.2854 295.848 59.363 284.475C64.428 265.767 69.2492 246.989 80.2809 229.871C86.3579 220.442 93.4425 211.65 101.972 203.826C111.816 194.794 122.268 186.227 132.656 177.632C139.188 172.224 146.521 167.486 152.713 161.824C161.192 154.065 169.44 146.044 176.819 137.525C183.545 129.76 189.746 121.51 194.793 112.885C201.974 100.607 207.725 87.7426 212.132 74.4854C217.28 59.012 222.441 43.5386 227.985 28.1671C231.389 18.7236 235.525 9.4658 239.311 0.120618C239.444 -0.214178 239.329 -0.621756 239.329 -0.996582" stroke="black" stroke-width="0.5" stroke-linecap="round" stroke-linejoin="round"/>
<path d="M670.968 -0.992676C671.7 -0.494121 672.735 -0.126573 673.121 0.521185C680.477 12.8868 687.093 25.5035 691.182 38.9827C694.237 49.0557 695.226 59.3616 694.094 69.6093C692.452 84.475 682.704 93.6091 669.128 97.0152C658.925 99.5772 647.911 99.821 637.16 98.0269C636.737 97.9578 636.282 98.0269 635.845 98.016C628.088 97.7685 620.314 97.1426 612.576 97.3428C589.616 97.9323 568.072 102.543 548.387 113.235C534.821 120.604 522.464 129.196 510.301 138.035C500.019 145.51 489.319 152.497 477.27 157.704C469.072 161.245 460.41 163.643 451.007 164.702C430.526 167.006 413.482 160.714 398.406 150.204C382.871 139.371 369.475 126.616 357.909 112.58C349.049 101.822 341.711 90.3448 336.835 77.8373C332.29 66.1813 331.531 54.0704 332.538 41.985C333.771 27.203 340.184 13.702 348.672 0.881455C349.058 0.295561 349.541 -0.243024 349.983 -0.803443" stroke="black" stroke-width="0.5" stroke-linecap="round" stroke-linejoin="round"/>
<path d="M970.016 -0.992676C969.138 5.60863 968.259 12.2099 967.39 18.8112C967.339 19.1788 967.39 19.5573 967.38 19.9321C967.091 29.5211 966.235 39.1319 966.667 48.6954C967.077 57.6876 968.765 66.6434 970.039 75.5992C971.088 82.9611 972.036 90.3485 973.6 97.6339C976.094 109.268 977.92 120.971 976.945 132.762C974.911 157.264 963.7 177.279 936.609 188.757C929.478 191.777 921.754 193.44 913.814 194.463C901.319 196.071 889.17 195.325 877.361 191.424C861.959 186.333 853.255 176.573 849.639 163.043C847.394 154.64 846.566 146.168 847.122 137.627C847.716 128.522 849.266 119.45 849.565 110.345C849.86 101.393 849.354 92.4009 848.723 83.4524C848.337 77.9464 847.118 72.4805 846.166 67.011C844.519 57.5239 841.124 48.3861 836.376 39.7906C829.31 26.9956 821.296 14.5753 813.682 1.99866C813.112 1.05613 812.514 0.128164 811.93 -0.803443" stroke="black" stroke-width="0.5" stroke-linecap="round" stroke-linejoin="round"/>
<path d="M0.436523 398.792C1.60961 394.308 2.80571 389.828 3.942 385.341C6.5918 374.883 9.32902 364.439 11.8178 353.951C14.026 344.638 16.1099 335.297 17.9317 325.926C18.8886 320.995 19.1554 315.97 19.758 310.991C20.9173 301.402 22.1732 291.817 23.2359 282.217C23.7281 277.748 23.9582 273.254 24.1284 268.767C24.8322 250.466 29.8696 233.137 43.6707 218.846C53.29 208.886 64.3493 199.81 75.657 191.185C86.8865 182.619 99.312 175.199 111.066 167.12C123.602 158.503 136.538 150.22 148.264 140.853C161.688 130.132 172.218 117.344 181.497 103.698C192.893 86.9325 199.756 68.6862 206.579 50.5053C213.005 33.3761 218.898 16.1013 226.139 -0.802246" stroke="black" stroke-width="0.5" stroke-linecap="round" stroke-linejoin="round"/>
<path d="M638.033 -0.807082C642.155 6.48201 646.323 13.7493 648.149 21.7953C649.865 29.3719 650.822 37.014 646.732 44.1793C641.976 52.5129 633.217 56.8907 623.087 59.0923C609.262 62.0946 595.319 64.7256 581.384 67.3567C563.056 70.8175 546.56 77.7099 531.374 86.8586C517.711 95.0866 504.48 103.842 490.904 112.179C482.141 117.565 472.797 122.318 462.35 124.785C454.865 126.554 447.224 127.343 439.095 126.627C421.522 125.076 407.698 117.747 395.291 108.031C386.495 101.146 378.012 93.9657 371.838 84.9881C365.535 75.8249 360.512 66.4724 358.663 55.8099C355.083 35.1944 362.384 17.301 376.369 0.899651C377.069 0.0772164 378.375 -0.370392 379.401 -0.992676" stroke="black" stroke-width="0.5" stroke-linecap="round" stroke-linejoin="round"/>
<path d="M1795.99 291.932C1794.08 283.711 1792.49 275.429 1790.21 267.285C1784.81 247.972 1776.03 229.595 1767.29 211.283C1759.95 195.926 1752.39 180.678 1746.33 164.91C1740.11 148.734 1735.09 132.311 1731.43 115.582C1729.43 106.481 1727.16 97.4228 1725.35 88.296C1724.15 82.2406 1723.63 76.0869 1722.62 69.9987C1721.58 63.6339 1720.22 57.3019 1719.17 50.9371C1718.17 44.9726 1717.58 38.9572 1716.46 33.011C1714.73 23.7713 1712.7 14.5717 1710.8 5.35753C1710.36 3.23958 1709.92 1.12163 1709.48 -0.992676" stroke="black" stroke-width="0.5" stroke-linecap="round" stroke-linejoin="round"/>
<path d="M212.09 -0.809082C204.771 17.6848 197.438 36.175 190.137 54.6761C183.55 71.3795 175.292 87.4607 163.699 102.075C150.137 119.172 132.49 132.982 112.327 144.234C97.6886 152.4 82.4384 159.813 67.1192 167.037C57.8311 171.414 47.7563 174.577 37.3089 176.418C25.0443 178.576 14.3163 175.585 5.28581 168.245C3.41807 166.727 1.75734 165.021 0 163.401" stroke="black" stroke-width="0.5" stroke-linecap="round" stroke-linejoin="round"/>
<path d="M177.84 -0.992676C174.036 8.72005 170.015 18.3818 166.477 28.1637C162.125 40.1873 156.582 51.7741 149.7 62.8806C138.047 81.6947 121.831 96.9243 100.122 107.743C89.8445 112.863 78.7898 116.688 67.1509 117.991C51.0497 119.792 36.6781 116.135 25.8581 104.777C14.7528 93.1178 9.46243 79.3802 5.81894 65.1187C3.46356 55.8899 2.19386 46.4574 0.436523 37.1159" stroke="black" stroke-width="0.5" stroke-linecap="round" stroke-linejoin="round"/>
<path d="M195.409 -0.809082C190.142 12.4554 184.916 25.7308 179.588 38.9807C172.987 55.4076 165.64 71.5869 154.07 86.0268C144.593 97.8502 133.686 108.553 119.968 117.174C109.631 123.673 98.9808 129.616 87.3603 134.216C75.2384 139.016 62.7346 143.204 49.1773 143.517C32.133 143.91 18.7322 137.636 9.29681 125.624C5.89255 121.286 3.36695 116.45 0.436523 111.843" stroke="black" stroke-width="0.5" stroke-linecap="round" stroke-linejoin="round"/>
<path d="M156.774 -0.992676C152.969 8.97115 149.468 19.0296 145.277 28.8733C140.038 41.1989 133.615 53.0442 124.323 63.6739C115.573 73.6851 105.079 81.8221 91.7706 87.1643C84.4238 90.1119 76.778 92.3718 68.5112 92.0079C57.7693 91.5348 48.7756 87.9357 41.6911 80.8541C31.7129 70.8793 27.3334 58.8412 24.2649 46.4392C21.9509 37.0722 20.534 27.5414 18.9239 18.058C17.8474 11.7296 17.1298 5.35754 16.2511 -0.992676" stroke="black" stroke-width="0.5" stroke-linecap="round" stroke-linejoin="round"/>
<path d="M558.999 -0.807128C561.52 6.13261 559.326 12.0134 553.76 17.3374C544.228 26.4496 532.437 33.3312 521.663 41.2171C511.906 48.3642 502.153 55.5223 492.225 62.4985C481.962 69.7111 471.363 76.5417 458.44 80.0825C441.529 84.7187 426.679 81.8329 413.605 71.5307C407.022 66.345 401.713 60.4897 399.224 53.1642C395.08 40.9587 397.463 29.5356 406.203 19.1897C412.506 11.7259 420.46 5.64861 429.039 0.146313C429.904 -0.406829 431.068 -0.625174 432.094 -1" stroke="black" stroke-width="0.5" stroke-linecap="round" stroke-linejoin="round"/>
<path d="M1795.99 204.501C1794.82 201.637 1793.92 198.664 1792.43 195.924C1782.46 177.554 1773.85 158.718 1766.73 139.445C1762.63 128.346 1759.76 116.887 1757.02 105.467C1754.71 95.849 1753.4 86.0562 1751.63 76.3435C1750.18 68.3703 1748.64 60.4116 1747.27 52.4274C1746.27 46.5903 1745.64 40.7023 1744.57 34.8761C1743.27 27.8781 1741.66 20.9238 1740.22 13.9477C1739.3 9.47161 1738.49 4.97734 1737.54 0.504897C1737.42 -0.0446055 1736.7 -0.499492 1736.26 -0.998047" stroke="black" stroke-width="0.5" stroke-linecap="round" stroke-linejoin="round"/>
<path d="M1529.45 -0.992676C1529.75 13.0979 1523.65 25.4344 1514.45 36.7046C1502.53 51.3265 1488.16 63.8377 1468.82 71.4434C1462.89 73.776 1456.63 75.0679 1449.99 75.7812C1439.53 76.9057 1429.94 75.4791 1421.02 71.0686C1407.83 64.551 1399.27 54.8164 1395.09 42.3452C1392.16 33.6296 1391.79 24.8267 1393.17 15.8054C1393.99 10.4886 1395.26 5.4012 1397.73 0.510268C1398.01 -0.0465126 1398.58 -0.494121 1399.03 -0.992676" stroke="black" stroke-width="0.5" stroke-linecap="round" stroke-linejoin="round"/>
<path d="M126.029 -0.992676C124.272 4.2367 122.897 9.5898 120.679 14.6736C116.295 24.7248 110.949 34.412 102.742 42.7091C97.2587 48.2551 90.4732 52.5092 82.0914 53.7974C73.07 55.1839 64.7066 51.4393 59.3012 44.2085C52.9849 35.7585 50.0913 26.2495 47.8923 16.5659C46.5812 10.798 45.5231 4.98635 44.3546 -0.803443" stroke="black" stroke-width="0.5" stroke-linecap="round" stroke-linejoin="round"/>
<path d="M1795.99 67.757C1794.97 60.1586 1793.94 52.5638 1792.92 44.9654C1792.32 40.482 1791.9 35.9805 1791.13 31.5189C1789.63 22.7888 1787.95 14.0768 1786.32 5.36117C1785.93 3.23958 1785.45 1.12527 1785.01 -0.992676" stroke="black" stroke-width="0.5" stroke-linecap="round" stroke-linejoin="round"/>
<path d="M901.956 -0.994408C899.762 1.371 897.347 3.61632 895.419 6.13093C892.328 10.1667 887.7 12.5539 882.589 13.3545C879.18 13.8895 875.127 12.7504 871.7 11.615C865.232 9.47525 859.637 6.02176 854.499 2.0224C852.958 0.825136 851.021 -0.000936521 849.264 -0.998047" stroke="black" stroke-width="0.5" stroke-linecap="round" stroke-linejoin="round"/>
<path d="M530.018 693.585C527.093 693.087 524.116 692.73 521.246 692.064C512.049 689.932 504.45 685.823 498.345 679.425C485.358 665.808 479.212 649.709 474.791 633.038C472.445 624.184 470.706 615.166 469.547 606.145C468.369 596.986 467.509 587.706 467.826 578.514C468.364 562.942 471.815 547.727 479.097 533.305C484.723 522.159 492.452 512.049 502.462 503.501C513.439 494.123 526.108 486.59 540.995 482.107C561.835 475.829 580.742 479.709 598.039 490.386C614.21 500.371 625.283 513.923 633.655 529.189C638.693 538.374 642.276 547.912 644.278 557.945C646.062 566.879 647.424 575.832 646.734 584.853C645.92 595.454 643.96 605.938 640.721 616.251C635.127 634.075 624.827 649.632 608.956 662.1C594.893 673.144 578.511 681.416 560.753 687.595C551.042 690.976 540.857 692.694 530.455 693.582" stroke="black" stroke-width="0.5" stroke-linecap="round" stroke-linejoin="round"/>
<path d="M510.693 727.961C499.206 725.956 490.304 720.352 483.578 712.572C476.328 704.187 470.619 694.915 466.851 684.973C462.164 672.6 457.572 660.176 453.763 647.596C451.445 639.935 450.759 631.926 449.2 624.095C445.846 607.26 445.023 590.28 445.809 573.282C446.555 557.241 450.092 541.524 457.191 526.6C466.842 506.308 481.959 489.168 501.115 474.721C511.01 467.257 521.651 460.557 533.92 455.874C542.132 452.741 550.509 450.768 559.429 449.935C576.363 448.356 591.254 453.483 605.483 460.161C617.886 465.983 628.931 473.636 638.804 482.206C651.487 493.215 663.273 505.027 671.719 518.787C676.117 525.952 679.333 533.663 680.207 541.891C680.713 546.629 682.111 551.396 681.789 556.084C681.168 565.079 679.53 574.021 678.454 582.995C676.963 595.455 673.361 607.548 669.608 619.6C665.021 634.324 658.166 648.196 647.742 660.736C638.569 671.774 626.76 680.293 613.916 688.019C593.472 700.315 571.854 710.887 549.304 720.061C537.301 724.945 524.871 728.882 511.13 727.965" stroke="black" stroke-width="0.5" stroke-linecap="round" stroke-linejoin="round"/>
<path d="M496.637 770.553C482.064 767.806 475.002 758.18 468.566 748.118C460.069 734.839 454.034 720.668 448.844 706.269C443.002 690.06 437.537 673.746 434.275 656.97C432.577 648.243 430.402 639.571 429.109 630.805C427.54 620.135 426.404 609.407 425.585 598.679C424.89 589.61 424.154 580.462 424.789 571.419C425.962 554.726 428.934 538.259 435.968 522.44C441.884 509.139 449.847 496.941 459.641 485.405C471.929 470.929 485.597 457.54 500.64 445.164C509.325 438.017 518.945 431.827 529.558 426.787C541.781 420.982 555.007 419.028 568.638 420.218C581.486 421.339 593.76 424.832 605.542 429.421C621.813 435.761 636.705 444.163 652.162 451.733C662.996 457.038 673.802 462.522 686.315 465.004C700.507 467.821 713.282 465.506 724.949 458.527C737.089 451.259 746.814 441.794 756.604 432.416C762.138 427.11 768.155 422.343 774.945 418.104C785.291 411.641 791.727 416.99 795.27 423.81C799.244 431.456 800.707 439.567 802.377 447.715C804.645 458.785 804.788 469.953 803.803 480.969C801.839 502.931 792.611 522.04 770.704 535.595C756.581 544.333 741.754 552.452 730.699 564.308C723.495 572.037 717.648 580.487 713.609 589.723C705.25 608.85 697.737 628.261 688.794 647.188C681.305 663.04 670.076 676.872 654.365 688.062C634.524 702.196 611.899 712.717 590.641 725.01C576.84 732.99 563.504 741.56 549.726 749.574C539.839 755.323 529.686 760.753 519.428 766.008C512.642 769.48 505.111 771.124 497.074 770.549" stroke="black" stroke-width="0.5" stroke-linecap="round" stroke-linejoin="round"/>
<path d="M543.196 656.224C541.148 655.849 539.097 655.478 537.049 655.103C524.297 652.756 516.173 645.627 509.769 636.449C503.665 627.7 500.076 618.155 497.68 608.373C495.195 598.216 493.912 587.801 494.952 577.394C496.921 557.644 503.573 539.412 521.302 525.511C531.202 517.749 542.924 513.036 556.808 513.52C567.6 513.895 576.668 517.964 584.429 524.005C596.771 533.612 603.722 545.905 608.272 559.435C611.492 569.016 613.415 578.722 612.481 588.591C610.145 613.366 600.176 634.575 573.572 648.108C564.182 652.887 554.338 655.441 543.637 656.224" stroke="black" stroke-width="0.5" stroke-linecap="round" stroke-linejoin="round"/>
<path d="M900.628 716.004C896.382 715.007 891.97 714.359 887.926 712.947C876.504 708.966 866.111 703.388 857.246 696.12C850.272 690.396 845.483 683.227 842.705 675.268C840.336 668.47 846.118 660.927 854.514 659.191C864.51 657.124 874.254 658.681 883.432 661.614C893.276 664.762 902.21 669.602 909.419 676.393C917.028 683.562 921.665 691.95 923.423 701.437C924.761 708.664 917.359 715.76 908.536 715.993C906.052 716.059 903.558 716.004 901.069 716.004" stroke="black" stroke-width="0.5" stroke-linecap="round" stroke-linejoin="round"/>
<path d="M635.403 361.804C629.257 359.81 622.771 358.347 617.03 355.716C605.358 350.366 595.661 343.237 592.367 331.541C590.357 324.409 590.84 317.764 597.184 312.098C601.071 308.622 605.22 305.7 610.791 304.205C619.771 301.795 628.664 302.534 637.11 305.136C649.6 308.979 659.33 316.123 665.145 326.363C669.014 333.168 669.819 340.599 666.989 347.976C663.751 356.418 654.702 361.808 644.185 361.808H635.84" stroke="black" stroke-width="0.5" stroke-linecap="round" stroke-linejoin="round"/>
<path d="M1254.56 447.735C1253.1 447.488 1251.65 447.15 1250.17 447.004C1242.27 446.225 1234.36 445.512 1226.46 444.744C1218.99 444.02 1211.47 443.532 1204.08 442.444C1192.17 440.69 1180.31 438.689 1168.52 436.465C1161.68 435.177 1156.2 431.716 1152.3 426.785C1148.85 422.407 1148.37 417.182 1149.34 412.265C1150.77 404.954 1152.68 397.625 1155.45 390.609C1161.36 375.671 1169.19 361.431 1178.06 347.562C1185.67 335.662 1194.76 324.8 1205.82 315.102C1221.22 301.608 1239.91 293.398 1261.59 290.083C1270.36 288.744 1279.15 287.546 1287.94 286.338C1300.82 284.566 1313.69 282.776 1326.59 281.123C1335.35 280.003 1344.22 279.417 1352.91 278.027C1361.97 276.575 1371.06 276.345 1380.15 276.687C1393.98 277.204 1405.55 281.476 1411.2 293.103C1413.06 296.921 1413.98 301.248 1414.27 305.392C1414.76 312.343 1415.07 319.392 1414.27 326.299C1412.32 343.101 1412.66 359.924 1412.69 376.751C1412.7 381.857 1413.76 386.992 1413.4 392.065C1412.91 399.135 1412.82 406.399 1409.1 412.979C1403.61 422.673 1394.02 428.692 1382.75 432.728C1368.68 437.768 1353.79 440.672 1338.86 443.179C1330.32 444.613 1321.58 445.137 1312.97 446.273C1293.71 448.813 1274.33 447.339 1255 447.743" stroke="black" stroke-width="0.5" stroke-linecap="round" stroke-linejoin="round"/>
<path d="M1058.72 592.707C1041.86 588.958 1030.26 578.936 1019.25 568.383C1008.61 558.172 1000.46 546.683 996.342 533.306C992.05 519.368 991.732 505.794 1001.69 493.352C1009.03 484.174 1019.92 479.043 1031.93 475.375C1043.62 471.809 1055.74 471.092 1067.94 471.729C1077.91 472.246 1085.41 478.981 1087.59 486.62C1088.8 490.849 1089.2 495.306 1089.38 499.677C1089.67 506.395 1089.57 513.127 1089.43 519.852C1089.26 528.073 1089.1 536.304 1088.52 544.511C1087.93 552.87 1087.3 561.269 1085.77 569.522C1084.82 574.631 1082.98 579.908 1080.04 584.399C1075.69 591.04 1068.27 593.831 1059.16 592.714" stroke="black" stroke-width="0.5" stroke-linecap="round" stroke-linejoin="round"/>
<path d="M1056.08 689.103C1053.15 688.604 1050.24 688.033 1047.29 687.622C1033.75 685.737 1022.6 680.103 1012.55 672.334C998.349 661.344 986.673 648.483 974.367 636.07C963.396 625.004 951.844 614.341 941.107 603.115C928.332 589.752 919.678 574.486 915.69 557.564C914.02 550.475 913.44 543.157 913.008 535.912C912.382 525.34 911.803 514.729 912.171 504.161C912.681 489.542 914.554 474.939 920.934 461.227C928.295 445.4 940.679 433.06 958.574 424.919C973.756 418.016 990.206 414.071 1006.45 409.632C1021.38 405.552 1036.14 401.12 1049.91 394.664C1066.13 387.062 1080.1 377.244 1091.73 364.853C1103.49 352.316 1112.9 338.622 1121.52 324.452C1128.89 312.333 1135.98 300.062 1144.02 288.264C1151.55 277.227 1159.9 266.608 1170.18 257.143C1180.18 247.932 1190.83 239.512 1203.1 232.437C1218.28 223.689 1234.89 217.917 1252.39 213.969C1260.07 212.237 1268.14 211.643 1276.08 210.908C1286.44 209.948 1296.86 209.354 1307.25 208.616C1314.42 208.106 1321.63 207.841 1328.76 207.069C1340.94 205.755 1353.1 204.289 1365.21 202.593C1380.03 200.522 1394.86 198.444 1409.55 195.828C1424.82 193.106 1440.25 192.08 1455.66 193.073C1476.99 194.445 1494.1 204.296 1499.63 223.925C1502.07 232.565 1502.93 241.346 1502.07 250.076C1500.94 261.455 1498.79 272.766 1496.93 284.083C1495.3 293.938 1493.69 303.803 1491.61 313.592C1489.61 323.01 1488.43 332.49 1489.15 341.996C1490.39 358.524 1495.35 374.081 1509.31 386.414C1518.24 394.307 1529.44 398.696 1542.16 400.778C1549.64 402.004 1557.1 402.503 1564.57 402.066C1576.02 401.4 1587.39 399.788 1598.83 399.271C1609.54 398.787 1620.46 398.489 1630.43 402.925C1642.46 408.282 1649.08 416.561 1650.81 428.289C1652.81 441.761 1648.45 453.796 1639.9 464.429C1628.44 478.68 1612.25 487.348 1591.84 490.481C1579.64 492.355 1567.51 491.737 1555.36 491.69C1547.45 491.657 1539.55 490.328 1531.65 489.582C1521.11 488.585 1510.58 487.537 1500.02 486.628C1497.27 486.391 1494.46 486.526 1491.68 486.602C1474.27 487.079 1456.83 487.344 1439.43 488.174C1428.57 488.691 1417.72 489.812 1406.94 491.14C1392.99 492.861 1379.08 494.896 1365.22 497.09C1344.11 500.431 1323.06 504.026 1301.98 507.512C1286.91 510.005 1271.71 512.068 1256.79 515.114C1243.72 517.782 1230.58 520.198 1218.85 526.763C1208.07 532.804 1202.56 541.188 1200.26 551.254C1197.97 561.265 1199.6 571.378 1200.73 581.513C1201.67 590.007 1202.3 598.577 1201.24 607.296C1199.35 622.879 1191.12 635.186 1178.66 646.183C1163.22 659.801 1144.71 669.226 1124.61 676.821C1112.12 681.537 1099.27 685.42 1085.9 687.422C1076.28 688.859 1066.32 688.601 1056.52 689.099" stroke="black" stroke-width="0.5" stroke-linecap="round" stroke-linejoin="round"/>
<path d="M1065.73 658.465C1062.81 657.843 1059.83 657.348 1056.96 656.573C1045.58 653.502 1035.74 648.25 1027.09 641.285C1009.11 626.816 993.012 610.899 977.532 594.534C969.339 585.873 962.07 576.608 956.435 566.535C950.468 555.865 946.558 544.686 944.396 532.942C942.514 522.72 942.252 512.48 942.923 502.294C944.515 478.269 955.869 458.854 981.401 446.587C994.493 440.298 1008.61 436.222 1022.7 432.056C1044.84 425.509 1066.52 418.293 1085.12 405.592C1092.97 400.232 1099.86 394.202 1106.13 387.582C1119.83 373.099 1130.18 356.836 1140.37 340.504C1149.65 325.627 1158.18 310.412 1169.31 296.391C1181.33 281.237 1195.57 267.878 1213.37 257.682C1226.51 250.16 1240.99 244.654 1256.76 242.292C1266.81 240.789 1276.93 239.573 1287.06 238.565C1294.93 237.779 1302.86 237.514 1310.77 237.011C1322.48 236.269 1334.2 235.629 1345.9 234.737C1357.04 233.889 1368.21 233.125 1379.26 231.691C1393.15 229.893 1407.08 230.061 1420.99 230.388C1435.29 230.723 1447.82 235.308 1456.39 245.334C1460.38 249.996 1463.39 255.52 1463.59 261.67C1463.86 270.014 1464.86 278.395 1464.27 286.692C1463.66 295.328 1461.44 303.88 1460.1 312.486C1459.33 317.446 1458.75 322.439 1458.34 327.428C1457.64 336.017 1456.69 344.612 1456.67 353.208C1456.65 363.492 1458.69 373.667 1462.36 383.445C1466.76 395.144 1471.78 406.684 1476.82 418.198C1479.11 423.435 1481.19 428.595 1481.21 434.283C1481.22 438.115 1479.66 441.212 1476.76 444.003C1469.32 451.165 1459.26 454.494 1449.06 457.384C1434.75 461.438 1420.05 464.236 1405.18 466.449C1391.24 468.523 1377.39 471.016 1363.45 473.101C1352.22 474.782 1340.93 476.223 1329.64 477.595C1318.39 478.964 1307.13 480.317 1295.83 481.296C1286.5 482.104 1277.1 482.494 1267.73 482.817C1256.32 483.214 1244.87 483.021 1233.48 483.684C1218.95 484.528 1204.45 485.459 1190.4 489.481C1174.89 493.924 1163.32 502.05 1155.83 514.27C1152.28 520.063 1149.88 526.323 1149.19 532.917C1148.52 539.263 1147.28 545.646 1147.6 551.964C1147.98 559.464 1149.79 566.913 1150.91 574.391C1151.58 578.868 1152.24 583.347 1152.64 587.842C1153.1 593.06 1153.45 598.3 1153.52 603.533C1153.67 614.29 1149.35 623.708 1141.27 631.929C1133.77 639.557 1125.15 645.95 1114.49 650.259C1105.92 653.724 1097.28 657.035 1087.69 657.665C1080.54 658.134 1073.35 658.207 1066.18 658.454" stroke="black" stroke-width="0.5" stroke-linecap="round" stroke-linejoin="round"/>
</g>
</svg>
