<svg width="393" height="599" viewBox="0 0 393 599" fill="none" xmlns="http://www.w3.org/2000/svg">
<g opacity="0.2">
<path d="M349.174 1.00293C349.535 8.64801 347.404 15.8743 343.863 22.813C341.378 27.6841 338.452 32.3928 336.028 37.2842C334.357 40.6567 332.873 44.1542 331.937 47.7157C331.275 50.2365 331.644 52.9713 333.152 55.3921C335.062 58.4582 337.135 61.4541 338.956 64.5562C340.242 66.7441 340.783 69.1054 340.926 71.6012C341.267 77.646 339.545 83.3688 337.672 89.0933C336.082 93.9566 334.402 98.8012 332.986 103.7C331.34 109.394 329.829 115.121 328.468 120.869C327.626 124.417 327.071 128.019 326.573 131.616C326.168 134.542 325.771 137.502 325.848 140.437C325.976 145.236 327.385 149.815 331.109 153.565C333.414 155.886 336.7 157 340.118 157.769C344.146 158.676 348.137 158.43 352.194 157.799C357.195 157.021 362.232 156.396 367.278 155.875C370.143 155.58 373.072 155.409 375.943 155.572C380.107 155.806 383.823 157.255 386.87 159.706C392.135 163.939 394.877 169.287 396.358 175.249C397.289 178.992 397.287 182.758 396.989 186.484C396.503 192.541 394.142 198.25 390.588 203.463C386.682 209.192 381.441 214.006 374.813 217.614C370.18 220.135 365.125 221.732 359.729 222.593C353.666 223.56 347.534 223.328 341.439 223.171C337.154 223.062 332.893 222.343 328.612 221.96C325.54 221.687 322.456 221.48 319.372 221.316C314.66 221.066 309.899 221.152 305.243 220.59C300.408 220.007 295.687 220.877 290.896 220.754C286.7 220.647 282.452 221.166 278.27 221.659C271.492 222.459 264.757 223.448 258.066 224.757C252.011 225.944 246.048 227.336 240.179 229.024C232.79 231.148 225.465 233.434 219.06 237.36C215.247 239.698 212.23 242.69 210.818 246.513C209.283 250.664 208.159 254.93 207.001 259.176C205.116 266.088 202.056 272.55 196.766 278.082C193.071 281.944 188.678 285.227 183.988 288.228C177.93 292.104 171.312 295.189 164.518 297.942C158.562 300.357 152.445 302.51 146.084 304.134C140.865 305.467 135.633 306.617 130.242 307.364C125.333 308.044 120.409 308.175 115.528 307.88C108.627 307.461 102.448 305.339 97.3979 301.069C92.4017 296.845 88.654 291.808 84.369 287.117C81.4195 283.887 78.223 280.806 74.9534 277.806C70.208 273.452 65.1387 269.348 60.504 264.914C56.2842 260.878 53.7673 255.994 52.7657 250.664C51.7305 245.145 51.8944 239.554 51.9853 233.983C52.0268 231.415 52.2006 228.847 52.3528 226.281C52.5839 222.376 52.7499 218.466 53.1311 214.57C53.5026 210.763 53.9135 206.945 54.6543 203.182C55.9167 196.781 58.1511 190.598 62.5744 185.23C66.7844 180.12 72.4859 176.488 79.3095 174.122C86.6982 171.559 94.5057 170.226 102.12 168.318C113.971 165.346 124.892 160.887 133.241 152.787C137.287 148.861 140.711 144.565 143.636 139.965C148.858 131.755 154.004 123.502 159.54 115.448C162.019 111.843 165.087 108.454 168.383 105.345C174.738 99.3466 181.799 94.0066 190.183 90.034C196.515 87.0335 203.253 84.9394 210.204 83.372C213.941 82.5281 217.855 82.2436 221.69 81.7138C225.585 81.1747 229.467 80.5121 233.385 80.1386C239.331 79.5713 245.159 78.5711 250.92 77.2271C257.09 75.7878 263.038 73.864 268.424 70.9213C271.119 69.4492 273.691 67.713 275.939 65.7783C278.037 63.9717 279.317 61.6213 278.999 58.9302C278.756 56.8626 277.666 55.0311 276.362 53.3198C273.896 50.0849 271.411 46.8562 268.819 43.6932C264.323 38.2063 261.284 32.1474 259.473 25.701C258.119 20.8861 257.86 15.8883 258.354 10.9594C258.69 7.61346 259.783 4.32226 260.537 1.00606" stroke="black" stroke-width="0.5" stroke-linecap="round" stroke-linejoin="round"/>
<path d="M60.8411 353.997C62.789 351.644 64.9048 349.376 66.6493 346.918C69.6739 342.655 72.4377 338.257 75.3695 333.945C77.8804 330.253 80.0694 326.236 84.8207 324.208C87.4087 323.103 90.2634 322.32 93.1003 321.801C97.1957 321.053 101.396 320.74 105.529 320.127C111.637 319.223 117.714 318.154 123.827 317.269C131.901 316.102 139.704 314.106 147.383 311.768C153.227 309.99 159.025 308.072 164.725 305.983C169.782 304.129 174.71 302.012 179.635 299.911C189.779 295.584 199.057 290.18 206.963 283.218C212.864 278.02 217.904 272.277 221.74 265.766C224.261 261.491 227.064 257.318 230.03 253.252C234.054 247.738 239.692 243.608 246.401 240.565C254.353 236.958 262.83 234.609 271.667 233.183C275.93 232.495 280.196 231.765 284.494 231.288C288.112 230.887 291.776 230.759 295.427 230.624C300.076 230.452 304.732 230.27 309.381 230.323C313.972 230.376 318.563 230.662 323.147 230.946C327.05 231.188 330.938 231.614 334.84 231.881C338.732 232.148 342.634 232.314 346.53 232.539C347.978 232.623 349.434 232.909 350.864 232.828C357.421 232.456 363.978 232.17 370.3 230.315C378.799 227.822 385.798 223.579 391.816 217.955C396.603 213.481 400.293 208.439 403.266 203.001C405.696 198.556 407.401 193.921 408.452 189.062C409.495 184.24 409.369 179.398 408.994 174.619C408.658 170.356 407.233 166.14 406.089 161.94C404.677 156.752 402.334 151.829 399.293 147.189C396.33 142.67 392.865 138.446 386.871 136.449C385.251 135.908 383.509 135.467 381.788 135.341C377.394 135.02 373.077 135.637 368.775 136.4C364.737 137.116 360.708 138.05 356.524 137.857C350.941 137.597 346.919 135.514 345.392 130.327C344.027 125.69 345.066 121.196 346.326 116.684C348.74 108.047 354.223 100.828 360.685 94.0724C365.013 89.5466 368.287 84.5427 370.231 78.9667C370.851 77.1882 370.813 75.2395 371.035 73.3642C371.199 71.9764 371.479 70.5746 371.386 69.1947C371.058 64.3907 370.604 59.6102 369.199 54.9031C367.631 49.6475 366.289 44.3404 365.057 39.0191C364.521 36.714 364.478 34.323 364.264 31.9663C364.095 30.0972 363.885 28.2219 363.905 26.3513C363.942 22.821 364.11 19.2907 364.264 15.7619C364.345 13.8882 364.667 12.0129 364.596 10.1469C364.486 7.25421 364.14 4.36934 363.857 1.4829C363.84 1.31099 363.502 1.16097 363.314 1" stroke="black" stroke-width="0.5" stroke-linecap="round" stroke-linejoin="round"/>
<path d="M443.18 186.647C443.021 187.716 442.903 188.792 442.701 189.856C442.028 193.388 441.611 196.979 440.578 200.434C438.181 208.442 435.331 216.353 432.96 224.367C431.524 229.222 430.605 234.19 429.518 239.118C428.222 244.995 427.183 250.918 425.692 256.757C423.643 264.777 420.695 272.625 414.707 279.167C409.838 284.486 403.838 288.796 396.175 291.355C391.52 292.908 386.812 294.172 381.976 295.059C378.655 295.666 375.2 295.738 371.808 296.079C361.521 297.115 351.193 296.642 340.88 296.695C335.726 296.721 330.571 296.515 325.417 296.393C321.646 296.304 317.872 296.212 314.103 296.068C309.261 295.884 304.421 295.668 299.583 295.427C295.934 295.246 292.293 294.959 288.644 294.802C282.737 294.549 276.83 294.251 270.917 294.182C265.14 294.115 259.453 295.002 253.962 296.44C246.23 298.464 239.011 301.486 232.039 305.015C225.905 308.12 219.609 311.03 213.186 313.677C204.304 317.341 195.298 320.8 186.226 324.11C180.18 326.317 173.932 328.122 167.766 330.088C157.839 333.253 147.858 336.303 137.99 339.598C132.733 341.353 127.594 343.398 122.527 345.528C117.406 347.682 112.479 350.152 107.975 353.184C107.436 353.547 106.73 353.733 106.102 354" stroke="black" stroke-width="0.5" stroke-linecap="round" stroke-linejoin="round"/>
<path d="M90.6378 353.997C93.4668 352.018 96.1793 349.902 99.1506 348.093C103.572 345.401 108.053 342.751 112.727 340.396C121.846 335.801 131.854 332.896 141.734 329.75C153.084 326.137 164.416 322.48 175.667 318.658C181.119 316.804 186.331 314.446 191.722 312.457C202.912 308.333 213.159 302.835 223.201 297.031C229.071 293.638 234.932 290.233 240.734 286.757C248.2 282.283 256.444 279.306 265.269 277.504C268.148 276.916 271.158 276.738 274.122 276.519C278.136 276.224 282.17 276.113 286.187 275.846C290.215 275.578 294.261 275.372 298.249 274.858C304.512 274.05 310.634 272.739 316.557 270.745C322.871 268.619 329.25 266.597 335.977 265.619C338.705 265.222 341.499 265.105 344.269 264.959C349.168 264.702 354.091 264.672 358.973 264.27C366.761 263.631 374.293 262.125 381.238 258.863C385.934 256.658 390.282 254.082 394.265 251.01C398.241 247.942 402.009 244.712 405.14 241.016C407.9 237.759 410.528 234.395 412.857 230.905C415.354 227.167 417.535 223.268 419.677 219.37C423.859 211.761 427.33 203.903 429.805 195.775C430.767 192.614 430.995 189.276 431.354 186.002C431.647 183.341 431.892 180.643 431.704 177.985C431.445 174.336 430.86 170.695 430.23 167.074C429.458 162.621 428.557 158.183 427.595 153.756C426.953 150.796 426.056 147.878 425.366 144.926C424.556 141.46 423.843 137.975 423.09 134.499C421.707 128.114 419.876 121.824 417.223 115.733C414.878 110.351 412.375 105.019 409.884 99.6838C406.513 92.4653 403.556 85.1312 401.614 77.5346C399.761 70.2787 398.036 62.9977 396.329 55.7136C395.367 51.6098 394.537 47.4825 393.68 43.3599C392.901 39.6202 392.086 35.8836 391.438 32.1251C390.932 29.1996 390.685 26.2429 390.274 23.3049C389.669 18.9697 389.097 14.6315 388.37 10.3104C387.872 7.35208 387.145 4.42345 386.491 1.48544C386.449 1.30103 386.133 1.16194 385.944 1.00098" stroke="black" stroke-width="0.5" stroke-linecap="round" stroke-linejoin="round"/>
<path d="M75.1732 353.996C77.3107 352.018 79.4661 350.053 81.5819 348.056C87.5758 342.399 94.2671 337.493 102.128 333.76C108.252 330.85 114.795 328.826 121.382 326.898C128.579 324.79 135.887 322.945 143.046 320.75C151.656 318.11 160.25 315.407 168.679 312.384C175.979 309.767 183.154 306.85 190.174 303.726C198.226 300.143 205.844 295.936 212.841 290.949C221.977 284.44 230.055 277.045 238.141 269.631C244.745 263.576 251.616 257.689 260.182 253.583C265.828 250.877 271.763 248.659 278.081 247.309C282.842 246.291 287.619 245.321 292.414 244.429C295.278 243.896 298.192 243.558 301.083 243.125C309.708 241.833 318.42 242.091 327.105 242.21C331.888 242.275 336.661 242.806 341.438 243.124C341.813 243.149 342.193 243.127 342.57 243.127C347.536 243.127 352.507 243.264 357.466 243.1C370.177 242.68 381.617 239.325 391.424 232.23C398.621 227.021 404.18 220.725 408.744 213.758C412.215 208.458 415.083 202.936 417.091 197.086C418.359 193.393 419.499 189.7 419.687 185.845C419.86 182.263 420.186 178.67 420.003 175.098C419.843 171.983 419.163 168.876 418.541 165.793C417.76 161.928 416.968 158.054 415.888 154.244C414.208 148.331 412.32 142.461 410.445 136.59C408.548 130.648 405.717 125.013 402.331 119.587C399.706 115.38 396.835 111.282 394.269 107.05C391.896 103.138 390.482 98.933 389.909 94.5479C389.365 90.38 388.891 86.2058 388.391 82.0332C388.008 78.8249 387.753 75.6009 387.232 72.4097C386.459 67.6901 385.545 62.9862 384.608 58.2885C383.528 52.8797 382.305 47.4897 381.242 42.0794C380.404 37.813 379.628 33.5342 378.99 29.2428C378.474 25.7812 378.237 22.29 377.822 18.8175C377.354 14.9106 376.862 11.0037 376.307 7.10612C376.018 5.09171 375.568 3.09293 375.191 1.08789" stroke="black" stroke-width="0.5" stroke-linecap="round" stroke-linejoin="round"/>
<path d="M-82.2863 353.996C-81.5316 351.536 -81.1128 348.955 -79.957 346.64C-77.211 341.152 -73.329 336.232 -68.3189 332.025C-62.9078 327.482 -56.9257 323.544 -50.2186 320.478C-42.4665 316.935 -34.5898 313.588 -26.8594 310.012C-18.637 306.21 -10.6912 302.036 -3.64237 296.724C2.96595 291.745 9.02108 286.308 14.8115 280.657C17.8045 277.736 20.9299 274.859 23.4329 271.644C27.5639 266.339 30.4087 260.435 33.1074 254.512C35.6282 248.978 37.8725 243.366 39.1586 237.509C39.8994 234.136 40.7924 230.786 41.385 227.396C42.037 223.67 42.4479 219.915 42.9201 216.167C43.2164 213.819 43.3744 211.456 43.6965 209.11C44.1449 205.842 44.7712 202.592 45.1722 199.319C45.7451 194.628 47.0174 190.096 48.9555 185.679C53.8509 174.527 62.7588 167.079 76.5029 164.205C83.3147 162.782 90.2154 161.674 97.047 160.316C106.67 158.401 115.639 155.293 123.273 149.751C129.296 145.377 133.761 139.984 137.578 134.169C140.925 129.071 144.048 123.867 147.42 118.783C152.294 111.435 157.749 104.445 164.521 98.2048C170.612 92.5913 177.327 87.6529 184.948 83.6648C192.238 79.85 200.012 76.8854 208.308 74.9617C216.929 72.9629 225.588 71.0579 234.127 68.82C240.225 67.2213 245.917 64.8271 249.599 60.0419C251.354 57.7602 252.292 55.2348 252.65 52.5078C253.266 47.8054 251.98 43.2827 251.144 38.7038C250.504 35.1923 249.983 31.6557 249.643 28.1145C249.248 24.0059 248.783 19.8708 248.937 15.7639C249.121 10.8161 249.783 5.86529 251.494 1.08008" stroke="black" stroke-width="0.5" stroke-linecap="round" stroke-linejoin="round"/>
<path d="M-100.765 353.836C-97.5351 347.985 -93.8052 342.375 -89.048 337.327C-83.1153 331.029 -76.4833 325.273 -68.6719 320.666C-62.2413 316.873 -55.5757 313.359 -48.8864 309.902C-42.2623 306.479 -35.6007 303.08 -29.907 298.598C-24.1443 294.063 -20.12 288.434 -16.9966 282.291C-14.0056 276.408 -11.4235 270.345 -7.23133 264.947C-3.74641 260.462 0.641361 256.7 5.59414 253.397C10.4758 250.141 15.5214 247.033 19.5318 242.956C25.504 236.884 29.226 229.897 30.8559 222.107C31.6382 218.367 32.4383 214.629 33.0922 210.872C33.3965 209.13 33.3253 207.342 33.511 205.582C33.8508 202.371 34.2479 199.162 34.6352 195.954C34.8742 193.974 35.0224 191.98 35.4115 190.02C36.0734 186.691 36.7233 183.349 37.6894 180.078C39.1434 175.152 41.3995 170.513 44.7798 166.25C49.774 159.952 56.4732 155.847 65.1895 154.272C68.7198 153.634 72.3391 153.323 75.9327 152.968C79.8838 152.579 83.8646 152.398 87.8079 151.971C95.2716 151.165 102.662 150.108 109.506 147.191C116.084 144.385 121.493 140.491 125.939 135.487C130.872 129.933 134.801 123.888 138.754 117.828C143.715 110.223 149.098 102.811 155.744 96.1865C164.318 87.6381 174.19 80.2915 185.696 74.6734C192.597 71.304 199.94 68.7145 207.368 66.3094C214.271 64.0762 221.31 62.1587 227.568 58.6378C233.971 55.0371 237.391 50.0363 238.722 43.693C239.886 38.1436 239.694 32.577 239.831 26.9994C239.939 22.558 240.056 18.0979 240.627 13.6878C241.178 9.43233 242.316 5.23003 243.195 1.00586" stroke="black" stroke-width="0.5" stroke-linecap="round" stroke-linejoin="round"/>
<path d="M234.143 1.00293C233.578 3.51743 232.987 6.02724 232.454 8.54487C232.094 10.2499 231.794 11.9642 231.508 13.6786C230.988 16.7791 230.5 19.8828 229.992 22.9833C229.495 26.0323 229.076 29.0938 228.467 32.1271C226.604 41.4225 221.632 49.0519 211.683 53.7637C205.051 56.9033 198.276 59.8257 191.516 62.7637C185.182 65.5157 179.18 68.6928 173.4 72.2169C168.333 75.3065 163.615 78.7274 159.095 82.3562C150.438 89.3074 143.227 97.2634 136.84 105.777C133.434 110.317 130.111 114.902 126.64 119.406C122.197 125.17 117.515 130.738 110.458 134.525C105.956 136.942 101.147 138.399 95.9276 139.199C91.8994 139.816 87.8731 139.94 83.8509 139.741C79.6863 139.536 75.5534 138.905 71.4008 138.517C68.5164 138.249 65.6024 138.178 62.73 137.845C55.6455 137.023 48.5275 137.234 41.4174 137.239C39.0921 137.241 36.7669 137.463 34.4397 137.539C25.4883 137.836 17.3766 135.736 10.1163 131.282C3.54161 127.248 -2.96399 123.138 -8.93617 118.451C-13.5136 114.859 -18.3024 111.442 -22.6487 107.656C-27.3407 103.568 -31.6435 99.1544 -36.0747 94.8521C-36.8728 94.0769 -37.5603 93.194 -38.1491 92.2891C-40.3123 88.9635 -40.3202 87.432 -36.452 84.6097C-34.6523 83.2954 -32.7162 82.1108 -30.8058 80.909C-22.4373 75.644 -15.5603 69.3336 -11.1705 61.179C-9.03691 57.2143 -7.57302 53.1495 -6.78674 48.8238C-6.06762 44.8574 -5.91353 40.8958 -6.1664 36.9436C-6.52201 31.366 -7.99381 25.9182 -9.89827 20.5798C-12.3243 13.7848 -15.8961 7.38842 -19.6833 1.07951" stroke="black" stroke-width="0.5" stroke-linecap="round" stroke-linejoin="round"/>
<path d="M225.468 1.00293C224.903 3.30333 224.311 5.59748 223.777 7.90413C223.06 11.0015 222.45 14.1177 221.685 17.2073C219.476 26.1292 217.347 35.0839 209.632 42.0835C206.153 45.2388 202.058 47.6939 197.755 49.9521C189.056 54.5169 180.137 58.8239 171.794 63.8264C162.576 69.3539 154.138 75.7331 146.597 82.9609C139.722 89.5496 133.675 96.6383 127.768 103.844C123.463 109.097 119.245 114.418 113.834 118.941C108.638 123.285 102.516 126.223 95.3368 127.212C91.9546 127.678 88.4796 127.902 84.967 127.333C80.9309 126.679 76.794 126.5 72.7263 125.973C69.5002 125.556 66.3234 124.854 63.1013 124.413C60.0391 123.995 56.9434 123.759 53.8654 123.427C50.9732 123.116 48.075 122.829 45.1926 122.455C42.2925 122.08 39.4082 121.607 36.5159 121.183C29.71 120.188 23.0484 118.736 16.7245 116.353C10.2229 113.902 4.36728 110.572 -0.611181 106.242C-4.89621 102.514 -7.80822 98.0761 -9.11211 92.9408C-10.0268 89.3402 -9.35312 85.8005 -8.14605 82.3593C-6.05391 76.3942 -3.82941 70.4635 -1.55749 64.5468C-0.0876602 60.7196 0.76185 56.8033 1.49084 52.8354C2.29688 48.4518 2.37984 44.0557 2.12104 39.6753C1.91755 36.2372 1.20239 32.8038 0.4655 29.4079C-0.747506 23.8257 -2.81199 18.4403 -5.36444 13.2035C-7.40126 9.02464 -9.38671 4.81453 -12.3244 1.00293" stroke="black" stroke-width="0.5" stroke-linecap="round" stroke-linejoin="round"/>
<path d="M215.285 1.00293C213.148 7.68847 211.129 14.4037 208.839 21.0502C206.773 27.045 203.031 32.3568 197.855 36.7138C194.123 39.8534 189.731 42.4523 185.466 45.0997C180.284 48.3174 174.901 51.296 169.655 54.4403C160.064 60.1882 151.35 66.8019 143.252 74.0094C136.442 80.0698 130.46 86.7053 124.545 93.4002C120.896 97.5306 117.168 101.652 113.006 105.399C108.679 109.294 103.481 112.414 97.3986 114.052C94.3404 114.876 90.9741 114.834 87.8171 115.443C84.3776 116.107 81.0151 115.381 77.6251 115.343C74.3515 115.307 71.0879 114.751 67.8183 114.448C66.3129 114.309 64.7957 114.269 63.2942 114.113C59.3944 113.708 55.4927 113.301 51.6027 112.827C47.5726 112.336 43.5404 111.836 39.5359 111.214C34.8004 110.48 30.2033 109.323 25.7602 107.712C20.7857 105.909 16.1608 103.675 12.3737 100.323C8.00367 96.4539 5.59742 91.8687 4.77162 86.5303C4.14537 82.4827 4.76569 78.5852 5.57963 74.6485C6.4963 70.215 7.31815 65.7673 8.2368 61.3337C9.07444 57.2971 9.7975 53.2573 9.75996 49.1379C9.74416 47.4266 10.2321 45.6982 10.0682 44.0073C9.59798 39.1674 9.19099 34.3415 7.9523 29.5438C6.09921 22.366 3.3828 15.4976 -0.26017 8.86523C-1.68851 6.26478 -3.14848 3.67683 -4.5946 1.08263" stroke="black" stroke-width="0.5" stroke-linecap="round" stroke-linejoin="round"/>
<path d="M126.469 353.996C132.441 351.804 138.332 349.433 144.405 347.464C151.608 345.128 158.943 343.076 166.265 341.014C176.739 338.067 187.317 335.377 197.73 332.285C205.504 329.975 213.086 327.198 220.757 324.635C230.102 321.513 239.051 317.57 248.66 314.991C253.542 313.681 258.481 312.703 263.556 312.075C269.274 311.367 274.997 311.433 280.724 311.508C284.813 311.561 288.897 311.889 292.982 312.123C296.315 312.314 299.644 312.561 302.977 312.756C306.873 312.986 310.769 313.22 314.668 313.394C320.135 313.638 325.603 313.878 331.074 314.03C336.981 314.194 342.891 314.239 348.798 314.372C351.252 314.427 353.702 314.68 356.154 314.663C360.994 314.63 365.836 314.521 370.674 314.347C374.325 314.216 377.98 314.036 381.609 313.702C391.015 312.834 400.389 311.698 409.51 309.518C420.704 306.841 431.277 302.97 440.426 296.693C441.518 295.942 442.332 294.895 443.275 293.986" stroke="black" stroke-width="0.5" stroke-linecap="round" stroke-linejoin="round"/>
<path d="M201.518 1.00293C200.7 2.822 199.801 4.61606 199.08 6.46169C195.803 14.8616 191.53 22.8505 184.099 29.1828C179.641 32.9835 174.532 36.2387 169.638 39.6596C164.662 43.1368 159.517 46.4421 154.588 49.9646C150.637 52.7885 146.757 55.7046 143.1 58.7973C139.222 62.076 135.451 65.4751 131.984 69.0663C127.207 74.0156 122.693 79.154 118.19 84.2893C114.229 88.8072 110.065 93.1549 104.966 96.7867C99.9477 100.359 94.2323 102.71 87.8136 103.868C83.2659 104.688 78.6964 105.212 74.0439 105.134C68.5122 105.038 62.9569 105.165 57.4549 104.758C49.2148 104.151 40.9924 103.061 33.341 100.265C26.6003 97.8025 20.8514 94.1722 17.8465 88.129C16.517 85.4535 15.5786 82.7046 15.3869 79.7854C15.3336 78.979 14.9839 78.171 15.0491 77.3803C15.3672 73.4186 15.7702 69.4633 16.1554 65.5048C16.3945 63.0434 16.5268 60.568 16.9338 58.1269C17.8426 52.6853 17.8248 47.2141 17.5956 41.76C17.4415 38.1125 16.9378 34.4353 16.0902 30.8581C14.6599 24.8102 12.4097 18.9279 9.6854 13.2176C7.7118 9.07933 5.21665 5.12239 2.95264 1.08419" stroke="black" stroke-width="0.5" stroke-linecap="round" stroke-linejoin="round"/>
<path d="M159.088 1.08224C152.948 7.07391 146.824 13.0546 141.697 19.7511C134.698 28.8918 128.893 38.57 123.271 48.3405C119.561 54.7853 116.02 61.3005 112.306 67.7438C108.904 73.6417 104.912 79.263 99.6468 84.0842C93.9729 89.2773 86.9082 92.5966 78.7609 94.2391C73.8536 95.2283 68.9206 95.7643 63.8611 95.8831C56.9565 96.0441 50.2494 95.4049 43.6786 93.5921C37.2856 91.8293 32.0425 88.8522 28.5753 83.806C27.0186 81.5416 26.0268 79.0974 25.6455 76.5673C25.126 73.1198 24.8257 69.6176 24.8928 66.1467C24.9639 62.5054 25.5843 58.872 25.9498 55.2339C25.9972 54.7556 25.9379 54.2712 25.9596 53.7899C26.0782 51.1691 26.4022 48.5421 26.2975 45.9291C25.9794 38.0324 24.9442 30.2451 22.0579 22.6454C19.213 15.1581 15.1789 8.15378 11.05 1.16507C10.9986 1.07912 10.807 1.05411 10.6825 1.00098" stroke="black" stroke-width="0.5" stroke-linecap="round" stroke-linejoin="round"/>
<path d="M443.273 329.128C440.067 329.449 436.854 329.73 433.658 330.1C429.377 330.596 425.096 331.102 420.836 331.712C416.923 332.273 413.031 332.945 409.143 333.629C404.482 334.448 399.842 335.35 395.185 336.184C388.526 337.377 381.876 338.61 375.192 339.696C370.504 340.457 365.775 341.038 361.053 341.634C357.229 342.117 353.384 342.487 349.553 342.932C345.089 343.451 340.632 344.036 336.161 344.519C333.47 344.809 330.752 344.917 328.055 345.184C324.153 345.572 320.263 346.053 316.36 346.447C314.671 346.617 312.968 346.686 311.269 346.775C308.943 346.897 306.618 346.997 304.291 347.099C299.324 347.316 294.362 347.649 289.393 347.707C284.618 347.761 279.839 347.533 275.062 347.419C270.977 347.321 266.887 347.077 262.806 347.135C258.151 347.2 253.499 347.478 248.852 347.757C244.634 348.008 240.42 348.332 236.218 348.721C232.374 349.076 228.551 349.593 224.713 349.979C222.018 350.249 219.303 350.381 216.607 350.642C213.772 350.917 210.953 351.303 208.118 351.585C205.545 351.842 202.959 351.986 200.389 352.246C197.681 352.522 194.988 352.922 192.277 353.187C189.079 353.503 185.867 353.733 182.662 354" stroke="black" stroke-width="0.5" stroke-linecap="round" stroke-linejoin="round"/>
<path d="M88.5642 1.00293C88.1869 3.8378 87.8096 6.67267 87.4362 9.50753C87.4145 9.66537 87.4362 9.8279 87.4322 9.98887C87.3078 14.1068 86.9403 18.2341 87.126 22.341C87.3018 26.2026 88.0269 30.0486 88.5741 33.8946C89.0246 37.0561 89.4315 40.2285 90.1032 43.3572C91.174 48.3533 91.9583 53.3792 91.5395 58.4426C90.6663 68.9647 85.8518 77.56 74.2176 82.489C71.1554 83.7861 67.8384 84.5003 64.4286 84.9394C59.0629 85.6301 53.8454 85.3098 48.7741 83.6345C42.1598 81.4482 38.422 77.2568 36.8692 71.4464C35.9052 67.838 35.5496 64.1998 35.7886 60.532C36.0434 56.622 36.7092 52.726 36.8376 48.8159C36.9641 44.9715 36.7468 41.1099 36.4761 37.267C36.3101 34.9026 35.7866 32.5553 35.3777 30.2064C34.6704 26.1323 33.2124 22.2082 31.1736 18.5169C28.1392 13.0222 24.6977 7.68847 21.4281 2.28753C21.1832 1.88277 20.9263 1.48426 20.6754 1.08419" stroke="black" stroke-width="0.5" stroke-linecap="round" stroke-linejoin="round"/>
<path d="M-65.6905 353.997C-65.9434 348.016 -63.0334 343.1 -58.7305 338.582C-53.4498 333.037 -46.64 329.224 -39.2731 326.109C-28.9981 321.763 -18.1442 318.696 -7.02963 316.341C-3.98131 315.695 -0.757164 315.661 2.38401 315.326C12.4693 314.254 21.5491 317 30.2752 320.815C35.631 323.157 40.7379 325.878 44.8155 329.768C47.8836 332.697 49.7031 335.93 49.8137 340.035C49.952 345.202 47.4035 349.482 44.8155 353.836" stroke="black" stroke-width="0.5" stroke-linecap="round" stroke-linejoin="round"/>
<path d="M328.808 1.00293C328.937 7.05398 326.317 12.3518 322.368 17.1917C317.245 23.4709 311.077 28.8437 302.772 32.1099C300.226 33.1116 297.537 33.6664 294.686 33.9727C290.192 34.4556 286.073 33.843 282.242 31.9489C276.578 29.15 272.905 24.9696 271.108 19.614C269.851 15.8711 269.689 12.0908 270.284 8.21668C270.635 5.93347 271.181 3.74872 272.242 1.64835C272.362 1.40925 272.609 1.21703 272.799 1.00293" stroke="black" stroke-width="0.5" stroke-linecap="round" stroke-linejoin="round"/>
<path d="M20.1072 353.996C23.3768 350.558 24.6826 346.748 22.9184 342.449C21.7114 339.508 18.9337 337.607 16.1146 335.904C12.4874 333.713 8.34064 332.569 3.90151 331.953C0.0570368 331.419 -3.78152 331.181 -7.61019 331.414C-17.3202 332.002 -26.6409 333.824 -34.9621 338.426C-37.8543 340.025 -40.3278 341.935 -42.3428 344.351C-44.8242 347.325 -45.4959 350.503 -44.5733 353.998" stroke="black" stroke-width="0.5" stroke-linecap="round" stroke-linejoin="round"/>
<path d="M59.3364 1.00254C58.3941 2.01834 57.3569 2.98257 56.5291 4.06245C55.2015 5.79556 53.2141 6.82074 51.0192 7.16455C49.5553 7.39428 47.8148 6.90513 46.343 6.41754C43.5654 5.49863 41.1631 4.01556 38.9563 2.29808C38.2945 1.78393 37.4628 1.42918 36.7081 1.00098" stroke="black" stroke-width="0.5" stroke-linecap="round" stroke-linejoin="round"/>
<path d="M-114.724 332.336C-120.982 331.156 -124.015 327.023 -126.779 322.702C-130.428 316.999 -133.02 310.914 -135.248 304.73C-137.757 297.769 -140.104 290.763 -141.505 283.559C-142.234 279.811 -143.168 276.087 -143.723 272.323C-144.397 267.741 -144.885 263.134 -145.237 258.527C-145.535 254.632 -145.851 250.703 -145.578 246.82C-145.075 239.651 -143.798 232.58 -140.778 225.786C-138.237 220.075 -134.817 214.836 -130.611 209.882C-125.335 203.665 -119.465 197.916 -113.005 192.601C-109.275 189.532 -105.144 186.873 -100.587 184.709C-95.3375 182.216 -89.6577 181.377 -83.804 181.888C-78.2862 182.37 -73.0154 183.87 -67.9559 185.84C-60.9683 188.563 -54.5734 192.171 -47.9354 195.422C-43.2829 197.7 -38.6423 200.055 -33.2687 201.121C-27.1741 202.331 -21.6879 201.337 -16.6778 198.339C-11.4642 195.219 -7.28787 191.154 -3.08384 187.127C-0.707214 184.848 1.87684 182.801 4.7928 180.98C9.23588 178.205 11.9997 180.502 13.5209 183.431C15.2278 186.714 15.856 190.197 16.5732 193.696C17.5471 198.45 17.6084 203.247 17.1856 207.977C16.342 217.408 12.379 225.615 2.97132 231.436C-3.09371 235.188 -9.46099 238.675 -14.2083 243.766C-17.3021 247.085 -19.813 250.714 -21.5476 254.681C-25.1372 262.894 -28.3634 271.23 -32.2039 279.358C-35.4201 286.166 -40.2425 292.106 -46.9891 296.911C-55.5098 302.981 -65.2257 307.499 -74.3548 312.778C-80.2816 316.205 -86.0088 319.886 -91.9256 323.327C-96.1711 325.796 -100.531 328.128 -104.937 330.384C-107.851 331.875 -111.085 332.582 -114.536 332.335" stroke="black" stroke-width="0.5" stroke-linecap="round" stroke-linejoin="round"/>
<path d="M58.7659 308.911C56.9425 308.482 55.0479 308.204 53.3113 307.598C48.406 305.888 43.9432 303.492 40.1362 300.372C37.1412 297.913 35.0847 294.835 33.8914 291.417C32.874 288.498 35.3573 285.258 38.9627 284.513C43.2556 283.625 47.4399 284.294 51.3812 285.553C55.609 286.905 59.4455 288.984 62.5413 291.9C65.8089 294.979 67.8003 298.581 68.5549 302.655C69.1298 305.759 65.9511 308.806 62.162 308.906C61.0951 308.934 60.0244 308.911 58.9556 308.911" stroke="black" stroke-width="0.5" stroke-linecap="round" stroke-linejoin="round"/>
<path d="M210.761 193.705C210.133 193.599 209.508 193.454 208.874 193.391C205.482 193.057 202.086 192.75 198.692 192.421C195.486 192.11 192.256 191.9 189.081 191.433C183.968 190.68 178.873 189.82 173.808 188.865C170.874 188.312 168.517 186.826 166.846 184.708C165.362 182.828 165.157 180.584 165.571 178.473C166.188 175.333 167.006 172.186 168.197 169.173C170.734 162.758 174.098 156.643 177.907 150.687C181.175 145.577 185.076 140.912 189.83 136.747C196.442 130.952 204.467 127.427 213.78 126.003C217.543 125.428 221.318 124.914 225.094 124.395C230.623 123.634 236.151 122.865 241.691 122.155C245.452 121.674 249.261 121.422 252.995 120.825C256.885 120.202 260.788 120.103 264.692 120.25C270.631 120.472 275.601 122.307 278.027 127.3C278.824 128.939 279.221 130.797 279.345 132.577C279.556 135.562 279.689 138.589 279.345 141.556C278.509 148.771 278.654 155.996 278.667 163.222C278.671 165.414 279.124 167.62 278.972 169.798C278.762 172.834 278.723 175.954 277.124 178.779C274.768 182.942 270.647 185.527 265.81 187.26C259.765 189.425 253.372 190.672 246.959 191.749C243.295 192.364 239.541 192.589 235.843 193.077C227.571 194.168 219.248 193.535 210.949 193.708" stroke="black" stroke-width="0.5" stroke-linecap="round" stroke-linejoin="round"/>
<path d="M126.658 255.962C119.416 254.352 114.433 250.048 109.708 245.516C105.136 241.131 101.64 236.197 99.8694 230.453C98.0262 224.467 97.8899 218.638 102.165 213.295C105.318 209.354 109.994 207.15 115.153 205.575C120.17 204.043 125.376 203.735 130.615 204.009C134.898 204.231 138.119 207.123 139.055 210.404C139.575 212.22 139.745 214.134 139.826 216.011C139.948 218.896 139.907 221.787 139.845 224.675C139.772 228.205 139.703 231.74 139.454 235.264C139.199 238.854 138.933 242.461 138.275 246.005C137.866 248.199 137.077 250.465 135.813 252.394C133.944 255.246 130.758 256.445 126.846 255.965" stroke="black" stroke-width="0.5" stroke-linecap="round" stroke-linejoin="round"/>
<path d="M125.523 297.358C124.267 297.144 123.014 296.898 121.75 296.722C115.936 295.912 111.147 293.493 106.832 290.157C100.731 285.437 95.7174 279.914 90.4328 274.584C85.721 269.831 80.7603 265.252 76.1493 260.431C70.6632 254.693 66.9471 248.137 65.2343 240.87C64.5171 237.826 64.2682 234.683 64.0825 231.571C63.8138 227.032 63.5649 222.474 63.7229 217.936C63.9422 211.659 64.7463 205.387 67.4864 199.499C70.6473 192.702 75.9656 187.403 83.6506 183.907C90.17 180.942 97.2347 179.248 104.212 177.342C110.621 175.59 116.961 173.686 122.876 170.914C129.84 167.649 135.838 163.433 140.832 158.112C145.885 152.728 149.923 146.847 153.626 140.762C156.793 135.558 159.837 130.288 163.29 125.222C166.522 120.482 170.11 115.922 174.523 111.857C178.818 107.901 183.392 104.285 188.661 101.247C195.178 97.4902 202.31 95.0117 209.829 93.3161C213.124 92.5722 216.589 92.3175 219.999 92.0018C224.45 91.5892 228.923 91.3345 233.386 91.0172C236.466 90.7984 239.559 90.6844 242.624 90.3531C247.853 89.7889 253.074 89.1591 258.276 88.4308C264.639 87.5416 271.009 86.6493 277.317 85.5257C283.876 84.3567 290.504 83.916 297.12 84.3426C306.281 84.9318 313.628 89.1622 316.002 97.5918C317.048 101.302 317.419 105.073 317.048 108.822C316.566 113.709 315.643 118.566 314.841 123.426C314.141 127.658 313.452 131.895 312.559 136.099C311.7 140.143 311.194 144.214 311.502 148.296C312.036 155.394 314.165 162.075 320.159 167.371C323.996 170.761 328.804 172.645 334.265 173.539C337.479 174.066 340.681 174.28 343.89 174.093C348.805 173.807 353.689 173.114 358.604 172.892C363.201 172.685 367.893 172.556 372.172 174.461C377.338 176.762 380.181 180.317 380.926 185.354C381.781 191.139 379.912 196.307 376.24 200.874C371.319 206.994 364.367 210.716 355.599 212.062C350.36 212.867 345.15 212.601 339.935 212.581C336.539 212.567 333.147 211.996 329.751 211.676C325.225 211.248 320.702 210.797 316.17 210.407C314.989 210.305 313.782 210.363 312.589 210.396C305.109 210.601 297.622 210.715 290.15 211.071C285.486 211.293 280.825 211.774 276.199 212.345C270.207 213.084 264.234 213.957 258.282 214.9C249.216 216.334 240.176 217.878 231.124 219.376C224.65 220.446 218.124 221.332 211.716 222.64C206.103 223.786 200.459 224.823 195.423 227.643C190.792 230.237 188.427 233.837 187.44 238.16C186.458 242.459 187.157 246.802 187.641 251.154C188.046 254.802 188.317 258.482 187.862 262.227C187.05 268.918 183.516 274.204 178.162 278.926C171.534 284.774 163.587 288.822 154.951 292.083C149.588 294.109 144.072 295.776 138.329 296.636C134.2 297.253 129.923 297.142 125.711 297.356" stroke="black" stroke-width="0.5" stroke-linecap="round" stroke-linejoin="round"/>
<path d="M129.669 284.201C128.413 283.934 127.135 283.721 125.902 283.388C121.016 282.069 116.787 279.814 113.073 276.823C105.354 270.61 98.4395 263.774 91.7917 256.746C88.2731 253.027 85.1517 249.048 82.7316 244.722C80.1693 240.14 78.4901 235.339 77.5615 230.296C76.7535 225.907 76.6409 221.509 76.9293 217.135C77.6129 206.817 82.4886 198.48 93.4531 193.212C99.0756 190.511 105.139 188.761 111.19 186.972C120.698 184.16 130.007 181.061 137.995 175.607C141.367 173.305 144.324 170.716 147.015 167.873C152.902 161.653 157.343 154.669 161.721 147.655C165.708 141.267 169.371 134.733 174.15 128.712C179.312 122.204 185.426 116.467 193.072 112.088C198.712 108.858 204.929 106.494 211.705 105.479C216.02 104.834 220.364 104.312 224.717 103.879C228.095 103.541 231.503 103.427 234.897 103.212C239.925 102.893 244.958 102.618 249.982 102.235C254.767 101.871 259.566 101.543 264.309 100.927C270.273 100.155 276.257 100.227 282.23 100.368C288.37 100.511 293.751 102.48 297.432 106.786C299.144 108.788 300.438 111.16 300.523 113.801C300.64 117.385 301.069 120.984 300.816 124.547C300.553 128.255 299.603 131.928 299.026 135.624C298.694 137.754 298.447 139.898 298.271 142.04C297.969 145.729 297.56 149.42 297.552 153.111C297.542 157.527 298.421 161.897 299.998 166.096C301.885 171.12 304.04 176.076 306.205 181.021C307.189 183.269 308.084 185.485 308.09 187.928C308.094 189.574 307.426 190.904 306.18 192.102C302.985 195.178 298.666 196.608 294.285 197.849C288.139 199.589 281.827 200.791 275.441 201.741C269.455 202.632 263.505 203.703 257.521 204.598C252.697 205.32 247.851 205.939 243.002 206.528C238.17 207.116 233.334 207.697 228.48 208.118C224.474 208.464 220.439 208.632 216.413 208.771C211.514 208.941 206.596 208.858 201.707 209.143C195.468 209.505 189.241 209.905 183.208 211.632C176.544 213.54 171.575 217.03 168.361 222.278C166.836 224.766 165.805 227.454 165.506 230.285C165.22 233.011 164.687 235.752 164.825 238.465C164.987 241.686 165.767 244.885 166.247 248.096C166.534 250.019 166.82 251.942 166.992 253.872C167.19 256.113 167.338 258.364 167.369 260.611C167.435 265.231 165.576 269.275 162.106 272.805C158.888 276.081 155.186 278.827 150.609 280.677C146.926 282.165 143.218 283.587 139.099 283.857C136.027 284.059 132.941 284.09 129.861 284.196" stroke="black" stroke-width="0.5" stroke-linecap="round" stroke-linejoin="round"/>
</g>
<g opacity="0.2">
<path d="M349.174 597.997C349.535 590.352 347.404 583.126 343.863 576.187C341.378 571.316 338.452 566.607 336.028 561.716C334.357 558.343 332.873 554.846 331.937 551.284C331.275 548.764 331.644 546.029 333.152 543.608C335.062 540.542 337.135 537.546 338.956 534.444C340.242 532.256 340.783 529.895 340.926 527.399C341.267 521.354 339.545 515.631 337.672 509.907C336.082 505.043 334.402 500.199 332.986 495.3C331.34 489.606 329.829 483.879 328.468 478.131C327.626 474.583 327.071 470.981 326.573 467.384C326.168 464.458 325.771 461.498 325.848 458.563C325.976 453.764 327.385 449.185 331.109 445.435C333.414 443.114 336.7 442 340.118 441.231C344.146 440.324 348.137 440.57 352.194 441.201C357.195 441.979 362.232 442.604 367.278 443.125C370.143 443.42 373.072 443.591 375.943 443.428C380.107 443.194 383.823 441.745 386.87 439.294C392.135 435.061 394.877 429.713 396.358 423.751C397.289 420.008 397.287 416.242 396.989 412.516C396.503 406.459 394.142 400.75 390.588 395.537C386.682 389.808 381.441 384.994 374.813 381.386C370.18 378.865 365.125 377.268 359.729 376.407C353.666 375.44 347.534 375.672 341.439 375.829C337.154 375.938 332.893 376.657 328.612 377.04C325.54 377.313 322.456 377.52 319.372 377.684C314.66 377.934 309.899 377.848 305.243 378.41C300.408 378.993 295.687 378.123 290.896 378.246C286.7 378.353 282.452 377.834 278.27 377.341C271.492 376.541 264.757 375.552 258.066 374.243C252.011 373.056 246.048 371.664 240.179 369.976C232.79 367.852 225.465 365.566 219.06 361.64C215.247 359.302 212.23 356.31 210.818 352.487C209.283 348.336 208.159 344.07 207.001 339.824C205.116 332.912 202.056 326.45 196.766 320.918C193.071 317.056 188.678 313.773 183.988 310.772C177.93 306.896 171.312 303.811 164.518 301.058C158.562 298.643 152.445 296.49 146.084 294.866C140.865 293.533 135.633 292.383 130.242 291.636C125.333 290.956 120.409 290.825 115.528 291.12C108.627 291.539 102.448 293.661 97.3979 297.931C92.4017 302.155 88.654 307.192 84.369 311.883C81.4195 315.113 78.223 318.194 74.9534 321.194C70.208 325.548 65.1387 329.652 60.504 334.086C56.2842 338.122 53.7673 343.006 52.7657 348.336C51.7305 353.855 51.8944 359.446 51.9853 365.017C52.0268 367.585 52.2006 370.153 52.3528 372.719C52.5839 376.624 52.7499 380.534 53.1311 384.43C53.5026 388.237 53.9135 392.055 54.6543 395.818C55.9167 402.219 58.1511 408.402 62.5744 413.77C66.7844 418.88 72.4859 422.512 79.3095 424.878C86.6982 427.441 94.5057 428.774 102.12 430.682C113.971 433.654 124.892 438.113 133.241 446.213C137.287 450.139 140.711 454.435 143.636 459.035C148.858 467.245 154.004 475.498 159.54 483.552C162.019 487.157 165.087 490.546 168.383 493.655C174.738 499.653 181.799 504.993 190.183 508.966C196.515 511.966 203.253 514.061 210.204 515.628C213.941 516.472 217.855 516.756 221.69 517.286C225.585 517.825 229.467 518.488 233.385 518.861C239.331 519.429 245.159 520.429 250.92 521.773C257.09 523.212 263.038 525.136 268.424 528.079C271.119 529.551 273.691 531.287 275.939 533.222C278.037 535.028 279.317 537.379 278.999 540.07C278.756 542.137 277.666 543.969 276.362 545.68C273.896 548.915 271.411 552.144 268.819 555.307C264.323 560.794 261.284 566.853 259.473 573.299C258.119 578.114 257.86 583.112 258.354 588.041C258.69 591.387 259.783 594.678 260.537 597.994" stroke="black" stroke-width="0.5" stroke-linecap="round" stroke-linejoin="round"/>
<path d="M60.8411 245.003C62.789 247.356 64.9048 249.624 66.6493 252.082C69.6739 256.345 72.4377 260.743 75.3695 265.055C77.8804 268.747 80.0694 272.764 84.8207 274.792C87.4087 275.897 90.2634 276.68 93.1003 277.199C97.1957 277.947 101.396 278.26 105.529 278.873C111.637 279.777 117.714 280.846 123.827 281.731C131.901 282.898 139.704 284.894 147.383 287.232C153.227 289.01 159.025 290.928 164.725 293.017C169.782 294.871 174.71 296.988 179.635 299.089C189.779 303.416 199.057 308.82 206.963 315.782C212.864 320.98 217.904 326.723 221.74 333.234C224.261 337.509 227.064 341.682 230.03 345.748C234.054 351.262 239.692 355.392 246.401 358.435C254.353 362.042 262.83 364.391 271.667 365.817C275.93 366.505 280.196 367.235 284.494 367.712C288.112 368.113 291.776 368.241 295.427 368.376C300.076 368.548 304.732 368.73 309.381 368.677C313.972 368.624 318.563 368.338 323.147 368.054C327.05 367.812 330.938 367.386 334.84 367.119C338.732 366.852 342.634 366.686 346.53 366.461C347.978 366.377 349.434 366.091 350.864 366.172C357.421 366.544 363.978 366.83 370.3 368.685C378.799 371.178 385.798 375.421 391.816 381.045C396.603 385.519 400.293 390.561 403.266 395.999C405.696 400.444 407.401 405.079 408.452 409.938C409.495 414.76 409.369 419.602 408.994 424.381C408.658 428.644 407.233 432.86 406.089 437.06C404.677 442.248 402.334 447.171 399.293 451.811C396.33 456.33 392.865 460.554 386.871 462.551C385.251 463.092 383.509 463.533 381.788 463.659C377.394 463.98 373.077 463.363 368.775 462.6C364.737 461.884 360.708 460.95 356.524 461.143C350.941 461.403 346.919 463.486 345.392 468.673C344.027 473.31 345.066 477.804 346.326 482.316C348.74 490.953 354.223 498.172 360.685 504.928C365.013 509.453 368.287 514.457 370.231 520.033C370.851 521.812 370.813 523.761 371.035 525.636C371.199 527.024 371.479 528.425 371.386 529.805C371.058 534.609 370.604 539.39 369.199 544.097C367.631 549.352 366.289 554.66 365.057 559.981C364.521 562.286 364.478 564.677 364.264 567.034C364.095 568.903 363.885 570.778 363.905 572.649C363.942 576.179 364.11 579.709 364.264 583.238C364.345 585.112 364.667 586.987 364.596 588.853C364.486 591.746 364.14 594.631 363.857 597.517C363.84 597.689 363.502 597.839 363.314 598" stroke="black" stroke-width="0.5" stroke-linecap="round" stroke-linejoin="round"/>
<path d="M443.18 412.353C443.021 411.284 442.903 410.208 442.701 409.144C442.028 405.612 441.611 402.021 440.578 398.566C438.181 390.558 435.331 382.647 432.96 374.633C431.524 369.778 430.605 364.81 429.518 359.882C428.222 354.005 427.183 348.082 425.692 342.243C423.643 334.223 420.695 326.375 414.707 319.833C409.838 314.514 403.838 310.204 396.175 307.645C391.52 306.092 386.812 304.828 381.976 303.941C378.655 303.334 375.2 303.262 371.808 302.921C361.521 301.885 351.193 302.358 340.88 302.305C335.726 302.279 330.571 302.485 325.417 302.607C321.646 302.696 317.872 302.788 314.103 302.932C309.261 303.116 304.421 303.332 299.583 303.573C295.934 303.754 292.293 304.041 288.644 304.198C282.737 304.451 276.83 304.749 270.917 304.818C265.14 304.885 259.453 303.998 253.962 302.56C246.23 300.536 239.011 297.514 232.039 293.985C225.905 290.88 219.609 287.97 213.186 285.323C204.304 281.659 195.298 278.2 186.226 274.89C180.18 272.683 173.932 270.878 167.766 268.912C157.839 265.747 147.858 262.697 137.99 259.402C132.733 257.647 127.594 255.602 122.527 253.472C117.406 251.318 112.479 248.848 107.975 245.816C107.436 245.453 106.73 245.267 106.102 245" stroke="black" stroke-width="0.5" stroke-linecap="round" stroke-linejoin="round"/>
<path d="M90.6378 245.003C93.4668 246.982 96.1793 249.098 99.1506 250.907C103.572 253.599 108.053 256.249 112.727 258.604C121.846 263.199 131.854 266.104 141.734 269.25C153.084 272.863 164.416 276.52 175.667 280.342C181.119 282.196 186.331 284.554 191.722 286.543C202.912 290.667 213.159 296.165 223.201 301.969C229.071 305.362 234.932 308.767 240.734 312.243C248.2 316.717 256.444 319.694 265.269 321.496C268.148 322.084 271.158 322.262 274.122 322.481C278.136 322.776 282.17 322.887 286.187 323.154C290.215 323.422 294.261 323.628 298.249 324.142C304.512 324.95 310.634 326.261 316.557 328.255C322.871 330.381 329.25 332.403 335.977 333.381C338.705 333.778 341.499 333.895 344.269 334.041C349.168 334.298 354.091 334.328 358.973 334.73C366.761 335.369 374.293 336.875 381.238 340.137C385.934 342.342 390.282 344.918 394.265 347.99C398.241 351.058 402.009 354.288 405.14 357.984C407.9 361.241 410.528 364.605 412.857 368.095C415.354 371.833 417.535 375.732 419.677 379.63C423.859 387.239 427.33 395.097 429.805 403.225C430.767 406.386 430.995 409.724 431.354 412.998C431.647 415.659 431.892 418.357 431.704 421.015C431.445 424.664 430.86 428.305 430.23 431.926C429.458 436.379 428.557 440.817 427.595 445.244C426.953 448.204 426.056 451.122 425.366 454.074C424.556 457.54 423.843 461.025 423.09 464.501C421.707 470.886 419.876 477.176 417.223 483.267C414.878 488.649 412.375 493.981 409.884 499.316C406.513 506.535 403.556 513.869 401.614 521.465C399.761 528.721 398.036 536.002 396.329 543.286C395.367 547.39 394.537 551.518 393.68 555.64C392.901 559.38 392.086 563.116 391.438 566.875C390.932 569.8 390.685 572.757 390.274 575.695C389.669 580.03 389.097 584.369 388.37 588.69C387.872 591.648 387.145 594.577 386.491 597.515C386.449 597.699 386.133 597.838 385.944 597.999" stroke="black" stroke-width="0.5" stroke-linecap="round" stroke-linejoin="round"/>
<path d="M75.1732 245.004C77.3107 246.982 79.4661 248.947 81.5819 250.944C87.5758 256.601 94.2671 261.507 102.128 265.24C108.252 268.15 114.795 270.174 121.382 272.102C128.579 274.21 135.887 276.055 143.046 278.25C151.656 280.89 160.25 283.593 168.679 286.616C175.979 289.233 183.154 292.15 190.174 295.274C198.226 298.857 205.844 303.064 212.841 308.051C221.977 314.56 230.055 321.955 238.141 329.369C244.745 335.424 251.616 341.311 260.182 345.417C265.828 348.123 271.763 350.341 278.081 351.691C282.842 352.709 287.619 353.679 292.414 354.571C295.278 355.104 298.192 355.442 301.083 355.875C309.708 357.167 318.42 356.909 327.105 356.79C331.888 356.725 336.661 356.194 341.438 355.876C341.813 355.851 342.193 355.873 342.57 355.873C347.536 355.873 352.507 355.736 357.466 355.9C370.177 356.32 381.617 359.675 391.424 366.77C398.621 371.979 404.18 378.275 408.744 385.242C412.215 390.542 415.083 396.064 417.091 401.914C418.359 405.607 419.499 409.3 419.687 413.155C419.86 416.737 420.186 420.33 420.003 423.902C419.843 427.017 419.163 430.124 418.541 433.207C417.76 437.072 416.968 440.946 415.888 444.756C414.208 450.669 412.32 456.539 410.445 462.41C408.548 468.352 405.717 473.987 402.331 479.413C399.706 483.62 396.835 487.718 394.269 491.95C391.896 495.862 390.482 500.067 389.909 504.452C389.365 508.62 388.891 512.794 388.391 516.967C388.008 520.175 387.753 523.399 387.232 526.59C386.459 531.31 385.545 536.014 384.608 540.712C383.528 546.12 382.305 551.51 381.242 556.921C380.404 561.187 379.628 565.466 378.99 569.757C378.474 573.219 378.237 576.71 377.822 580.182C377.354 584.089 376.862 587.996 376.307 591.894C376.018 593.908 375.568 595.907 375.191 597.912" stroke="black" stroke-width="0.5" stroke-linecap="round" stroke-linejoin="round"/>
<path d="M-82.2863 245.004C-81.5316 247.464 -81.1128 250.045 -79.957 252.36C-77.211 257.848 -73.329 262.768 -68.3189 266.975C-62.9078 271.518 -56.9257 275.456 -50.2186 278.522C-42.4665 282.065 -34.5898 285.412 -26.8594 288.988C-18.637 292.79 -10.6912 296.964 -3.64237 302.276C2.96595 307.255 9.02108 312.692 14.8115 318.343C17.8045 321.264 20.9299 324.141 23.4329 327.356C27.5639 332.661 30.4087 338.565 33.1074 344.488C35.6282 350.022 37.8725 355.634 39.1586 361.491C39.8994 364.864 40.7924 368.214 41.385 371.604C42.037 375.33 42.4479 379.085 42.9201 382.833C43.2164 385.181 43.3744 387.544 43.6965 389.89C44.1449 393.158 44.7712 396.408 45.1722 399.681C45.7451 404.372 47.0174 408.904 48.9555 413.321C53.8509 424.473 62.7588 431.921 76.5029 434.795C83.3147 436.218 90.2154 437.326 97.047 438.684C106.67 440.599 115.639 443.707 123.273 449.249C129.296 453.623 133.761 459.016 137.578 464.831C140.925 469.929 144.048 475.133 147.42 480.217C152.294 487.565 157.749 494.555 164.521 500.795C170.612 506.409 177.327 511.347 184.948 515.335C192.238 519.15 200.012 522.115 208.308 524.038C216.929 526.037 225.588 527.942 234.127 530.18C240.225 531.779 245.917 534.173 249.599 538.958C251.354 541.24 252.292 543.765 252.65 546.492C253.266 551.195 251.98 555.717 251.144 560.296C250.504 563.808 249.983 567.344 249.643 570.886C249.248 574.994 248.783 579.129 248.937 583.236C249.121 588.184 249.783 593.135 251.494 597.92" stroke="black" stroke-width="0.5" stroke-linecap="round" stroke-linejoin="round"/>
<path d="M-100.765 245.164C-97.5351 251.015 -93.8052 256.625 -89.048 261.673C-83.1153 267.971 -76.4833 273.727 -68.6719 278.334C-62.2413 282.127 -55.5757 285.641 -48.8864 289.098C-42.2623 292.521 -35.6007 295.92 -29.907 300.402C-24.1443 304.937 -20.12 310.566 -16.9966 316.709C-14.0056 322.592 -11.4235 328.655 -7.23133 334.053C-3.74641 338.538 0.641361 342.3 5.59414 345.603C10.4758 348.859 15.5214 351.967 19.5318 356.044C25.504 362.116 29.226 369.103 30.8559 376.893C31.6382 380.633 32.4383 384.371 33.0922 388.128C33.3965 389.87 33.3253 391.658 33.511 393.418C33.8508 396.629 34.2479 399.838 34.6352 403.046C34.8742 405.026 35.0224 407.02 35.4115 408.98C36.0734 412.309 36.7233 415.651 37.6894 418.922C39.1434 423.848 41.3995 428.487 44.7798 432.75C49.774 439.048 56.4732 443.153 65.1895 444.728C68.7198 445.366 72.3391 445.677 75.9327 446.032C79.8838 446.421 83.8646 446.602 87.8079 447.029C95.2716 447.835 102.662 448.892 109.506 451.809C116.084 454.615 121.493 458.509 125.939 463.513C130.872 469.067 134.801 475.112 138.754 481.172C143.715 488.777 149.098 496.189 155.744 502.814C164.318 511.362 174.19 518.708 185.696 524.327C192.597 527.696 199.94 530.285 207.368 532.691C214.271 534.924 221.31 536.841 227.568 540.362C233.971 543.963 237.391 548.964 238.722 555.307C239.886 560.856 239.694 566.423 239.831 572.001C239.939 576.442 240.056 580.902 240.627 585.312C241.178 589.568 242.316 593.77 243.195 597.994" stroke="black" stroke-width="0.5" stroke-linecap="round" stroke-linejoin="round"/>
<path d="M234.143 597.997C233.578 595.483 232.987 592.973 232.454 590.455C232.094 588.75 231.794 587.036 231.508 585.321C230.988 582.221 230.5 579.117 229.992 576.017C229.495 572.968 229.076 569.906 228.467 566.873C226.604 557.578 221.632 549.948 211.683 545.236C205.051 542.097 198.276 539.174 191.516 536.236C185.182 533.484 179.18 530.307 173.4 526.783C168.333 523.694 163.615 520.273 159.095 516.644C150.438 509.693 143.227 501.737 136.84 493.223C133.434 488.683 130.111 484.098 126.64 479.594C122.197 473.83 117.515 468.262 110.458 464.475C105.956 462.058 101.147 460.601 95.9276 459.801C91.8994 459.184 87.8731 459.06 83.8509 459.259C79.6863 459.464 75.5534 460.095 71.4008 460.483C68.5164 460.751 65.6024 460.822 62.73 461.155C55.6455 461.977 48.5275 461.766 41.4174 461.761C39.0921 461.759 36.7669 461.537 34.4397 461.461C25.4883 461.164 17.3766 463.264 10.1163 467.718C3.54161 471.752 -2.96399 475.862 -8.93617 480.549C-13.5136 484.141 -18.3024 487.558 -22.6487 491.344C-27.3407 495.432 -31.6435 499.846 -36.0747 504.148C-36.8728 504.923 -37.5603 505.806 -38.1491 506.711C-40.3123 510.036 -40.3202 511.568 -36.452 514.39C-34.6523 515.705 -32.7162 516.889 -30.8058 518.091C-22.4373 523.356 -15.5603 529.666 -11.1705 537.821C-9.03691 541.786 -7.57302 545.85 -6.78674 550.176C-6.06762 554.143 -5.91353 558.104 -6.1664 562.056C-6.52201 567.634 -7.99381 573.082 -9.89827 578.42C-12.3243 585.215 -15.8961 591.612 -19.6833 597.92" stroke="black" stroke-width="0.5" stroke-linecap="round" stroke-linejoin="round"/>
<path d="M225.468 597.997C224.903 595.697 224.311 593.403 223.777 591.096C223.06 587.998 222.45 584.882 221.685 581.793C219.476 572.871 217.347 563.916 209.632 556.916C206.153 553.761 202.058 551.306 197.755 549.048C189.056 544.483 180.137 540.176 171.794 535.174C162.576 529.646 154.138 523.267 146.597 516.039C139.722 509.45 133.675 502.362 127.768 495.156C123.463 489.903 119.245 484.582 113.834 480.059C108.638 475.715 102.516 472.777 95.3368 471.788C91.9546 471.322 88.4796 471.098 84.967 471.667C80.9309 472.321 76.794 472.5 72.7263 473.027C69.5002 473.444 66.3234 474.146 63.1013 474.587C60.0391 475.005 56.9434 475.241 53.8654 475.573C50.9732 475.884 48.075 476.171 45.1926 476.545C42.2925 476.92 39.4082 477.393 36.5159 477.817C29.71 478.812 23.0484 480.264 16.7245 482.647C10.2229 485.098 4.36728 488.428 -0.611181 492.758C-4.89621 496.486 -7.80822 500.924 -9.11211 506.059C-10.0268 509.66 -9.35312 513.2 -8.14605 516.641C-6.05391 522.606 -3.82941 528.537 -1.55749 534.453C-0.0876602 538.28 0.76185 542.197 1.49084 546.165C2.29688 550.548 2.37984 554.944 2.12104 559.325C1.91755 562.763 1.20239 566.196 0.4655 569.592C-0.747506 575.174 -2.81199 580.56 -5.36444 585.797C-7.40126 589.975 -9.38671 594.185 -12.3244 597.997" stroke="black" stroke-width="0.5" stroke-linecap="round" stroke-linejoin="round"/>
<path d="M215.285 597.997C213.148 591.312 211.129 584.596 208.839 577.95C206.773 571.955 203.031 566.643 197.855 562.286C194.123 559.147 189.731 556.548 185.466 553.9C180.284 550.683 174.901 547.704 169.655 544.56C160.064 538.812 151.35 532.198 143.252 524.991C136.442 518.93 130.46 512.295 124.545 505.6C120.896 501.469 117.168 497.348 113.006 493.601C108.679 489.706 103.481 486.586 97.3986 484.948C94.3404 484.124 90.9741 484.166 87.8171 483.557C84.3776 482.893 81.0151 483.619 77.6251 483.657C74.3515 483.693 71.0879 484.249 67.8183 484.552C66.3129 484.691 64.7957 484.731 63.2942 484.887C59.3944 485.292 55.4927 485.699 51.6027 486.173C47.5726 486.664 43.5404 487.164 39.5359 487.786C34.8004 488.52 30.2033 489.677 25.7602 491.288C20.7857 493.091 16.1608 495.325 12.3737 498.677C8.00367 502.546 5.59742 507.131 4.77162 512.47C4.14537 516.517 4.76569 520.415 5.57963 524.351C6.4963 528.785 7.31815 533.233 8.2368 537.666C9.07444 541.703 9.7975 545.743 9.75996 549.862C9.74416 551.573 10.2321 553.302 10.0682 554.993C9.59798 559.833 9.19099 564.658 7.9523 569.456C6.09921 576.634 3.3828 583.502 -0.26017 590.135C-1.68851 592.735 -3.14848 595.323 -4.5946 597.917" stroke="black" stroke-width="0.5" stroke-linecap="round" stroke-linejoin="round"/>
<path d="M126.469 245.004C132.441 247.196 138.332 249.567 144.405 251.536C151.608 253.872 158.943 255.924 166.265 257.986C176.739 260.933 187.317 263.623 197.73 266.715C205.504 269.025 213.086 271.802 220.757 274.365C230.102 277.487 239.051 281.43 248.66 284.009C253.542 285.319 258.481 286.297 263.556 286.925C269.274 287.633 274.997 287.567 280.724 287.492C284.813 287.439 288.897 287.111 292.982 286.877C296.315 286.686 299.644 286.439 302.977 286.244C306.873 286.014 310.769 285.78 314.668 285.606C320.135 285.362 325.603 285.122 331.074 284.97C336.981 284.806 342.891 284.761 348.798 284.628C351.252 284.573 353.702 284.32 356.154 284.337C360.994 284.37 365.836 284.479 370.674 284.653C374.325 284.784 377.98 284.964 381.609 285.298C391.015 286.166 400.389 287.302 409.51 289.482C420.704 292.159 431.277 296.03 440.426 302.307C441.518 303.058 442.332 304.105 443.275 305.014" stroke="black" stroke-width="0.5" stroke-linecap="round" stroke-linejoin="round"/>
<path d="M201.518 597.997C200.7 596.178 199.801 594.384 199.08 592.538C195.803 584.138 191.53 576.15 184.099 569.817C179.641 566.017 174.532 562.761 169.638 559.34C164.662 555.863 159.517 552.558 154.588 549.035C150.637 546.212 146.757 543.295 143.1 540.203C139.222 536.924 135.451 533.525 131.984 529.934C127.207 524.984 122.693 519.846 118.19 514.711C114.229 510.193 110.065 505.845 104.966 502.213C99.9477 498.641 94.2323 496.29 87.8136 495.132C83.2659 494.312 78.6964 493.788 74.0439 493.866C68.5122 493.962 62.9569 493.835 57.4549 494.242C49.2148 494.849 40.9924 495.939 33.341 498.735C26.6003 501.197 20.8514 504.828 17.8465 510.871C16.517 513.546 15.5786 516.295 15.3869 519.215C15.3336 520.021 14.9839 520.829 15.0491 521.62C15.3672 525.581 15.7702 529.537 16.1554 533.495C16.3945 535.957 16.5268 538.432 16.9338 540.873C17.8426 546.315 17.8248 551.786 17.5956 557.24C17.4415 560.888 16.9378 564.565 16.0902 568.142C14.6599 574.19 12.4097 580.072 9.6854 585.782C7.7118 589.921 5.21665 593.878 2.95264 597.916" stroke="black" stroke-width="0.5" stroke-linecap="round" stroke-linejoin="round"/>
<path d="M159.088 597.918C152.948 591.926 146.824 585.945 141.697 579.249C134.698 570.108 128.893 560.43 123.271 550.66C119.561 544.215 116.02 537.699 112.306 531.256C108.904 525.358 104.912 519.737 99.6468 514.916C93.9729 509.723 86.9082 506.403 78.7609 504.761C73.8536 503.772 68.9206 503.236 63.8611 503.117C56.9565 502.956 50.2494 503.595 43.6786 505.408C37.2856 507.171 32.0425 510.148 28.5753 515.194C27.0186 517.458 26.0268 519.903 25.6455 522.433C25.126 525.88 24.8257 529.382 24.8928 532.853C24.9639 536.495 25.5843 540.128 25.9498 543.766C25.9972 544.244 25.9379 544.729 25.9596 545.21C26.0782 547.831 26.4022 550.458 26.2975 553.071C25.9794 560.968 24.9442 568.755 22.0579 576.355C19.213 583.842 15.1789 590.846 11.05 597.835C10.9986 597.921 10.807 597.946 10.6825 597.999" stroke="black" stroke-width="0.5" stroke-linecap="round" stroke-linejoin="round"/>
<path d="M443.273 269.872C440.067 269.551 436.854 269.27 433.658 268.9C429.377 268.404 425.096 267.898 420.836 267.288C416.923 266.727 413.031 266.055 409.143 265.371C404.482 264.552 399.842 263.65 395.185 262.816C388.526 261.623 381.876 260.39 375.192 259.304C370.504 258.543 365.775 257.962 361.053 257.366C357.229 256.883 353.384 256.513 349.553 256.068C345.089 255.549 340.632 254.964 336.161 254.481C333.47 254.191 330.752 254.083 328.055 253.816C324.153 253.428 320.263 252.947 316.36 252.553C314.671 252.383 312.968 252.314 311.269 252.225C308.943 252.103 306.618 252.003 304.291 251.901C299.324 251.684 294.362 251.351 289.393 251.293C284.618 251.239 279.839 251.467 275.062 251.581C270.977 251.679 266.887 251.923 262.806 251.865C258.151 251.8 253.499 251.522 248.852 251.243C244.634 250.992 240.42 250.668 236.218 250.279C232.374 249.924 228.551 249.407 224.713 249.021C222.018 248.751 219.303 248.619 216.607 248.358C213.772 248.083 210.953 247.697 208.118 247.415C205.545 247.158 202.959 247.014 200.389 246.754C197.681 246.478 194.988 246.078 192.277 245.813C189.079 245.497 185.867 245.267 182.662 245" stroke="black" stroke-width="0.5" stroke-linecap="round" stroke-linejoin="round"/>
<path d="M88.5642 597.997C88.1869 595.162 87.8096 592.327 87.4362 589.492C87.4145 589.335 87.4362 589.172 87.4322 589.011C87.3078 584.893 86.9403 580.766 87.126 576.659C87.3018 572.797 88.0269 568.951 88.5741 565.105C89.0246 561.944 89.4315 558.772 90.1032 555.643C91.174 550.647 91.9583 545.621 91.5395 540.557C90.6663 530.035 85.8518 521.44 74.2176 516.511C71.1554 515.214 67.8384 514.5 64.4286 514.061C59.0629 513.37 53.8454 513.69 48.7741 515.366C42.1598 517.552 38.422 521.743 36.8692 527.554C35.9052 531.162 35.5496 534.8 35.7886 538.468C36.0434 542.378 36.7092 546.274 36.8376 550.184C36.9641 554.028 36.7468 557.89 36.4761 561.733C36.3101 564.097 35.7866 566.445 35.3777 568.794C34.6704 572.868 33.2124 576.792 31.1736 580.483C28.1392 585.978 24.6977 591.312 21.4281 596.712C21.1832 597.117 20.9263 597.516 20.6754 597.916" stroke="black" stroke-width="0.5" stroke-linecap="round" stroke-linejoin="round"/>
<path d="M-65.6905 245.003C-65.9434 250.984 -63.0334 255.9 -58.7305 260.418C-53.4498 265.963 -46.64 269.776 -39.2731 272.891C-28.9981 277.237 -18.1442 280.304 -7.02963 282.659C-3.98131 283.305 -0.757164 283.339 2.38401 283.674C12.4693 284.746 21.5491 282 30.2752 278.185C35.631 275.843 40.7379 273.122 44.8155 269.232C47.8836 266.303 49.7031 263.07 49.8137 258.965C49.952 253.798 47.4035 249.518 44.8155 245.164" stroke="black" stroke-width="0.5" stroke-linecap="round" stroke-linejoin="round"/>
<path d="M328.808 597.997C328.937 591.946 326.317 586.648 322.368 581.808C317.245 575.529 311.077 570.156 302.772 566.89C300.226 565.888 297.537 565.334 294.686 565.027C290.192 564.544 286.073 565.157 282.242 567.051C276.578 569.85 272.905 574.03 271.108 579.386C269.851 583.129 269.689 586.909 270.284 590.783C270.635 593.067 271.181 595.251 272.242 597.352C272.362 597.591 272.609 597.783 272.799 597.997" stroke="black" stroke-width="0.5" stroke-linecap="round" stroke-linejoin="round"/>
<path d="M20.1072 245.004C23.3768 248.442 24.6826 252.252 22.9184 256.551C21.7114 259.492 18.9337 261.393 16.1146 263.096C12.4874 265.287 8.34064 266.431 3.90151 267.047C0.0570368 267.581 -3.78152 267.819 -7.61019 267.586C-17.3202 266.998 -26.6409 265.176 -34.9621 260.574C-37.8543 258.975 -40.3278 257.065 -42.3428 254.649C-44.8242 251.675 -45.4959 248.497 -44.5733 245.002" stroke="black" stroke-width="0.5" stroke-linecap="round" stroke-linejoin="round"/>
<path d="M59.3364 597.997C58.3941 596.982 57.3569 596.017 56.5291 594.938C55.2015 593.204 53.2141 592.179 51.0192 591.835C49.5553 591.606 47.8148 592.095 46.343 592.582C43.5654 593.501 41.1631 594.984 38.9563 596.702C38.2945 597.216 37.4628 597.571 36.7081 597.999" stroke="black" stroke-width="0.5" stroke-linecap="round" stroke-linejoin="round"/>
<path d="M-114.724 266.664C-120.982 267.844 -124.015 271.977 -126.779 276.298C-130.428 282.001 -133.02 288.086 -135.248 294.27C-137.757 301.231 -140.104 308.237 -141.505 315.441C-142.234 319.189 -143.168 322.913 -143.723 326.677C-144.397 331.259 -144.885 335.866 -145.237 340.473C-145.535 344.368 -145.851 348.297 -145.578 352.18C-145.075 359.349 -143.798 366.42 -140.778 373.214C-138.237 378.925 -134.817 384.164 -130.611 389.118C-125.335 395.335 -119.465 401.084 -113.005 406.399C-109.275 409.468 -105.144 412.127 -100.587 414.291C-95.3375 416.784 -89.6577 417.623 -83.804 417.112C-78.2862 416.63 -73.0154 415.13 -67.9559 413.16C-60.9683 410.437 -54.5734 406.829 -47.9354 403.578C-43.2829 401.3 -38.6423 398.945 -33.2687 397.879C-27.1741 396.669 -21.6879 397.663 -16.6778 400.661C-11.4642 403.781 -7.28787 407.846 -3.08384 411.873C-0.707214 414.152 1.87684 416.199 4.7928 418.02C9.23588 420.795 11.9997 418.498 13.5209 415.569C15.2278 412.286 15.856 408.803 16.5732 405.304C17.5471 400.55 17.6084 395.753 17.1856 391.023C16.342 381.592 12.379 373.385 2.97132 367.564C-3.09371 363.812 -9.46099 360.325 -14.2083 355.234C-17.3021 351.915 -19.813 348.286 -21.5476 344.319C-25.1372 336.106 -28.3634 327.77 -32.2039 319.642C-35.4201 312.834 -40.2425 306.894 -46.9891 302.089C-55.5098 296.019 -65.2257 291.501 -74.3548 286.222C-80.2816 282.795 -86.0088 279.114 -91.9256 275.673C-96.1711 273.204 -100.531 270.872 -104.937 268.616C-107.851 267.125 -111.085 266.418 -114.536 266.665" stroke="black" stroke-width="0.5" stroke-linecap="round" stroke-linejoin="round"/>
<path d="M58.7659 290.089C56.9425 290.518 55.0479 290.796 53.3113 291.402C48.406 293.112 43.9432 295.508 40.1362 298.628C37.1412 301.087 35.0847 304.165 33.8914 307.583C32.874 310.502 35.3573 313.742 38.9627 314.487C43.2556 315.375 47.4399 314.706 51.3812 313.447C55.609 312.095 59.4455 310.016 62.5413 307.1C65.8089 304.021 67.8003 300.419 68.5549 296.345C69.1298 293.241 65.9511 290.194 62.162 290.094C61.0951 290.066 60.0244 290.089 58.9556 290.089" stroke="black" stroke-width="0.5" stroke-linecap="round" stroke-linejoin="round"/>
<path d="M210.761 405.295C210.133 405.401 209.508 405.546 208.874 405.609C205.482 405.943 202.086 406.25 198.692 406.579C195.486 406.89 192.256 407.1 189.081 407.567C183.968 408.32 178.873 409.18 173.808 410.135C170.874 410.688 168.517 412.174 166.846 414.292C165.362 416.172 165.157 418.416 165.571 420.527C166.188 423.667 167.006 426.814 168.197 429.827C170.734 436.242 174.098 442.357 177.907 448.313C181.175 453.423 185.076 458.088 189.83 462.253C196.442 468.048 204.467 471.573 213.78 472.997C217.543 473.572 221.318 474.086 225.094 474.605C230.623 475.366 236.151 476.135 241.691 476.845C245.452 477.326 249.261 477.578 252.995 478.175C256.885 478.798 260.788 478.897 264.692 478.75C270.631 478.528 275.601 476.693 278.027 471.7C278.824 470.061 279.221 468.203 279.345 466.423C279.556 463.438 279.689 460.411 279.345 457.444C278.509 450.229 278.654 443.004 278.667 435.778C278.671 433.586 279.124 431.38 278.972 429.202C278.762 426.166 278.723 423.046 277.124 420.221C274.768 416.058 270.647 413.473 265.81 411.74C259.765 409.575 253.372 408.328 246.959 407.251C243.295 406.636 239.541 406.411 235.843 405.923C227.571 404.832 219.248 405.465 210.949 405.292" stroke="black" stroke-width="0.5" stroke-linecap="round" stroke-linejoin="round"/>
<path d="M126.658 343.038C119.416 344.648 114.433 348.952 109.708 353.484C105.136 357.869 101.64 362.803 99.8694 368.547C98.0262 374.533 97.8899 380.362 102.165 385.705C105.318 389.646 109.994 391.85 115.153 393.425C120.17 394.957 125.376 395.265 130.615 394.991C134.898 394.769 138.119 391.877 139.055 388.596C139.575 386.78 139.745 384.866 139.826 382.989C139.948 380.104 139.907 377.213 139.845 374.325C139.772 370.795 139.703 367.26 139.454 363.736C139.199 360.146 138.933 356.539 138.275 352.995C137.866 350.801 137.077 348.535 135.813 346.606C133.944 343.754 130.758 342.555 126.846 343.035" stroke="black" stroke-width="0.5" stroke-linecap="round" stroke-linejoin="round"/>
<path d="M125.523 301.642C124.267 301.856 123.014 302.102 121.75 302.278C115.936 303.088 111.147 305.507 106.832 308.843C100.731 313.563 95.7174 319.086 90.4328 324.416C85.721 329.169 80.7603 333.748 76.1493 338.569C70.6632 344.307 66.9471 350.863 65.2343 358.13C64.5171 361.174 64.2682 364.317 64.0825 367.429C63.8138 371.968 63.5649 376.526 63.7229 381.064C63.9422 387.341 64.7463 393.613 67.4864 399.501C70.6473 406.298 75.9656 411.597 83.6506 415.093C90.17 418.058 97.2347 419.752 104.212 421.658C110.621 423.41 116.961 425.314 122.876 428.086C129.84 431.351 135.838 435.567 140.832 440.888C145.885 446.272 149.923 452.153 153.626 458.238C156.793 463.442 159.837 468.712 163.29 473.778C166.522 478.518 170.11 483.078 174.523 487.143C178.818 491.099 183.392 494.715 188.661 497.753C195.178 501.51 202.31 503.988 209.829 505.684C213.124 506.428 216.589 506.683 219.999 506.998C224.45 507.411 228.923 507.666 233.386 507.983C236.466 508.202 239.559 508.316 242.624 508.647C247.853 509.211 253.074 509.841 258.276 510.569C264.639 511.458 271.009 512.351 277.317 513.474C283.876 514.643 290.504 515.084 297.12 514.657C306.281 514.068 313.628 509.838 316.002 501.408C317.048 497.698 317.419 493.927 317.048 490.178C316.566 485.291 315.643 480.434 314.841 475.574C314.141 471.342 313.452 467.105 312.559 462.901C311.7 458.857 311.194 454.786 311.502 450.704C312.036 443.606 314.165 436.925 320.159 431.629C323.996 428.239 328.804 426.355 334.265 425.461C337.479 424.934 340.681 424.72 343.89 424.907C348.805 425.193 353.689 425.886 358.604 426.108C363.201 426.315 367.893 426.444 372.172 424.539C377.338 422.238 380.181 418.683 380.926 413.646C381.781 407.861 379.912 402.693 376.24 398.126C371.319 392.006 364.367 388.284 355.599 386.938C350.36 386.133 345.15 386.399 339.935 386.419C336.539 386.433 333.147 387.004 329.751 387.324C325.225 387.752 320.702 388.203 316.17 388.593C314.989 388.695 313.782 388.637 312.589 388.604C305.109 388.399 297.622 388.285 290.15 387.929C285.486 387.707 280.825 387.226 276.199 386.655C270.207 385.916 264.234 385.043 258.282 384.1C249.216 382.666 240.176 381.122 231.124 379.624C224.65 378.554 218.124 377.668 211.716 376.36C206.103 375.214 200.459 374.177 195.423 371.357C190.792 368.763 188.427 365.163 187.44 360.84C186.458 356.541 187.157 352.198 187.641 347.846C188.046 344.198 188.317 340.518 187.862 336.773C187.05 330.082 183.516 324.796 178.162 320.074C171.534 314.226 163.587 310.178 154.951 306.917C149.588 304.891 144.072 303.224 138.329 302.364C134.2 301.747 129.923 301.858 125.711 301.644" stroke="black" stroke-width="0.5" stroke-linecap="round" stroke-linejoin="round"/>
<path d="M129.669 314.799C128.413 315.066 127.135 315.279 125.902 315.612C121.016 316.931 116.787 319.186 113.073 322.177C105.354 328.39 98.4395 335.226 91.7917 342.254C88.2731 345.973 85.1517 349.952 82.7316 354.278C80.1693 358.86 78.4901 363.661 77.5615 368.704C76.7535 373.093 76.6409 377.491 76.9293 381.865C77.6129 392.183 82.4886 400.52 93.4531 405.788C99.0756 408.489 105.139 410.239 111.19 412.028C120.698 414.84 130.007 417.939 137.995 423.393C141.367 425.695 144.324 428.284 147.015 431.127C152.902 437.347 157.343 444.331 161.721 451.345C165.708 457.733 169.371 464.267 174.15 470.288C179.312 476.796 185.426 482.533 193.072 486.912C198.712 490.142 204.929 492.506 211.705 493.521C216.02 494.166 220.364 494.688 224.717 495.121C228.095 495.459 231.503 495.573 234.897 495.788C239.925 496.107 244.958 496.382 249.982 496.765C254.767 497.129 259.566 497.457 264.309 498.073C270.273 498.845 276.257 498.773 282.23 498.632C288.37 498.489 293.751 496.52 297.432 492.214C299.144 490.212 300.438 487.84 300.523 485.199C300.64 481.615 301.069 478.016 300.816 474.453C300.553 470.745 299.603 467.072 299.026 463.376C298.694 461.246 298.447 459.102 298.271 456.96C297.969 453.271 297.56 449.58 297.552 445.889C297.542 441.473 298.421 437.103 299.998 432.904C301.885 427.88 304.04 422.924 306.205 417.979C307.189 415.731 308.084 413.515 308.09 411.072C308.094 409.426 307.426 408.096 306.18 406.898C302.985 403.822 298.666 402.392 294.285 401.151C288.139 399.411 281.827 398.209 275.441 397.259C269.455 396.368 263.505 395.297 257.521 394.402C252.697 393.68 247.851 393.061 243.002 392.472C238.17 391.884 233.334 391.303 228.48 390.882C224.474 390.536 220.439 390.368 216.413 390.229C211.514 390.059 206.596 390.142 201.707 389.857C195.468 389.495 189.241 389.095 183.208 387.368C176.544 385.46 171.575 381.97 168.361 376.722C166.836 374.234 165.805 371.546 165.506 368.715C165.22 365.989 164.687 363.248 164.825 360.535C164.987 357.314 165.767 354.115 166.247 350.904C166.534 348.981 166.82 347.058 166.992 345.128C167.19 342.887 167.338 340.636 167.369 338.389C167.435 333.769 165.576 329.725 162.106 326.195C158.888 322.919 155.186 320.173 150.609 318.323C146.926 316.835 143.218 315.413 139.099 315.143C136.027 314.941 132.941 314.91 129.861 314.804" stroke="black" stroke-width="0.5" stroke-linecap="round" stroke-linejoin="round"/>
</g>
</svg>
